<?xml version="1.0" encoding="UTF-8"?>
<svg xmlns="http://www.w3.org/2000/svg" version="1.0" width="156.000000pt" height="39.000000pt" viewBox="0 0 156.000000 39.000000" preserveAspectRatio="xMidYMid meet" style="background: transparent;">

<g transform="translate(0.000000,39.000000) scale(0.100000,-0.100000)" fill="#000000" stroke="none">
<path d="M535 345 c-22 -8 -41 -15 -42 -15 -2 0 -16 -19 -33 -42 -88 -121 21 -283 166 -247 52 13 100 59 114 107 14 52 13 70 -10 116 -36 74 -119 108 -195 81z m116 -48 c87 -59 76 -177 -21 -217 -85 -35 -185 52 -163 141 10 39 35 71 68 85 44 19 78 17 116 -9z"/>
<path d="M545 301 c-73 -30 -90 -127 -33 -188 64 -68 188 -13 188 83 0 75 -86 133 -155 105z m65 -28 c0 -25 1 -25 19 -9 17 15 19 15 32 0 11 -14 10 -19 -11 -35 l-25 -19 33 6 c30 6 32 5 32 -21 0 -25 -2 -26 -32 -20 l-33 6 25 -20 c24 -19 24 -21 8 -38 -17 -16 -19 -16 -33 2 -14 19 -14 19 -15 -8 0 -24 -4 -28 -22 -25 -19 2 -22 8 -20 33 2 28 2 29 -12 11 -9 -10 -13 -23 -9 -28 3 -6 -4 -5 -15 1 -29 15 -32 33 -8 53 21 18 21 18 -6 12 -25 -6 -28 -3 -28 21 0 24 3 27 28 21 l27 -6 -22 18 c-11 10 -18 23 -15 28 11 14 47 40 39 28 -3 -6 0 -20 9 -30 14 -18 15 -18 13 6 -2 38 -1 40 21 40 15 0 20 -7 20 -27z"/>
<path d="M564 205 c-8 -19 3 -35 26 -35 19 0 34 25 24 41 -8 14 -44 10 -50 -6z"/>
<path d="M955 354 c-6 -1 -21 -5 -35 -8 -34 -7 -86 -55 -99 -90 -27 -69 3 -158 66 -197 36 -22 101 -27 143 -11 111 44 130 204 33 276 -25 18 -87 35 -108 30z m74 -48 c39 -21 64 -64 64 -111 0 -51 -16 -81 -56 -105 -61 -38 -133 -21 -174 39 -72 107 50 236 166 177z"/>
<path d="M924 296 c-43 -19 -64 -53 -64 -104 0 -35 6 -49 29 -72 52 -52 113 -52 163 2 48 51 31 140 -32 173 -35 18 -55 18 -96 1z m36 -28 c0 -19 -2 -20 -10 -8 -13 19 -13 30 0 30 6 0 10 -10 10 -22z m33 16 c9 -9 -4 -35 -14 -28 -5 3 -9 12 -9 20 0 14 12 19 23 8z m-53 -38 c0 -5 -7 -3 -15 4 -8 7 -12 17 -9 22 7 10 24 -9 24 -26z m79 8 c-14 -18 -24 -11 -15 11 3 9 11 13 16 10 8 -5 7 -11 -1 -21z m-99 -19 c14 -16 10 -18 -14 -9 -9 3 -16 10 -16 15 0 14 16 11 30 -6z m130 6 c0 -5 -9 -11 -21 -14 -16 -4 -18 -3 -8 9 13 16 29 19 29 5z m-140 -31 c12 -8 9 -10 -13 -10 -16 0 -26 4 -22 10 8 12 16 12 35 0z m87 -6 c4 -10 -1 -22 -12 -30 -29 -21 -48 3 -36 44 3 10 43 -1 48 -14z m63 6 c0 -5 -9 -10 -21 -10 -11 0 -17 5 -14 10 3 6 13 10 21 10 8 0 14 -4 14 -10z m-153 -31 c-14 -8 -22 -8 -30 0 -8 8 -3 11 19 11 25 -1 27 -2 11 -11z m153 1 c0 -5 -6 -10 -14 -10 -8 0 -18 5 -21 10 -3 6 3 10 14 10 12 0 21 -4 21 -10z m-148 -32 c-6 -6 -15 -8 -19 -4 -4 4 -1 11 7 16 19 12 27 3 12 -12z m138 1 c0 -14 -16 -11 -29 5 -10 12 -8 13 8 9 12 -3 21 -9 21 -14z m-116 -23 c-3 -9 -10 -13 -16 -10 -5 3 -4 12 3 20 15 18 22 13 13 -10z m90 -7 c-8 -13 -24 -1 -24 18 0 13 3 13 15 3 8 -7 12 -16 9 -21z m-68 -16 c-11 -11 -17 4 -9 23 7 18 8 18 11 1 2 -10 1 -21 -2 -24z m41 0 c-11 -10 -26 8 -20 23 5 15 7 14 15 -1 6 -9 7 -19 5 -22z"/>
<path d="M960 194 c0 -8 5 -12 10 -9 6 4 8 11 5 16 -9 14 -15 11 -15 -7z"/>
<path d="M1309 350 c-106 -32 -153 -160 -90 -249 88 -124 291 -59 291 93 0 101 -108 185 -201 156z m113 -79 c28 -25 33 -36 33 -76 0 -40 -5 -51 -33 -76 -45 -40 -99 -40 -144 0 -28 25 -33 36 -33 76 0 40 5 51 33 76 24 22 42 29 72 29 30 0 48 -7 72 -29z"/>
<path d="M1283 266 c-23 -20 -28 -32 -28 -71 0 -39 5 -51 28 -71 57 -49 149 -20 163 50 7 38 -15 89 -45 106 -35 18 -88 12 -118 -14z m123 -10 c58 -49 20 -146 -56 -146 -45 0 -84 40 -84 85 0 74 84 110 140 61z"/>
<path d="M1370 211 c0 -5 -6 -8 -12 -7 -7 0 -14 -3 -15 -9 -2 -5 3 -10 10 -10 6 0 15 -4 18 -9 4 -4 7 4 7 18 0 14 -2 26 -4 26 -2 0 -4 -4 -4 -9z"/>
<path d="M128 327 c-144 -77 -64 -306 99 -283 81 11 133 69 133 147 0 64 -30 114 -88 147 -31 17 -100 12 -144 -11z m150 -72 c50 -59 2 -155 -78 -155 -23 0 -77 44 -85 71 -10 30 12 82 43 102 37 24 90 15 120 -18z"/>
<path d="M154 249 c-19 -21 -19 -21 6 -18 14 2 26 12 28 22 5 23 -11 22 -34 -4z"/>
<path d="M222 258 c6 -17 36 -34 45 -24 4 4 -1 14 -11 22 -24 17 -39 18 -34 2z"/>
<path d="M132 181 c2 -14 9 -26 16 -29 17 -5 15 10 -3 34 -15 18 -15 18 -13 -5z"/>
<path d="M267 184 c-4 -4 -7 -17 -7 -28 1 -19 1 -20 11 -3 11 19 8 43 -4 31z"/>
<path d="M189 129 c-10 -6 -7 -9 14 -9 29 0 35 5 14 13 -8 3 -20 1 -28 -4z"/>
</g>
</svg>