<?xml version="1.0" encoding="UTF-8"?>
<svg xmlns="http://www.w3.org/2000/svg" xmlns:xlink="http://www.w3.org/1999/xlink" width="150px" height="26px" viewBox="0 0 147 26" version="1.1">
<g id="surface1">
<path style=" stroke:none;fill-rule:nonzero;fill:rgb(92.54902%,11.764706%,18.431373%);fill-opacity:1;" d="M 0 8.917969 C 0 5.316406 0 8.917969 0 8.917969 C 0 8.917969 0 2.15625 6.632812 2.421875 C 13.277344 2.679688 13.449219 4.792969 19.300781 2.328125 C 19.746094 3.386719 19.300781 6.980469 15.808594 7.953125 C 12.929688 8.746094 10.484375 8.390625 10.484375 8.390625 C 10.042969 9.265625 9.789062 10.671875 10.484375 11.808594 C 11.878906 10.851562 14.070312 9.972656 16.074219 11.730469 L 14.191406 15.40625 C 13.144531 14.972656 11.703125 14.800781 11.007812 15.324219 C 11.183594 16.996094 11.441406 19.101562 10.398438 20.507812 C 9.347656 21.910156 7.769531 23.84375 4.1875 23.140625 C 5.070312 21.121094 5.476562 21.015625 4.453125 16.121094 C 3.265625 10.417969 5.9375 8.039062 5.9375 8.039062 C 4.28125 7.246094 0 8.917969 0 8.917969 M 19.042969 8.125 L 24.546875 6.105469 C 26.121094 6.019531 26.738281 9.003906 26.648438 11.027344 C 26.476562 14.625 26.59375 17.085938 28.265625 17.609375 L 22.628906 19.535156 C 21.488281 18.917969 20.265625 18.574219 20.351562 15.855469 C 20.441406 13.136719 20.265625 10.851562 20.265625 10.144531 C 20.265625 9.445312 19.042969 8.125 19.042969 8.125 M 38.179688 11.289062 C 38.179688 11.289062 39.484375 13.347656 39.839844 13.875 L 44.597656 11.335938 L 41.453125 6.28125 L 36.902344 8.109375 C 36.574219 6.964844 35.992188 6.0625 35.121094 6.109375 L 29.878906 8.125 C 29.878906 8.125 31.101562 9.445312 31.101562 10.152344 C 31.101562 10.851562 31.277344 13.128906 31.191406 15.855469 C 31.101562 18.578125 32.324219 18.929688 33.464844 19.539062 L 38.828125 17.613281 C 37.273438 17.113281 37.070312 14.914062 37.1875 11.660156 Z M 53.996094 15.234375 L 61.15625 11.726562 L 56.699219 6.285156 C 56.699219 6.285156 56.652344 6.285156 56.550781 6.289062 L 56.449219 6.289062 L 56.550781 6.289062 C 55.722656 6.3125 51.542969 6.53125 49.183594 7.949219 C 46.570312 9.53125 45.609375 11.378906 45.867188 13.921875 C 46.125 16.464844 49.007812 19.710938 52.945312 19.710938 C 55.210938 19.710938 56.613281 19.890625 58.449219 18.925781 L 60.804688 15.152344 C 57.835938 16.121094 55.472656 16.734375 53.996094 15.234375 M 56.613281 6.285156 L 56.601562 6.285156 Z M 56.664062 6.285156 L 56.636719 6.285156 Z M 51.941406 13.132812 C 51.328125 11.8125 51.457031 10.414062 52.769531 9.878906 L 54.34375 11.8125 Z M 139.835938 15.371094 L 147 11.859375 L 142.542969 6.414062 C 142.542969 6.414062 142.492188 6.414062 142.394531 6.417969 C 142.355469 6.417969 142.324219 6.417969 142.289062 6.425781 C 142.332031 6.417969 142.363281 6.417969 142.394531 6.417969 C 141.570312 6.445312 137.386719 6.664062 135.03125 8.085938 C 132.410156 9.660156 131.449219 11.507812 131.707031 14.054688 C 131.976562 16.597656 134.855469 19.847656 138.785156 19.847656 C 141.054688 19.847656 142.457031 20.027344 144.289062 19.054688 L 146.652344 15.285156 C 143.679688 16.246094 141.324219 16.859375 139.835938 15.371094 M 142.457031 6.414062 C 142.457031 6.414062 142.449219 6.414062 142.445312 6.417969 C 142.449219 6.414062 142.457031 6.414062 142.457031 6.414062 M 142.511719 6.414062 L 142.476562 6.414062 Z M 137.78125 13.261719 C 137.167969 11.945312 137.300781 10.542969 138.609375 10.011719 L 140.183594 11.945312 Z M 77.890625 9.96875 L 76.273438 11.550781 C 76.273438 11.550781 73.605469 10.105469 72.996094 9.660156 C 72.035156 8.964844 71.207031 9.621094 71.902344 10.238281 C 72.601562 10.851562 75.855469 12.777344 77.148438 13.65625 C 78.28125 14.4375 79.066406 15.675781 77.324219 16.902344 C 75.570312 18.136719 70.683594 20.511719 70.683594 20.511719 L 63.867188 16.378906 L 65.523438 14.714844 C 65.523438 14.714844 69.277344 16.820312 69.714844 17.167969 C 70.160156 17.519531 71.550781 16.902344 70.246094 16.121094 C 68.933594 15.320312 65.257812 13.222656 64.5625 12.605469 C 63.867188 11.988281 63.078125 10.761719 65.4375 9.441406 C 67.800781 8.125 71.121094 6.195312 71.121094 6.195312 Z M 87.757812 10.238281 L 90.953125 10.238281 L 90.953125 6.894531 L 87.757812 6.894531 L 87.757812 3.644531 L 78.765625 10.238281 L 81.597656 10.238281 L 81.597656 16.027344 C 81.597656 17.523438 82.210938 18.925781 83.785156 19.710938 L 89.507812 17.652344 C 87.585938 16.164062 87.757812 15.675781 87.757812 15.234375 Z M 107.289062 9.265625 C 105.1875 7.257812 100.824219 6.195312 100.824219 6.195312 C 100.824219 6.195312 95.042969 7.648438 93.394531 10.324219 C 91.824219 12.871094 93.222656 15.414062 94.707031 17.082031 C 96.1875 18.746094 98.726562 19.363281 101.519531 19.976562 C 101.519531 19.976562 103.707031 19.539062 106.503906 17.785156 C 108.789062 16.351562 108.949219 14.976562 108.949219 13.21875 C 108.949219 11.464844 109.207031 11.113281 107.289062 9.265625 M 102.132812 16.027344 C 97.589844 14.089844 99.90625 9.621094 99.90625 9.621094 C 99.90625 9.621094 104.40625 11.996094 102.132812 16.027344 M 116.984375 6.457031 L 111.488281 8.523438 L 113.007812 10.410156 L 113.007812 17.605469 C 113.007812 18.140625 113.316406 19.1875 114.804688 19.890625 L 120.21875 18.140625 C 118.992188 16.996094 118.820312 16.378906 118.820312 15.675781 L 118.820312 11.289062 L 120.75 10.675781 C 121.527344 11.289062 121.875 11.726562 121.875 12.601562 L 121.875 17.082031 C 121.875 17.4375 121.875 18.222656 122.578125 18.917969 C 123.277344 19.632812 123.804688 20.070312 123.804688 20.070312 L 129.214844 17.957031 C 128.605469 17.605469 127.648438 17.082031 127.648438 15.414062 C 127.648438 13.75 127.824219 10.757812 127.648438 9.96875 C 127.476562 9.179688 126.683594 6.105469 123.191406 6.898438 C 120.976562 7.402344 118.5625 8.566406 118.5625 8.566406 C 118.5625 8.566406 118.035156 7.515625 116.984375 6.457031 "/>
</g>
</svg>
