<?xml version="1.0" encoding="UTF-8"?>
<svg xmlns="http://www.w3.org/2000/svg" xmlns:xlink="http://www.w3.org/1999/xlink" width="64px" height="64px" viewBox="0 0 64 11" version="1.1">
<g id="surface1">
<path style=" stroke:none;fill-rule:nonzero;fill:rgb(92.54902%,11.764706%,18.431373%);fill-opacity:1;" d="M 0 3.773438 C 0 2.25 0 3.773438 0 3.773438 C 0 3.773438 0 0.910156 2.886719 1.023438 C 5.78125 1.132812 5.855469 2.027344 8.402344 0.984375 C 8.597656 1.433594 8.402344 2.953125 6.882812 3.363281 C 5.628906 3.699219 4.5625 3.550781 4.5625 3.550781 C 4.371094 3.921875 4.261719 4.515625 4.5625 4.996094 C 5.171875 4.589844 6.125 4.21875 7 4.960938 L 6.179688 6.519531 C 5.722656 6.335938 5.097656 6.261719 4.792969 6.484375 C 4.867188 7.191406 4.980469 8.082031 4.527344 8.675781 C 4.070312 9.269531 3.382812 10.089844 1.824219 9.792969 C 2.207031 8.9375 2.382812 8.890625 1.9375 6.820312 C 1.421875 4.40625 2.585938 3.402344 2.585938 3.402344 C 1.863281 3.066406 0 3.773438 0 3.773438 M 8.289062 3.4375 L 10.6875 2.582031 C 11.371094 2.546875 11.640625 3.808594 11.601562 4.664062 C 11.527344 6.1875 11.578125 7.230469 12.304688 7.449219 L 9.851562 8.265625 C 9.355469 8.003906 8.824219 7.859375 8.863281 6.707031 C 8.898438 5.558594 8.824219 4.589844 8.824219 4.292969 C 8.824219 3.996094 8.289062 3.4375 8.289062 3.4375 M 16.621094 4.777344 C 16.621094 4.777344 17.191406 5.648438 17.34375 5.871094 L 19.417969 4.796875 L 18.046875 2.660156 L 16.066406 3.433594 C 15.925781 2.945312 15.667969 2.566406 15.289062 2.585938 L 13.007812 3.4375 C 13.007812 3.4375 13.539062 3.996094 13.539062 4.292969 C 13.539062 4.589844 13.617188 5.554688 13.578125 6.707031 C 13.539062 7.859375 14.074219 8.007812 14.570312 8.265625 L 16.90625 7.453125 C 16.226562 7.238281 16.136719 6.308594 16.191406 4.933594 Z M 23.507812 6.445312 L 26.625 4.960938 L 24.683594 2.660156 C 24.683594 2.660156 24.664062 2.660156 24.621094 2.660156 L 24.578125 2.660156 L 24.621094 2.660156 C 24.261719 2.671875 22.441406 2.765625 21.414062 3.363281 C 20.277344 4.03125 19.855469 4.8125 19.96875 5.890625 C 20.082031 6.964844 21.335938 8.339844 23.050781 8.339844 C 24.035156 8.339844 24.648438 8.414062 25.449219 8.007812 L 26.472656 6.410156 C 25.179688 6.820312 24.152344 7.082031 23.507812 6.445312 M 24.648438 2.660156 L 24.644531 2.660156 Z M 24.671875 2.660156 L 24.65625 2.660156 Z M 22.613281 5.554688 C 22.347656 4.996094 22.402344 4.40625 22.972656 4.179688 L 23.660156 4.996094 Z M 60.878906 6.503906 L 64 5.015625 L 62.058594 2.714844 C 62.058594 2.714844 62.035156 2.714844 61.996094 2.714844 C 61.980469 2.714844 61.964844 2.714844 61.949219 2.71875 C 61.96875 2.714844 61.980469 2.714844 61.996094 2.714844 C 61.636719 2.726562 59.816406 2.820312 58.789062 3.421875 C 57.648438 4.085938 57.230469 4.871094 57.339844 5.945312 C 57.457031 7.023438 58.710938 8.398438 60.425781 8.398438 C 61.410156 8.398438 62.023438 8.472656 62.820312 8.0625 L 63.847656 6.464844 C 62.554688 6.871094 61.527344 7.132812 60.878906 6.503906 M 62.023438 2.714844 C 62.023438 2.714844 62.019531 2.714844 62.015625 2.714844 C 62.019531 2.714844 62.023438 2.714844 62.023438 2.714844 M 62.046875 2.714844 L 62.03125 2.714844 Z M 59.984375 5.609375 C 59.71875 5.054688 59.777344 4.460938 60.347656 4.234375 L 61.03125 5.054688 Z M 33.910156 4.21875 L 33.207031 4.886719 C 33.207031 4.886719 32.046875 4.277344 31.78125 4.085938 C 31.363281 3.792969 31 4.070312 31.304688 4.332031 C 31.609375 4.589844 33.023438 5.40625 33.585938 5.777344 C 34.082031 6.109375 34.421875 6.632812 33.664062 7.152344 C 32.902344 7.671875 30.773438 8.679688 30.773438 8.679688 L 27.808594 6.929688 L 28.527344 6.226562 C 28.527344 6.226562 30.160156 7.117188 30.351562 7.261719 C 30.546875 7.410156 31.152344 7.152344 30.582031 6.820312 C 30.011719 6.480469 28.410156 5.59375 28.109375 5.332031 C 27.808594 5.074219 27.464844 4.554688 28.492188 3.996094 C 29.519531 3.4375 30.964844 2.621094 30.964844 2.621094 Z M 38.207031 4.332031 L 39.597656 4.332031 L 39.597656 2.917969 L 38.207031 2.917969 L 38.207031 1.542969 L 34.292969 4.332031 L 35.527344 4.332031 L 35.527344 6.78125 C 35.527344 7.414062 35.792969 8.007812 36.476562 8.339844 L 38.96875 7.46875 C 38.132812 6.839844 38.207031 6.632812 38.207031 6.445312 Z M 46.710938 3.921875 C 45.796875 3.070312 43.894531 2.621094 43.894531 2.621094 C 43.894531 2.621094 41.378906 3.234375 40.660156 4.367188 C 39.976562 5.445312 40.585938 6.519531 41.230469 7.226562 C 41.878906 7.929688 42.984375 8.191406 44.199219 8.453125 C 44.199219 8.453125 45.152344 8.265625 46.371094 7.523438 C 47.363281 6.917969 47.433594 6.335938 47.433594 5.59375 C 47.433594 4.851562 47.546875 4.703125 46.710938 3.921875 M 44.464844 6.78125 C 42.488281 5.960938 43.496094 4.070312 43.496094 4.070312 C 43.496094 4.070312 45.457031 5.074219 44.464844 6.78125 M 50.929688 2.734375 L 48.539062 3.605469 L 49.203125 4.40625 L 49.203125 7.449219 C 49.203125 7.675781 49.335938 8.117188 49.984375 8.414062 L 52.339844 7.675781 C 51.804688 7.191406 51.730469 6.929688 51.730469 6.632812 L 51.730469 4.777344 L 52.570312 4.515625 C 52.910156 4.777344 53.0625 4.960938 53.0625 5.332031 L 53.0625 7.226562 C 53.0625 7.378906 53.0625 7.710938 53.367188 8.003906 C 53.671875 8.304688 53.902344 8.492188 53.902344 8.492188 L 56.257812 7.597656 C 55.992188 7.449219 55.574219 7.226562 55.574219 6.519531 C 55.574219 5.816406 55.652344 4.550781 55.574219 4.21875 C 55.5 3.882812 55.15625 2.582031 53.632812 2.917969 C 52.667969 3.132812 51.617188 3.625 51.617188 3.625 C 51.617188 3.625 51.390625 3.179688 50.929688 2.734375 "/>
</g>
</svg>
