<?xml version="1.0" encoding="UTF-8"?>
<svg xmlns="http://www.w3.org/2000/svg" xmlns:xlink="http://www.w3.org/1999/xlink" width="64px" height="64px" viewBox="0 0 64 64" version="1.1">
<g id="surface1">
<rect x="0" y="0" width="64" height="64" style="fill:rgb(100%,100%,100%);fill-opacity:1;stroke:none;"/>
<path style=" stroke:none;fill-rule:evenodd;fill:rgb(15.686275%,32.549021%,61.176473%);fill-opacity:1;" d="M 16.757812 22.050781 L 63.058594 22.050781 L 63.058594 41.949219 L 21.355469 41.949219 L 11.421875 31.953125 L 6.667969 31.953125 Z M 16.757812 22.050781 "/>
<path style=" stroke:none;fill-rule:evenodd;fill:rgb(81.176472%,25.098041%,21.568628%);fill-opacity:1;" d="M 15.5 41.949219 L 0.941406 41.949219 L 0.941406 31.953125 L 5.554688 31.953125 Z M 0.941406 22.050781 L 10.886719 22.050781 L 0.941406 31.8125 Z M 0.941406 22.050781 "/>
<path style=" stroke:none;fill-rule:evenodd;fill:rgb(100%,100%,100%);fill-opacity:1;" d="M 21.277344 24.875 L 22.828125 24.875 L 22.828125 27.78125 L 25.730469 24.875 L 27.773438 24.875 L 24.679688 27.78125 L 27.929688 31.921875 L 25.90625 31.921875 L 23.582031 28.847656 L 22.828125 29.566406 L 22.828125 31.921875 L 21.277344 31.921875 Z M 28.824219 24.875 L 30.421875 24.875 L 30.421875 29.207031 C 30.421875 29.695312 30.484375 30.039062 30.613281 30.273438 C 30.800781 30.667969 31.207031 30.855469 31.851562 30.855469 C 32.496094 30.855469 32.902344 30.667969 33.089844 30.273438 C 33.214844 30.039062 33.277344 29.695312 33.277344 29.207031 L 33.277344 24.875 L 34.878906 24.875 L 34.878906 29.207031 C 34.878906 29.960938 34.753906 30.539062 34.503906 30.964844 C 34.046875 31.71875 33.152344 32.109375 31.851562 32.109375 C 30.546875 32.109375 29.652344 31.71875 29.183594 30.964844 C 28.949219 30.539062 28.820312 29.960938 28.820312 29.207031 L 28.820312 24.875 Z M 41.390625 24.875 L 43.667969 24.875 L 43.667969 31.921875 L 42.191406 31.921875 L 42.191406 26.585938 C 42.191406 26.335938 42.207031 26.148438 42.207031 26.007812 L 40.777344 31.921875 L 39.242188 31.921875 L 37.828125 26.007812 L 37.828125 31.921875 L 36.371094 31.921875 L 36.371094 24.875 L 38.660156 24.875 L 40.023438 30.414062 Z M 45.109375 31.921875 L 45.109375 24.875 L 46.679688 24.875 L 46.679688 27.558594 L 49.628906 27.558594 L 49.628906 24.875 L 51.179688 24.875 L 51.179688 31.921875 L 49.628906 31.921875 L 49.628906 28.785156 L 46.679688 28.785156 L 46.679688 31.921875 Z M 58.507812 31.292969 C 57.929688 31.84375 57.113281 32.125 56.03125 32.125 C 54.945312 32.125 54.132812 31.84375 53.566406 31.292969 C 52.796875 30.621094 52.40625 29.664062 52.40625 28.390625 C 52.40625 27.105469 52.796875 26.132812 53.566406 25.488281 C 54.132812 24.941406 54.945312 24.671875 56.03125 24.65625 C 57.113281 24.65625 57.929688 24.941406 58.507812 25.488281 C 59.261719 26.132812 59.636719 27.105469 59.636719 28.390625 C 59.636719 29.664062 59.261719 30.621094 58.507812 31.292969 Z M 58.507812 31.292969 "/>
<path style=" stroke:none;fill-rule:evenodd;fill:rgb(15.686275%,32.549021%,61.176473%);fill-opacity:1;" d="M 57.519531 30.226562 C 57.878906 29.804688 58.070312 29.191406 58.070312 28.390625 C 58.070312 27.605469 57.878906 26.996094 57.519531 26.554688 C 57.144531 26.132812 56.65625 25.910156 56.03125 25.910156 C 55.402344 25.910156 54.914062 26.132812 54.539062 26.554688 C 54.164062 26.980469 53.972656 27.589844 53.972656 28.390625 C 53.972656 29.191406 54.164062 29.804688 54.539062 30.226562 C 54.914062 30.652344 55.402344 30.871094 56.03125 30.871094 C 56.65625 30.871094 57.144531 30.652344 57.519531 30.226562 Z M 57.519531 30.226562 "/>
<path style=" stroke:none;fill-rule:evenodd;fill:rgb(100%,100%,100%);fill-opacity:1;" d="M 45.359375 34.699219 L 45.078125 35.421875 L 43.617188 35.421875 L 42.253906 38.746094 L 41.234375 38.746094 L 42.597656 35.421875 L 41.140625 35.421875 L 41.4375 34.699219 Z M 45.21875 38.746094 L 44.214844 38.746094 L 45.878906 34.699219 L 46.882812 34.699219 Z M 50.960938 34.792969 C 51.117188 34.871094 51.246094 34.964844 51.324219 35.089844 C 51.386719 35.183594 51.417969 35.296875 51.433594 35.421875 C 51.433594 35.546875 51.417969 35.6875 51.339844 35.84375 C 51.261719 36.046875 51.132812 36.234375 50.929688 36.425781 C 50.742188 36.613281 50.507812 36.738281 50.207031 36.816406 C 50.394531 36.894531 50.507812 36.988281 50.539062 37.128906 C 50.585938 37.273438 50.539062 37.492188 50.429688 37.773438 L 50.316406 38.039062 C 50.238281 38.230469 50.191406 38.355469 50.175781 38.417969 C 50.160156 38.527344 50.191406 38.605469 50.269531 38.652344 L 50.222656 38.746094 L 49.109375 38.746094 C 49.125 38.667969 49.125 38.589844 49.140625 38.527344 C 49.15625 38.417969 49.1875 38.308594 49.234375 38.183594 L 49.390625 37.804688 C 49.488281 37.554688 49.503906 37.382812 49.421875 37.289062 C 49.359375 37.207031 49.171875 37.160156 48.875 37.160156 L 47.824219 37.160156 L 47.179688 38.746094 L 46.191406 38.746094 L 47.855469 34.699219 L 50.222656 34.699219 C 50.570312 34.699219 50.804688 34.730469 50.960938 34.792969 Z M 50.960938 34.792969 "/>
<path style=" stroke:none;fill-rule:evenodd;fill:rgb(15.686275%,32.549021%,61.176473%);fill-opacity:1;" d="M 48.546875 35.40625 L 48.105469 36.488281 L 49.25 36.488281 C 49.488281 36.488281 49.660156 36.472656 49.785156 36.425781 C 50.019531 36.347656 50.191406 36.191406 50.285156 35.96875 C 50.382812 35.71875 50.351562 35.5625 50.191406 35.46875 C 50.097656 35.421875 49.941406 35.40625 49.722656 35.40625 Z M 48.546875 35.40625 "/>
<path style=" stroke:none;fill-rule:evenodd;fill:rgb(100%,100%,100%);fill-opacity:1;" d="M 55.984375 35.421875 L 53.410156 35.421875 L 53.0625 36.269531 L 55.417969 36.269531 L 55.136719 36.972656 L 52.765625 36.972656 L 52.34375 38.023438 L 55.027344 38.023438 L 54.726562 38.746094 L 51.054688 38.746094 L 52.71875 34.699219 L 56.28125 34.699219 Z M 56.765625 37.507812 C 56.71875 37.679688 56.71875 37.820312 56.78125 37.914062 C 56.878906 38.089844 57.113281 38.167969 57.519531 38.167969 C 57.757812 38.167969 57.960938 38.152344 58.132812 38.105469 C 58.445312 38.007812 58.652344 37.851562 58.746094 37.632812 C 58.808594 37.492188 58.777344 37.398438 58.664062 37.320312 C 58.554688 37.242188 58.351562 37.179688 58.085938 37.128906 L 57.597656 37.035156 C 57.144531 36.941406 56.832031 36.832031 56.6875 36.722656 C 56.4375 36.535156 56.390625 36.238281 56.5625 35.84375 C 56.703125 35.484375 56.988281 35.1875 57.394531 34.933594 C 57.820312 34.699219 58.335938 34.574219 58.949219 34.574219 C 59.449219 34.574219 59.84375 34.683594 60.109375 34.917969 C 60.375 35.140625 60.421875 35.46875 60.265625 35.90625 L 59.292969 35.90625 C 59.386719 35.65625 59.324219 35.484375 59.136719 35.390625 C 58.996094 35.3125 58.824219 35.28125 58.585938 35.28125 C 58.320312 35.28125 58.101562 35.328125 57.898438 35.421875 C 57.710938 35.5 57.582031 35.625 57.519531 35.78125 C 57.457031 35.925781 57.488281 36.035156 57.613281 36.113281 C 57.691406 36.160156 57.882812 36.207031 58.179688 36.269531 L 58.949219 36.441406 C 59.277344 36.519531 59.511719 36.613281 59.652344 36.738281 C 59.859375 36.925781 59.890625 37.210938 59.75 37.570312 C 59.589844 37.933594 59.292969 38.246094 58.855469 38.496094 C 58.414062 38.730469 57.898438 38.859375 57.269531 38.859375 C 56.640625 38.859375 56.203125 38.730469 55.9375 38.496094 C 55.667969 38.261719 55.621094 37.917969 55.792969 37.507812 Z M 56.765625 37.507812 "/>
</g>
</svg>
