<?xml version="1.0" encoding="UTF-8"?>
<svg xmlns="http://www.w3.org/2000/svg" xmlns:xlink="http://www.w3.org/1999/xlink" width="150px" height="150px" viewBox="0 0 150 150" version="1.1">
<g id="surface1">
<rect x="0" y="0" width="150" height="150" style="fill:rgb(100%,100%,100%);fill-opacity:1;stroke:none;"/>
<path style=" stroke:none;fill-rule:evenodd;fill:rgb(15.686275%,32.549021%,61.176473%);fill-opacity:1;" d="M 39.273438 51.6875 L 147.792969 51.6875 L 147.792969 98.3125 L 50.050781 98.3125 L 26.769531 74.890625 L 15.628906 74.890625 Z M 39.273438 51.6875 "/>
<path style=" stroke:none;fill-rule:evenodd;fill:rgb(81.176472%,25.098041%,21.568628%);fill-opacity:1;" d="M 36.332031 98.3125 L 2.207031 98.3125 L 2.207031 74.890625 L 13.015625 74.890625 Z M 2.207031 51.6875 L 25.519531 51.6875 L 2.207031 74.558594 Z M 2.207031 51.6875 "/>
<path style=" stroke:none;fill-rule:evenodd;fill:rgb(100%,100%,100%);fill-opacity:1;" d="M 49.867188 58.304688 L 53.503906 58.304688 L 53.503906 65.109375 L 60.308594 58.304688 L 65.089844 58.304688 L 57.84375 65.109375 L 65.457031 74.816406 L 60.714844 74.816406 L 55.269531 67.609375 L 53.503906 69.300781 L 53.503906 74.816406 L 49.867188 74.816406 Z M 67.554688 58.304688 L 71.304688 58.304688 L 71.304688 68.453125 C 71.304688 69.59375 71.453125 70.402344 71.746094 70.953125 C 72.1875 71.875 73.144531 72.316406 74.652344 72.316406 C 76.160156 72.316406 77.113281 71.875 77.554688 70.953125 C 77.851562 70.402344 77.996094 69.59375 77.996094 68.453125 L 77.996094 58.304688 L 81.746094 58.304688 L 81.746094 68.453125 C 81.746094 70.21875 81.453125 71.578125 80.863281 72.574219 C 79.796875 74.339844 77.703125 75.257812 74.648438 75.257812 C 71.597656 75.257812 69.5 74.339844 68.398438 72.574219 C 67.847656 71.578125 67.550781 70.21875 67.550781 68.453125 L 67.550781 58.304688 Z M 97.007812 58.304688 L 102.34375 58.304688 L 102.34375 74.816406 L 98.886719 74.816406 L 98.886719 62.3125 C 98.886719 61.726562 98.921875 61.285156 98.921875 60.953125 L 95.574219 74.816406 L 91.972656 74.816406 L 88.660156 60.953125 L 88.660156 74.816406 L 85.242188 74.816406 L 85.242188 58.304688 L 90.609375 58.304688 L 93.808594 71.285156 Z M 105.726562 74.816406 L 105.726562 58.304688 L 109.402344 58.304688 L 109.402344 64.59375 L 116.316406 64.59375 L 116.316406 58.304688 L 119.957031 58.304688 L 119.957031 74.816406 L 116.316406 74.816406 L 116.316406 67.460938 L 109.402344 67.460938 L 109.402344 74.816406 Z M 137.128906 73.34375 C 135.769531 74.632812 133.855469 75.292969 131.320312 75.292969 C 128.78125 75.292969 126.871094 74.632812 125.546875 73.34375 C 123.742188 71.765625 122.824219 69.519531 122.824219 66.542969 C 122.824219 63.527344 123.742188 61.246094 125.546875 59.738281 C 126.871094 58.453125 128.78125 57.828125 131.320312 57.789062 C 133.855469 57.789062 135.769531 58.453125 137.128906 59.738281 C 138.894531 61.246094 139.777344 63.527344 139.777344 66.542969 C 139.777344 69.519531 138.894531 71.765625 137.128906 73.34375 Z M 137.128906 73.34375 "/>
<path style=" stroke:none;fill-rule:evenodd;fill:rgb(15.686275%,32.549021%,61.176473%);fill-opacity:1;" d="M 134.8125 70.84375 C 135.65625 69.851562 136.101562 68.417969 136.101562 66.542969 C 136.101562 64.703125 135.65625 63.269531 134.8125 62.238281 C 133.929688 61.246094 132.789062 60.730469 131.320312 60.730469 C 129.847656 60.730469 128.707031 61.246094 127.828125 62.238281 C 126.941406 63.230469 126.503906 64.667969 126.503906 66.542969 C 126.503906 68.417969 126.941406 69.851562 127.828125 70.84375 C 128.707031 71.835938 129.851562 72.351562 131.320312 72.351562 C 132.789062 72.351562 133.929688 71.835938 134.8125 70.84375 Z M 134.8125 70.84375 "/>
<path style=" stroke:none;fill-rule:evenodd;fill:rgb(100%,100%,100%);fill-opacity:1;" d="M 106.3125 81.324219 L 105.652344 83.015625 L 102.230469 83.015625 L 99.03125 90.8125 L 96.640625 90.8125 L 99.839844 83.015625 L 96.421875 83.015625 L 97.121094 81.324219 Z M 105.980469 90.8125 L 103.628906 90.8125 L 107.527344 81.324219 L 109.878906 81.324219 Z M 119.441406 81.546875 C 119.808594 81.730469 120.105469 81.949219 120.289062 82.242188 C 120.433594 82.464844 120.507812 82.722656 120.542969 83.015625 C 120.542969 83.3125 120.507812 83.640625 120.324219 84.007812 C 120.140625 84.488281 119.84375 84.929688 119.367188 85.371094 C 118.925781 85.8125 118.375 86.105469 117.675781 86.289062 C 118.117188 86.472656 118.375 86.695312 118.449219 87.023438 C 118.558594 87.355469 118.449219 87.871094 118.191406 88.53125 L 117.933594 89.160156 C 117.75 89.597656 117.640625 89.894531 117.601562 90.039062 C 117.5625 90.296875 117.640625 90.480469 117.824219 90.589844 L 117.710938 90.8125 L 115.101562 90.8125 C 115.140625 90.628906 115.140625 90.445312 115.175781 90.296875 C 115.210938 90.039062 115.285156 89.78125 115.394531 89.488281 L 115.765625 88.605469 C 115.984375 88.019531 116.019531 87.613281 115.835938 87.390625 C 115.691406 87.207031 115.25 87.097656 114.550781 87.097656 L 112.085938 87.097656 L 110.578125 90.8125 L 108.261719 90.8125 L 112.160156 81.324219 L 117.710938 81.324219 C 118.523438 81.324219 119.074219 81.398438 119.441406 81.546875 Z M 119.441406 81.546875 "/>
<path style=" stroke:none;fill-rule:evenodd;fill:rgb(15.686275%,32.549021%,61.176473%);fill-opacity:1;" d="M 113.777344 82.980469 L 112.75 85.515625 L 115.433594 85.515625 C 115.984375 85.515625 116.390625 85.480469 116.683594 85.371094 C 117.234375 85.1875 117.640625 84.820312 117.859375 84.304688 C 118.082031 83.714844 118.007812 83.347656 117.640625 83.128906 C 117.417969 83.015625 117.050781 82.980469 116.535156 82.980469 Z M 113.777344 82.980469 "/>
<path style=" stroke:none;fill-rule:evenodd;fill:rgb(100%,100%,100%);fill-opacity:1;" d="M 131.210938 83.015625 L 125.179688 83.015625 L 124.371094 85.003906 L 129.886719 85.003906 L 129.222656 86.65625 L 123.671875 86.65625 L 122.679688 89.121094 L 128.964844 89.121094 L 128.265625 90.8125 L 119.664062 90.8125 L 123.558594 81.324219 L 131.90625 81.324219 Z M 133.046875 87.90625 C 132.9375 88.3125 132.9375 88.644531 133.085938 88.863281 C 133.304688 89.269531 133.855469 89.453125 134.8125 89.453125 C 135.367188 89.453125 135.84375 89.414062 136.246094 89.304688 C 136.984375 89.085938 137.460938 88.714844 137.683594 88.203125 C 137.828125 87.871094 137.757812 87.652344 137.5 87.46875 C 137.242188 87.285156 136.761719 87.136719 136.136719 87.023438 L 135 86.804688 C 133.929688 86.585938 133.195312 86.328125 132.867188 86.070312 C 132.277344 85.628906 132.167969 84.929688 132.570312 84.011719 C 132.902344 83.164062 133.5625 82.464844 134.519531 81.878906 C 135.511719 81.328125 136.726562 81.035156 138.160156 81.035156 C 139.339844 81.035156 140.257812 81.289062 140.882812 81.84375 C 141.507812 82.355469 141.617188 83.128906 141.25 84.160156 L 138.96875 84.160156 C 139.191406 83.570312 139.042969 83.167969 138.601562 82.945312 C 138.269531 82.761719 137.867188 82.6875 137.316406 82.6875 C 136.691406 82.6875 136.175781 82.796875 135.699219 83.019531 C 135.253906 83.203125 134.960938 83.496094 134.816406 83.863281 C 134.667969 84.195312 134.738281 84.453125 135.035156 84.636719 C 135.21875 84.746094 135.660156 84.855469 136.359375 85.003906 L 138.160156 85.410156 C 138.933594 85.59375 139.484375 85.8125 139.8125 86.109375 C 140.292969 86.550781 140.367188 87.210938 140.035156 88.058594 C 139.667969 88.902344 138.96875 89.636719 137.9375 90.226562 C 136.910156 90.777344 135.695312 91.074219 134.226562 91.074219 C 132.753906 91.074219 131.722656 90.777344 131.097656 90.226562 C 130.472656 89.675781 130.363281 88.867188 130.769531 87.910156 L 133.046875 87.910156 Z M 133.046875 87.90625 "/>
</g>
</svg>
