<?xml version="1.0" encoding="UTF-8"?>
<svg xmlns="http://www.w3.org/2000/svg" xmlns:xlink="http://www.w3.org/1999/xlink" width="64px" height="64px" viewBox="0 0 64 64" version="1.1">
<g id="surface1">
<rect x="0" y="0" width="64" height="64" style="fill:rgb(100%,100%,100%);fill-opacity:1;stroke:none;"/>
<path style=" stroke:none;fill-rule:evenodd;fill:rgb(15.686275%,34.509805%,63.137257%);fill-opacity:1;" d="M 2.824219 36.464844 L 61.175781 36.464844 L 61.175781 27.527344 L 2.824219 27.527344 Z M 2.824219 36.464844 "/>
<path style=" stroke:none;fill-rule:evenodd;fill:rgb(100%,100%,100%);fill-opacity:1;" d="M 21.527344 31.75 L 21.640625 30.359375 C 21.65625 30.152344 21.632812 29.605469 21.132812 29.605469 L 18.902344 29.605469 L 17.441406 33.597656 L 19.183594 33.597656 L 20.242188 30.710938 L 20.019531 33.597656 L 21.570312 33.597656 L 23.46875 30.761719 L 22.433594 33.597656 L 24.1875 33.597656 L 25.652344 29.605469 L 22.933594 29.605469 Z M 31.359375 29.644531 C 30.195312 29.882812 28.617188 30.742188 28.632812 32.3125 C 28.644531 33.21875 29.730469 33.71875 30.980469 33.683594 C 31.679688 33.664062 32.34375 33.535156 32.429688 33.523438 L 32.894531 32.3125 C 32.28125 32.410156 31.691406 32.558594 31.230469 32.375 C 30.398438 32.039062 30.910156 31.171875 31.5 30.898438 C 31.824219 30.746094 32.175781 30.671875 32.535156 30.675781 C 32.710938 30.679688 33.140625 30.6875 33.308594 31.070312 L 33.890625 29.667969 C 32.886719 29.417969 31.882812 29.535156 31.359375 29.644531 Z M 48.398438 33.597656 L 50.324219 33.597656 L 51.785156 29.605469 L 49.859375 29.605469 Z M 25.296875 33.597656 L 27.222656 33.597656 L 28.683594 29.605469 L 26.757812 29.605469 Z M 37.070312 31.042969 L 36.101562 31.042969 L 36.628906 29.605469 L 34.792969 29.605469 L 33.335938 33.597656 L 35.164062 33.597656 L 35.664062 32.246094 L 36.632812 32.246094 L 36.132812 33.597656 L 37.96875 33.597656 L 39.429688 29.605469 L 37.601562 29.605469 Z M 47.390625 29.605469 L 45.519531 29.605469 L 44.054688 33.597656 L 47.8125 33.597656 L 48.296875 32.269531 L 46.414062 32.269531 Z M 55.523438 32.34375 C 55.539062 32.070312 55.59375 30.980469 55.625 30.351562 C 55.640625 30.09375 55.585938 29.898438 55.460938 29.765625 C 55.367188 29.671875 55.246094 29.613281 55.113281 29.605469 L 52.878906 29.605469 L 51.414062 33.597656 L 53.039062 33.597656 L 54.074219 30.769531 L 53.953125 33.597656 L 56.675781 33.597656 L 58.136719 29.605469 L 56.527344 29.605469 Z M 39.054688 33.597656 L 43.109375 33.597656 L 43.503906 32.519531 L 41.265625 32.519531 L 41.429688 32.078125 L 43.519531 32.078125 L 43.878906 31.09375 L 41.789062 31.09375 L 41.949219 30.652344 L 44.140625 30.652344 L 44.527344 29.605469 L 40.515625 29.605469 Z M 39.054688 33.597656 "/>
<path style=" stroke:none;fill-rule:evenodd;fill:rgb(0%,0%,0%);fill-opacity:1;" d="M 16.527344 36.472656 C 16.699219 35.863281 16.359375 35.359375 15.886719 35.152344 C 15.90625 34.820312 15.773438 34.488281 15.5 34.238281 C 15.625 33.972656 15.765625 33.179688 15.1875 32.683594 C 15.414062 31.703125 14.429688 31.152344 13.898438 31.101562 C 13.640625 30.917969 13.269531 30.796875 12.816406 30.75 C 13.144531 30.253906 13.0625 29.578125 12.660156 29.214844 C 12.683594 28.671875 12.316406 28.164062 11.765625 27.972656 C 11.582031 27.519531 10.578125 27.59375 10.464844 28.011719 C 9.882812 28.222656 9.535156 28.875 9.597656 29.449219 C 9.242188 29.828125 9.257812 30.488281 9.585938 30.910156 C 9.277344 30.902344 8.847656 30.984375 8.542969 31.109375 L 8.539062 31.109375 L 8.527344 31.105469 C 8.277344 30.980469 8 30.9375 7.726562 30.96875 C 7.609375 30.902344 7.488281 30.851562 7.359375 30.816406 C 7.253906 30.65625 7.113281 30.527344 6.949219 30.433594 C 6.882812 30.160156 6.648438 29.9375 6.4375 29.832031 C 6.460938 29.628906 6.378906 29.375 6.3125 29.257812 C 6.191406 29.042969 6.21875 28.722656 6.257812 28.679688 C 6.394531 28.503906 6.273438 28.34375 6.210938 28.28125 C 5.894531 27.96875 5.578125 28.132812 5.488281 28.277344 C 5.183594 27.734375 4.835938 27.589844 4.628906 27.664062 C 4.359375 27.449219 3.925781 27.582031 3.933594 27.839844 C 3.753906 27.964844 3.632812 28.023438 3.910156 28.53125 C 3.855469 29.59375 3.972656 29.90625 4.667969 30.476562 C 4.449219 30.683594 4.335938 31.15625 4.542969 31.496094 C 4.488281 32.003906 4.757812 32.492188 5.097656 32.75 C 5.191406 33.480469 5.898438 33.914062 6.359375 34.011719 C 6.671875 34.464844 7.125 34.691406 7.566406 34.734375 C 7.589844 34.9375 7.667969 35.136719 7.796875 35.324219 C 7.683594 35.738281 7.691406 36.121094 7.824219 36.472656 Z M 16.527344 36.472656 "/>
<path style=" stroke:none;fill-rule:evenodd;fill:rgb(100%,100%,100%);fill-opacity:1;" d="M 14.804688 34.859375 C 14.753906 35.199219 14.550781 35.496094 14.402344 35.660156 C 14.429688 35.78125 14.453125 36.101562 14.453125 36.125 C 15.253906 36.054688 15.980469 35.164062 15.273438 34.484375 C 15.175781 34.625 14.949219 34.804688 14.804688 34.859375 Z M 14.804688 34.859375 "/>
<path style=" stroke:none;fill-rule:evenodd;fill:rgb(100%,100%,100%);fill-opacity:1;" d="M 15.75 35.460938 C 15.558594 35.976562 15.035156 36.261719 14.441406 36.335938 C 14.433594 36.378906 14.429688 36.425781 14.433594 36.472656 L 16.203125 36.472656 C 16.324219 36.105469 16.222656 35.671875 15.75 35.460938 Z M 8.929688 34.230469 C 8.636719 34.535156 8.277344 34.640625 7.945312 34.679688 C 8.046875 35.582031 9.640625 36.457031 11.464844 36.441406 C 14.464844 36.410156 14.816406 34.617188 14.433594 33.925781 C 13.511719 34.890625 10.445312 35.425781 8.929688 34.230469 Z M 8.929688 34.230469 "/>
<path style=" stroke:none;fill-rule:evenodd;fill:rgb(100%,100%,100%);fill-opacity:1;" d="M 9.4375 32.679688 C 9.492188 33.257812 9.242188 33.816406 9.121094 34.011719 C 9.390625 34.226562 9.972656 34.636719 11.273438 34.65625 C 13.226562 34.691406 15.304688 33.734375 14.136719 32.136719 C 13.613281 32.777344 11.148438 33.355469 9.4375 32.679688 Z M 6.921875 30.820312 C 6.804688 31.664062 5.648438 32.296875 4.902344 31.75 C 5.160156 32.917969 6.351562 32.941406 6.847656 32.460938 C 7.304688 32.019531 7.34375 31.453125 7.121094 31.0625 C 7.070312 30.96875 7.003906 30.886719 6.921875 30.820312 Z M 6.921875 30.820312 "/>
<path style=" stroke:none;fill-rule:evenodd;fill:rgb(100%,100%,100%);fill-opacity:1;" d="M 7.464844 31.214844 C 7.703125 32.390625 6.527344 33.3125 5.492188 32.859375 C 5.738281 33.574219 6.96875 34.1875 7.800781 33.253906 C 8.484375 32.484375 7.792969 31.277344 7.464844 31.214844 Z M 7.464844 31.214844 "/>
<path style=" stroke:none;fill-rule:evenodd;fill:rgb(100%,100%,100%);fill-opacity:1;" d="M 8.0625 31.339844 C 8.90625 32.898438 7.925781 33.976562 6.839844 33.992188 C 7.449219 34.632812 9.050781 34.589844 9.152344 33.09375 C 9.222656 32.09375 8.78125 31.527344 8.0625 31.339844 Z M 14.148438 35.9375 C 13.855469 36.167969 13.496094 36.34375 13.09375 36.472656 L 14.101562 36.472656 C 14.164062 36.28125 14.175781 36.097656 14.148438 35.9375 Z M 9.792969 36.472656 C 9.144531 36.285156 8.558594 35.984375 8.117188 35.570312 C 8.0625 35.917969 8.109375 36.214844 8.230469 36.472656 Z M 6.296875 30.140625 C 6.183594 30.246094 6.199219 30.53125 6.203125 30.59375 C 6.21875 30.734375 6 30.8125 5.96875 30.773438 C 5.894531 30.679688 6.074219 30.582031 6 30.367188 C 5.925781 30.160156 6.148438 30.058594 6.148438 29.75 C 6.148438 29.574219 6 29.273438 5.976562 29.21875 C 5.910156 29.035156 5.914062 28.675781 6.011719 28.5 C 5.9375 28.433594 5.816406 28.332031 5.707031 28.503906 C 5.554688 28.738281 5.609375 29.027344 5.714844 29.253906 C 5.703125 29.261719 5.5625 29.257812 5.484375 29.503906 C 5.464844 29.53125 5.445312 29.558594 5.421875 29.585938 L 5.371094 29.589844 C 5.335938 29.410156 5.398438 29.300781 5.445312 29.195312 C 5.429688 29.152344 5.375 28.976562 5.367188 28.699219 C 5.222656 28.335938 4.953125 27.976562 4.765625 27.953125 C 4.925781 28.1875 5.214844 28.738281 5.246094 28.8125 C 5.308594 28.964844 5.171875 28.992188 5.171875 28.992188 C 4.957031 28.539062 4.71875 28.140625 4.535156 27.957031 C 4.414062 27.832031 4.277344 27.792969 4.230469 27.875 C 4.285156 27.890625 4.355469 27.957031 4.40625 28.023438 C 4.601562 28.261719 5 29.082031 5 29.082031 C 5 29.082031 4.96875 29.125 4.929688 29.117188 C 4.863281 29.109375 4.78125 28.988281 4.6875 28.765625 C 4.582031 28.5625 4.386719 28.273438 4.28125 28.148438 C 4.195312 28.050781 4.117188 28.082031 4.0625 28.128906 C 4.121094 28.230469 4.179688 28.347656 4.207031 28.4375 C 4.351562 28.398438 4.539062 28.558594 4.558594 28.703125 C 4.582031 28.84375 4.628906 29.230469 4.71875 29.367188 C 4.6875 29.382812 4.601562 29.445312 4.601562 29.445312 C 4.503906 29.324219 4.433594 28.882812 4.417969 28.726562 C 4.414062 28.6875 4.367188 28.605469 4.273438 28.582031 C 4.226562 28.566406 4.21875 28.597656 4.214844 28.632812 C 4.175781 29.515625 4.230469 29.742188 5.011719 30.355469 C 5.0625 30.394531 5.152344 30.507812 5.210938 30.625 C 5.265625 30.742188 5.367188 30.882812 5.554688 30.859375 L 5.628906 30.9375 C 5.457031 31.074219 5.207031 30.988281 5.148438 30.914062 C 5.101562 30.851562 4.972656 30.660156 4.972656 30.660156 C 4.425781 31.238281 5.15625 32.027344 6.019531 31.632812 C 6.863281 31.25 6.804688 30.347656 6.296875 30.140625 Z M 14.226562 31.5625 C 14.28125 31.667969 14.277344 31.824219 14.25 31.851562 C 14.660156 32.128906 14.734375 32.691406 14.746094 32.921875 C 15.148438 32.132812 14.546875 31.660156 14.226562 31.5625 Z M 15.011719 32.972656 C 14.980469 33.070312 14.882812 33.316406 14.605469 33.648438 C 14.769531 33.847656 14.863281 34.132812 14.871094 34.453125 C 15.636719 33.996094 15.136719 33.050781 15.011719 32.972656 Z M 12.511719 31.0625 C 12.394531 31.191406 12.230469 31.234375 12.191406 31.238281 C 12.132812 31.242188 12.09375 31.195312 12.160156 31.164062 C 12.28125 31.097656 12.402344 30.992188 12.269531 30.765625 C 12.355469 30.75 12.652344 30.644531 12.679688 30.128906 C 12.699219 29.722656 12.480469 29.46875 12.300781 29.351562 C 12.300781 29.351562 12.230469 29.277344 12.316406 29.261719 C 12.363281 28.769531 12.03125 28.351562 11.410156 28.222656 L 11.414062 28.171875 C 11.4375 28.167969 11.453125 28.144531 11.449219 28.117188 C 11.425781 27.996094 10.980469 27.945312 10.800781 28.113281 C 10.761719 28.148438 10.890625 28.183594 10.921875 28.183594 C 10.96875 28.1875 11 28.246094 10.9375 28.246094 C 10.582031 28.238281 9.921875 28.554688 9.949219 29.414062 C 9.96875 29.414062 10.15625 29.359375 10.230469 29.378906 C 10.277344 29.394531 10.261719 29.453125 10.21875 29.457031 C 9.636719 29.503906 9.390625 30.53125 10.203125 30.898438 C 10.203125 30.898438 10.242188 30.921875 10.191406 30.957031 C 10.09375 31.015625 10.019531 31.140625 10.167969 31.222656 C 10.21875 31.253906 10.257812 31.292969 10.234375 31.339844 C 10.210938 31.390625 10.128906 31.386719 10.050781 31.347656 C 9.648438 31.144531 9.175781 31.25 8.8125 31.371094 C 9.082031 31.601562 9.28125 31.980469 9.375 32.371094 C 9.929688 32.625 10.546875 32.71875 11.152344 32.722656 C 12.777344 32.726562 13.90625 32.253906 13.992188 31.765625 C 14.066406 31.359375 13.320312 31.109375 12.511719 31.0625 Z M 12.511719 31.0625 "/>
<path style=" stroke:none;fill-rule:evenodd;fill:rgb(0%,0%,0%);fill-opacity:1;" d="M 5.015625 29.484375 C 4.917969 29.484375 4.8125 29.511719 4.816406 29.535156 C 4.820312 29.570312 4.945312 29.550781 5.058594 29.605469 C 5.128906 29.65625 5.25 29.734375 5.269531 29.71875 C 5.292969 29.691406 5.242188 29.582031 5.21875 29.535156 C 5.148438 29.542969 5.082031 29.488281 5.015625 29.484375 Z M 11.941406 30.144531 C 11.917969 30.152344 11.890625 30.167969 11.871094 30.1875 C 11.308594 30.085938 11.128906 30.238281 10.828125 30.230469 C 10.832031 30.191406 10.820312 30.140625 10.769531 30.144531 C 10.75 30.148438 10.726562 30.1875 10.71875 30.203125 C 10.640625 30.320312 10.609375 30.386719 10.640625 30.414062 C 10.671875 30.441406 10.710938 30.394531 10.753906 30.347656 C 10.804688 30.339844 10.917969 30.34375 11.027344 30.417969 C 11.121094 30.480469 11.316406 30.726562 11.519531 30.640625 C 11.660156 30.574219 11.792969 30.332031 11.898438 30.332031 C 11.949219 30.332031 12.007812 30.339844 12.019531 30.335938 C 12.042969 30.320312 11.996094 30.132812 11.941406 30.144531 Z M 11.507812 30.527344 C 11.335938 30.617188 11.230469 30.390625 11.0625 30.316406 C 11.21875 30.277344 11.527344 30.246094 11.765625 30.292969 C 11.710938 30.335938 11.554688 30.503906 11.507812 30.527344 Z M 11.953125 28.785156 C 11.898438 28.734375 11.824219 28.710938 11.75 28.71875 C 11.550781 28.742188 11.410156 29 11.433594 29.3125 C 11.449219 29.503906 11.523438 29.671875 11.632812 29.765625 C 11.695312 29.820312 11.765625 29.84375 11.832031 29.839844 C 12.035156 29.820312 12.171875 29.558594 12.148438 29.242188 C 12.136719 29.046875 12.0625 28.875 11.953125 28.785156 Z M 11.953125 28.785156 "/>
<path style=" stroke:none;fill-rule:evenodd;fill:rgb(100%,100%,100%);fill-opacity:1;" d="M 11.886719 28.875 C 11.855469 28.84375 11.808594 28.828125 11.761719 28.832031 C 11.625 28.847656 11.523438 29.0625 11.539062 29.304688 C 11.542969 29.324219 11.542969 29.347656 11.546875 29.367188 C 11.546875 29.371094 11.550781 29.371094 11.550781 29.371094 C 11.554688 29.371094 11.554688 29.371094 11.554688 29.363281 C 11.570312 29.199219 11.65625 29.074219 11.765625 29.066406 C 11.886719 29.058594 11.992188 29.214844 12 29.414062 C 12 29.480469 11.992188 29.542969 11.976562 29.597656 C 11.976562 29.597656 11.976562 29.601562 11.976562 29.601562 C 11.976562 29.601562 11.976562 29.601562 11.980469 29.601562 C 12.027344 29.511719 12.054688 29.386719 12.042969 29.25 C 12.035156 29.089844 11.972656 28.945312 11.886719 28.875 Z M 11.886719 28.875 "/>
<path style=" stroke:none;fill-rule:evenodd;fill:rgb(0%,0%,0%);fill-opacity:1;" d="M 11.074219 28.816406 C 11.015625 28.761719 10.9375 28.734375 10.859375 28.738281 C 10.648438 28.757812 10.492188 29.019531 10.5 29.335938 C 10.507812 29.527344 10.578125 29.699219 10.6875 29.796875 C 10.742188 29.855469 10.820312 29.882812 10.902344 29.882812 C 11.113281 29.867188 11.269531 29.601562 11.261719 29.28125 C 11.253906 29.085938 11.183594 28.914062 11.074219 28.816406 Z M 11.074219 28.816406 "/>
<path style=" stroke:none;fill-rule:evenodd;fill:rgb(100%,100%,100%);fill-opacity:1;" d="M 10.867188 28.851562 C 10.71875 28.867188 10.597656 29.085938 10.609375 29.332031 C 10.613281 29.445312 10.644531 29.535156 10.679688 29.605469 C 10.683594 29.609375 10.6875 29.609375 10.6875 29.609375 C 10.6875 29.609375 10.6875 29.605469 10.6875 29.605469 C 10.675781 29.558594 10.667969 29.515625 10.667969 29.46875 C 10.65625 29.273438 10.75 29.113281 10.871094 29.109375 C 10.996094 29.101562 11.101562 29.261719 11.109375 29.457031 C 11.113281 29.492188 11.109375 29.523438 11.105469 29.554688 C 11.105469 29.558594 11.105469 29.558594 11.109375 29.558594 C 11.109375 29.558594 11.109375 29.558594 11.109375 29.554688 C 11.140625 29.476562 11.15625 29.382812 11.15625 29.285156 C 11.148438 29.125 11.09375 28.980469 11.007812 28.902344 C 10.96875 28.867188 10.917969 28.847656 10.867188 28.851562 Z M 10.867188 28.851562 "/>
<path style=" stroke:none;fill-rule:evenodd;fill:rgb(100%,94.901961%,17.647059%);fill-opacity:1;" d="M 9.507812 36.472656 L 7.824219 36.472656 C 7.691406 36.125 7.683594 35.738281 7.796875 35.324219 C 7.667969 35.136719 7.589844 34.9375 7.566406 34.734375 C 7.125 34.691406 6.671875 34.464844 6.359375 34.011719 C 5.898438 33.914062 5.191406 33.484375 5.097656 32.75 C 4.757812 32.492188 4.488281 32.003906 4.546875 31.496094 C 4.335938 31.15625 4.453125 30.683594 4.667969 30.476562 C 3.972656 29.910156 3.855469 29.59375 3.910156 28.535156 C 3.632812 28.027344 3.757812 27.96875 3.933594 27.84375 C 3.929688 27.703125 4.054688 27.597656 4.210938 27.566406 L 4.1875 27.527344 L 2.824219 27.527344 L 2.824219 36.472656 Z M 16.097656 35.269531 L 49.710938 35.269531 L 49.917969 34.703125 L 15.820312 34.703125 C 15.871094 34.847656 15.894531 35 15.886719 35.152344 C 15.960938 35.183594 16.03125 35.222656 16.097656 35.269531 Z M 16.097656 35.269531 "/>
</g>
</svg>
