<?xml version="1.0" encoding="UTF-8"?>
<svg xmlns="http://www.w3.org/2000/svg" xmlns:xlink="http://www.w3.org/1999/xlink" width="150px" height="150px" viewBox="0 0 150 150" version="1.1" style="background: transparent;">
<g id="surface1">

<path style=" stroke:none;fill-rule:evenodd;fill:rgb(15.686275%,34.509805%,63.137257%);fill-opacity:1;" d="M 6.617188 85.464844 L 143.375 85.464844 L 143.382812 64.515625 L 6.625 64.515625 Z M 6.617188 85.464844 "/>
<path style=" stroke:none;fill-rule:evenodd;fill:rgb(100%,100%,100%);fill-opacity:1;" d="M 50.457031 74.410156 L 50.71875 71.152344 C 50.757812 70.671875 50.699219 69.390625 49.53125 69.390625 L 44.304688 69.390625 L 40.878906 78.742188 L 44.964844 78.742188 L 47.445312 71.976562 L 46.921875 78.742188 L 50.554688 78.742188 L 55.007812 72.097656 L 52.578125 78.742188 L 56.691406 78.742188 L 60.117188 69.390625 L 53.75 69.390625 Z M 73.5 69.476562 C 70.769531 70.039062 67.070312 72.054688 67.109375 75.730469 C 67.132812 77.855469 69.683594 79.03125 72.609375 78.949219 C 74.25 78.902344 75.808594 78.601562 76.011719 78.570312 L 77.09375 75.734375 C 75.65625 75.964844 74.277344 76.308594 73.195312 75.875 C 71.242188 75.089844 72.445312 73.054688 73.824219 72.421875 C 74.585938 72.0625 75.414062 71.882812 76.253906 71.898438 C 76.667969 71.90625 77.675781 71.921875 78.066406 72.816406 L 79.429688 69.53125 C 77.082031 68.949219 74.722656 69.226562 73.5 69.476562 Z M 113.433594 78.742188 L 117.945312 78.742188 L 121.371094 69.390625 L 116.859375 69.390625 Z M 59.289062 78.742188 L 63.800781 78.742188 L 67.222656 69.390625 L 62.71875 69.390625 Z M 86.882812 72.757812 L 84.617188 72.757812 L 85.851562 69.390625 L 81.550781 69.390625 L 78.132812 78.742188 L 82.417969 78.742188 L 83.585938 75.574219 L 85.859375 75.574219 L 84.691406 78.742188 L 88.984375 78.742188 L 92.417969 69.390625 L 88.128906 69.390625 Z M 111.066406 69.390625 L 106.683594 69.390625 L 103.253906 78.742188 L 112.0625 78.742188 L 113.199219 75.636719 L 108.78125 75.636719 Z M 130.136719 75.808594 C 130.167969 75.160156 130.296875 72.609375 130.375 71.136719 C 130.40625 70.535156 130.277344 70.070312 129.988281 69.765625 C 129.769531 69.539062 129.480469 69.40625 129.167969 69.390625 L 123.929688 69.390625 L 120.507812 78.742188 L 124.308594 78.742188 L 126.738281 72.121094 L 126.453125 78.742188 L 132.832031 78.742188 L 136.257812 69.390625 L 132.488281 69.390625 Z M 91.535156 78.742188 L 101.042969 78.742188 L 101.964844 76.21875 L 96.714844 76.21875 L 97.101562 75.179688 L 101.996094 75.179688 L 102.839844 72.878906 L 97.941406 72.878906 L 98.316406 71.839844 L 103.457031 71.839844 L 104.363281 69.390625 L 94.960938 69.390625 Z M 91.535156 78.742188 "/>
<path style=" stroke:none;fill-rule:evenodd;fill:rgb(0%,0%,0%);fill-opacity:1;" d="M 38.734375 85.480469 C 39.140625 84.058594 38.339844 82.871094 37.230469 82.390625 C 37.28125 81.609375 36.972656 80.828125 36.328125 80.25 C 36.625 79.621094 36.949219 77.765625 35.59375 76.601562 C 36.128906 74.304688 33.820312 73.011719 32.574219 72.898438 C 31.96875 72.46875 31.097656 72.183594 30.039062 72.070312 C 30.808594 70.90625 30.609375 69.324219 29.671875 68.472656 C 29.722656 67.203125 28.867188 66.011719 27.574219 65.5625 C 27.148438 64.503906 24.796875 64.671875 24.523438 65.652344 C 23.167969 66.144531 22.351562 67.675781 22.492188 69.023438 C 21.65625 69.914062 21.695312 71.457031 22.464844 72.441406 C 21.742188 72.425781 20.734375 72.621094 20.019531 72.910156 L 20.015625 72.910156 L 19.984375 72.902344 C 19.402344 72.613281 18.75 72.503906 18.109375 72.585938 C 17.835938 72.429688 17.546875 72.308594 17.246094 72.222656 C 17 71.851562 16.671875 71.546875 16.289062 71.328125 C 16.132812 70.6875 15.585938 70.171875 15.089844 69.921875 C 15.140625 69.445312 14.953125 68.847656 14.796875 68.570312 C 14.507812 68.070312 14.578125 67.320312 14.664062 67.214844 C 14.988281 66.804688 14.707031 66.429688 14.5625 66.285156 C 13.8125 65.550781 13.074219 65.9375 12.859375 66.277344 C 12.148438 65.003906 11.332031 64.667969 10.847656 64.832031 C 10.214844 64.335938 9.203125 64.644531 9.21875 65.253906 C 8.800781 65.546875 8.515625 65.683594 9.167969 66.875 C 9.039062 69.355469 9.3125 70.097656 10.9375 71.429688 C 10.433594 71.917969 10.160156 73.023438 10.652344 73.820312 C 10.523438 75.011719 11.152344 76.152344 11.945312 76.761719 C 12.171875 78.472656 13.824219 79.484375 14.910156 79.710938 C 15.636719 80.777344 16.703125 81.304688 17.730469 81.410156 C 17.789062 81.886719 17.972656 82.347656 18.269531 82.789062 C 18.003906 83.757812 18.027344 84.664062 18.339844 85.480469 Z M 38.734375 85.480469 "/>
<path style=" stroke:none;fill-rule:evenodd;fill:rgb(100%,100%,100%);fill-opacity:1;" d="M 34.703125 81.699219 C 34.582031 82.503906 34.101562 83.195312 33.757812 83.578125 C 33.824219 83.863281 33.875 84.617188 33.875 84.664062 C 35.75 84.503906 37.457031 82.417969 35.800781 80.824219 C 35.566406 81.15625 35.035156 81.570312 34.703125 81.699219 Z M 34.703125 81.699219 "/>
<path style=" stroke:none;fill-rule:evenodd;fill:rgb(100%,100%,100%);fill-opacity:1;" d="M 36.917969 83.109375 C 36.460938 84.320312 35.234375 84.988281 33.847656 85.160156 C 33.828125 85.265625 33.820312 85.375 33.828125 85.480469 L 37.972656 85.480469 C 38.257812 84.621094 38.019531 83.601562 36.917969 83.109375 Z M 20.929688 80.226562 C 20.242188 80.941406 19.394531 81.191406 18.621094 81.28125 C 18.863281 83.398438 22.59375 85.445312 26.875 85.40625 C 33.902344 85.335938 34.730469 81.132812 33.824219 79.515625 C 31.667969 81.773438 24.476562 83.035156 20.929688 80.226562 Z M 20.929688 80.226562 "/>
<path style=" stroke:none;fill-rule:evenodd;fill:rgb(100%,100%,100%);fill-opacity:1;" d="M 22.121094 76.597656 C 22.246094 77.945312 21.660156 79.257812 21.378906 79.71875 C 22.011719 80.222656 23.371094 81.183594 26.421875 81.230469 C 31 81.304688 35.867188 79.0625 33.132812 75.324219 C 31.910156 76.828125 26.125 78.171875 22.121094 76.597656 Z M 16.226562 72.238281 C 15.949219 74.210938 13.238281 75.695312 11.492188 74.410156 C 12.097656 77.148438 14.886719 77.203125 16.050781 76.078125 C 17.125 75.042969 17.214844 73.71875 16.6875 72.800781 C 16.570312 72.585938 16.414062 72.394531 16.226562 72.238281 Z M 16.226562 72.238281 "/>
<path style=" stroke:none;fill-rule:evenodd;fill:rgb(100%,100%,100%);fill-opacity:1;" d="M 17.496094 73.15625 C 18.054688 75.914062 15.296875 78.074219 12.867188 77.015625 C 13.453125 78.6875 16.332031 80.128906 18.28125 77.9375 C 19.886719 76.132812 18.261719 73.308594 17.496094 73.15625 Z M 17.496094 73.15625 "/>
<path style=" stroke:none;fill-rule:evenodd;fill:rgb(100%,100%,100%);fill-opacity:1;" d="M 18.890625 73.449219 C 20.871094 77.109375 18.570312 79.628906 16.027344 79.664062 C 17.464844 81.175781 21.214844 81.070312 21.453125 77.566406 C 21.613281 75.21875 20.582031 73.894531 18.890625 73.449219 Z M 33.160156 84.230469 C 32.472656 84.765625 31.628906 85.183594 30.691406 85.480469 L 33.050781 85.480469 C 33.195312 85.03125 33.21875 84.601562 33.160156 84.230469 Z M 22.949219 85.480469 C 21.4375 85.039062 20.0625 84.335938 19.027344 83.371094 C 18.894531 84.179688 19.003906 84.878906 19.292969 85.480469 Z M 14.753906 70.640625 C 14.496094 70.890625 14.527344 71.558594 14.542969 71.699219 C 14.574219 72.035156 14.066406 72.21875 13.992188 72.125 C 13.816406 71.902344 14.238281 71.675781 14.0625 71.171875 C 13.894531 70.691406 14.410156 70.449219 14.410156 69.730469 C 14.410156 69.3125 14.058594 68.609375 14.007812 68.480469 C 13.847656 68.046875 13.859375 67.210938 14.089844 66.800781 C 13.914062 66.636719 13.636719 66.398438 13.371094 66.808594 C 13.019531 67.355469 13.144531 68.035156 13.394531 68.566406 C 13.363281 68.582031 13.039062 68.570312 12.859375 69.152344 C 12.8125 69.214844 12.761719 69.28125 12.710938 69.34375 L 12.59375 69.347656 C 12.507812 68.929688 12.648438 68.671875 12.757812 68.425781 C 12.726562 68.328125 12.601562 67.914062 12.574219 67.261719 C 12.238281 66.410156 11.605469 65.566406 11.171875 65.519531 C 11.542969 66.058594 12.21875 67.351562 12.292969 67.527344 C 12.4375 67.890625 12.121094 67.953125 12.121094 67.953125 C 11.621094 66.886719 11.058594 65.957031 10.628906 65.527344 C 10.34375 65.234375 10.023438 65.140625 9.917969 65.328125 C 10.046875 65.371094 10.203125 65.527344 10.328125 65.675781 C 10.78125 66.242188 11.714844 68.164062 11.714844 68.164062 C 11.714844 68.164062 11.640625 68.257812 11.554688 68.246094 C 11.402344 68.222656 11.210938 67.941406 10.984375 67.417969 C 10.738281 66.941406 10.28125 66.261719 10.035156 65.976562 C 9.828125 65.742188 9.652344 65.820312 9.523438 65.921875 C 9.65625 66.160156 9.796875 66.4375 9.863281 66.65625 C 10.203125 66.5625 10.636719 66.933594 10.6875 67.269531 C 10.738281 67.601562 10.851562 68.511719 11.0625 68.824219 C 10.984375 68.867188 10.785156 69.011719 10.785156 69.011719 C 10.558594 68.730469 10.394531 67.695312 10.359375 67.324219 C 10.351562 67.234375 10.238281 67.042969 10.015625 66.984375 C 9.90625 66.957031 9.886719 67.027344 9.882812 67.105469 C 9.789062 69.179688 9.914062 69.703125 11.746094 71.144531 C 11.867188 71.238281 12.074219 71.503906 12.207031 71.777344 C 12.34375 72.054688 12.578125 72.382812 13.015625 72.328125 L 13.191406 72.507812 C 12.792969 72.828125 12.207031 72.632812 12.066406 72.453125 C 11.957031 72.308594 11.65625 71.859375 11.65625 71.859375 C 10.375 73.21875 12.085938 75.0625 14.109375 74.140625 C 16.082031 73.246094 15.945312 71.128906 14.753906 70.640625 Z M 33.34375 73.972656 C 33.472656 74.222656 33.460938 74.589844 33.402344 74.65625 C 34.359375 75.304688 34.53125 76.617188 34.5625 77.164062 C 35.5 75.308594 34.089844 74.203125 33.34375 73.972656 Z M 35.1875 77.277344 C 35.113281 77.507812 34.882812 78.089844 34.226562 78.867188 C 34.617188 79.335938 34.835938 80 34.855469 80.75 C 36.648438 79.675781 35.476562 77.460938 35.1875 77.277344 Z M 29.320312 72.804688 C 29.046875 73.105469 28.667969 73.203125 28.574219 73.210938 C 28.433594 73.222656 28.347656 73.117188 28.5 73.035156 C 28.785156 72.886719 29.066406 72.640625 28.757812 72.109375 C 28.960938 72.074219 29.65625 71.820312 29.714844 70.617188 C 29.761719 69.660156 29.25 69.070312 28.828125 68.792969 C 28.828125 68.792969 28.660156 68.613281 28.871094 68.585938 C 28.976562 67.429688 28.195312 66.449219 26.742188 66.148438 L 26.753906 66.027344 C 26.808594 66.019531 26.84375 65.960938 26.832031 65.902344 C 26.78125 65.617188 25.730469 65.5 25.316406 65.886719 C 25.226562 65.96875 25.519531 66.054688 25.601562 66.058594 C 25.707031 66.0625 25.78125 66.203125 25.632812 66.203125 C 24.800781 66.1875 23.257812 66.925781 23.316406 68.9375 C 23.367188 68.9375 23.800781 68.808594 23.972656 68.859375 C 24.089844 68.890625 24.050781 69.035156 23.953125 69.042969 C 22.582031 69.148438 22.011719 71.5625 23.910156 72.417969 C 23.910156 72.417969 24.007812 72.472656 23.886719 72.550781 C 23.660156 72.695312 23.488281 72.984375 23.828125 73.179688 C 23.949219 73.25 24.046875 73.339844 23.988281 73.453125 C 23.933594 73.566406 23.738281 73.5625 23.554688 73.46875 C 22.613281 72.996094 21.507812 73.246094 20.652344 73.523438 C 21.285156 74.070312 21.75 74.957031 21.976562 75.875 C 23.277344 76.464844 24.714844 76.6875 26.136719 76.691406 C 29.949219 76.699219 32.589844 75.59375 32.796875 74.453125 C 32.964844 73.496094 31.222656 72.910156 29.320312 72.804688 Z M 29.320312 72.804688 "/>
<path style=" stroke:none;fill-rule:evenodd;fill:rgb(0%,0%,0%);fill-opacity:1;" d="M 11.753906 69.105469 C 11.527344 69.105469 11.285156 69.171875 11.289062 69.222656 C 11.300781 69.308594 11.585938 69.257812 11.855469 69.382812 C 12.023438 69.503906 12.308594 69.691406 12.347656 69.652344 C 12.402344 69.59375 12.285156 69.335938 12.230469 69.222656 C 12.070312 69.238281 11.914062 69.117188 11.753906 69.105469 Z M 27.992188 70.65625 C 27.929688 70.671875 27.871094 70.707031 27.824219 70.753906 C 26.5 70.511719 26.085938 70.875 25.375 70.855469 C 25.386719 70.765625 25.355469 70.640625 25.238281 70.652344 C 25.195312 70.660156 25.140625 70.753906 25.121094 70.785156 C 24.9375 71.0625 24.863281 71.214844 24.933594 71.28125 C 25.011719 71.347656 25.105469 71.238281 25.203125 71.125 C 25.320312 71.113281 25.589844 71.121094 25.847656 71.292969 C 26.070312 71.441406 26.523438 72.019531 26.996094 71.816406 C 27.328125 71.660156 27.644531 71.09375 27.882812 71.089844 C 28.003906 71.089844 28.148438 71.109375 28.171875 71.097656 C 28.226562 71.066406 28.117188 70.625 27.992188 70.65625 Z M 26.96875 71.550781 C 26.566406 71.757812 26.320312 71.230469 25.925781 71.058594 C 26.289062 70.964844 27.019531 70.894531 27.578125 70.996094 C 27.445312 71.097656 27.082031 71.492188 26.96875 71.550781 Z M 28.011719 67.464844 C 27.882812 67.347656 27.710938 67.292969 27.539062 67.308594 C 27.070312 67.359375 26.746094 67.972656 26.800781 68.699219 C 26.832031 69.144531 27.007812 69.542969 27.261719 69.765625 C 27.40625 69.890625 27.570312 69.945312 27.734375 69.933594 C 28.203125 69.890625 28.527344 69.28125 28.476562 68.535156 C 28.445312 68.082031 28.269531 67.679688 28.011719 67.464844 Z M 28.011719 67.464844 "/>
<path style=" stroke:none;fill-rule:evenodd;fill:rgb(100%,100%,100%);fill-opacity:1;" d="M 27.863281 67.675781 C 27.78125 67.601562 27.675781 67.5625 27.566406 67.570312 C 27.242188 67.609375 27.003906 68.117188 27.046875 68.679688 C 27.050781 68.730469 27.054688 68.78125 27.0625 68.832031 C 27.066406 68.839844 27.070312 68.84375 27.074219 68.84375 C 27.078125 68.84375 27.082031 68.835938 27.082031 68.824219 C 27.117188 68.4375 27.316406 68.140625 27.570312 68.125 C 27.859375 68.109375 28.105469 68.472656 28.125 68.9375 C 28.128906 69.09375 28.109375 69.242188 28.066406 69.367188 C 28.066406 69.375 28.066406 69.378906 28.070312 69.378906 C 28.074219 69.378906 28.074219 69.378906 28.078125 69.375 C 28.191406 69.167969 28.253906 68.871094 28.230469 68.554688 C 28.203125 68.179688 28.0625 67.839844 27.863281 67.675781 Z M 27.863281 67.675781 "/>
<path style=" stroke:none;fill-rule:evenodd;fill:rgb(0%,0%,0%);fill-opacity:1;" d="M 25.957031 67.535156 C 25.820312 67.40625 25.636719 67.34375 25.449219 67.355469 C 24.953125 67.402344 24.585938 68.015625 24.613281 68.757812 C 24.628906 69.203125 24.789062 69.609375 25.042969 69.839844 C 25.179688 69.972656 25.363281 70.042969 25.550781 70.035156 C 26.046875 70 26.417969 69.382812 26.390625 68.625 C 26.378906 68.171875 26.214844 67.761719 25.957031 67.535156 Z M 25.957031 67.535156 "/>
<path style=" stroke:none;fill-rule:evenodd;fill:rgb(100%,100%,100%);fill-opacity:1;" d="M 25.472656 67.621094 C 25.121094 67.652344 24.839844 68.167969 24.863281 68.746094 C 24.871094 69.007812 24.945312 69.222656 25.03125 69.382812 C 25.039062 69.394531 25.042969 69.398438 25.046875 69.394531 C 25.050781 69.394531 25.050781 69.390625 25.050781 69.382812 C 25.023438 69.28125 25.003906 69.175781 25 69.070312 C 24.980469 68.613281 25.195312 68.234375 25.484375 68.222656 C 25.769531 68.210938 26.019531 68.578125 26.039062 69.042969 C 26.042969 69.121094 26.039062 69.199219 26.03125 69.269531 C 26.03125 69.273438 26.03125 69.277344 26.035156 69.277344 C 26.035156 69.28125 26.039062 69.277344 26.042969 69.269531 C 26.113281 69.085938 26.152344 68.867188 26.144531 68.632812 C 26.128906 68.261719 26 67.917969 25.796875 67.742188 C 25.710938 67.65625 25.59375 67.613281 25.472656 67.621094 Z M 25.472656 67.621094 "/>
<path style=" stroke:none;fill-rule:evenodd;fill:rgb(100%,94.901961%,17.647059%);fill-opacity:1;" d="M 22.289062 85.484375 L 22.285156 85.480469 L 18.339844 85.480469 C 18.027344 84.664062 18.003906 83.761719 18.269531 82.789062 C 17.972656 82.351562 17.792969 81.886719 17.730469 81.410156 C 16.703125 81.308594 15.636719 80.777344 14.910156 79.714844 C 13.824219 79.488281 12.171875 78.472656 11.949219 76.761719 C 11.15625 76.15625 10.523438 75.011719 10.652344 73.820312 C 10.164062 73.023438 10.433594 71.917969 10.9375 71.433594 C 9.3125 70.097656 9.039062 69.359375 9.167969 66.875 C 8.519531 65.683594 8.804688 65.546875 9.21875 65.253906 C 9.210938 64.925781 9.5 64.683594 9.871094 64.609375 L 9.816406 64.519531 L 6.625 64.519531 L 6.617188 85.484375 Z M 37.726562 82.664062 L 116.507812 82.664062 L 116.996094 81.332031 L 37.074219 81.332031 C 37.203125 81.671875 37.253906 82.03125 37.230469 82.390625 C 37.40625 82.464844 37.570312 82.558594 37.726562 82.664062 Z M 37.726562 82.664062 "/>
</g>
</svg>