<?xml version="1.0" encoding="UTF-8"?>
<svg xmlns="http://www.w3.org/2000/svg" xmlns:xlink="http://www.w3.org/1999/xlink" width="150px" height="150px" viewBox="0 0 150 150" version="1.1" style="background: transparent;">
<g id="surface1">

<path style=" stroke:none;fill-rule:evenodd;fill:rgb(0%,0%,0%);fill-opacity:1;" d="M 22.839844 90.46875 L 31.789062 90.46875 L 31.789062 74.292969 L 22.839844 74.292969 Z M 137.097656 90.46875 L 146.046875 90.46875 L 146.046875 74.292969 L 137.097656 74.292969 Z M 137.097656 90.46875 "/>
<path style=" stroke:none;fill-rule:evenodd;fill:rgb(0%,0%,0%);fill-opacity:1;" d="M 142.054688 59.53125 L 2.207031 59.53125 L 2.207031 90.394531 L 17.691406 90.394531 L 17.691406 71.007812 L 142.054688 71.007812 C 144.125 71.042969 146.054688 69.957031 147.101562 68.167969 C 148.148438 66.378906 148.148438 64.164062 147.101562 62.375 C 146.058594 60.582031 144.125 59.496094 142.054688 59.53125 Z M 124.875 67.097656 L 17.695312 67.097656 L 17.695312 63.433594 L 124.875 63.445312 C 125.535156 63.433594 126.152344 63.777344 126.488281 64.347656 C 126.820312 64.917969 126.820312 65.625 126.488281 66.195312 C 126.152344 66.765625 125.535156 67.109375 124.875 67.097656 Z M 124.875 67.097656 "/>
<path style=" stroke:none;fill-rule:evenodd;fill:rgb(0%,0%,0%);fill-opacity:1;" d="M 59.832031 84.664062 C 61.660156 83.835938 62.816406 81.992188 62.816406 79.855469 C 62.816406 76.945312 60.527344 74.292969 56.628906 74.292969 L 38.214844 74.292969 L 38.214844 90.46875 L 47.164062 90.46875 L 47.164062 85.25 L 50.089844 85.25 L 52.785156 90.46875 L 62.820312 90.46875 Z M 52.269531 81.332031 L 47.164062 81.332031 L 47.164062 77.90625 L 52.269531 77.925781 C 53.210938 77.925781 53.972656 78.6875 53.972656 79.628906 C 53.972656 80.570312 53.210938 81.332031 52.269531 81.332031 Z M 68.433594 90.46875 L 88.167969 90.46875 L 88.167969 86.855469 L 77.382812 86.855469 L 77.382812 84.472656 L 88.167969 84.472656 L 88.167969 80.574219 L 77.382812 80.574219 L 77.382812 78.195312 L 88.167969 78.195312 L 88.167969 74.292969 L 68.433594 74.292969 Z M 103.214844 74.292969 L 94.265625 74.292969 L 94.265625 90.46875 L 112.277344 90.46875 L 112.277344 86.855469 L 103.214844 86.855469 Z M 124.304688 74.292969 L 115.359375 74.292969 L 115.359375 90.46875 L 133.371094 90.46875 L 133.371094 86.855469 L 124.304688 86.855469 Z M 124.304688 74.292969 "/>
</g>
</svg>