<?xml version="1.0" encoding="UTF-8"?>
<svg xmlns="http://www.w3.org/2000/svg" xmlns:xlink="http://www.w3.org/1999/xlink" width="64px" height="64px" viewBox="0 0 64 64" version="1.1">
<g id="surface1">
<rect x="0" y="0" width="64" height="64" style="fill:rgb(100%,100%,100%);fill-opacity:1;stroke:none;"/>
<path style=" stroke:none;fill-rule:evenodd;fill:rgb(0%,0%,0%);fill-opacity:1;" d="M 9.746094 38.601562 L 13.5625 38.601562 L 13.5625 31.699219 L 9.746094 31.699219 Z M 58.496094 38.601562 L 62.3125 38.601562 L 62.3125 31.699219 L 58.496094 31.699219 Z M 58.496094 38.601562 "/>
<path style=" stroke:none;fill-rule:evenodd;fill:rgb(0%,0%,0%);fill-opacity:1;" d="M 60.609375 25.398438 L 0.941406 25.398438 L 0.941406 38.570312 L 7.550781 38.570312 L 7.550781 30.296875 L 60.609375 30.296875 C 61.492188 30.3125 62.316406 29.847656 62.765625 29.085938 C 63.210938 28.320312 63.210938 27.375 62.765625 26.613281 C 62.316406 25.847656 61.492188 25.386719 60.609375 25.398438 Z M 53.28125 28.628906 L 7.550781 28.628906 L 7.550781 27.066406 L 53.28125 27.070312 C 53.5625 27.0625 53.824219 27.210938 53.96875 27.453125 C 54.109375 27.699219 54.109375 28 53.96875 28.242188 C 53.824219 28.484375 53.5625 28.632812 53.28125 28.628906 Z M 53.28125 28.628906 "/>
<path style=" stroke:none;fill-rule:evenodd;fill:rgb(0%,0%,0%);fill-opacity:1;" d="M 25.527344 36.121094 C 26.308594 35.769531 26.800781 34.984375 26.800781 34.070312 C 26.800781 32.828125 25.824219 31.699219 24.160156 31.699219 L 16.304688 31.699219 L 16.304688 38.601562 L 20.121094 38.601562 L 20.121094 36.375 L 21.371094 36.375 L 22.519531 38.601562 L 26.804688 38.601562 Z M 22.300781 34.703125 L 20.121094 34.703125 L 20.121094 33.242188 L 22.300781 33.246094 C 22.703125 33.246094 23.027344 33.574219 23.027344 33.972656 C 23.027344 34.375 22.703125 34.703125 22.300781 34.703125 Z M 29.199219 38.601562 L 37.617188 38.601562 L 37.617188 37.058594 L 33.015625 37.058594 L 33.015625 36.042969 L 37.617188 36.042969 L 37.617188 34.378906 L 33.015625 34.378906 L 33.015625 33.363281 L 37.617188 33.363281 L 37.617188 31.699219 L 29.199219 31.699219 Z M 44.039062 31.699219 L 40.21875 31.699219 L 40.21875 38.601562 L 47.90625 38.601562 L 47.90625 37.058594 L 44.039062 37.058594 Z M 53.039062 31.699219 L 49.21875 31.699219 L 49.21875 38.601562 L 56.902344 38.601562 L 56.902344 37.058594 L 53.039062 37.058594 Z M 53.039062 31.699219 "/>
</g>
</svg>
