<?xml version="1.0" encoding="UTF-8"?>
<svg xmlns="http://www.w3.org/2000/svg" xmlns:xlink="http://www.w3.org/1999/xlink" width="150px" height="150px" viewBox="0 0 150 150" version="1.1">
<g id="surface1">
<path style=" stroke:none;fill-rule:nonzero;fill:rgb(0%,0%,0%);fill-opacity:1;" d="M 75 0 C 33.578125 0 0 33.578125 0 75 C 0 116.421875 33.578125 150 75 150 C 116.421875 150 150 116.421875 150 75 C 150 33.578125 116.421875 0 75 0 Z M 75 122.804688 C 48.597656 122.804688 27.191406 101.40625 27.191406 75 C 27.191406 48.597656 48.597656 27.191406 75 27.191406 C 101.402344 27.191406 122.804688 48.597656 122.804688 75 C 122.804688 101.40625 101.402344 122.804688 75 122.804688 Z M 75 122.804688 "/>
<path style=" stroke:none;fill-rule:nonzero;fill:rgb(0%,0%,0%);fill-opacity:1;" d="M 75 79.621094 C 77.554688 79.621094 79.625 77.554688 79.625 75 C 79.625 72.445312 77.554688 70.375 75 70.375 C 72.445312 70.375 70.378906 72.445312 70.378906 75 C 70.375 77.554688 72.445312 79.621094 75 79.621094 Z M 75 79.621094 "/>
<path style=" stroke:none;fill-rule:nonzero;fill:rgb(0%,0%,0%);fill-opacity:1;" d="M 44.160156 57.613281 C 44.484375 58.476562 45.183594 59.148438 46.0625 59.433594 L 62.539062 64.789062 C 64.074219 65.285156 65.753906 65.019531 67.058594 64.074219 C 68.359375 63.121094 69.136719 61.605469 69.136719 59.996094 L 69.136719 42.679688 C 69.136719 41.757812 68.714844 40.882812 67.988281 40.3125 C 67.261719 39.734375 66.316406 39.527344 65.417969 39.734375 C 65.417969 39.734375 65.664062 39.550781 63.996094 40.070312 C 56.222656 42.523438 49.558594 47.496094 44.984375 54.035156 C 44.042969 55.378906 44.402344 54.996094 44.402344 54.996094 C 43.929688 55.78125 43.839844 56.746094 44.160156 57.613281 Z M 44.160156 57.613281 "/>
<path style=" stroke:none;fill-rule:nonzero;fill:rgb(0%,0%,0%);fill-opacity:1;" d="M 62.152344 79.179688 C 61.652344 77.640625 60.453125 76.4375 58.917969 75.941406 L 42.449219 70.59375 C 41.570312 70.308594 40.609375 70.441406 39.839844 70.949219 C 39.074219 71.460938 38.578125 72.296875 38.5 73.21875 C 38.5 73.21875 38.402344 72.929688 38.382812 74.671875 C 38.308594 82.828125 40.980469 90.695312 45.789062 97.070312 C 46.773438 98.378906 46.515625 97.917969 46.515625 97.917969 C 47.125 98.613281 48.011719 98.996094 48.929688 98.957031 C 49.855469 98.921875 50.710938 98.464844 51.25 97.714844 L 61.433594 83.695312 C 62.382812 82.394531 62.648438 80.710938 62.152344 79.179688 Z M 62.152344 79.179688 "/>
<path style=" stroke:none;fill-rule:nonzero;fill:rgb(0%,0%,0%);fill-opacity:1;" d="M 79.082031 90.585938 C 78.128906 89.285156 76.613281 88.511719 75 88.511719 C 73.386719 88.511719 71.871094 89.285156 70.925781 90.585938 L 60.746094 104.59375 C 60.207031 105.339844 60.03125 106.296875 60.285156 107.191406 C 60.53125 108.082031 61.171875 108.804688 62.027344 109.164062 C 62.027344 109.164062 61.714844 109.171875 63.375 109.726562 C 71.105469 112.316406 79.414062 112.203125 86.960938 109.601562 C 88.507812 109.070312 87.992188 109.171875 87.992188 109.171875 C 88.84375 108.816406 89.484375 108.085938 89.730469 107.199219 C 89.976562 106.304688 89.800781 105.351562 89.261719 104.605469 Z M 79.082031 90.585938 "/>
<path style=" stroke:none;fill-rule:nonzero;fill:rgb(0%,0%,0%);fill-opacity:1;" d="M 107.566406 70.585938 L 91.085938 75.941406 C 89.554688 76.4375 88.347656 77.640625 87.851562 79.179688 C 87.351562 80.710938 87.617188 82.390625 88.570312 83.691406 L 98.742188 97.703125 C 99.289062 98.453125 100.144531 98.902344 101.070312 98.945312 C 101.992188 98.984375 102.878906 98.597656 103.480469 97.898438 C 103.480469 97.898438 103.390625 98.191406 104.429688 96.792969 C 109.285156 90.238281 111.75 82.296875 111.609375 74.320312 C 111.582031 72.683594 111.511719 73.207031 111.511719 73.207031 C 111.433594 72.285156 110.941406 71.449219 110.171875 70.941406 C 109.402344 70.4375 108.445312 70.300781 107.566406 70.585938 Z M 107.566406 70.585938 "/>
<path style=" stroke:none;fill-rule:nonzero;fill:rgb(0%,0%,0%);fill-opacity:1;" d="M 82.941406 64.074219 C 84.25 65.019531 85.925781 65.285156 87.460938 64.789062 L 103.925781 59.433594 C 104.804688 59.148438 105.503906 58.476562 105.828125 57.613281 C 106.152344 56.746094 106.058594 55.78125 105.578125 54.988281 C 105.578125 54.988281 105.832031 55.164062 104.816406 53.746094 C 100.085938 47.101562 93.296875 42.304688 85.664062 39.972656 C 84.097656 39.496094 84.574219 39.71875 84.574219 39.71875 C 83.675781 39.511719 82.730469 39.726562 82.011719 40.300781 C 81.285156 40.867188 80.863281 41.742188 80.863281 42.664062 L 80.863281 59.992188 C 80.863281 61.605469 81.640625 63.121094 82.941406 64.074219 Z M 82.941406 64.074219 "/>
</g>
</svg>
