<?xml version="1.0" encoding="utf-8"?>
<!-- Generator: Adobe Illustrator 19.2.1, SVG Export Plug-In . SVG Version: 6.00 Build 0)  -->
<svg version="1.1" id="layer" xmlns="http://www.w3.org/2000/svg" xmlns:xlink="http://www.w3.org/1999/xlink" x="0px" y="0px"
	 viewBox="0 0 652 652" style="enable-background:new 0 0 652 652;" xml:space="preserve">
<style type="text/css">
	.st0{fill:#006BB6;}
</style>
<polygon class="st0" points="26.3,292 20.8,312.2 38.1,312.2 27.5,353 54.1,353 64.7,312.2 81.8,312.2 87.3,292 "/>
<g>
	<path class="st0" d="M120.9,310.5c5.9,0,8.3,2.7,8.3,7.1c0,6.9-3.3,13.4-4.2,15.1c-2.6,4.7-5.1,5.8-11.4,5.8
		c-3.5,0-7.8-1.4-7.8-7.7c0-3,2-9.9,4.3-14.2C113.2,310.8,116.7,310.5,120.9,310.5 M78.6,335c0,19.1,14.2,19.7,33.2,19.7
		c12.2,0,28.3-0.8,35-11.4c6.7-10.3,10.4-24.6,10.4-33.3c0-19.1-17.7-19.7-33.2-19.7c-15.6,0-28.3,1.5-35.7,13.3
		C82.2,313.3,78.6,326.3,78.6,335"/>
	<polygon class="st0" points="171.3,339.1 158.5,292 187.1,292 190.4,318.9 190.7,318.9 206.3,292 236.6,292 192.2,353 160.9,353 	
		"/>
	<path class="st0" d="M264.6,310.5c5.9,0,8.3,2.7,8.3,7.1c0,6.9-3.3,13.4-4.2,15.1c-2.6,4.7-5.1,5.8-11.4,5.8
		c-3.5,0-7.8-1.4-7.8-7.7c0-3,2-9.9,4.3-14.2C256.9,310.8,260.4,310.5,264.6,310.5 M222.3,335c0,19.1,14.2,19.7,33.2,19.7
		c12.2,0,28.3-0.8,35-11.4c6.7-10.3,10.4-24.6,10.4-33.3c0-19.1-17.7-19.7-33.2-19.7c-15.6,0-28.3,1.5-35.7,13.3
		C225.9,313.3,222.3,326.3,222.3,335"/>
	<polygon class="st0" points="327.5,312.2 311.5,312.2 316.6,292 373.1,292 368,312.2 352.1,312.2 342.3,353 317.7,353 	"/>
	<polygon class="st0" points="376.9,292 401.2,292 385.8,353 361.9,353 	"/>
	<path class="st0" d="M427.3,309.1h10.5c3.3,0,5.2,1.4,5.2,4.3c0,3.9-2.4,8.4-7.9,8.4h-10.9L427.3,309.1z M392.2,353h24.2l5-21.2
		l11.7,21.2h28.3L445,328h4.3c10.2,0,18.2-7,18.2-22.4c0-8.6-2.3-13.6-13.1-13.6h-46.8L392.2,353z"/>
	<polygon class="st0" points="476.3,292 534.7,292 530,311.3 496.2,311.3 494.7,318.1 528.4,318.1 525.2,331.2 491.5,331.2 
		490.1,336.7 523.9,336.7 520,353 461.7,353 	"/>
	<path class="st0" d="M529.1,336.5c9,1.2,18,1.9,27.1,1.9c2.6,0,8.2,0,8.2-3.9c0-2.9-1.4-3.5-15.6-3.5c-7.3,0-15.3-2.7-15.3-12.2
		c0-13.1,6.3-23.7,15.9-26.6c5.3-1.6,13-1.8,18.9-1.8c7.9,0,20.7,0.4,32.3,2.3l-5,18.8c-7.7-1-15.3-1.9-23.1-1.9
		c-9.4,0-11.7,1.4-11.7,4.3c0,2.4,1.6,3.1,14,3.1c9,0,17,0.4,17,13.3c0,4.7-2.1,11.3-3.7,14.2c-4.9,8.6-12.8,10.2-28.5,10.2
		c-12.7,0-23.5-0.8-34-2.8L529.1,336.5z"/>
	<path class="st0" d="M613.9,291.3c1.7,0,3.1,0.6,4.2,1.7c1.2,1.2,1.7,2.5,1.7,4.2c0,1.6-0.6,3-1.7,4.2c-1.2,1.2-2.6,1.7-4.2,1.7
		c-1.7,0-3.1-0.6-4.2-1.7c-1.2-1.2-1.7-2.6-1.7-4.2c0-1.6,0.6-3,1.7-4.2C610.8,291.9,612.2,291.3,613.9,291.3 M620.8,297.2
		c0-1.9-0.7-3.5-2-4.9c-1.4-1.3-3-2-4.9-2c-1.9,0-3.6,0.7-4.9,2c-1.4,1.3-2,3-2,4.9c0,1.9,0.7,3.5,2,4.9c1.4,1.4,3,2,4.9,2
		c1.9,0,3.6-0.7,4.9-2C620.2,300.8,620.8,299.2,620.8,297.2 M615.7,295.8c0,0.6-0.3,1-0.8,1.2c-0.3,0.1-0.7,0.2-1.3,0.2h-1.2v-2.7
		h1.2c0.8,0,1.3,0.1,1.6,0.3C615.5,294.9,615.7,295.2,615.7,295.8 M611,293.4v7.6h1.3v-3h1.1c0.7,0,1.2,0.1,1.5,0.2
		c0.5,0.3,0.7,0.9,0.7,1.7v0.6l0,0.2c0,0,0,0.1,0,0.1c0,0,0,0.1,0,0.1h1.3l-0.1-0.1c0-0.1-0.1-0.2-0.1-0.4c0-0.2,0-0.4,0-0.6v-0.6
		c0-0.4-0.1-0.8-0.4-1.2c-0.3-0.4-0.7-0.7-1.3-0.7c0.5-0.1,0.9-0.2,1.1-0.4c0.5-0.3,0.8-0.8,0.8-1.5c0-1-0.4-1.6-1.2-1.9
		c-0.4-0.2-1.1-0.3-2.1-0.3H611z"/>
</g>
</svg>
