<?xml version="1.0" encoding="UTF-8"?>
<svg xmlns="http://www.w3.org/2000/svg" xmlns:xlink="http://www.w3.org/1999/xlink" width="64px" height="64px" viewBox="0 0 64 64" version="1.1">
<g id="surface1">
<path style=" stroke:none;fill-rule:nonzero;fill:rgb(0%,41.960785%,71.372551%);fill-opacity:1;" d="M 2.582031 28.664062 L 2.042969 30.644531 L 3.738281 30.644531 L 2.699219 34.648438 L 5.308594 34.648438 L 6.351562 30.644531 L 8.03125 30.644531 L 8.570312 28.664062 Z M 2.582031 28.664062 "/>
<path style=" stroke:none;fill-rule:nonzero;fill:rgb(0%,41.960785%,71.372551%);fill-opacity:1;" d="M 11.867188 30.480469 C 12.445312 30.480469 12.683594 30.742188 12.683594 31.175781 C 12.683594 31.851562 12.359375 32.492188 12.269531 32.65625 C 12.015625 33.117188 11.769531 33.226562 11.152344 33.226562 C 10.808594 33.226562 10.386719 33.089844 10.386719 32.472656 C 10.386719 32.175781 10.582031 31.5 10.808594 31.078125 C 11.113281 30.507812 11.457031 30.480469 11.867188 30.480469 M 7.714844 32.882812 C 7.714844 34.757812 9.109375 34.816406 10.972656 34.816406 C 12.171875 34.816406 13.753906 34.738281 14.410156 33.699219 C 15.066406 32.6875 15.429688 31.285156 15.429688 30.429688 C 15.429688 28.554688 13.691406 28.496094 12.171875 28.496094 C 10.640625 28.496094 9.394531 28.644531 8.667969 29.800781 C 8.070312 30.753906 7.714844 32.03125 7.714844 32.882812 "/>
<path style=" stroke:none;fill-rule:nonzero;fill:rgb(0%,41.960785%,71.372551%);fill-opacity:1;" d="M 16.816406 33.285156 L 15.558594 28.664062 L 18.367188 28.664062 L 18.691406 31.304688 L 18.71875 31.304688 L 20.25 28.664062 L 23.222656 28.664062 L 18.867188 34.648438 L 15.792969 34.648438 Z M 16.816406 33.285156 "/>
<path style=" stroke:none;fill-rule:nonzero;fill:rgb(0%,41.960785%,71.372551%);fill-opacity:1;" d="M 25.972656 30.480469 C 26.550781 30.480469 26.789062 30.742188 26.789062 31.175781 C 26.789062 31.851562 26.464844 32.492188 26.375 32.65625 C 26.121094 33.117188 25.875 33.226562 25.257812 33.226562 C 24.914062 33.226562 24.492188 33.089844 24.492188 32.472656 C 24.492188 32.175781 24.6875 31.5 24.914062 31.078125 C 25.21875 30.507812 25.5625 30.480469 25.972656 30.480469 M 21.820312 32.882812 C 21.820312 34.757812 23.214844 34.816406 25.078125 34.816406 C 26.277344 34.816406 27.859375 34.738281 28.515625 33.699219 C 29.171875 32.6875 29.535156 31.285156 29.535156 30.429688 C 29.535156 28.554688 27.796875 28.496094 26.277344 28.496094 C 24.746094 28.496094 23.5 28.644531 22.773438 29.800781 C 22.175781 30.753906 21.820312 32.03125 21.820312 32.882812 "/>
<path style=" stroke:none;fill-rule:nonzero;fill:rgb(0%,41.960785%,71.372551%);fill-opacity:1;" d="M 32.148438 30.644531 L 30.578125 30.644531 L 31.078125 28.664062 L 36.625 28.664062 L 36.121094 30.644531 L 34.5625 30.644531 L 33.601562 34.648438 L 31.183594 34.648438 Z M 32.148438 30.644531 "/>
<path style=" stroke:none;fill-rule:nonzero;fill:rgb(0%,41.960785%,71.372551%);fill-opacity:1;" d="M 36.996094 28.664062 L 39.382812 28.664062 L 37.871094 34.648438 L 35.523438 34.648438 Z M 36.996094 28.664062 "/>
<path style=" stroke:none;fill-rule:nonzero;fill:rgb(0%,41.960785%,71.372551%);fill-opacity:1;" d="M 41.945312 30.339844 L 42.972656 30.339844 C 43.296875 30.339844 43.484375 30.480469 43.484375 30.761719 C 43.484375 31.144531 43.25 31.585938 42.710938 31.585938 L 41.640625 31.585938 Z M 38.5 34.648438 L 40.875 34.648438 L 41.363281 32.570312 L 42.511719 34.648438 L 45.289062 34.648438 L 43.679688 32.195312 L 44.101562 32.195312 C 45.105469 32.195312 45.890625 31.507812 45.890625 29.996094 C 45.890625 29.152344 45.664062 28.664062 44.605469 28.664062 L 40.011719 28.664062 Z M 38.5 34.648438 "/>
<path style=" stroke:none;fill-rule:nonzero;fill:rgb(0%,41.960785%,71.372551%);fill-opacity:1;" d="M 46.753906 28.664062 L 52.484375 28.664062 L 52.023438 30.558594 L 48.707031 30.558594 L 48.558594 31.222656 L 51.867188 31.222656 L 51.554688 32.511719 L 48.246094 32.511719 L 48.109375 33.050781 L 51.425781 33.050781 L 51.042969 34.648438 L 45.320312 34.648438 Z M 46.753906 28.664062 "/>
<path style=" stroke:none;fill-rule:nonzero;fill:rgb(0%,41.960785%,71.372551%);fill-opacity:1;" d="M 51.9375 33.03125 C 52.820312 33.148438 53.703125 33.21875 54.597656 33.21875 C 54.851562 33.21875 55.402344 33.21875 55.402344 32.835938 C 55.402344 32.550781 55.265625 32.492188 53.871094 32.492188 C 53.152344 32.492188 52.367188 32.226562 52.367188 31.292969 C 52.367188 30.007812 52.988281 28.96875 53.929688 28.683594 C 54.449219 28.523438 55.203125 28.503906 55.785156 28.503906 C 56.558594 28.503906 57.816406 28.542969 58.953125 28.730469 L 58.464844 30.578125 C 57.707031 30.480469 56.960938 30.390625 56.195312 30.390625 C 55.273438 30.390625 55.046875 30.527344 55.046875 30.8125 C 55.046875 31.046875 55.203125 31.117188 56.421875 31.117188 C 57.304688 31.117188 58.089844 31.15625 58.089844 32.421875 C 58.089844 32.882812 57.882812 33.53125 57.726562 33.816406 C 57.246094 34.660156 56.472656 34.816406 54.929688 34.816406 C 53.683594 34.816406 52.625 34.738281 51.59375 34.542969 Z M 51.9375 33.03125 "/>
<path style=" stroke:none;fill-rule:nonzero;fill:rgb(0%,41.960785%,71.372551%);fill-opacity:1;" d="M 60.261719 28.59375 C 60.425781 28.59375 60.5625 28.652344 60.671875 28.761719 C 60.789062 28.878906 60.839844 29.007812 60.839844 29.171875 C 60.839844 29.328125 60.78125 29.46875 60.671875 29.585938 C 60.554688 29.703125 60.417969 29.753906 60.261719 29.753906 C 60.09375 29.753906 59.957031 29.691406 59.847656 29.585938 C 59.730469 29.46875 59.679688 29.328125 59.679688 29.171875 C 59.679688 29.015625 59.738281 28.878906 59.847656 28.761719 C 59.957031 28.652344 60.09375 28.59375 60.261719 28.59375 M 60.9375 29.171875 C 60.9375 28.988281 60.867188 28.828125 60.742188 28.691406 C 60.605469 28.5625 60.445312 28.496094 60.261719 28.496094 C 60.074219 28.496094 59.90625 28.5625 59.777344 28.691406 C 59.640625 28.820312 59.582031 28.988281 59.582031 29.171875 C 59.582031 29.359375 59.652344 29.515625 59.777344 29.652344 C 59.917969 29.792969 60.074219 29.851562 60.261719 29.851562 C 60.445312 29.851562 60.613281 29.78125 60.742188 29.652344 C 60.878906 29.527344 60.9375 29.371094 60.9375 29.171875 M 60.4375 29.035156 C 60.4375 29.09375 60.40625 29.132812 60.359375 29.152344 C 60.328125 29.164062 60.289062 29.171875 60.230469 29.171875 L 60.113281 29.171875 L 60.113281 28.90625 L 60.230469 28.90625 C 60.308594 28.90625 60.359375 28.917969 60.386719 28.9375 C 60.417969 28.945312 60.4375 28.976562 60.4375 29.035156 M 59.976562 28.800781 L 59.976562 29.546875 L 60.101562 29.546875 L 60.101562 29.25 L 60.210938 29.25 C 60.28125 29.25 60.328125 29.261719 60.359375 29.269531 C 60.40625 29.300781 60.425781 29.359375 60.425781 29.4375 L 60.425781 29.515625 C 60.425781 29.515625 60.425781 29.527344 60.425781 29.527344 C 60.425781 29.527344 60.425781 29.535156 60.425781 29.535156 L 60.554688 29.535156 L 60.542969 29.527344 C 60.542969 29.515625 60.535156 29.507812 60.535156 29.488281 C 60.535156 29.46875 60.535156 29.449219 60.535156 29.429688 L 60.535156 29.371094 C 60.535156 29.328125 60.523438 29.289062 60.496094 29.25 C 60.464844 29.210938 60.425781 29.183594 60.367188 29.183594 C 60.417969 29.171875 60.457031 29.164062 60.476562 29.144531 C 60.523438 29.113281 60.554688 29.066406 60.554688 28.996094 C 60.554688 28.898438 60.515625 28.839844 60.4375 28.808594 C 60.398438 28.789062 60.328125 28.78125 60.230469 28.78125 L 59.976562 28.78125 Z M 59.976562 28.800781 "/>
</g>
</svg>
