<?xml version="1.0" encoding="UTF-8"?>
<svg xmlns="http://www.w3.org/2000/svg" xmlns:xlink="http://www.w3.org/1999/xlink" width="150px" height="150px" viewBox="0 0 150 150" version="1.1">
<g id="surface1">
<path style=" stroke:none;fill-rule:nonzero;fill:rgb(0%,41.960785%,71.372551%);fill-opacity:1;" d="M 6.050781 67.179688 L 4.785156 71.824219 L 8.765625 71.824219 L 6.328125 81.210938 L 12.445312 81.210938 L 14.886719 71.824219 L 18.820312 71.824219 L 20.085938 67.179688 Z M 6.050781 67.179688 "/>
<path style=" stroke:none;fill-rule:nonzero;fill:rgb(0%,41.960785%,71.372551%);fill-opacity:1;" d="M 27.8125 71.433594 C 29.171875 71.433594 29.722656 72.054688 29.722656 73.066406 C 29.722656 74.65625 28.964844 76.148438 28.757812 76.542969 C 28.160156 77.621094 27.585938 77.875 26.136719 77.875 C 25.328125 77.875 24.339844 77.554688 24.339844 76.105469 C 24.339844 75.414062 24.800781 73.828125 25.328125 72.835938 C 26.042969 71.503906 26.847656 71.433594 27.8125 71.433594 M 18.082031 77.070312 C 18.082031 81.464844 21.351562 81.601562 25.722656 81.601562 C 28.527344 81.601562 32.230469 81.417969 33.773438 78.980469 C 35.3125 76.609375 36.164062 73.320312 36.164062 71.320312 C 36.164062 66.925781 32.09375 66.785156 28.527344 66.785156 C 24.9375 66.785156 22.015625 67.132812 20.3125 69.847656 C 18.910156 72.078125 18.082031 75.070312 18.082031 77.070312 "/>
<path style=" stroke:none;fill-rule:nonzero;fill:rgb(0%,41.960785%,71.372551%);fill-opacity:1;" d="M 39.410156 78.015625 L 36.464844 67.179688 L 43.042969 67.179688 L 43.804688 73.367188 L 43.871094 73.367188 L 47.460938 67.179688 L 54.433594 67.179688 L 44.21875 81.210938 L 37.015625 81.210938 Z M 39.410156 78.015625 "/>
<path style=" stroke:none;fill-rule:nonzero;fill:rgb(0%,41.960785%,71.372551%);fill-opacity:1;" d="M 60.875 71.433594 C 62.230469 71.433594 62.785156 72.054688 62.785156 73.066406 C 62.785156 74.65625 62.023438 76.148438 61.816406 76.542969 C 61.21875 77.621094 60.644531 77.875 59.195312 77.875 C 58.390625 77.875 57.398438 77.554688 57.398438 76.105469 C 57.398438 75.414062 57.859375 73.828125 58.390625 72.835938 C 59.101562 71.503906 59.90625 71.433594 60.875 71.433594 M 51.144531 77.070312 C 51.144531 81.464844 54.410156 81.601562 58.78125 81.601562 C 61.585938 81.601562 65.292969 81.417969 66.832031 78.980469 C 68.375 76.609375 69.226562 73.320312 69.226562 71.320312 C 69.226562 66.925781 65.152344 66.785156 61.585938 66.785156 C 58 66.785156 55.078125 67.132812 53.375 69.847656 C 51.972656 72.078125 51.144531 75.070312 51.144531 77.070312 "/>
<path style=" stroke:none;fill-rule:nonzero;fill:rgb(0%,41.960785%,71.372551%);fill-opacity:1;" d="M 75.34375 71.824219 L 71.664062 71.824219 L 72.835938 67.179688 L 85.835938 67.179688 L 84.664062 71.824219 L 81.003906 71.824219 L 78.75 81.210938 L 73.089844 81.210938 Z M 75.34375 71.824219 "/>
<path style=" stroke:none;fill-rule:nonzero;fill:rgb(0%,41.960785%,71.372551%);fill-opacity:1;" d="M 86.710938 67.179688 L 92.300781 67.179688 L 88.757812 81.210938 L 83.257812 81.210938 Z M 86.710938 67.179688 "/>
<path style=" stroke:none;fill-rule:nonzero;fill:rgb(0%,41.960785%,71.372551%);fill-opacity:1;" d="M 98.304688 71.113281 L 100.722656 71.113281 C 101.480469 71.113281 101.917969 71.433594 101.917969 72.101562 C 101.917969 73 101.363281 74.035156 100.101562 74.035156 L 97.59375 74.035156 Z M 90.230469 81.210938 L 95.796875 81.210938 L 96.949219 76.335938 L 99.640625 81.210938 L 106.148438 81.210938 L 102.378906 75.460938 L 103.367188 75.460938 C 105.714844 75.460938 107.554688 73.851562 107.554688 70.308594 C 107.554688 68.328125 107.023438 67.179688 104.539062 67.179688 L 93.773438 67.179688 Z M 90.230469 81.210938 "/>
<path style=" stroke:none;fill-rule:nonzero;fill:rgb(0%,41.960785%,71.372551%);fill-opacity:1;" d="M 109.578125 67.179688 L 123.015625 67.179688 L 121.933594 71.617188 L 114.15625 71.617188 L 113.8125 73.183594 L 121.5625 73.183594 L 120.828125 76.195312 L 113.074219 76.195312 L 112.753906 77.460938 L 120.527344 77.460938 L 119.632812 81.210938 L 106.21875 81.210938 Z M 109.578125 67.179688 "/>
<path style=" stroke:none;fill-rule:nonzero;fill:rgb(0%,41.960785%,71.372551%);fill-opacity:1;" d="M 121.726562 77.414062 C 123.796875 77.691406 125.867188 77.851562 127.960938 77.851562 C 128.558594 77.851562 129.847656 77.851562 129.847656 76.957031 C 129.847656 76.289062 129.523438 76.148438 126.257812 76.148438 C 124.578125 76.148438 122.738281 75.527344 122.738281 73.34375 C 122.738281 70.328125 124.1875 67.890625 126.394531 67.222656 C 127.613281 66.855469 129.386719 66.808594 130.742188 66.808594 C 132.5625 66.808594 135.507812 66.902344 138.175781 67.339844 L 137.023438 71.664062 C 135.253906 71.433594 133.503906 71.226562 131.710938 71.226562 C 129.546875 71.226562 129.019531 71.550781 129.019531 72.214844 C 129.019531 72.769531 129.386719 72.929688 132.238281 72.929688 C 134.308594 72.929688 136.148438 73.019531 136.148438 75.988281 C 136.148438 77.070312 135.667969 78.589844 135.300781 79.257812 C 134.171875 81.234375 132.355469 81.601562 128.742188 81.601562 C 125.820312 81.601562 123.335938 81.417969 120.921875 80.957031 Z M 121.726562 77.414062 "/>
<path style=" stroke:none;fill-rule:nonzero;fill:rgb(0%,41.960785%,71.372551%);fill-opacity:1;" d="M 141.234375 67.015625 C 141.625 67.015625 141.949219 67.15625 142.199219 67.40625 C 142.476562 67.683594 142.59375 67.984375 142.59375 68.375 C 142.59375 68.742188 142.453125 69.0625 142.199219 69.339844 C 141.925781 69.617188 141.601562 69.730469 141.234375 69.730469 C 140.84375 69.730469 140.519531 69.59375 140.269531 69.339844 C 139.992188 69.0625 139.878906 68.742188 139.878906 68.375 C 139.878906 68.007812 140.015625 67.683594 140.269531 67.40625 C 140.519531 67.15625 140.84375 67.015625 141.234375 67.015625 M 142.820312 68.375 C 142.820312 67.9375 142.660156 67.570312 142.363281 67.246094 C 142.039062 66.949219 141.671875 66.785156 141.234375 66.785156 C 140.796875 66.785156 140.40625 66.949219 140.105469 67.246094 C 139.785156 67.546875 139.648438 67.9375 139.648438 68.375 C 139.648438 68.8125 139.808594 69.179688 140.105469 69.5 C 140.429688 69.824219 140.796875 69.960938 141.234375 69.960938 C 141.671875 69.960938 142.0625 69.800781 142.363281 69.5 C 142.683594 69.203125 142.820312 68.835938 142.820312 68.375 M 141.648438 68.050781 C 141.648438 68.191406 141.578125 68.28125 141.464844 68.328125 C 141.394531 68.351562 141.304688 68.375 141.164062 68.375 L 140.890625 68.375 L 140.890625 67.753906 L 141.164062 67.753906 C 141.351562 67.753906 141.464844 67.777344 141.535156 67.820312 C 141.601562 67.84375 141.648438 67.914062 141.648438 68.050781 M 140.566406 67.5 L 140.566406 69.25 L 140.867188 69.25 L 140.867188 68.558594 L 141.121094 68.558594 C 141.28125 68.558594 141.394531 68.582031 141.464844 68.605469 C 141.578125 68.671875 141.625 68.8125 141.625 68.996094 L 141.625 69.179688 C 141.625 69.179688 141.625 69.203125 141.625 69.203125 C 141.625 69.203125 141.625 69.226562 141.625 69.226562 L 141.925781 69.226562 L 141.902344 69.203125 C 141.902344 69.179688 141.878906 69.15625 141.878906 69.109375 C 141.878906 69.0625 141.878906 69.019531 141.878906 68.972656 L 141.878906 68.835938 C 141.878906 68.742188 141.855469 68.648438 141.785156 68.558594 C 141.71875 68.464844 141.625 68.398438 141.488281 68.398438 C 141.601562 68.375 141.695312 68.351562 141.742188 68.304688 C 141.855469 68.234375 141.925781 68.121094 141.925781 67.960938 C 141.925781 67.730469 141.832031 67.59375 141.648438 67.523438 C 141.558594 67.476562 141.394531 67.453125 141.164062 67.453125 L 140.566406 67.453125 Z M 140.566406 67.5 "/>
</g>
</svg>
