<?xml version="1.0" encoding="UTF-8"?>
<!DOCTYPE svg PUBLIC "-//W3C//DTD SVG 1.1//EN" "http://www.w3.org/Graphics/SVG/1.1/DTD/svg11.dtd">
<!-- Creator: CorelDRAW -->
<svg xmlns="http://www.w3.org/2000/svg" xml:space="preserve" width="126.577mm" height="8.2972mm" version="1.1" style="shape-rendering:geometricPrecision; text-rendering:geometricPrecision; image-rendering:optimizeQuality; fill-rule:evenodd; clip-rule:evenodd"
viewBox="0 0 12657.66 829.72"
 xmlns:xlink="http://www.w3.org/1999/xlink"
 xmlns:xodm="http://www.corel.com/coreldraw/odm/2003"
 sodipodi:docname="Comisión_Federal_de_Electricidad_(logo)_.svg"
 inkscape:version="1.1 (c68e22c387, 2021-05-23)"
 xmlns:inkscape="http://www.inkscape.org/namespaces/inkscape"
 xmlns:sodipodi="http://sodipodi.sourceforge.net/DTD/sodipodi-0.dtd"
 xmlns:svg="http://www.w3.org/2000/svg">
 <defs>
  <style type="text/css">
   <![CDATA[
    .fil6 {fill:#18355E}
    .fil8 {fill:#BB1338}
    .fil7 {fill:#EA0A2A}
    .fil4 {fill:#EEEEEE}
    .fil3 {fill:#FA0202}
    .fil1 {fill:#FD7D1D}
    .fil5 {fill:#FDFDFD}
    .fil2 {fill:white}
    .fil0 {fill:#008E5A;fill-rule:nonzero}
   ]]>
  </style>
 </defs>
 <g id="Capa_x0020_1">
  <metadata id="CorelCorpID_0Corel-Layer"/>
  <g id="_105553218411328">
   <sodipodi:namedview id="namedview5" pagecolor="#ffffff" bordercolor="#666666" borderopacity="1.0" inkscape:pageshadow="2" inkscape:pageopacity="0.0" inkscape:pagecheckerboard="0" inkscape:document-units="mm" showgrid="false" inkscape:zoom="0.069309373" inkscape:cx="2315.7041" inkscape:cy="1450.0203" inkscape:window-width="1920" inkscape:window-height="1017" inkscape:window-x="1912" inkscape:window-y="-8" inkscape:window-maximized="1" inkscape:current-layer="svg8"/>
   <path id="path2" class="fil0" d="M1103.26 716.74c-11.88,-5.18 -13.28,-19.77 -5.33,-55.62 4.73,-21.36 13.18,-37.09 18.84,-43.46 5.35,-6.03 12.84,-9.77 24.81,-9.81 19.44,-0.07 30.87,8.06 28.28,26.37l-1.27 8.98 -20.3 0.08 1.36 -7.42c1.58,-8.54 -1.41,-12.01 -8.21,-11.95 -5.36,0.05 -11.32,5.59 -14.38,11.57 -2.7,5.27 -13.99,48.96 -13.99,56.24 0,6.55 4.01,13.56 10.32,13.56 13.91,-0.55 14.59,-14.03 17.56,-24.13l19.7 -0.23c-5.51,32.83 -28.17,47.51 -57.39,35.82l0 0zm68.53 -2.74c-5.84,-5.84 -3.71,-9.6 -0.65,-26.95 3.36,-19.04 8.11,-34.92 13.45,-41.4 11.65,-14.13 40.27,-15.14 45.04,-0.46 3.37,10.36 -3.54,53.04 -11.39,64.08 -5.04,7.1 -15.78,11.92 -29.33,11.92 -10.78,0 -12.4,-2.47 -17.12,-7.19l0 0zm30.21 -11.44c1.59,-1.76 5.33,-13.76 7.97,-26.19 5.1,-24.06 3.38,-28.5 -4.49,-28.5 -9.49,0 -11.28,3.41 -17.59,33.49 -3.05,14.6 -3.39,18.87 -1.66,20.96 5.29,6.1 12.87,5.1 15.77,0.24l0 0zm183.95 15.4c-7.41,-2.71 -10.7,-8.19 -10.7,-17.78l0.87 -8.2 18.73 -0.01c-1.51,7.27 -0.8,15.09 5.59,15.79 4.44,0.43 7.41,-2.3 9.69,-5.77 3.82,-5.84 0.11,-10.43 -12.31,-20.02 -11.34,-8.74 -13.79,-13.73 -12.52,-24.98 1.65,-14.58 15.16,-23.07 34.01,-21.51 13.65,1.13 18.36,4.5 18.36,16.36l0.05 9.59 -17.91 -0.06 0.02 -4.81c0.03,-7.79 -10.18,-10.94 -14.61,-3.87 -3.48,5.54 -1.86,7.97 5.19,14.41 4.62,4.21 10.71,8.13 13.37,10.51 6.69,5.99 7.95,14.34 3.61,24.03 -4.04,9.04 -7.9,14.29 -16.3,17.11 -6.21,2.09 -20.36,0.95 -25.14,-0.8l0 0.01zm99.84 0.41c-8.46,-3.1 -10.46,-12.73 -6.83,-32.91 5.46,-30.42 13.48,-45.31 26.33,-48.88 15.32,-4.25 30.98,-0.45 34.34,8.34 2.26,5.89 1.01,18.63 -3.86,39.57 -6.37,27.41 -14.79,36 -35.01,35.72 -5.68,-0.07 -12.42,-0.9 -14.97,-1.84l0 0zm26.07 -16.53c4.26,-6.5 11.63,-43.5 9.69,-48.61 -2.82,-7.42 -13.94,-4.74 -17.39,4.19 -1.06,2.73 -3.7,13.56 -5.88,24.07 -3.24,15.66 -3.54,19.59 -1.67,21.85 3.56,4.29 12,3.45 15.25,-1.5l0 0zm200.15 -3.76c0.97,-13.66 8.05,-41.36 12.87,-48.51 6.68,-9.9 14.85,-15.52 28.72,-14.86 19.3,0.92 22.66,6.77 19.29,31.69l-1.78 14.63 -39.24 0.29c-0.04,0.73 -0.77,4.93 -1.62,9.33 -1.85,9.62 0.02,16.29 6.01,16.29 11.58,0.6 12.79,-12.46 13.83,-15.13l18.5 -0.24c-0.38,13.47 -9.18,20.22 -16.09,25.57 -8.24,6.7 -26.48,3.69 -30.36,0.48 -9.45,-5.78 -10.47,-10.62 -10.12,-19.54l-0.01 0zm25.29 -30.98l18.5 -0.18c8.16,-23.36 -17.97,-25.35 -18.5,0.18zm44.72 47.42c-4.81,-6.12 -2.89,-10.06 2.68,-36.44 6.7,-31.71 11.86,-40.15 25.7,-42 5.81,-0.78 8.5,-0.17 12.59,2.85l5.19 3.84 7.32 -31.93 17.89 -0.22 -22.66 107.77 -18.11 0.08 0.03 -2.32c0.04,-3.31 0.43,-3.14 -5.37,0.79 -8.77,5.96 -18.19,5.43 -23.48,-0.44l-1.78 -1.98zm30.11 -11.09c2.74,-3.02 11.89,-38.72 11.89,-46.37 0,-8.87 -12.28,-9.48 -15.83,-0.79 -2.64,6.45 -9.05,35.75 -9.1,41.58 -0.07,8.46 8.06,13.04 13.04,5.58l0 0zm45.22 13.98c-6.16,-2.48 -9.82,-9.66 -9.75,-19.13 0.1,-12.94 6.79,-41.01 11.82,-49.59 6.25,-10.67 17.1,-15.76 31.34,-14.73 18.76,1.35 22.79,9.63 17.51,35.91l-1.7 11.86c-12.28,-0.05 -35.22,0.21 -37.86,0.16l-2.03 13.05c-0.81,22.23 19,11.04 19.84,-4.07l16.31 -0.22c0.78,0.65 0.08,2.65 -0.48,4.93 -4.71,24.15 -27.17,28.15 -45,21.83l0 0zm34.73 -50.42c2.35,-5.9 1.64,-16.87 -3.94,-18.35 -8.57,-2.15 -14.69,11.4 -13.84,18.22l17.78 0.13zm64.62 35.66c-0.03,-10.35 6.13,-19.85 13.59,-25.16 2.97,-2.12 10.1,-5.59 16.22,-8.06 14.97,-5.12 18.77,-11.1 18.08,-16.95 -7.03,-10.34 -20.97,0.37 -20.82,8.6l-16.91 -0.14c1.56,-5.93 1.98,-10 5.09,-13.92 12.78,-16.42 52.05,-16.72 52.47,3.83 -4.52,22.58 -10.32,45.73 -12.99,67.5l-18.53 0.15c-0.88,0.01 0.21,-2.22 0.21,-3.55 0,-3.48 0.39,-3.24 -5.87,1.01 -17.45,9.54 -30.35,3.89 -30.54,-13.31l0 0zm34.25 0.48c1.95,-2.09 5.25,-9.28 6.28,-14.11 3,-13.97 3.08,-13.65 -5.72,-8.73 -4.32,2.42 -10,6.67 -11.11,8.02 -3.34,4.02 -5.32,10.3 -3.81,13.66 2.32,5.17 10.14,6.54 14.36,1.16l0 0zm108.49 12.94c-6.1,-4.94 -6.35,-14.72 -0.99,-38.77 7.66,-34.3 14.07,-38.59 24.64,-41.64 10.66,-1.73 15.54,-0.82 20.74,7.64l6.69 -32.85 17.86 0.09 -23.04 107.69 -17.6 0.13 0.06 -4.98c-6.48,4.47 -15.41,13.93 -29.33,2.69l0.97 0zm28.76 -13.23c2.81,-3.11 10.34,-39.1 10.38,-47.03 0.03,-7.87 -7.86,-10.45 -13.36,-4.38 -3.11,3.44 -9.9,36.58 -10.07,45.87 -0.16,8.49 7.45,11.72 13.05,5.54zm43.88 13.69c-6.58,-3.7 -8.52,-7.92 -8.52,-18.53 0,-8.99 6.33,-34.77 10.01,-43.94 8.31,-23.25 52.29,-28.93 52.41,-1.51 0,5.18 -0.86,13.44 -1.91,18.36l-2.2 9.95 -37.8 0.01 -1.67 8.64c-1.9,9.86 0.05,16.36 6.24,17.28 11.07,0.85 12.69,-11.65 14.09,-16.14l18.7 0.15c-0.68,8.42 -9.13,22.15 -15.74,25.82 -7.93,4.39 -26.14,4.12 -33.61,-0.09l0 0zm35.84 -49.22c8.03,-29.75 -21.92,-18.36 -19.05,0.17l19.05 -0.17zm168.73 49.51c-9.03,-7.24 -11.92,-14.4 -5.97,-41.7 6.88,-31.58 23.17,-40.37 39.99,-40.88 16.81,-0.5 28.24,14.81 16.09,46.78l-38.42 -0.16 -2.68 12.18c-1.73,7.84 1.83,13.75 7.93,13.92 9.13,0.25 11.3,-10.48 12.03,-14.84l17.63 -0.15c0.42,9.05 -5.62,18.5 -12.33,23.32 -8.25,5.91 -25.91,8.23 -34.27,1.53l0 0zm16.86 -49.77l18.2 0.21c7.46,-33.4 -23.32,-14.77 -18.2,-0.21zm47.98 49.44c-8.81,-4.79 -9.62,-12.32 -4.1,-37.97 6.92,-32.12 15.48,-40.53 30.38,-42.95 16.23,-2.64 27.16,3.51 26.79,15.94l-1.45 13.07 -18.45 0.44 1.55 -7.64c1.66,-8.27 -5.38,-10.97 -10.67,-6.19 -3.56,3.23 -9.77,23.77 -12.28,42.71 -1.04,7.83 0.41,11.5 3.09,12.52 10.52,1.79 12.99,-12.56 13.88,-19.03l17.29 -0.24c-1.3,14.44 -8.81,25.12 -17.85,30.86 -6.73,4.1 -21.25,2.24 -28.18,-1.52l0 0zm63.22 3.15c-10.77,-1.54 -11.68,-5.55 -3.81,-41.68 2.92,-13.42 7.01,-26.57 6.45,-26.61l-6.61 -0.08 1.85 -13.73 8.43 -0.21 4.09 -21.91 18.78 0 -5.48 21.5 9.05 -0.19 -2.58 14.34 -9.13 0.16c-7.62,45.86 -18.94,55.19 -3.04,53.84l-2.55 12.75c-4.28,2.36 -9.21,2.71 -15.45,1.82l0 0zm114.29 -2.1c-5.55,-2.38 -8.44,-8.48 -8.44,-15.22 0,-8.1 8.74,-45.83 11.83,-51.78 7.53,-14.48 23.83,-19.43 38.35,-12.55 7.07,5.04 10.29,8.3 7.15,27.15l-17.1 -0.1c5.24,-17.99 -9.67,-22.4 -14.44,-3.82 -1.03,4.03 -7.18,27.48 -7.24,36.2 -0.09,11.77 14.61,14.24 15.08,-9.88l19.8 -0.21c-1.89,23.53 -20.05,42.16 -44.99,30.21l0 0zm91.41 -1.67c-4.97,-5.49 -4.25,-14.49 -0.08,-35.12 7.07,-34.99 14.69,-43.5 28.7,-45.38 9.12,-0.83 9.41,0.75 15.81,7.89l6.53 -33.04 19.47 0.12 -22.76 107.94 -18.4 0.24 0.42 -5.56c-7.56,6.7 -10.92,7.63 -19.65,7.84 -3.66,0 -8.21,-2.91 -10.04,-4.93l0 0zm29.45 -12.23c4.31,-4.76 13.37,-46.24 10.93,-50.15 -2.76,-4.39 -8.37,-4.6 -12.14,-0.44 -3.21,3.55 -13.17,33.99 -13.24,43.07 0.81,11.88 9.79,12.32 14.45,7.52l0 0zm36.26 11.2c-3.63,-3.98 -4.51,-12.51 -0.56,-23.82 3.15,-9.02 10.15,-13.7 26.4,-20.62 14.66,-6.24 21.38,-13.04 17.5,-17.71 -13.79,-8.42 -18.31,2.75 -19.88,9.07l-16.68 -0.34c-0.52,-0.83 1.01,-5.49 3.19,-9.8 6.78,-13.45 23.38,-20.2 41.93,-15.04 12.36,3.43 11.02,4.33 3.21,50.97l-5.28 31.51 -17.21 0.02 0.06 -5.52c-8.96,4.58 -21.36,12.42 -32.68,1.28l0 0zm31.76 -11.16c2.85,-4.35 8.29,-25.4 7,-26.68 -1.23,-1.23 -20.2,11.95 -21.3,14.8 -1.47,3.84 -1.42,12.41 0.08,13.91 4.85,2.2 11.85,1.29 14.22,-2.03l0 0zm39.74 13.81c-6.3,-5.99 -5.76,-13.6 -0.69,-38.41 5.52,-27.07 9.49,-35.88 17.1,-40.52 12.97,-7.18 23.22,-2.49 27.67,4.44l5.98 -32.37 19.09 -0.08c-1.02,2.97 -23.43,106.29 -23.43,108.12l-17.36 -0.04 0.74 -6.37c0.51,-2.95 -2.19,0.63 -7.08,4.75 -5.95,5 -16.1,3.94 -22.02,0.49l0 -0.01zm28.46 -14.18c3.62,-4 9.22,-24.17 10.9,-39.26 0.59,-6.7 0.5,-10.36 -1.7,-12.19 -10.31,-5.52 -14.55,2.09 -19.9,28.5 -2.98,14.7 -3.76,21.36 -2.22,24.24 4.13,4.6 10.44,1.33 12.92,-1.29l0 0zm-1642.62 14.74l17.09 -81.01 18.2 0.02 -0.38 6.47c11.06,-8.3 22.58,-13.18 35.72,0.2 6.5,-7.79 18.63,-10.68 27.09,-7.69 9.19,3.54 9.55,7.13 3.34,36.32l-9.5 45.07 -17.54 -0.11 7.69 -33.84c7.87,-28.52 5.95,-35.42 -2.52,-34.4 -8.66,1.04 -13.26,9.59 -22.98,58.09l-2.06 10.26 -17.33 0.07c0,-1.44 3.17,-15.8 5.99,-28.82 7.7,-35.65 7.6,-34.78 4.63,-37.24 -3.83,-3.18 -10.94,-3.31 -14.7,1.78 -1.81,2.46 -4.91,12.09 -6.88,21.41 -3.02,14.27 -5.51,29.07 -8.58,43.34l-17.28 0.08zm125.05 -81.77l18.43 0.35 -16.41 81 -19.11 -0.01 17.09 -81.34zm79.45 81.56l17.84 -80.49 17.93 0.02 -17.3 80.53 -18.47 -0.06zm119.47 -80.66l18.84 0.23c1.46,0.02 0.03,5.45 0.03,5.84 3.95,-7.28 17.3,-11.27 25.75,-6.98 7.29,3.9 7.12,8.47 0.37,44.39l-7.03 37.38 -18.33 0.07 5.79 -31c7.11,-28.94 7.18,-36.01 0.66,-36.77 -5.47,-0.58 -10.91,2.55 -18.91,36.38l-5.38 31.4 -18.3 0.04 16.51 -80.98zm85.29 81.7l21.53 -107.55 55.94 -0.11 -2.44 13.36 -37.26 0.11 -6.05 28.79 34.65 0.57 -2.3 14.61 -35.47 -0.17 -10.25 49.88 -18.35 0.51zm270.44 -0.27l15.95 -81.2 17.67 -0.19 -1.23 11.76c4.34,-4.58 10.71,-13.74 21.06,-12.94l-3.17 21.3c-17.28,1.66 -22.1,6.89 -25.16,20.44l-6.33 40.59 -18.79 0.24zm113.21 -0.26l22.82 -107.32 19.05 0.16 -22.62 107.12 -19.25 0.04zm233.58 -0.46l22.5 -108.36 56.86 -0.57 -3.41 16.16 -36.41 0.45 -5.18 28.49 33.41 0.06 -2.56 15.5 -34.26 -0.13 -6.77 32.96 34.75 0.11 -2.69 15.2 -56.24 0.13zm69.56 -1.7l22.49 -106.66 18.39 0.35 -22.52 106.66 -18.36 -0.35zm198.75 2.4l16.31 -81.76 18.23 -0.23c-4.61,29.67 -2.74,2.25 18.12,0.48l-3.81 21.11c-10.26,0 -19.31,3.75 -23.94,25.89l-5.34 34.35 -19.57 0.16zm63.4 -81.54l18.07 0.09 -17.38 79.95 -17.61 -0.19 16.92 -79.85zm79.48 80.81l15.65 -80.17 18.78 0.23 -17.16 80.18 -17.27 -0.24zm-1309.49 -90.89l3.02 -18.32 18.1 0 -4.4 18.25 -16.72 0.07zm99.68 -17.41l17.62 0.21 -4.29 17.37 -17.35 -0.35 4.02 -17.23zm64.23 -1.89l21.1 -0.12 -24.45 19.8 -14.71 0.02 18.06 -19.7zm1068.36 19.4l2.77 -16.67 18.79 0.17 -2.76 16.52 -18.8 -0.02zm100.16 -16.03l17.08 -0.14 -3.21 15.35 -18.17 0.01 4.3 -15.22zm-1016.59 -64.96c-38.22,-3.86 -69.37,-17.74 -96.3,-42.9 -60.89,-56.91 -76.86,-154.17 -42.77,-260.49 23.51,-73.31 73.79,-133.27 137.29,-163.71 139.19,-60.49 248.13,27.3 267.71,139.7 0.59,-0.55 0.88,-3.81 1.21,-5.56 0.52,-2.68 6.8,-36.38 13.95,-74.88l13 -70 539.05 0c-8.27,40.68 -15.36,76.06 -22.77,112.32l-155.7 0.93 -11.6 61.98 153.72 1.34 -17.39 114.14 -157.58 0 -13.06 70.65 155.26 -0.11 -23.86 115.85 -271.3 0.42 33.49 -185.03 -143.9 0 -37.48 181.7 -114.45 -0.45c-0.51,-0.51 20.45,-114.44 21.95,-119.27 -5.46,7.28 -32.42,42.23 -44.4,55.11 -40.16,42.01 -82.62,63.36 -135.91,68.34 -21.7,2.03 -27.28,2.02 -48.15,-0.09l-0.01 0.01zm64.21 -14.97c63.87,-10.39 121.67,-56.67 156.61,-125.38 5.35,-10.52 10.28,-20.93 10.95,-23.14l1.22 -4.01 -88.65 0 -9.64 13.48c-13.75,19.22 -31.12,34.98 -46.78,42.44 -50,23.8 -92.77,19.28 -123.24,-13.02 -24.82,-26.31 -33.16,-59.29 -27.3,-108 3.25,-27.08 6.18,-39.13 14.42,-59.34 12.68,-31.11 43.17,-67.95 66.51,-80.33 15.4,-8.17 41.86,-14.61 60.03,-14.61 27.36,0 47.02,8 65.24,26.56 12.78,13.01 21.74,28.29 27.8,47.41l3.97 12.53 81 -0.59c2.17,-2.17 -4.65,-34.31 -11.3,-53.25 -17.31,-49.3 -44.81,-82.54 -84.52,-102.19 -27.98,-13.84 -42.3,-16.95 -77.58,-16.83 -24.57,0.08 -31.76,0.73 -43.54,3.99 -56.77,15.69 -108.92,56.48 -140.63,110.02 -27.56,46.55 -41.63,95.41 -43.62,151.61 -1.5,41.9 4.14,72.42 19.25,104.21 21.87,46.01 64.6,79.72 111.93,88.28 18.33,3.31 58.01,3.4 77.88,0.16l-0.01 0zm-68.66 -11.82c-15.32,-2.32 -38.59,-10.44 -51.3,-17.89 -14.46,-8.48 -41.09,-35.44 -50.08,-50.71 -24.01,-40.74 -31.92,-86.92 -24.27,-141.77 8.13,-58.29 28.31,-104.73 64.36,-148.17 29.88,-35.99 64.55,-59.57 102.31,-69.58 19.73,-5.22 63.44,-5.74 82.63,-0.97 36.74,9.12 72.89,32.6 90.82,58.98 12.83,18.87 24.87,48.5 30.69,75.56l1.25 5.8 -57.07 0 -3.04 -9.37c-6.06,-18.66 -15.4,-33.85 -29.35,-47.7 -23.71,-23.56 -44.33,-31.24 -80.26,-29.91 -36.24,1.34 -62.4,13.75 -90.32,42.83 -39.28,40.91 -59.5,92.84 -59.5,152.79 0,32.71 5.79,54.1 20.91,77.24 20.88,31.97 55.16,49.32 93.24,47.2 38.69,-2.15 69.84,-18.74 99.4,-52.92l13.85 -16.02 61.58 -0.06 -5.24 10.39c-27.45,54.37 -79.11,97.71 -132.33,111 -17.43,4.35 -59.56,6.11 -78.28,3.28l0 0zm315.68 9.31c11,-67.19 28.02,-124.97 36.14,-180.26l158.07 -1.45 15.41 -87.12 -156.5 -1.08 17.1 -92.49 155.4 0.46 16.87 -83.72 -248.7 -1.32 -82.87 446.32 89.08 0.66c0,0 0,0 0,0l0 0zm-73.13 -17.34c28.43,-145.88 51.15,-278.2 77.83,-414.19l219.5 -0.29 -11.28 54.4 -157.39 0.92 -23.44 121.15 158.03 0.1 -8.2 57.07 -158.35 0 -37.12 180.58c-19.86,0.08 -39.72,0.2 -59.58,0.26 1.08,-4.33 0,0 0,0l0 0zm507.61 -67.61l-153.72 0.13 18.94 -97.31 156.81 0c2.93,-32.08 12.56,-60.89 12.56,-89.18l-153.3 0 16.87 -90.06 155.99 -0.93 16.44 -83.45 -249.52 -0.24 -82.83 447.59c81.78,-0.3 163.56,-0.61 245.35,-0.92l16.41 -85.63zm-167.97 -346.88l221.61 1.79 -11.98 55.25 -155.74 0.93c-8.44,41.11 -17.45,82.93 -24.62,118.61l155.45 0.92 -9.19 56.11 -157.48 0.93 -26.42 126 159.23 -0.17c-3.5,19.53 -6.93,36.44 -11.38,56.98l-218.79 0 79.31 -417.35zm-519.14 336.04c28.81,-7.43 53.8,-27.01 73.5,-57.59l7.02 -10.89 100.01 -0.03 9.37 -51.27c5.15,-28.2 9.33,-51.88 9.29,-52.62l-92.16 -0.23 -2.36 -13c-4.54,-24.96 -23.51,-52.56 -43.12,-64.27 -19.01,-11.36 -38.62,-13.65 -66.96,-7.8 -23.8,4.91 -38.01,12.99 -56.24,31.98 -17.48,18.19 -26.64,31.53 -34.41,50.05 -21.06,50.25 -21.4,109.08 -0.82,141.14 10.87,16.95 29.93,31.68 45.83,35.43 16.8,3.12 34.82,2.98 51.05,-0.89l0 -0.01zm477.26 -252.21l-143.77 0 -11.31 62.89 143.33 0.42 11.75 -63.31z"/>
  </g>
  <g id="_105553218440576">
   <path class="fil1" d="M3974.48 319.67c13.12,-44.32 33.57,-100.43 58.67,-126.04 17.88,-18.28 97.23,-61.23 124.74,-33.7 62.7,62.7 63.43,189.95 -51.12,230.89 -151.73,54.26 -228.82,-121.72 -150.73,-229.95 43.15,-59.81 120.34,-83.15 196.04,-78.35 -89.45,-60.08 -281.92,0.09 -286.94,169.04 -6.88,231.07 325.95,280.42 391.32,60.91 29.07,-97.63 -32.78,-203.42 -80.66,-210.9 -116.1,-18.11 -210.29,63.65 -201.32,218.1z"/>
   <path class="fil1" d="M4566.9 790.53c177.64,0 371.91,-53.48 507.07,-155.46 80.28,-60.56 42.7,-36.03 86.73,-76.98 18.89,-17.54 17.16,-6.04 26.61,-31.76 -43.39,30.05 -75.68,57.35 -124.8,86.86 -243.12,146.11 -574.95,172.45 -842.49,74.25 -151.69,-55.68 -161.04,-79.77 -264,-151.15 7.24,20.43 10.75,17.06 26.04,32.54l56.76 52.53c161.03,118.11 309.17,169.17 528.08,169.17z"/>
   <path class="fil1" d="M4525.47 208.59c-48.37,-35.11 -177.18,-31.98 -207.53,71.64 -44.32,151.4 136.84,132.93 164.41,104.83 15.77,-21.26 21.13,-70.24 26.18,-99.54l-94.3 1.52c-1.65,14.52 -5.69,22.88 4.87,32.63l22.13 9.49c0.74,-1.21 2.89,0.94 4.03,1.77l-8.59 33.1c-104.82,5.62 -65.43,-86.35 -51.19,-105.53 49.06,-66.14 121.72,-5.02 128.94,-2.35l11.05 -47.56z"/>
   <path class="fil1" d="M4581.76 365.76c-15.82,-34.78 27.19,-40.38 56.86,-37.62 -4.06,17.27 -2.97,26.92 -14.58,35.1 -12.31,8.67 -28.84,9.01 -42.28,2.52zm-24.12 -82.74c28.96,-3.19 78.75,-26.28 88.38,8.3 -7.35,6.12 0.92,1.55 -10.26,5.49l-24.66 3.51c-153.24,15.33 -71.19,153.23 5.97,86.53 15.37,4.49 -7.84,10 55.86,11.77 6.82,-70.41 90.17,-197.68 -107.68,-151.75l-7.61 36.15z"/>
   <path class="fil1" d="M4965.66 326.28c-4.29,18.9 -3.21,30.07 -18.06,38.51 -7.04,4.01 -49.21,20.94 -40.25,-27.73l58.31 -10.78zm-79.24 -42.33c29.04,-5.58 81.3,-29.25 85.99,13.43 -46.37,4.77 -106.67,6.79 -117.96,49.71 -17.89,68.01 60.02,57.59 95.83,38.8l0.23 12.41 45.72 0.25c9.37,-26.64 30.41,-110.61 24.42,-133.92 -20.62,-32.46 -88.47,-30.5 -130.11,-15.82l-4.12 35.14z"/>
   <path class="fil1" d="M5124.98 418.02c10.65,-20.18 5.37,-29.81 1.43,-56.06 -20.35,-135.5 0.93,-118.02 -65.94,-118.08 4.34,39.59 12.52,79.7 19.69,119.06 9.82,53.9 -16.98,55.56 -33.53,92.98 46.35,0 53.66,8.94 78.35,-37.9z"/>
   <path class="fil1" d="M4862.79 243.58c-32.38,1.25 -35.91,3.83 -58.03,17.78 -0.8,-1.06 -1.28,-2.82 -1.77,-3.54 -10.07,-14.77 -0.28,-8.21 -13.66,-12.91 -42.04,-14.73 -42.54,19.35 -45.9,35.06 -2.84,13.18 -6.37,27.32 -9.29,40.29 -5.26,23.4 -14.46,54.73 -16.17,78l46.23 0.44 21 -82.77c1.3,-4.61 2.05,-7.13 3.75,-11.37 3.69,-9.21 3.04,-6.48 5.27,-12.19l58.96 -1.69 9.61 -47.1z"/>
   <path class="fil1" d="M3888.15 543.17c-3.47,-61.88 10.12,-79.55 75.13,-71.98 -5.14,-6.53 -1.51,-4 -7.88,-9.46 -48.16,-41.35 -124.22,42.25 -67.25,81.44z"/>
   <path class="fil1" d="M5245.4 545.04c38.19,-33.96 24.51,-114.59 -72.17,-82.46 8.6,6.7 2.98,4.96 17.99,7.86 1.21,0.23 14.72,0.23 19.25,0.85 36.85,5.06 39.49,42 34.93,73.75z"/>
   <path class="fil2" d="M4581.76 365.76c13.44,6.49 29.97,6.15 42.28,-2.52 11.61,-8.18 10.52,-17.83 14.58,-35.1 -29.67,-2.76 -72.68,2.84 -56.86,37.62z"/>
   <path class="fil2" d="M4907.35 337.06c-8.96,48.67 33.21,31.74 40.25,27.73 14.85,-8.44 13.77,-19.61 18.06,-38.51l-58.31 10.78z"/>
   <path class="fil1" d="M5200.82 294.99c11.17,-16.03 23.29,-29.98 30.64,-50.63l-49.16 -0.18 18.52 50.81z"/>
  </g>
  <g id="_105553219010688">
   <path class="fil3" d="M6408.24 151.9l-178.37 0c-7.99,53.2 -10.95,386.67 2.01,426.6l100.37 -1.12 3.56 -207.88c30.18,54.2 21.09,143.79 51.59,205.76l109.41 -0.36 47.19 -217.55 4.29 225.1 111.02 -0.1 0.21 -425.46 -177.78 1.83 -35.57 196.81c-28.2,-50.66 -26.58,-139.93 -37.93,-203.63z"/>
   <path class="fil3" d="M7531.01 455.48c-42.78,1.67 -60.81,-13.74 -46.38,-61.24 10.05,-33.12 32.38,-39.28 65.51,-33.54 4.79,50.1 4.62,66.35 -19.13,94.78zm143.35 -179.24c-132.05,-21.15 -270.56,-46.27 -313.38,86.83 -20.98,65.23 -4.59,135.05 29.37,174.57 42.28,49.19 90.48,36.94 156.43,18.22 -3.26,116.84 -93.61,47.98 -159.58,35.84l14.54 112.97c329.35,76.61 282.37,-26.92 272.62,-428.43z"/>
   <path class="fil3" d="M7824.53 451.4c-16.71,-54.34 -5.4,-93.2 58.68,-93.36 6.27,52.15 8.23,71.65 -22.82,99.15l-35.86 -5.79zm187.97 -173.28c-404.69,-88.17 -340.56,200.22 -283.79,259.64 53.24,55.73 84.33,27.71 154.66,21.26 -2.8,100.09 -82.88,56.06 -160.02,31.48 7.65,106.5 2.59,143.41 179.95,134.83 170.15,-8.23 96.87,-172.18 109.2,-447.21z"/>
   <polygon class="fil3" points="7027.26,577.68 7339.83,577.08 7337.71,466.15 7167.71,467.1 7168.37,425.46 7304.63,423.14 7304.56,316.97 7171.83,316.38 7167.16,271.13 7334.92,269.46 7336.87,158.73 7027.84,158.83 "/>
   <path class="fil3" d="M6814 578.97c13.27,-107.95 -39.31,-190.24 80.82,-198.1l-7.89 -117.85c-66.32,-8.03 -42.04,21.77 -82.1,10.83 -38.53,-10.53 -70,-7.44 -114.18,-6.36l4.48 312.47 118.87 -0.99z"/>
   <path class="fil3" d="M6965.5 549.83c42.3,-75.84 -37.41,-158.81 -91.63,-80.88 -57.28,82.32 53.02,150.1 91.63,80.88z"/>
   <path class="fil4" d="M7531.01 455.48c23.75,-28.43 23.92,-44.68 19.13,-94.78 -33.13,-5.74 -55.46,0.42 -65.51,33.54 -14.43,47.5 3.6,62.91 46.38,61.24z"/>
   <path class="fil5" d="M7824.53 451.4l35.86 5.79c31.05,-27.5 29.09,-47 22.82,-99.15 -64.08,0.16 -75.39,39.02 -58.68,93.36z"/>
  </g>
  <g id="_105553218385472">
   <path class="fil6" d="M9436.91 582.67c20.82,13.94 52.15,49.55 59.27,76.2 -20.82,-13.94 -52.15,-49.55 -59.27,-76.2zm-25.4 -33.87c22.18,14.86 17.5,4.29 25.4,33.87 -22.18,-14.85 -17.5,-4.28 -25.4,-33.87zm0 0l-8.46 -8.46 8.46 8.46zm-33.86 -42.33c22.18,14.85 17.5,4.29 25.4,33.87 -22.18,-14.85 -17.5,-4.29 -25.4,-33.87zm-25.4 -33.86c22.18,14.85 17.5,4.28 25.4,33.86 -22.18,-14.85 -17.5,-4.28 -25.4,-33.86zm0 0l-8.47 -8.47 8.47 8.47zm-25.4 -33.87c18.22,12.66 11.15,1.24 16.93,25.4 -18.22,-12.66 -11.15,-1.24 -16.93,-25.4zm0 0l-8.47 -8.47 8.47 8.47zm-25.4 -33.87c18.22,12.66 11.15,1.24 16.93,25.4 -18.22,-12.66 -11.15,-1.24 -16.93,-25.4zm0 0l-8.47 -8.46 8.47 8.46zm-8.47 -8.46l-8.47 -8.47 8.47 8.47zm-25.4 -33.87c18.22,12.66 11.15,1.24 16.93,25.4 -18.21,-12.66 -11.14,-1.24 -16.93,-25.4zm0 0l-8.47 -8.47 8.47 8.47zm-8.47 -8.47l-8.46 -8.46 8.46 8.46zm-16.93 -25.4l8.47 16.94 -8.47 -16.94zm0 0l-8.47 -8.46 8.47 8.46zm-8.47 -8.46l-8.46 -8.47 8.46 8.47zm-16.93 -25.4l8.47 16.93 -8.47 -16.93zm0 0l-8.47 -8.47 8.47 8.47zm-8.47 -8.47l-8.46 -8.46 8.46 8.46zm-8.46 -8.46l-8.47 -8.47 8.47 8.47zm-16.94 -25.4l8.47 16.93 -8.47 -16.93zm0 0l-8.46 -8.47 8.46 8.47zm-8.46 -8.47l-8.47 -8.47 8.47 8.47zm-16.93 -25.4l8.46 16.93 -8.46 -16.93zm0 0l-8.47 -8.47 8.47 8.47zm-8.47 -8.47l-8.47 -8.46 8.47 8.46zm-8.47 -8.46zm-16.93 -25.4l16.93 25.4zm-16.93 -25.4zm0 0zm0 0l-8.47 -8.47 8.47 8.47zm-8.47 -8.47l-8.46 -8.47 8.46 8.47zm381 491.06c28.99,19.41 26.26,20.42 42.33,50.8l101.6 0c-6.87,-25.73 -28.49,-43.93 -55.56,-79.91 -21.79,-28.95 -37.32,-46.63 -59.35,-76.11l-303.06 -391.2c-31.28,-41.63 -49.07,-28.51 -115.42,-28.51l0 25.4c-9.58,-10.56 -9.8,-11.01 -16.94,-25.4 -149.07,0 -169.76,-51.78 75.09,255.11l246.64 320.62 110.07 0c-10.95,-41.01 -14.45,-9.79 -25.4,-50.8z"/>
   <path class="fil6" d="M9758.64 709.67c-9.53,-35.69 -32.96,-52.42 -54.5,-80.96 -21.77,-28.83 -36.69,-49 -57.96,-77.51l-293.59 -383.73c-33.86,-46.09 -35.69,-33.53 -110.41,-33.53 3.01,36.14 23.57,48.03 51.97,83.5l354 458.79c32.89,45.81 37.29,33.44 110.49,33.44z"/>
   <path class="fil6" d="M9877.18 709.67c-31.9,-60.29 -340.03,-450.48 -405.97,-542.29 -32.89,-45.8 -37.3,-33.44 -110.5,-33.44 7.6,28.44 90.19,127.24 113.64,157.3 41.67,53.39 78.04,97.51 119.86,151.07l177.48 228.91c35.03,49.31 30.09,38.45 105.49,38.45z"/>
   <path class="fil6" d="M9927.98 709.67l67.73 0c-9.59,-41.16 -172.76,-241.44 -209.22,-290.31l-214.11 -285.42 -84.67 0c6.69,25.04 35.62,56.6 50.71,76.3l389.56 499.43z"/>
   <path class="fil6" d="M10063.44 709.67l59.27 0c-7.85,-29.38 -337.73,-451.53 -379.04,-501.48 -21.76,-26.31 -36.97,-44.41 -52.76,-74.25l-59.26 0c3.49,41.95 330.75,443.1 379.04,501.49 21.75,26.3 36.96,44.4 52.75,74.24z"/>
   <path class="fil6" d="M10190.44 709.67l50.8 0c-7.85,-29.42 -80.74,-113.14 -102.83,-142.7 -84.78,-113.5 -261.69,-332.55 -328.97,-433.03l-59.26 0c7.57,28.35 84.43,115.07 107.64,146.36l222.46 285.53c37.66,49.29 74.73,90.92 110.16,143.84z"/>
   <path class="fil7" d="M11113.3 337.14c0,22.87 -4.04,23.35 -8.46,42.33 128.13,2.86 117.22,158.54 -8.77,181.34 -21.6,3.91 -13.83,-19.31 -24.66,21.74 -2.07,7.82 -8.23,51.2 -8.91,59.39 263.19,0 252.47,-338.66 76.2,-338.66l-25.4 0 0 33.86z"/>
   <path class="fil6" d="M10359.77 709.67c-10.61,-45.57 -341.67,-451.76 -394.34,-520.04 -6.75,-8.75 -25.1,-36.26 -28.18,-39.56 -21.43,-22.94 -6.13,-16.13 -51.61,-16.13 8.79,32.89 84.13,122.56 108.9,153.57l286.6 365.33c23.68,32.32 29.15,55.73 78.63,56.83z"/>
   <path class="fil7" d="M11680.56 506.47l-8.46 16.94c-7.18,30.8 -4.68,27.14 -25.4,42.33l84.66 16.93c0.83,37.21 5.73,26.37 8.47,59.27l76.2 0 -86.57 -355.12c-25.36,17.78 -16.17,13.82 -32.9,41.14 -48.42,79.08 0.8,75.15 9.4,178.51l-25.4 0z"/>
   <path class="fil7" d="M10689.97 523.41c0,194.26 264.59,135.6 279.4,-42.34l-67.73 0c-4.51,19.36 -12.1,38.59 -23.73,52.47 -12.83,15.31 -36.96,32.2 -60.94,32.2 -78.56,0 -36.53,-84.67 -84.67,-84.67l-42.33 0 0 42.34z"/>
   <path class="fil7" d="M10698.44 455.67c129.16,0 42.35,-76.2 143.93,-76.2 46.53,0 64.19,33.6 67.73,76.2 24.35,0 67.74,6.58 67.74,-16.93 0,-218.65 -275.45,-160.62 -279.4,16.93z"/>
   <path class="fil6" d="M10486.77 709.67c-6.7,-25.11 -192.39,-261.15 -223.7,-301.22l-197.65 -259.55c-21.61,-21.66 -12.71,-14.96 -52.78,-14.96 6.82,25.52 139.73,189.6 166.67,222.8l115.16 147.3c21.09,28.44 37.12,48.39 59.5,75.97l84.84 109.89c19.33,22.59 11.36,18.95 47.96,19.77z"/>
   <path class="fil7" d="M10977.84 641.94l67.73 0c0,-72.1 43.45,-250.32 50.8,-338.66 -95.91,0 -64.02,-22.23 -90.65,137.94 -9.92,59.63 -27.88,141.82 -27.88,200.72z"/>
   <path class="fil7" d="M11265.7 641.94c88.49,0 58.47,11.28 87.06,-158.47 5.38,-31.92 20.48,-157.29 31.47,-180.19l-76.2 0c0,113.56 -42.33,218.86 -42.33,338.66z"/>
   <path class="fil7" d="M10579.91 498.01c16.46,24.59 17.13,11.36 25.4,42.33l-7.33 9.61c-22.71,19.65 -15.86,15.17 -43.47,15.79l-9.51 -33.54 -66.69 -0.33c15.08,64.75 12.55,110.07 84.66,110.07 28.75,0 59.71,-19.12 74.22,-35.85 57.57,-66.39 40.84,-132.79 -23.42,-175.82 -5.49,20.58 -23.45,48.05 -33.86,67.74z"/>
   <path class="fil7" d="M11443.5 565.74l-9.5 -33.54 -66.7 -0.33c20.62,247.83 313.99,17.95 135.47,-101.6 -64.53,121.95 1.31,62.65 -13.99,114.36 -6.84,23.1 -18.93,20.52 -45.28,21.11z"/>
   <path class="fil7" d="M10503.71 404.87c0,45.7 24.4,81.06 67.73,84.67 5.89,-25.27 18.88,-37.99 21.59,-54.3 7.04,-42.43 -8.66,-2.16 -13.12,-55.77l25.4 0 0 25.4 76.19 0c-4.04,-181.77 -177.79,-102.14 -177.79,0z"/>
   <path class="fil7" d="M11392.7 413.34c0,40.81 26.31,59.8 50.8,76.2 64.83,-43.41 26.21,-73.9 25.4,-110.07l25.4 0 0 25.4c61.43,0 81.14,14.02 68.48,-41.12 -31.74,-138.22 -170.08,-44.5 -170.08,49.59z"/>
   <path class="fil7" d="M11646.7 565.74c7.18,-30.81 4.67,-27.15 25.4,-42.33l8.46 -16.94c0,-48.52 -13.51,-60.55 -16.93,-101.6l-76.58 118.15c-19.79,34.23 -48.84,75.81 -58.88,118.92l67.73 0c16.06,-23.98 29.9,-60.89 50.8,-76.2z"/>
   <path class="fil8" d="M11824.5 328.67l2.52 2.53c-0.16,-0.17 -3.36,-1.68 -2.52,-2.53zm-42.34 0l2.53 2.53c-0.17,-0.17 -3.37,-1.68 -2.53,-2.53zm-8.21 -16.47c-0.25,49.29 -2.02,30.88 16.68,58.81l33.87 0c18.7,-27.93 16.93,-9.52 16.93,-59.27l-33.62 -17.39 -33.86 17.85z"/>
  </g>
 </g>
</svg>
