<?xml version="1.0" encoding="UTF-8" standalone="no"?>
<!-- Creator: CorelDRAW -->

<svg
   xml:space="preserve"
   width="55.617424mm"
   height="55.51865mm"
   version="1.1"
   style="clip-rule:evenodd;fill-rule:evenodd;image-rendering:optimizeQuality;shape-rendering:geometricPrecision;text-rendering:geometricPrecision"
   viewBox="0 0 5561.7426 5551.8651"
   id="svg70"
   sodipodi:docname="4749c3bf636d00ac9a0c97852493872f.svg"
   xmlns:inkscape="http://www.inkscape.org/namespaces/inkscape"
   xmlns:sodipodi="http://sodipodi.sourceforge.net/DTD/sodipodi-0.dtd"
   xmlns="http://www.w3.org/2000/svg"
   xmlns:svg="http://www.w3.org/2000/svg"><sodipodi:namedview
   id="namedview72"
   pagecolor="#ffffff"
   bordercolor="#666666"
   borderopacity="1.0"
   inkscape:pageshadow="2"
   inkscape:pageopacity="0.0"
   inkscape:pagecheckerboard="0"
   inkscape:document-units="mm" />
 <defs
   id="defs4">
  <style
   type="text/css"
   id="style2">
   <![CDATA[
    .fil1 {fill:#144B7C}
    .fil0 {fill:#1C649C}
    .fil2 {fill:#2886BA}
    .fil3 {fill:#34A4D5}
    .fil5 {fill:#459BC8}
    .fil4 {fill:#4C8FB6}
   ]]>
  </style>
 </defs>
 <g
   id="Capa_x0020_1"
   inkscape:label="Capa 1"
   inkscape:groupmode="layer"
   transform="translate(-8093.5113,-5752.4592)">
  <metadata
   id="CorelCorpID_0Corel-Layer" />
  <path
   class="fil0"
   d="m 10964.18,11135.7 c -63.99,142.31 -267.26,46.81 -208.01,-88.85 57.47,-131.61 266.39,-40.98 208.01,88.85 z m -268.86,-2405.31 c -58.66,-226.75 280.55,-301.39 324.92,-90.52 49.57,235.56 -274.45,285.59 -324.92,90.52 z m 235.21,-1851.37 c -43.95,38.16 1.24,132.8 -4.23,233.71 -4.21,77.74 -13.71,143.84 -13.92,223.98 -1.52,-2.15 -3.02,-5.02 -3.83,-6.91 -0.8,-1.87 -2.61,-4.69 -3.47,-6.99 -19.62,-51.99 8.77,36.88 -4.75,-14.55 -1.04,-3.98 -1.6,-17.47 -2.01,-22.65 l -31.51,30.5 c -28.69,31.55 14.16,17.11 -56.06,25.25 -0.03,9.02 1.07,25.7 -1.76,33.74 -12.83,36.5 17.55,9.67 -20.24,30.21 l 4.26,1000.53 c -122.24,49.46 -160.43,89.65 -203.96,211.48 l -1125.24,1.69 c 83.54,39.45 303.13,4.99 407.28,2.35 115.9,-2.94 285.63,-0.81 399.85,10.48 -22.59,-0.67 -30.68,1.17 -39.07,15.12 l -3.76,15.55 c -13.72,44.29 -34.54,0.51 -20.1,58.52 4.95,19.89 -7.93,24.95 32.94,17.87 -70.04,1.77 -19.41,0.23 -39.65,16.62 l 391.38,-2.1 c 33.82,115.56 82.7,161.59 194.08,203.88 l -0.07,1407.9 c -7.37,57.9 -63.7,71 -104.19,101.42 l -8.3,785.29 c 112.78,57.97 265.01,83.39 371.33,-6.55 l -1.52,-777.9 c -31.65,-30.15 -98,-50.65 -112.88,-96.31 -9.31,-28.6 -3.55,-161.39 -3.3,-200.96 2.53,-402.21 -16.78,-803.65 -7.17,-1211.24 168.89,-50.61 165.04,-142.95 211.84,-202.53 l 1511.06,-3.34 c 18.41,267.69 -164.8,680.71 -297.22,903.44 -140.88,236.95 -374.55,433.49 -620.12,574.34 -136.46,78.27 -411.23,178.62 -590.95,212.81 l -1.46,791.76 c 56.42,-19.37 96.3,-290.63 135.55,-353.81 42.21,-15.3 146.97,-23.98 198.66,-35.07 51.93,-11.14 162.42,-49.38 202.2,-20.31 44.48,32.52 191.8,194.7 266.53,231.07 l 376.31,-214.31 c 101.91,-55.01 85.05,-58.12 61.73,-187.16 -12.59,-69.64 -44.65,-195.02 -42.64,-256.98 29.54,-27.48 48.78,-37.99 76.42,-61.29 85.25,-71.82 146.29,-120.68 206.26,-224.06 137.26,-7.42 340.03,64.75 405.54,62.36 28.41,-34 48.65,-79.89 71.02,-112.7 47.81,-70.09 96.57,-171.81 139.16,-250.81 37.52,-69.58 46.98,-68.01 -11.59,-128.15 -55.1,-9.95 -12.04,-6.25 -29.23,11.69 l 12.51,55.29 -45.49,74.1 c -1.11,1.63 -2.61,3.6 -3.68,5.3 l -60.23,102.19 c -8.6,19.71 -4.32,12.78 -12.76,28.67 l -27.33,56.89 c -21.3,35.55 -45.87,72.86 -83.15,83.07 -32.44,8.89 -188.88,1.38 -236.02,-1.59 -28.76,-1.81 -38.54,-11.16 -68.82,-16.01 -24.77,-3.96 -58.5,2.2 -78.2,-6.15 -11.87,-5.03 -15.35,-20.32 -49.3,-35.82 -3.33,-1.52 -24.61,-7.88 -26.58,-7.93 -1.01,-0.03 -3.32,0.21 -4.34,0.3 l -88.06,10.85 c -43.22,26.62 -64.02,63.95 -99.17,101.06 -41.87,44.22 -60.2,63.1 -103.69,99.9 -78.72,66.61 -155.47,130.79 -227.36,177.63 -0.73,77.4 21.5,126.88 -40.57,171.87 -117.76,85.34 -275.08,-55.64 -178.59,-178.06 28.43,-36.06 79.35,-58.52 130.17,-41.37 36.81,12.43 6.26,10.69 46.14,19.05 55.44,-31.57 164.63,-117.48 201.88,-155.76 7.72,-10.96 6.74,-13.97 15.01,-31.16 l -39.77,19.29 c -44.97,15.24 31.65,-35.81 -32.39,-51.44 -7.04,-1.72 -45.07,-0.85 -56,-1.26 9.83,-10.42 15.77,-23.6 24.59,-35.27 7.53,-9.96 7.24,-9.02 15.66,-18.22 1.19,-1.29 2.97,-3.04 4.16,-4.33 1.19,-1.28 2.97,-3.06 4.15,-4.35 l 75.07,-85.72 c 99.07,-93.94 61.3,-65.91 115.89,-121.44 30.87,-31.4 21.62,-30.79 46.61,-64.48 12.94,-17.44 18.25,-22.93 28.69,-39.94 18.4,-29.99 11.45,-32.05 16.53,-44.96 1.64,-4.17 22.43,-16.39 34.7,-28.11 17.14,-16.4 36.22,-49.73 57.8,-77.28 l 145.82,-281.58 c 45.8,-95.17 98.4,-314.23 123.75,-432.2 15.51,-72.2 9.93,-186.91 10.52,-263.31 -14.75,-27.3 3.58,-73.07 -2.69,-146.51 -22.9,-268.12 -26.44,-260.8 -106.49,-518.47 -27.01,-86.94 -64.7,-142.41 -20.54,-230.87 4.15,-8.3 12.06,-23.01 13.11,-26.85 13.2,-48.53 -9.16,-45.43 -20.48,-111.41 -10.1,-57.5 -103.33,-182.05 -143.49,-234.49 -52.88,-69.04 -114.76,-133.07 -179.09,-193.24 -326.13,-304.97 -260.22,-107.66 -266.47,-491 -48.77,-29.63 -108.67,-40.04 -101.64,-133.05 11.28,-149.42 243.73,-171.8 251.47,-8.77 3.85,81.13 -45.09,101.44 -95.57,135.71 l 3.05,254.08 c 39.44,37.99 123.91,88.25 183.12,132.79 288.75,217.21 345.37,432.55 421.38,510.92 16.74,8.6 19.19,-7.43 14.34,9.54 14.41,-53.62 29.97,4.39 18.05,-63.34 l 39.07,2.95 c 5.87,-108.21 -21.55,-87.35 23.97,-182.61 41.6,-87.06 36.22,-40.01 73.03,-88.26 l 13.52,-20.55 c 11.73,-13.19 99.78,-53.9 129.93,-49.83 25.26,3.41 46.09,15.1 62.81,30.39 -13.9,-56.93 -37.22,-45.29 -53.34,-85.42 -79.2,3 -282.97,52.84 -359.02,60.97 -61.74,6.6 -69.91,-61.12 -97.37,-97.69 -28.81,-38.38 -115.64,-130.28 -149.92,-144.35 -31.63,-12.99 -36.61,-0.34 -61.6,-16.92 -60.89,-40.41 -46.16,-103.77 -33.1,-165.38 31.91,-150.44 31.41,-105.39 43.26,-265.13 0.35,-4.69 3.8,-50.83 3.78,-51.04 -2.47,-28.07 0.39,-4.72 -5.98,-23.72 -18.7,-55.7 32.75,34.58 -8.75,-14.36 l 9.83,-1.04 c -21.89,-25.87 -256.21,-151.53 -261.81,-153.32 9.17,23.13 -19.04,6.86 19.59,21 l -72.43,-30.65 -40.27,26.35 c -0.78,0.61 -2.83,1.98 -3.61,2.64 -0.83,0.7 -2.81,2.3 -3.64,3.07 l -25.4,28.12 c -28.12,22.05 -19.82,0.85 -45.26,34.06 l -25.74,32.44 c 1.88,2.1 9.2,21.86 0.23,-8.87 -5.12,-17.57 1.35,-4.57 -7.4,-15.85 -29.55,48.46 -19.09,19.18 -58.31,51.83 -1.33,1.11 -2.85,3.16 -4.15,4.25 -50.41,42.73 -58.23,-6.99 -99.68,73.32 l -242.73,-0.15 c -13.48,25.82 -8.03,15.93 -29.85,31.83 -0.26,-52.78 1.78,-43.34 -18.43,-66.87 -24.72,-28.78 -6.74,-25.14 -16.99,-48.87 -152.86,-57.19 -139.67,-12.16 -168.75,-101.12 l -49.17,-131 c -43.04,-83.12 -39.43,-96.66 -101.75,-155.84 l -3.67,790.18 c 26.15,12.36 216.04,41.21 338.05,81.62 329.3,109.04 539.64,261.67 766.78,494.86 205.07,210.53 358.16,532.4 420.52,829.98 17.47,83.37 54.97,296.23 41.57,376.37 l -1511.26,3.15 c -35.56,-53.67 -26.19,-76.85 -78.6,-131.87 -46.9,-49.24 -88.67,-54.57 -124.3,-87.25 z"
   id="path7" />
  <path
   class="fil0"
   d="m 10125.25,5919.71 c -27.61,-103.71 60.61,-129.31 98.88,-83.23 47.19,56.8 -11.23,132.09 -98.88,83.23 z m -621.5,464.33 c 44.96,33.84 -80.61,89.58 -115.25,110.42 6.98,114.38 58.01,227.95 75.69,341.66 18.5,118.98 -76.47,104.43 -139.78,171.03 -94.78,99.72 -41.12,57.74 -91.66,128.45 -42.47,59.42 -14.08,62.88 -56.07,84.26 -69.52,35.41 -205.46,-14.92 -307.97,-33.71 -68.45,-12.55 -114.68,-49.12 -162.2,19.36 69.08,-31.26 59.62,1.44 127.95,20.48 100.49,28.02 69.35,31.17 133.04,45.02 111.32,24.22 34.16,-2.34 98.28,29.02 25.45,12.45 15.54,2.48 41.09,9.91 l 45.71,30.86 c 12.52,10.16 2.67,30.81 49.3,10.91 1.68,-0.72 4.13,-2.31 5.63,-3.06 l 10.74,-6.59 c 10.72,24.57 -2.42,5.29 16.73,23.95 -14.55,14.93 -25.19,34.07 -39.42,53.65 -10.18,14.02 -38.1,38.48 -17.18,48.82 0.9,-0.48 123.08,-168.43 136.08,-184.46 134.51,-165.83 270.24,-271.27 443.65,-385.79 31.35,-20.71 74.22,-44.78 101.28,-65 -42.27,-253.97 236.46,-215.69 244.13,-50.95 4.18,89.86 -65.84,153.93 -161.43,124.46 -86.17,-26.56 -28.7,-54.6 -191.97,51.44 -154.43,100.29 -511.06,424.83 -562.77,593.73 7.45,33.47 15.21,15.29 2.18,46.01 48.97,13.55 14.6,-7.78 34.86,26.71 l 20.25,49.34 c 5.95,41.35 -25.39,57.81 -34.62,116.27 38.06,-31.88 14.11,-33.8 58.4,-105.33 19.2,-31.01 32.51,-61.69 54.82,-96.88 l 176.3,-229.88 c 12.33,-15.05 3.31,-5.19 7.05,-9.2 11.94,-12.78 3.27,-3.72 23.3,-17.88 51.46,-36.37 38.38,-51.62 118.03,-109.58 6.37,-4.63 112.28,-125.36 203.46,-187.77 l 225.68,-112.49 c 54.29,-31.19 54.5,-17.63 89.97,-35.85 31.28,-16.08 21.72,-20.04 44.65,-31.49 64.83,-32.36 292.81,-73.21 372.13,-81.86 5.7,-0.62 31.42,-3.04 33.63,-3.02 1.29,0.02 3.76,0.01 4.93,0.11 l 28.84,55.39 -43.55,17.28 39.37,-3.77 c 10.37,-39.06 10.46,-632.4 13.64,-729.22 1.93,-58.75 24.71,-135.57 -44.53,-134.2 -48,0.95 -42.31,38.95 -67.5,122.22 -11.61,38.41 -76.74,278.27 -93.41,288.97 l -250.87,54.89 -3.53,-437.42 c 33.47,-32.4 94.42,-60.07 97.05,-127.04 5.98,-151.96 -219.99,-171.82 -229.58,-15.68 -5.18,84.4 33.43,112.63 81.54,142.37 l -12.25,448.97 c -55.15,22.22 -61.6,24.86 -104.21,-9.64 l -161.47,-143.49 c -96.37,-95.68 -55.97,-105.3 -297.7,41.8 z"
   id="path9" />
  <path
   class="fil0"
   d="m 10009.94,7535.9 c 460.97,-94.17 561.12,613.29 114.01,693.76 -448.33,80.68 -602.71,-593.91 -114.01,-693.76 z m -62.36,-133.11 c -184.19,109.97 -184.56,-29.05 -245.81,-19.67 -29.03,13.74 -124.73,109.18 -135.64,136.14 10.11,53.98 61.46,73.59 64.91,111.29 1.76,19.19 -28.39,93.44 -42.16,114.77 -23.83,36.92 -64.53,12.16 -103.14,24.84 -53.94,17.71 -43.81,119.91 -37.06,172.29 12.41,96.4 105.79,3.72 146.2,89.79 6.49,13.81 10.56,25.94 14.88,36.99 6.72,17.2 23.44,56.86 21.73,75.85 -4.08,45.65 -80.97,77.59 -56.02,126.81 4.04,7.96 86.04,89.25 102.34,101.55 56.31,42.47 78.47,-23.98 125.55,-51.13 30.67,5.41 106.47,42.03 130.62,56.69 9.78,54.76 5.34,88.42 24.41,127.96 48.84,12.37 135.15,12.34 187.6,6.67 37.59,-37.03 21.72,-80.18 31.26,-138.09 18.96,-9.29 104.39,-52.16 124.93,-50.6 46.19,3.49 48.83,58.89 110.72,67.34 14.5,-7.84 131.5,-107 146.76,-136.18 -14.01,-48.82 -69.81,-85.83 -75.15,-120.57 -5.45,-35.47 39.36,-110.92 63.45,-127.2 l 113.78,-11.35 c 34.92,-54.94 22.81,-186.49 2.24,-219.68 l -111.9,-8.56 c -7.24,-14.51 -58.36,-119.32 -60.07,-133.38 -5.15,-42.47 56.44,-75.1 70.63,-124.57 -0.97,-16.6 -134.69,-141.42 -158.2,-138.99 -38.88,16.99 -62.05,65.48 -102.59,69.69 -29.52,3.07 -98.37,-27.56 -123.07,-42.39 -9.37,-128.47 27.4,-146.48 -112.95,-147.47 -139.4,-0.99 -115.43,14.7 -118.25,151.16 z"
   id="path11" />
  <path
   class="fil1"
   d="m 13467.28,9374.06 c -15.13,-98.22 127.28,-102.7 138.97,-16.15 13.82,102.27 -126.65,96.13 -138.97,16.15 z m -72.85,-1388.98 c -26.47,-89.13 115.93,-111.26 133.16,-31.72 19.15,88.47 -114.2,95.57 -133.16,31.72 z M 11080.51,6043.04 c 62.32,59.18 58.71,72.72 101.75,155.84 l 49.17,131 c 29.08,88.96 15.89,43.93 168.75,101.12 10.25,23.73 -7.73,20.09 16.99,48.87 20.21,23.53 18.17,14.09 18.43,66.87 21.82,-15.9 16.37,-6.01 29.85,-31.83 l 242.73,0.15 c 41.45,-80.31 49.27,-30.59 99.68,-73.32 1.3,-1.09 2.82,-3.14 4.15,-4.25 39.22,-32.65 28.76,-3.37 58.31,-51.83 8.75,11.28 2.28,-1.72 7.4,15.85 8.97,30.73 1.65,10.97 -0.23,8.87 l 25.74,-32.44 c 25.44,-33.21 17.14,-12.01 45.26,-34.06 l 25.4,-28.12 c 0.83,-0.77 2.81,-2.37 3.64,-3.07 0.78,-0.66 2.83,-2.03 3.61,-2.64 l 40.27,-26.35 72.43,30.65 c -38.63,-14.14 -10.42,2.13 -19.59,-21 l -129.04,-77.09 c -49.41,29.29 -134.09,118.67 -186.58,167.72 -118.33,110.54 -90.64,94.2 -232.49,51.19 -0.42,-7.51 83.96,-375.51 114.3,-411.39 150.18,11.07 411.11,130.56 545.6,186.6 95.71,39.88 380.86,213.6 431.63,292.55 -13.97,58.45 -121.14,151.88 -156.99,211.73 l 31.27,28.8 c 104.7,70.3 162.67,172.61 198.26,204.91 35.51,-9.61 161.84,-147.97 237.04,-158.48 58.67,46.31 279.99,379.51 324.46,464.89 75.41,144.78 171.14,391.89 195.82,586.32 -1.88,1.61 -4.62,3.25 -6.14,4.18 l -35.6,18.56 c -45.87,23.54 -45.74,49.41 -72.18,76.88 l -293.15,-2.45 c -63.7,-105.91 13.98,-150.23 67.37,-212.97 l 159.22,-172.16 c -45.07,-97.97 -200.08,-337.68 -255.14,-420.04 -77.53,-3.38 -155.22,9.87 -231.51,20.22 -102.38,13.88 -154.62,34.5 -199.75,-15.59 -324.74,-360.44 -250.62,-155.23 -211.29,-491.99 12.82,-109.73 32.34,-195.99 -33.3,-199.07 l -9.83,1.04 c 41.5,48.94 -9.95,-41.34 8.75,14.36 6.37,19 3.51,-4.35 5.98,23.72 0.02,0.21 -3.43,46.35 -3.78,51.04 -11.85,159.74 -11.35,114.69 -43.26,265.13 -13.06,61.61 -27.79,124.97 33.1,165.38 24.99,16.58 29.97,3.93 61.6,16.92 34.28,14.07 121.11,105.97 149.92,144.35 27.46,36.57 35.63,104.29 97.37,97.69 76.05,-8.13 279.82,-57.97 359.02,-60.97 16.12,40.13 39.44,28.49 53.34,85.42 16.19,34.29 46.43,69.98 60.03,111.87 26.39,37.88 100.3,149.88 66.11,201.15 l -91.59,111.51 c -33.51,45.81 -70.07,71.15 -108.79,120.11 l -21.85,28.32 c -5.16,4.74 -16.43,11.34 -19.61,13.7 -3.91,139.44 28.38,30.15 75.11,196.71 13.74,48.96 42.46,107.5 66.75,203.36 19,74.99 7.62,79.98 144.13,124.84 72.33,23.78 144.65,39.21 202.18,68.91 l -7.9,166.08 1.88,91.7 c 2.05,17.89 5.1,167.87 -9.1,189.66 -17.42,26.72 -146.31,43.68 -242.49,79.56 -93.16,34.76 -65.15,-5.76 -112.96,144.85 -11.61,60.81 -36.3,117.45 -48.33,186.77 l -5.42,152.83 c 6.26,42.78 4.65,13.39 17.22,48.09 36.89,-10.25 18.13,12.03 17.9,-25.45 -10.94,-73.17 -54.79,-73.4 132.75,-75.79 73.23,-0.93 166.04,-7.12 237.04,0.87 41.72,48.85 48.69,104.75 135.34,102.3 154.88,-4.37 158.99,-230.48 6.77,-250.75 -55.89,-7.44 -89.93,15 -115.59,56.81 -6.72,10.96 -15.77,32.81 -34.98,36.82 l -327.98,0.83 c 1.25,-84.46 33.65,-224.88 58.55,-301.12 64.03,-29.3 350.02,-114.7 366.88,-138.51 17.96,-25.39 14.14,-445.09 8.46,-502.11 -54.67,-43.86 -363.99,-111.14 -380.26,-126.72 -17.35,-32.88 -55.6,-224.15 -49.3,-268.56 l 281.23,-9.24 c 20.95,39.43 24.37,66.63 64.53,82.89 74.1,30.01 173.4,-14.16 157.76,-139.36 -7.07,-56.67 -36.45,-56.82 -75.3,-77.87 -22.65,-301.74 -206.37,-673.32 -370.54,-908.74 -34.57,-49.57 -173.11,-208.82 -208.12,-224.66 -61.08,28.52 -153.6,138.09 -211.64,155.43 -27.45,-19.47 -159.91,-146.96 -161.02,-171.65 -0.94,-20.8 105.31,-151.47 132.84,-179.77 l 26.13,-31.96 c -37.23,-74.07 -395.23,-285.89 -492.44,-334.31 -97.29,-48.46 -499.7,-209.1 -614.53,-204.3 -20.49,31.31 -95.3,382.82 -135.46,454.59 -23.81,0.1 -175.43,-38.13 -199.08,-46.25 l -129.7,-394.89 -58.73,7.78 z"
   id="path13" />
  <path
   class="fil2"
   d="m 9003.69,8681.91 c -24.57,59.66 -9.34,126.36 -10.07,184.71 l -134.42,11.84 c -3.36,54.36 4.51,38.97 -21.47,71.68 -57.37,72.25 -39.35,74.03 -143.39,128.63 -11.66,-21.73 -13.4,-35.01 -23.76,-60.15 -13.82,-33.53 -16.04,-36.8 -51.63,-38.84 23.55,25.12 -30.41,-26.5 15.02,12.5 45.19,38.8 18.27,34.37 45.32,100.78 69.27,170.05 38.5,77.5 74.37,257.6 19.32,97.04 36.15,111.82 -16.99,133.46 -16.93,-19.38 -22.47,31.16 -12.5,-38.44 -34.88,47.63 -68.46,93.04 -100.8,136.65 -33.67,45.41 -80.48,86.18 -108.33,133.72 43.85,-14.9 10.04,-6.57 22.69,5.26 -14.24,71.25 83.15,136.12 110.14,208.98 13.23,35.71 26.92,77.96 44.23,115.28 6.16,13.28 19.36,39.28 29.14,47.77 32.07,27.85 -7.55,2.17 44.14,17.11 61.99,17.92 185.58,13.84 256.32,-9.57 60.93,-20.16 -4.02,-19.85 86.51,-30.67 22.09,-2.63 54.42,-12.44 78.26,-1.82 1.64,0.74 3.73,2.08 5.27,2.95 85.01,48.41 -11.34,8.02 80.61,34.98 2.56,0.75 9.42,4.19 17.72,7.71 4.09,-47.48 -2.46,-4.88 9.66,-34.94 1.81,-4.5 10.89,-23.68 15.75,-32.85 -23.68,-52.34 -289.18,-305.26 -353.14,-584.83 -86.16,-18.42 -167.23,-32.06 -163.43,-138.45 2.84,-79.61 79.73,-157.03 170.04,-129.56 61.13,18.59 124.6,113.64 82.75,190.76 -31,57.13 -72.62,29.07 21.67,212.26 60.92,118.36 161.29,251.69 248.45,352.38 55.1,63.66 238.27,262.54 317.16,300.34 11.49,-12.46 -5.07,-7.27 39.75,6.66 -9.57,-28.16 -5.52,-15.16 9.32,-39.57 60.83,-100.09 -30.47,-82.65 -62.84,-156.1 -62.06,-24.26 -186.85,-188.57 -243.87,-263.95 -37.57,-49.67 -68.8,-113.84 -97.99,-163.88 -147.07,-252.17 -148.18,-217.4 -227.61,-541.87 -16.45,-67.24 -38.29,-143.96 -47.07,-209.38 -9.61,-71.71 9.87,-216.19 0.65,-254.01 l -10.12,0.32 z"
   id="path15" />
  <path
   class="fil0"
   d="m 10044.7,9048.76 c -53.12,-27.4 -52.45,-92.09 -96.34,-72.76 -34.38,48.31 12.42,81.46 42.97,117.03 43.28,50.4 57.67,37.63 52.31,132.54 -42.17,-21.82 -33.5,-39.71 -83.49,-50.77 5.86,148.05 9.3,78.4 80.94,123.04 l 3.02,86.54 c -22.65,-10.19 -132.31,-122.05 -149.89,-143.51 -52.98,-64.69 12.4,-232.57 -75.19,-199.86 -6.82,9.02 -5.98,4.03 -10.04,20.64 -3.89,15.91 -3.04,15.91 -2.46,32.53 0.77,22.01 4.71,33.89 4.19,58.55 -49.73,-35.51 -97.85,-136.44 -151.28,-103.11 -29.08,45.03 3.55,58.52 29.73,83.09 29.26,27.47 51.9,40.81 68.03,77.07 l -110.83,-4.09 c -22.76,107.86 119.28,64.4 190.86,72.94 26.66,23.16 40.22,34.95 52.61,63.84 l -79.18,9.42 c -11.4,40.43 29.83,40.41 32.7,86.13 -159.76,20.18 -142.29,-144.48 -240.13,-103.33 -15.77,63.83 33.14,50.5 58.35,100.36 -55.38,2.69 -118.47,-8.78 -164.49,5.67 -31.29,95.95 93.36,59.11 169.29,61.22 -30,50.78 -90.73,52.75 -71.69,114.86 100.58,26.24 125.35,-168.33 260.26,-107.23 -11.22,58.25 -71.67,40.95 -71.27,87.74 l 97.71,10.3 c -50.83,157.37 -284.37,-19.5 -245.62,137.29 l 103.14,-4.75 c -30.19,61.87 -136.58,108.62 -85.12,155.97 42.38,35.24 112.49,-78.29 156.57,-106.51 l -7.56,124.34 48.7,2.95 c 39.78,-91.78 -19.26,-209.12 88.89,-249.02 l 9.02,95.72 c 51.55,-2.81 27.74,-30.89 86.71,-48.36 -0.84,127.85 4.04,63.25 -87.72,176.43 -44.72,55.16 -9.92,109.81 37.84,55.77 22.08,-24.99 16.96,-29.41 48.87,-44.36 0.06,42.34 -26.35,174.61 38.19,165.92 53.77,-7.23 23.98,-126.29 31.38,-173.22 41.88,17.57 43.59,92.48 90.22,73.4 43.43,-35.49 -16.72,-92.43 -42.43,-123.17 -55.64,-66.52 -55.68,-22.75 -49.57,-139.28 43.09,9 47.29,62.34 94.27,61.52 8.32,-36.9 4.7,-70.57 21.02,-96.88 136.74,50.36 6.68,248.8 124.68,241.88 16.99,-43.06 -0.51,-73.17 6.36,-119.94 65.94,27.9 83.61,139.04 161.12,101.53 20.93,-74.64 -68.38,-79.02 -99.1,-149.57 69.93,0.52 142.02,29.06 113.45,-51.7 -52.77,-15.15 -113.9,-3.15 -170.74,-9.37 -30.26,-3.31 -88.69,-55.63 -87.11,-83.18 l 132.36,-6.14 c -7.5,-46.47 -32.64,-39.02 -38.68,-93.61 l 63.63,-1.17 c 25.65,38.9 101.8,125.08 151.39,127.62 57.28,-62.75 -35.86,-72.89 -49.07,-122.23 48.05,-1.54 157.46,17.07 163.05,-31.56 6.89,-59.94 -117.49,-36.26 -164.33,-35.54 26.64,-56.89 85.71,-51.73 52.12,-109.7 -90.56,-30.36 -107.13,122.03 -205.79,112.18 4.43,-11.53 12.28,-24.86 15.67,-33.87 6.29,-16.7 4.16,-0.91 5.17,-18.13 4.05,-69.14 -77.83,-12.1 -111.28,55.12 l -100.01,-11.54 40.39,-39.02 c 22,-14.83 42.93,-17.86 70,-31.04 2.72,-29.87 -27.96,-60.39 31.44,-75.76 65.95,-17.06 262.7,4.99 219.18,-67.06 -17.31,-28.65 -98.26,-3.64 -131.07,-1.86 l 28.8,-37.65 c 59.76,-57.94 90.7,-64.37 72.99,-126.41 -69.83,-32.82 -107.68,67.76 -158.61,106.65 -2.61,-46.42 12.51,-78.3 -2.22,-121.95 -96.23,-7.66 -26.46,136.06 -84.69,206.93 -16.61,20.22 -55.09,51.92 -78.79,73.72 -24.76,22.78 -47.14,61.87 -78.5,71.7 l 0.49,-84.41 c 44.06,-22.36 29.26,3.87 61.8,-46.22 18.82,-28.98 21.73,-52.87 11.25,-80.06 -55.02,-3.88 -35.35,18.8 -72.66,31.56 -2.61,-79.8 20.34,-73.72 65.37,-124.74 23.41,-26.54 92.43,-90.08 16.54,-121.45 -36.35,22.38 -45.39,70.52 -81.78,91.99 -6.19,-45.67 25.3,-177.24 -28.85,-181.78 -63.18,-5.3 -37.89,133.71 -37.46,173.17 z"
   id="path17" />
  <path
   class="fil1"
   d="m 9210.02,7790.24 c -35.55,47.63 -48.8,125.45 -78.82,175.53 -36.26,60.51 -49.98,114.73 -67.42,196.51 -21.61,101.4 -79.3,351.53 -54.46,464.76 9.22,37.82 -10.26,182.3 -0.65,254.01 8.78,65.42 30.62,142.14 47.07,209.38 79.43,324.47 80.54,289.7 227.61,541.87 29.19,50.04 60.42,114.21 97.99,163.88 57.02,75.38 181.81,239.69 243.87,263.95 62.34,16.39 98.6,95.23 166.81,146.08 l 132.49,79.35 c 43.62,22.62 84.55,29.32 124.77,53.64 107.61,65.05 181.19,73.91 241.6,106.64 47.35,25.65 -2.37,21.08 54.05,28.34 25.62,3.3 64.75,5.19 86.01,6.83 26.53,2.04 57.63,1.47 84.49,1.63 10.51,0.06 26.24,-0.08 36.11,0.32 36.76,1.47 -1.62,11.59 25.35,0.6 l 1.34,-37.42 c -106.56,-29.44 -211.53,-48.27 -314.9,-84.05 -271.94,-94.14 -538.79,-272.12 -719.75,-473.82 -122.95,-137.04 -228.8,-305.74 -304.49,-491.56 -48.66,-119.46 -177.78,-489.66 -156.83,-634.78 l 1119.04,-6.41 c 20.24,-16.39 -30.39,-14.85 39.65,-16.62 -40.87,7.08 -27.99,2.02 -32.94,-17.87 -14.44,-58.01 6.38,-14.23 20.1,-58.52 l 3.76,-15.55 c 8.39,-13.95 16.48,-15.79 39.07,-15.12 -114.22,-11.29 -283.95,-13.42 -399.85,-10.48 -104.15,2.64 -323.74,37.1 -407.28,-2.35 l -380.54,0.08 c -16.62,-229.42 72.29,-493.82 140.26,-680.43 77.43,-212.61 186.77,-358.43 313.03,-516.57 106.97,-133.98 313.19,-291.86 459.61,-371.07 196.22,-106.15 367.55,-162.59 611.49,-209.23 l 43.55,-17.28 -28.84,-55.39 c -1.17,-0.1 -3.64,-0.09 -4.93,-0.11 -2.21,-0.02 -27.93,2.4 -33.63,3.02 -79.32,8.65 -307.3,49.5 -372.13,81.86 -22.93,11.45 -13.37,15.41 -44.65,31.49 -35.47,18.22 -35.68,4.66 -89.97,35.85 l -225.68,112.49 c -91.18,62.41 -197.09,183.14 -203.46,187.77 -79.65,57.96 -66.57,73.21 -118.03,109.58 -20.03,14.16 -11.36,5.1 -23.3,17.88 -3.74,4.01 5.28,-5.85 -7.05,9.2 l -176.3,229.88 c -22.31,35.19 -35.62,65.87 -54.82,96.88 -44.29,71.53 -20.34,73.45 -58.4,105.33 z"
   id="path19" />
  <path
   class="fil0"
   d="m 11564.54,9015.21 c 260.99,-40.43 476.97,153.05 509.85,382.02 36.15,251.74 -139.59,473.93 -371.35,513.02 -267.05,45.05 -486.68,-146.32 -518.55,-375.27 -38.84,-279.08 146.34,-483.58 380.05,-519.77 z m -29.03,-154.66 c -349.87,62.69 -553.07,365.56 -506.82,692.33 43.82,309.58 338.93,568.91 687.87,515.71 312.8,-47.69 558.74,-337.91 512.81,-692.27 -39.99,-308.5 -338.39,-579.46 -693.86,-515.77 z"
   id="path21" />
  <path
   class="fil3"
   d="m 8852.02,7992.98 c -8.52,25.26 15.29,14.2 -18.44,16.38 l -14.92,-62.88 -25.52,20.1 c -12.27,6.82 -3.48,-6.96 -33.27,8.13 -25.27,48.15 -48.05,116.11 -65.75,162.56 -36.42,95.58 -20.49,83.78 -32.89,138.11 -24.38,106.79 -321.51,83.22 -345.36,167.05 l 2.55,448.88 c 21.31,11.34 273.63,87.72 300.53,88.47 35.59,2.04 37.81,5.31 51.63,38.84 10.36,25.14 12.1,38.42 23.76,60.15 104.04,-54.6 86.02,-56.38 143.39,-128.63 25.98,-32.71 18.11,-17.32 21.47,-71.68 l 134.42,-11.84 c 0.73,-58.35 -14.5,-125.05 10.07,-184.71 l -428.89,-3.49 c -82.76,165.45 -256.93,101.73 -248.39,-32.75 4.37,-68.81 56.16,-113.45 122.93,-120.43 95.58,-10 102.42,42.22 134.96,104.33 l 414.9,-2.21 10.12,-0.32 c -24.84,-113.23 32.85,-363.36 54.46,-464.76 17.44,-81.78 31.16,-136 67.42,-196.51 30.02,-50.08 43.27,-127.9 78.82,-175.53 9.23,-58.46 40.57,-74.92 34.62,-116.27 l -20.25,-49.34 c -20.26,-34.49 14.11,-13.16 -34.86,-26.71 13.03,-30.72 5.27,-12.54 -2.18,-46.01 -14.41,11.77 0.67,-6.54 -18.09,19.53 -0.02,0.03 -9.27,15.95 -9.49,16.36 l -55.96,112.07 c -18.97,38.48 -60.23,115.91 -61.97,158.17 0.02,0.06 128.62,102.79 5.57,192.63 -69.54,50.76 -172.49,-2.98 -195.39,-57.69 z"
   id="path23" />
  <path
   class="fil3"
   d="m 12147.09,10239.38 c 97.08,-48.47 265,-265.26 336.77,-360 51.59,-68.1 89.47,-128.77 134.43,-212.67 20.91,-39.03 101.61,-193.93 108.07,-241.83 -38.64,-38.98 -95.95,-80.7 -48.67,-164.84 28.73,-51.14 94.61,-93.55 165.71,-64.73 48.46,19.65 99.67,78.45 85.49,152.53 -15.42,80.56 -72.09,89.49 -154.03,94.85 l -25.53,61.35 c 28.85,5.2 5.77,3.45 27.09,37.34 33.34,0.91 82.43,-3.53 113.34,5.32 38.92,11.14 13.46,9.78 37.41,39.33 11.69,14.41 25.96,12.04 50.91,50.64 l 31.7,35.68 c 1.44,1.08 3.71,2.26 5.13,3.37 l 132.45,132.21 23.82,-29.52 c 34.64,-57.17 -23.78,-84.32 -83.07,-160.07 -26.64,-34.04 -146.49,-167.79 -149.87,-184.99 l 85.47,-290.83 c 3.04,-6.17 6.3,-11.87 9.82,-17.33 1.48,-2.3 6.47,-9.13 7.89,-11.08 l 8.75,-11.03 c 47.81,-150.61 19.8,-110.09 112.96,-144.85 96.18,-35.88 225.07,-52.84 242.49,-79.56 14.2,-21.79 11.15,-171.77 9.1,-189.66 -1.64,1.5 -3.5,3.85 -4.46,4.98 l -12.38,15.25 c -87.49,114.85 -183.58,78.99 -244.11,-37.37 l -415.89,1.75 c -0.59,76.4 4.99,191.11 -10.52,263.31 -25.35,117.97 -77.95,337.03 -123.75,432.2 l -145.82,281.58 c -21.58,27.55 -40.66,60.88 -57.8,77.28 -12.27,11.72 -33.06,23.94 -34.7,28.11 -5.08,12.91 1.87,14.97 -16.53,44.96 -10.44,17.01 -15.75,22.5 -28.69,39.94 -24.99,33.69 -15.74,33.08 -46.61,64.48 -54.59,55.53 -16.82,27.5 -115.89,121.44 l -75.07,85.72 c -1.18,1.29 -2.96,3.07 -4.15,4.35 -1.19,1.29 -2.97,3.04 -4.16,4.33 -8.42,9.2 -8.13,8.26 -15.66,18.22 -8.82,11.67 -14.76,24.85 -24.59,35.27 10.93,0.41 48.96,-0.46 56,1.26 64.04,15.63 -12.58,66.68 32.39,51.44 l 39.77,-19.29 c -8.27,17.19 -7.29,20.2 -15.01,31.16 z"
   id="path25" />
  <path
   class="fil4"
   d="m 11631.98,8493.21 c -24.41,-18.1 -32.71,-35.62 -55.62,-62.73 l -53.66,-58.77 c -0.95,-1.21 -2.87,-3.57 -4.09,-5.51 12.99,-31.91 91.37,-134.97 121.83,-152.1 26.64,32.02 92.04,108.89 110.6,143.63 -17.02,30.68 -93.85,122.06 -119.06,135.48 z m -59.57,-1034.81 c 10.51,-56.12 38.2,-179.04 67.96,-211.58 l 58.73,212.36 z m -328.51,155.85 -6.51,100.96 c 8.05,37.54 -8.27,15.55 18.06,28.82 53.96,27.2 43.43,-58.96 46.32,-89.3 l 206.15,-4.39 -0.3,216.2 -133.45,88.26 c -28.9,18.07 -46.45,29.24 -77.43,42.09 -30.76,12.75 -58.12,18.04 -75.86,48.15 -5.08,35.49 -7.96,82.6 4.9,116.68 l 51.21,3.3 8.18,-103.4 214.33,-3.4 c 7.35,82.63 -43.88,328.42 -67.65,430.24 -8.35,35.74 -12.74,46.07 5.42,69.46 77.19,2.3 32.2,-76.23 67.72,-121.88 76.84,51.78 102,214.12 193.94,65.05 19.6,-31.78 48.64,-59.04 68.5,-78.93 12,16.55 15.98,48.62 21.07,73.92 9.1,45.29 2.71,57.46 46.66,58.53 l 6.72,-13.58 c 8.98,-34.42 -26.52,-193.82 -32.91,-233.35 l -28.54,-180.43 c -0.87,-6.31 -3.6,-26.86 -3.6,-32.06 l 6.89,-35.87 215.21,-4.27 c 4.25,40.42 -9.81,117.23 46.54,100.78 36.12,-10.54 27.4,-70.66 18.15,-126.12 -44.28,-31.1 -102.38,-53.84 -150.06,-81.31 -42.35,-24.41 -100.2,-70.99 -142.84,-90.36 -9.86,-51.3 -11.65,-158.31 -2.84,-209.62 51.9,-1.08 159.93,-9.33 204.18,4.23 6.81,54.05 -14.78,104.39 57.81,84.91 15.79,-32.09 9.02,-80.68 5.74,-116.74 -80.26,-59 -193.07,-89.59 -267.66,-145.46 -30.99,-23.21 -45.98,-102.42 -58.13,-142.31 l -42.88,-137.58 c -9.97,-19.68 -2.69,-9.4 -18.03,-23.24 -50.29,3.63 -52.83,33.05 -83.33,129.91 -8.35,26.54 -34.97,156.61 -41.12,169.71 -17.42,37.09 -109.54,55.71 -139.09,70.47 -41.32,20.64 -107.93,45.63 -141.47,71.93 z"
   id="path27" />
  <path
   class="fil1"
   d="m 8738.87,10474.91 c 88.65,-32.64 102.74,103.44 27.84,124.3 -79.82,22.24 -113.49,-92.77 -27.84,-124.3 z m 1846.75,469.3 -19.49,-92.41 -19.8,78.46 c -32.36,-18.58 -15.09,6.54 -48.85,-22.9 -60.64,-52.88 -46.36,-32.99 -156.48,-56.7 -140.33,-30.22 -174.23,-84.25 -278.75,-71.96 -91.76,10.79 -14.79,-44.4 -98.45,-24.08 -48.89,11.88 -84.13,-6.69 -123.02,45.44 -1.09,1.47 -2.39,3.62 -3.47,5.12 -37.17,51.47 -29.39,30.24 -59.49,38.56 l -20.33,7.82 c 8.48,-30.94 17.66,-28.76 10.6,-42.06 l -23.47,13.78 c -18.67,11.44 5.88,-0.44 -21.53,12.68 -158.74,75.96 -271.82,-169.02 -86.49,-230.63 l -3.5,-282.69 c -26.03,-24.61 -58.55,-42.95 -85.78,-65.39 -62.94,-51.9 -204.41,-199.26 -231.84,-211.01 -4.86,9.17 -13.94,28.35 -15.75,32.85 -12.12,30.06 -5.57,-12.54 -9.66,34.94 -8.3,-3.52 -15.16,-6.96 -17.72,-7.71 -91.95,-26.96 4.4,13.43 -80.61,-34.98 -1.54,-0.87 -3.63,-2.21 -5.27,-2.95 -23.84,-10.62 -56.17,-0.81 -78.26,1.82 -90.53,10.82 -25.58,10.51 -86.51,30.67 -70.74,23.41 -194.33,27.49 -256.32,9.57 -51.69,-14.94 -12.07,10.74 -44.14,-17.11 -9.78,-8.49 -22.98,-34.49 -29.14,-47.77 -17.31,-37.32 -31,-79.57 -44.23,-115.28 -26.99,-72.86 -124.38,-137.73 -110.14,-208.98 -12.65,-11.83 21.16,-20.16 -22.69,-5.26 -47.75,38.14 -13.15,69.52 8.82,116.56 55.17,118.13 120.68,231.94 197.3,335.3 123.9,10.88 282.84,-70.62 394.63,-54.97 -1.25,57.71 -199.33,203.48 -282.14,313.06 -82.75,-2.65 -126.28,-31.89 -177.51,36.28 -79.12,105.27 52.08,273.91 175.67,166.85 68.98,-59.77 34.78,-92.53 31.07,-172.89 72.21,-47.2 232.44,-243.43 288.61,-267.94 17.75,8.59 218.45,210.35 234.78,228.02 l -50.28,380.61 c 26.51,29.3 435.79,274.18 450.44,272.55 57.36,-28.6 103.84,-86.43 139.79,-124.41 163.91,-173.19 126.11,-152.31 334.29,-89.92 272.66,81.72 177.13,-38.96 254.84,220.97 8.91,29.81 17.53,56.39 25.06,84.69 24.31,91.44 18.36,62.62 48.33,75.07 z"
   id="path29" />
  <path
   class="fil3"
   d="m 12682.81,7632.8 75.12,172.28 c 170.55,28.11 177.29,192.46 64,243.68 -53.75,24.3 -136.1,3.59 -163.71,-39.64 -44.41,-69.53 9.23,-130.22 33.83,-168.02 -8.53,-36.95 -57.31,-174.58 -91.26,-201.59 11.32,65.98 33.68,62.88 20.48,111.41 -1.05,3.84 -8.96,18.55 -13.11,26.85 -44.16,88.46 -6.47,143.93 20.54,230.87 80.05,257.67 83.59,250.35 106.49,518.47 6.27,73.44 -12.06,119.21 2.69,146.51 l 2.4,-63.8 415.54,-0.21 c 28.3,-42.31 48.53,-87.21 118.65,-93.06 34.6,-2.88 60.44,5.97 82.13,22.01 11.25,8.32 16.58,14.42 25.02,24.51 l 31.22,34.24 7.9,-166.08 c -57.53,-29.7 -129.85,-45.13 -202.18,-68.91 -136.51,-44.86 -125.13,-49.85 -144.13,-124.84 -24.29,-95.86 -53.01,-154.4 -66.75,-203.36 -46.73,-166.56 -79.02,-57.27 -75.11,-196.71 3.18,-2.36 14.45,-8.96 19.61,-13.7 l 21.85,-28.32 c 38.72,-48.96 75.28,-74.3 108.79,-120.11 l 91.59,-111.51 c 34.19,-51.27 -39.72,-163.27 -66.11,-201.15 -31.31,-13.23 -14.23,20.88 -27.1,-31.76 -18.41,22.63 3.37,16.62 -32.29,31.6 -39.38,16.53 -44.36,51.4 -68.78,100.04 -7.19,14.33 4.38,-5.72 -5.88,11.18 l -41.24,32.9 c -20.84,13.39 -8.53,22.24 -25.65,43.44 -17.79,22.04 -16.07,-4.98 -32.42,35.7 -18.17,45.2 17.46,24.34 -31.74,51.78 -31.76,17.72 -20.67,19.69 -44.59,41.02 -47.69,-19.87 42.29,17.05 -16.38,-14.27 -11.3,-6.04 7.96,-10.53 -11.71,-2.71 -20.56,8.18 -10.04,-1.66 -15.78,31.98 -5.94,-13.01 -2.3,-10.25 -14.68,-14.45 -5.32,-1.8 -13.07,5.64 -35.55,-19.8 z"
   id="path31" />
  <path
   class="fil1"
   d="m 8149.57,9391 c -20.86,-99.62 105.43,-109.03 125.5,-38.14 23.53,83.12 -110.88,107.97 -125.5,38.14 z m 96.79,-1449.77 c 70.66,-61.36 146.43,-17.28 130.57,48.71 -14.21,59.14 -133.28,68.59 -130.57,-48.71 z m 505.32,-1260.45 c 75.61,-53.4 155.34,62.5 88.43,102.99 -83.74,50.68 -146.09,-62.26 -88.43,-102.99 z m -27.51,2764.9 c -9.97,69.6 -4.43,19.06 12.5,38.44 53.14,-21.64 36.31,-36.42 16.99,-133.46 -35.87,-180.1 -5.1,-87.55 -74.37,-257.6 -27.05,-66.41 -0.13,-61.98 -45.32,-100.78 -45.43,-39 8.53,12.62 -15.02,-12.5 -26.9,-0.75 -279.22,-77.13 -300.53,-88.47 l -2.55,-448.88 c 23.85,-83.83 320.98,-60.26 345.36,-167.05 12.4,-54.33 -3.53,-42.53 32.89,-138.11 17.7,-46.45 40.48,-114.41 65.75,-162.56 16.6,-41.34 46.32,-58.3 29.38,-109.55 -17.91,-54.22 -94.93,-132.2 -131.32,-173.33 -28.68,-32.41 -37.31,-56.11 -65.92,-87.17 -75.64,-82.13 -27.57,-73.47 26.51,-195.16 20.31,-45.7 76.43,-163.46 87.99,-203.99 47.52,-68.48 93.75,-31.91 162.2,-19.36 102.51,18.79 238.45,69.12 307.97,33.71 41.99,-21.38 13.6,-24.84 56.07,-84.26 50.54,-70.71 -3.12,-28.73 91.66,-128.45 63.31,-66.6 158.28,-52.05 139.78,-171.03 -17.68,-113.71 -68.71,-227.28 -75.69,-341.66 34.64,-20.84 160.21,-76.58 115.25,-110.42 -56.05,8.2 -108.14,54.05 -153.48,85.01 -10.82,54.04 41.88,334.43 45.14,425.39 l -193.12,180.14 c -30.77,0.65 -218.3,-225.89 -297.99,-281.31 11.67,-80.95 22.33,-117.36 -43.18,-160.96 -132.09,-87.92 -239.18,84.81 -154.2,180.16 57.97,65.03 104.79,20.91 177.29,18.65 40.49,47.45 82.39,89.51 132.34,145.33 26.19,29.25 122.5,110 138.08,144.75 -11.17,23.81 -35.15,49.68 -53.93,66.41 -100.03,-7.27 -312.22,-75.33 -397.8,-65.71 -49.57,95.43 -210.75,359.45 -224.03,448.17 20.6,35.37 47.45,57.75 74.96,89.81 175.28,204.22 201.47,180.22 141.06,299.21 l -254.64,0.34 c -107.56,-189.86 -251.09,-92.76 -255.03,8.55 -2.72,69.82 36.92,122.75 103.38,128.48 85.01,7.33 110.91,-42.57 140.44,-95.49 l 239.99,-1 c 2,60.67 -33.67,235.86 -60.52,273.07 -21.27,16.28 -331.85,101.05 -358.53,114.19 -9.11,73.51 -16.04,451.83 -1.89,512.54 48.66,36.78 117.78,56.04 180.82,79.53 31.28,11.67 61.35,24.43 91.01,35.26 32.47,11.85 75.43,19.03 95.25,41.8 22.09,30.02 58.44,244.28 53.11,291.85 l -321.02,3.51 c -23.76,-33.18 -41.73,-71.06 -82.09,-89.86 -166.82,-77.71 -247.11,207.55 -77.73,227.33 55.82,6.52 90.92,-11.62 120.39,-44.26 50.02,-55.4 22.48,-44.16 124.03,-44.98 56.53,-0.46 112.87,-2.09 169.36,-3.61 55.78,-1.5 132.62,-18.15 122.95,49.34 z"
   id="path33" />
  <path
   class="fil0"
   d="m 9638.98,10249.14 c 9.89,18.67 34.88,28.77 51.15,41.65 l 0.79,305.25 c 109.47,46.2 118.67,100.24 77.17,213.46 7.06,13.3 -2.12,11.12 -10.6,42.06 l 20.33,-7.82 c 30.1,-8.32 22.32,12.91 59.49,-38.56 1.08,-1.5 2.38,-3.65 3.47,-5.12 38.89,-52.13 74.13,-33.56 123.02,-45.44 83.66,-20.32 6.69,34.87 98.45,24.08 104.52,-12.29 138.42,41.74 278.75,71.96 110.12,23.71 95.84,3.82 156.48,56.7 33.76,29.44 16.49,4.32 48.85,22.9 l 19.8,-78.46 19.49,92.41 -7.39,-498.07 -1.34,37.42 c -26.97,10.99 11.41,0.87 -25.35,-0.6 -9.87,-0.4 -25.6,-0.26 -36.11,-0.32 -26.86,-0.16 -57.96,0.41 -84.49,-1.63 -21.26,-1.64 -60.39,-3.53 -86.01,-6.83 -56.42,-7.26 -6.7,-2.69 -54.05,-28.34 -60.41,-32.73 -133.99,-41.59 -241.6,-106.64 -40.22,-24.32 -81.15,-31.02 -124.77,-53.64 l -132.49,-79.35 c -68.21,-50.85 -104.47,-129.69 -166.81,-146.08 32.37,73.45 123.67,56.01 62.84,156.1 -14.84,24.41 -18.89,11.41 -9.32,39.57 -44.82,-13.93 -28.26,-19.12 -39.75,-6.66 z"
   id="path35" />
  <path
   class="fil0"
   d="m 11486.68,9763.66 c 8.05,-16.91 94.48,-146.87 145,-144.53 44.95,2.08 136.87,125.23 143.55,144.53 -69.03,49.06 -238.41,47.38 -288.55,0 z m 365.41,-53.16 c -23.21,-17.26 -98.88,-143.48 -94.57,-183.23 5.66,-52.34 32.25,-54.89 76.07,-63.28 38.04,-7.29 80.5,-21.71 119.34,-23.37 6.51,123.24 -37.82,199.49 -100.84,269.88 z m -548.71,-268.34 c 118.52,29.04 234.87,24.32 170.17,153.88 -17.75,35.57 -36.14,88.38 -61.68,116.01 -76.2,-46.3 -112.32,-165.65 -108.49,-269.89 z m 235.17,50.47 c -32.25,-127.53 156.52,-166.01 174.65,-48.81 20.34,131.42 -147.89,154.58 -174.65,48.81 z m -210.65,-152.44 c 17.58,-102.19 142.78,-190.23 247.81,-205.22 0.73,43.99 -2.38,93.41 -4.1,138 -6.08,157.61 -218.24,80.37 -243.71,67.22 z m 489.27,15.54 c -140.94,36.45 -137.98,-41.95 -143.12,-218.95 111.15,4.82 212.67,104.62 248.57,186.47 z M 11534.1,9069.5 c -518.21,134.57 -327.53,912.19 190.38,788.21 188.42,-45.11 350.69,-243.03 290.72,-487.32 -47.3,-192.66 -242.04,-362.97 -481.1,-300.89 z"
   id="path37" />
  <path
   class="fil5"
   d="m 8706.51,7205.51 c -11.56,40.53 -67.68,158.29 -87.99,203.99 -54.08,121.69 -102.15,113.03 -26.51,195.16 28.61,31.06 37.24,54.76 65.92,87.17 36.39,41.13 113.41,119.11 131.32,173.33 16.94,51.25 -12.78,68.21 -29.38,109.55 29.79,-15.09 21,-1.31 33.27,-8.13 l 25.52,-20.1 14.92,62.88 c 33.73,-2.18 9.92,8.88 18.44,-16.38 -18.1,-39.95 -8.24,-87.7 16.61,-121.84 33.52,-46.07 71.85,-37.32 122.01,-40.31 29.64,-68.8 47.39,-118.33 85.28,-183.62 16.89,-29.1 32.12,-55.88 50.41,-85.32 19.05,-30.67 40.52,-55.99 52.05,-93.41 -20.92,-10.34 7,-34.8 17.18,-48.82 14.23,-19.58 24.87,-38.72 39.42,-53.65 -19.15,-18.66 -6.01,0.62 -16.73,-23.95 l -10.74,6.59 c -1.5,0.75 -3.95,2.34 -5.63,3.06 -46.63,19.9 -36.78,-0.75 -49.3,-10.91 l -45.71,-30.86 c -25.55,-7.43 -15.64,2.54 -41.09,-9.91 -64.12,-31.36 13.04,-4.8 -98.28,-29.02 -63.69,-13.85 -32.55,-17 -133.04,-45.02 -68.33,-19.04 -58.87,-51.74 -127.95,-20.48 z"
   id="path39" />
  <path
   class="fil2"
   d="m 12749.33,9504.04 c -25.76,37.98 -88.64,230.74 -229.63,419.02 -33,44.07 -86.45,89.13 -101.42,122 l 88.06,-10.85 c 1.02,-0.09 3.33,-0.33 4.34,-0.3 1.97,0.05 23.25,6.41 26.58,7.93 33.95,15.5 37.43,30.79 49.3,35.82 19.7,8.35 53.43,2.19 78.2,6.15 30.28,4.85 40.06,14.2 68.82,16.01 47.14,2.97 203.58,10.48 236.02,1.59 37.28,-10.21 61.85,-47.52 83.15,-83.07 l 27.33,-56.89 c 8.44,-15.89 4.16,-8.96 12.76,-28.67 l 60.23,-102.19 c 1.07,-1.7 2.57,-3.67 3.68,-5.3 l 45.49,-74.1 -12.51,-55.29 c 17.19,-17.94 -25.87,-21.64 29.23,-11.69 -33.7,-35.03 -61.67,-76.13 -88.1,-106.73 -29.99,-34.74 -64.24,-88.78 -99.32,-112.16 0.23,37.48 18.99,15.2 -17.9,25.45 -12.57,-34.7 -10.96,-5.31 -17.22,-48.09 l 5.42,-152.83 c 12.03,-69.32 36.72,-125.96 48.33,-186.77 l -8.75,11.03 c -1.42,1.95 -6.41,8.78 -7.89,11.08 -3.52,5.46 -6.78,11.16 -9.82,17.33 l -85.47,290.83 c 3.38,17.2 123.23,150.95 149.87,184.99 59.29,75.75 117.71,102.9 83.07,160.07 l -23.82,29.52 -132.45,-132.21 c -1.42,-1.11 -3.69,-2.29 -5.13,-3.37 l -31.7,-35.68 c -24.95,-38.6 -39.22,-36.23 -50.91,-50.64 -23.95,-29.55 1.51,-28.19 -37.41,-39.33 -30.91,-8.85 -80,-4.41 -113.34,-5.32 -21.32,-33.89 1.76,-32.14 -27.09,-37.34 z"
   id="path41" />
  <path
   class="fil1"
   d="m 10788.75,7405.31 c 37.79,-20.54 7.41,6.29 20.24,-30.21 2.83,-8.04 1.73,-24.72 1.76,-33.74 70.22,-8.14 27.37,6.3 56.06,-25.25 l 31.51,-30.5 c 0.41,5.18 0.97,18.67 2.01,22.65 13.52,51.43 -14.87,-37.44 4.75,14.55 0.86,2.3 2.67,5.12 3.47,6.99 0.81,1.89 2.31,4.76 3.83,6.91 0.21,-80.14 9.71,-146.24 13.92,-223.98 5.47,-100.91 -39.72,-195.55 4.23,-233.71 58.35,-55.61 47.43,-86.8 47.49,-181.29 0.13,-234.73 14.09,-494.42 10.03,-718.22 l -231.04,1.36 c -10.07,79.45 1.18,596.74 0.61,725.32 -0.29,65.74 -14.02,107.6 18.54,152.7 27.63,38.27 16.69,114.94 15.7,169.14 -2.29,125.52 0.04,252.24 -3.11,377.28 z"
   id="path43" />
  <path
   class="fil0"
   d="m 9828.76,8052.98 c 13.76,-8.76 158.08,-170.86 164.02,-203.62 14.37,-79.16 -27.22,-78.11 42.94,-140.16 37.89,-33.5 68.27,-51.92 125.66,-39.08 -5.25,68.8 -60.31,43.71 -63.13,120.16 16.2,35.68 37.11,51.51 77.61,55.34 50.58,-28.19 43.6,-74.49 91.45,-79.63 25.44,48.79 3.21,102.48 -27.66,138.39 -80.56,93.7 -127.09,3.81 -190.54,80.92 l -101.71,118.21 c -6.11,6.55 -6.69,7.18 -12.85,14.46 l -8.31,11.09 c 22.53,28.73 61.57,37.43 97.98,41.38 41.4,4.49 92.53,1.84 126.88,-8.01 190.19,-54.54 288.64,-330.11 100.86,-507.74 -113.45,-107.31 -289.99,-75.95 -389.38,16.93 -129.55,121.07 -108.71,322.86 -33.82,381.36 z"
   id="path45" />
  <path
   class="fil2"
   d="m 12673.55,7612.46 9.26,20.34 21.7,26.47 c 22.48,25.44 30.23,18 35.55,19.8 12.38,4.2 8.74,1.44 14.68,14.45 5.74,-33.64 -4.78,-23.8 15.78,-31.98 19.67,-7.82 0.41,-3.33 11.71,2.71 58.67,31.32 -31.31,-5.6 16.38,14.27 23.92,-21.33 12.83,-23.3 44.59,-41.02 49.2,-27.44 13.57,-6.58 31.74,-51.78 16.35,-40.68 14.63,-13.66 32.42,-35.7 17.12,-21.2 4.81,-30.05 25.65,-43.44 l 41.24,-32.9 c 10.26,-16.9 -1.31,3.15 5.88,-11.18 24.42,-48.64 29.4,-83.51 68.78,-100.04 35.66,-14.98 13.88,-8.97 32.29,-31.6 12.87,52.64 -4.21,18.53 27.1,31.76 -13.6,-41.89 -43.84,-77.58 -60.03,-111.87 -16.72,-15.29 -37.55,-26.98 -62.81,-30.39 -30.15,-4.07 -118.2,36.64 -129.93,49.83 l -13.52,20.55 c -36.81,48.25 -31.43,1.2 -73.03,88.26 -45.52,95.26 -18.1,74.4 -23.97,182.61 l -39.07,-2.95 c 11.92,67.73 -3.64,9.72 -18.05,63.34 4.85,-16.97 2.4,-0.94 -14.34,-9.54 z"
   id="path47" />
  <path
   class="fil5"
   d="m 8908.72,9248.93 c -95.93,32.24 -58.93,184.86 53.26,155.8 98.78,-25.59 64.68,-195.43 -53.26,-155.8 z"
   id="path49" />
  <path
   class="fil5"
   d="m 8898.61,7968.14 c 21.23,96.37 177.69,68.41 148.06,-38.72 -23.1,-83.49 -175.36,-85.28 -148.06,38.72 z"
   id="path51" />
  <path
   class="fil3"
   d="m 8422.4,8583.11 c -80.09,32.3 -45.06,197.84 68.83,139.53 95.04,-48.66 17.28,-174.25 -68.83,-139.53 z"
   id="path53" />
  <path
   class="fil5"
   d="m 13211.58,8679.57 c 23.68,67.04 184.29,52.11 142.45,-62.53 -32.2,-88.21 -178.88,-40.6 -142.45,62.53 z"
   id="path55" />
  <path
   class="fil0"
   d="m 9937.55,6712.12 c -91.39,38.27 -42.23,166.99 58.72,137.54 89.83,-26.2 36.68,-177.49 -58.72,-137.54 z"
   id="path57" />
  <path
   class="fil5"
   d="m 12838.53,7974.31 c 49.04,-87.41 -87.4,-155.02 -132.19,-74.4 -61.59,110.86 98.31,134.77 132.19,74.4 z"
   id="path59" />
  <path
   class="fil5"
   d="m 12763.13,9251.05 c -88.11,67.32 5.83,165.54 77.38,129.02 86.58,-44.18 -3.83,-185.22 -77.38,-129.02 z"
   id="path61" />
  <path
   class="fil0"
   d="m 9725.5,10755.02 c 45.74,-89.67 -76.36,-150.1 -118.54,-78.29 -55.88,95.12 78.28,157.2 118.54,78.29 z"
   id="path63" />
  <path
   class="fil2"
   d="m 12011,6533.02 c -81.44,36.03 -39.01,164.06 56.87,127.44 78.49,-29.97 36.61,-168.78 -56.87,-127.44 z"
   id="path65" />
  <path
   class="fil0"
   d="m 11797.78,10517.44 c 17.56,65.92 153.23,70.87 136.9,-32.1 -13.77,-86.78 -163.7,-68.51 -136.9,32.1 z"
   id="path67" />
 </g>
</svg>
