<?xml version="1.0" encoding="UTF-8"?>
<svg xmlns="http://www.w3.org/2000/svg" xmlns:xlink="http://www.w3.org/1999/xlink" width="100px" height="100px" viewBox="0 0 100 100" version="1.1">
<g id="surface1">
<path style=" stroke:none;fill-rule:evenodd;fill:rgb(10.980392%,39.215687%,61.176473%);fill-opacity:1;" d="M 51.632812 96.824219 C 50.480469 99.382812 46.824219 97.667969 47.890625 95.226562 C 48.925781 92.859375 52.683594 94.488281 51.632812 96.824219 Z M 46.796875 53.5625 C 45.742188 49.484375 51.84375 48.140625 52.640625 51.933594 C 53.53125 56.171875 47.703125 57.070312 46.796875 53.5625 Z M 51.027344 20.261719 C 50.238281 20.949219 51.050781 22.652344 50.953125 24.464844 C 50.875 25.863281 50.703125 27.054688 50.699219 28.496094 C 50.671875 28.457031 50.648438 28.40625 50.632812 28.371094 C 50.617188 28.335938 50.585938 28.285156 50.570312 28.246094 C 50.21875 27.308594 50.726562 28.90625 50.484375 27.984375 C 50.464844 27.910156 50.457031 27.667969 50.449219 27.574219 L 49.882812 28.125 C 49.367188 28.691406 50.136719 28.433594 48.875 28.578125 C 48.871094 28.742188 48.890625 29.039062 48.839844 29.183594 C 48.609375 29.84375 49.15625 29.359375 48.476562 29.730469 L 48.554688 47.722656 C 46.355469 48.613281 45.667969 49.335938 44.886719 51.527344 L 24.648438 51.558594 C 26.148438 52.269531 30.097656 51.648438 31.972656 51.601562 C 34.058594 51.546875 37.109375 51.585938 39.164062 51.789062 C 38.757812 51.777344 38.613281 51.808594 38.460938 52.0625 L 38.394531 52.339844 C 38.148438 53.136719 37.773438 52.351562 38.03125 53.394531 C 38.121094 53.75 37.890625 53.84375 38.625 53.714844 C 37.363281 53.746094 38.277344 53.71875 37.910156 54.015625 L 44.949219 53.976562 C 45.558594 56.054688 46.4375 56.882812 48.441406 57.644531 L 48.441406 82.964844 C 48.308594 84.007812 47.292969 84.242188 46.566406 84.789062 L 46.417969 98.914062 C 48.445312 99.957031 51.183594 100.414062 53.097656 98.796875 L 53.070312 84.804688 C 52.5 84.261719 51.304688 83.894531 51.039062 83.074219 C 50.871094 82.558594 50.972656 80.171875 50.980469 79.457031 C 51.023438 72.222656 50.675781 65.003906 50.851562 57.671875 C 53.886719 56.761719 53.820312 55.101562 54.660156 54.03125 L 81.839844 53.96875 C 82.167969 58.785156 78.875 66.214844 76.492188 70.21875 C 73.957031 74.480469 69.757812 78.015625 65.339844 80.550781 C 62.882812 81.957031 57.941406 83.761719 54.710938 84.378906 L 54.683594 98.617188 C 55.699219 98.269531 56.414062 93.390625 57.121094 92.253906 C 57.882812 91.980469 59.765625 91.824219 60.695312 91.625 C 61.628906 91.421875 63.617188 90.734375 64.332031 91.257812 C 65.132812 91.84375 67.78125 94.761719 69.125 95.414062 L 75.894531 91.558594 C 77.726562 90.570312 77.425781 90.515625 77.003906 88.195312 C 76.777344 86.941406 76.203125 84.6875 76.238281 83.570312 C 76.769531 83.078125 77.113281 82.886719 77.613281 82.46875 C 79.144531 81.175781 80.242188 80.296875 81.320312 78.4375 C 83.789062 78.304688 87.4375 79.605469 88.617188 79.5625 C 89.128906 78.949219 89.492188 78.125 89.894531 77.535156 C 90.753906 76.273438 91.628906 74.445312 92.394531 73.023438 C 93.070312 71.769531 93.242188 71.800781 92.1875 70.71875 C 91.195312 70.539062 91.972656 70.605469 91.664062 70.929688 L 91.886719 71.921875 L 91.070312 73.253906 C 91.050781 73.285156 91.023438 73.320312 91.003906 73.351562 L 89.917969 75.1875 C 89.765625 75.542969 89.84375 75.417969 89.691406 75.703125 L 89.199219 76.726562 C 88.816406 77.367188 88.375 78.039062 87.703125 78.222656 C 87.121094 78.382812 84.304688 78.246094 83.457031 78.191406 C 82.941406 78.160156 82.765625 77.992188 82.21875 77.90625 C 81.773438 77.832031 81.167969 77.945312 80.8125 77.792969 C 80.601562 77.703125 80.539062 77.429688 79.925781 77.148438 C 79.867188 77.121094 79.484375 77.007812 79.449219 77.007812 C 79.429688 77.007812 79.390625 77.011719 79.371094 77.011719 L 77.785156 77.207031 C 77.007812 77.6875 76.636719 78.359375 76.003906 79.027344 C 75.25 79.820312 74.921875 80.160156 74.136719 80.824219 C 72.722656 82.019531 71.339844 83.175781 70.046875 84.019531 C 70.035156 85.410156 70.433594 86.300781 69.320312 87.109375 C 67.199219 88.644531 64.371094 86.109375 66.105469 83.90625 C 66.617188 83.257812 67.535156 82.855469 68.449219 83.164062 C 69.109375 83.386719 68.5625 83.355469 69.277344 83.503906 C 70.273438 82.9375 72.238281 81.390625 72.910156 80.703125 C 73.046875 80.507812 73.03125 80.453125 73.179688 80.144531 L 72.464844 80.488281 C 71.65625 80.765625 73.03125 79.84375 71.882812 79.566406 C 71.753906 79.535156 71.070312 79.550781 70.875 79.542969 C 71.050781 79.355469 71.15625 79.117188 71.316406 78.90625 C 71.453125 78.726562 71.445312 78.746094 71.597656 78.578125 C 71.621094 78.554688 71.652344 78.523438 71.671875 78.5 C 71.695312 78.480469 71.726562 78.445312 71.746094 78.421875 L 73.097656 76.882812 C 74.878906 75.191406 74.199219 75.695312 75.183594 74.699219 C 75.738281 74.132812 75.570312 74.144531 76.019531 73.539062 C 76.253906 73.222656 76.347656 73.125 76.535156 72.820312 C 76.867188 72.28125 76.742188 72.242188 76.832031 72.011719 C 76.863281 71.9375 77.238281 71.714844 77.457031 71.503906 C 77.765625 71.210938 78.109375 70.609375 78.496094 70.113281 L 81.121094 65.050781 C 81.945312 63.339844 82.890625 59.398438 83.347656 57.277344 C 83.625 55.976562 83.523438 53.914062 83.535156 52.539062 C 83.269531 52.050781 83.597656 51.226562 83.488281 49.90625 C 83.074219 45.082031 83.011719 45.214844 81.570312 40.582031 C 81.085938 39.015625 80.40625 38.019531 81.203125 36.429688 C 81.277344 36.277344 81.417969 36.015625 81.4375 35.945312 C 81.675781 35.070312 81.273438 35.128906 81.070312 33.941406 C 80.886719 32.90625 79.210938 30.667969 78.488281 29.722656 C 77.539062 28.480469 76.425781 27.328125 75.265625 26.246094 C 69.402344 20.761719 70.585938 24.3125 70.472656 17.417969 C 69.597656 16.882812 68.519531 16.695312 68.644531 15.023438 C 68.847656 12.335938 73.03125 11.933594 73.167969 14.867188 C 73.238281 16.324219 72.359375 16.691406 71.449219 17.308594 L 71.503906 21.875 C 72.214844 22.558594 73.734375 23.464844 74.800781 24.265625 C 79.992188 28.171875 81.011719 32.046875 82.378906 33.453125 C 82.679688 33.609375 82.722656 33.320312 82.636719 33.625 C 82.894531 32.660156 83.175781 33.707031 82.960938 32.488281 L 83.664062 32.539062 C 83.769531 30.59375 83.277344 30.96875 84.09375 29.253906 C 84.84375 27.691406 84.746094 28.535156 85.40625 27.667969 L 85.652344 27.296875 C 85.863281 27.0625 87.445312 26.328125 87.988281 26.402344 C 88.441406 26.464844 88.816406 26.671875 89.117188 26.949219 C 88.867188 25.925781 88.449219 26.132812 88.160156 25.414062 C 86.734375 25.464844 83.070312 26.363281 81.699219 26.507812 C 80.589844 26.628906 80.445312 25.410156 79.949219 24.75 C 79.429688 24.0625 77.871094 22.410156 77.253906 22.15625 C 76.683594 21.921875 76.59375 22.148438 76.144531 21.851562 C 75.050781 21.125 75.316406 19.984375 75.550781 18.875 C 76.125 16.171875 76.113281 16.980469 76.328125 14.109375 C 76.335938 14.023438 76.394531 13.195312 76.394531 13.191406 C 76.351562 12.683594 76.402344 13.105469 76.289062 12.761719 C 75.953125 11.761719 76.878906 13.386719 76.132812 12.503906 L 76.308594 12.484375 C 75.914062 12.019531 71.699219 9.761719 71.597656 9.730469 C 71.765625 10.144531 71.257812 9.851562 71.953125 10.105469 L 70.648438 9.554688 L 69.925781 10.027344 C 69.910156 10.039062 69.875 10.066406 69.859375 10.078125 C 69.84375 10.089844 69.808594 10.117188 69.792969 10.132812 L 69.335938 10.636719 C 68.832031 11.035156 68.980469 10.652344 68.523438 11.25 L 68.058594 11.832031 C 68.09375 11.871094 68.226562 12.226562 68.0625 11.675781 C 67.972656 11.359375 68.089844 11.59375 67.929688 11.390625 C 67.398438 12.261719 67.585938 11.734375 66.882812 12.320312 C 66.859375 12.339844 66.832031 12.378906 66.808594 12.398438 C 65.902344 13.167969 65.761719 12.273438 65.015625 13.714844 L 60.648438 13.714844 C 60.40625 14.179688 60.503906 14 60.113281 14.285156 C 60.105469 13.335938 60.144531 13.507812 59.78125 13.082031 C 59.335938 12.566406 59.660156 12.632812 59.476562 12.203125 C 56.726562 11.175781 56.960938 11.984375 56.441406 10.386719 L 55.554688 8.03125 C 54.78125 6.535156 54.847656 6.289062 53.726562 5.226562 L 53.660156 19.4375 C 54.128906 19.660156 57.542969 20.179688 59.738281 20.90625 C 65.664062 22.867188 69.445312 25.613281 73.53125 29.808594 C 77.21875 33.59375 79.972656 39.382812 81.09375 44.734375 C 81.410156 46.234375 82.082031 50.0625 81.84375 51.503906 L 54.660156 51.5625 C 54.019531 50.597656 54.1875 50.179688 53.246094 49.191406 C 52.402344 48.304688 51.652344 48.207031 51.011719 47.621094 Z M 51.027344 20.261719 "/>
<path style=" stroke:none;fill-rule:evenodd;fill:rgb(10.980392%,39.215687%,61.176473%);fill-opacity:1;" d="M 36.542969 3.007812 C 36.046875 1.144531 37.632812 0.683594 38.320312 1.511719 C 39.171875 2.53125 38.121094 3.886719 36.542969 3.007812 Z M 25.363281 11.359375 C 26.171875 11.96875 23.914062 12.972656 23.292969 13.347656 C 23.417969 15.402344 24.335938 17.445312 24.652344 19.492188 C 24.984375 21.632812 23.277344 21.371094 22.140625 22.566406 C 20.433594 24.359375 21.398438 23.605469 20.492188 24.878906 C 19.726562 25.945312 20.238281 26.007812 19.480469 26.394531 C 18.230469 27.03125 15.785156 26.125 13.941406 25.785156 C 12.710938 25.5625 11.878906 24.902344 11.027344 26.136719 C 12.269531 25.574219 12.097656 26.160156 13.328125 26.503906 C 15.132812 27.007812 14.574219 27.0625 15.71875 27.3125 C 17.722656 27.75 16.335938 27.269531 17.488281 27.835938 C 17.945312 28.058594 17.765625 27.878906 18.226562 28.011719 L 19.046875 28.570312 C 19.273438 28.75 19.097656 29.121094 19.933594 28.765625 C 19.964844 28.75 20.011719 28.722656 20.035156 28.710938 L 20.230469 28.589844 C 20.421875 29.03125 20.1875 28.6875 20.53125 29.023438 C 20.269531 29.289062 20.078125 29.632812 19.820312 29.988281 C 19.640625 30.238281 19.136719 30.679688 19.511719 30.863281 C 19.527344 30.855469 21.726562 27.835938 21.960938 27.546875 C 24.378906 24.566406 26.820312 22.667969 29.941406 20.609375 C 30.503906 20.234375 31.273438 19.804688 31.761719 19.4375 C 31 14.871094 36.015625 15.558594 36.152344 18.523438 C 36.226562 20.140625 34.96875 21.292969 33.25 20.761719 C 31.699219 20.285156 32.734375 19.777344 29.796875 21.6875 C 27.019531 23.492188 20.605469 29.328125 19.675781 32.367188 C 19.808594 32.96875 19.949219 32.640625 19.714844 33.191406 C 20.59375 33.4375 19.976562 33.054688 20.339844 33.671875 L 20.703125 34.5625 C 20.8125 35.304688 20.246094 35.601562 20.082031 36.652344 C 20.765625 36.078125 20.335938 36.042969 21.132812 34.757812 C 21.476562 34.199219 21.71875 33.648438 22.117188 33.015625 L 25.289062 28.878906 C 25.511719 28.609375 25.347656 28.789062 25.417969 28.714844 C 25.628906 28.484375 25.476562 28.648438 25.835938 28.394531 C 26.761719 27.738281 26.527344 27.464844 27.957031 26.421875 C 28.074219 26.339844 29.976562 24.167969 31.617188 23.046875 L 35.675781 21.023438 C 36.652344 20.460938 36.65625 20.703125 37.296875 20.378906 C 37.859375 20.085938 37.6875 20.015625 38.097656 19.8125 C 39.265625 19.230469 43.363281 18.492188 44.792969 18.339844 C 44.894531 18.328125 45.355469 18.285156 45.394531 18.285156 C 45.417969 18.285156 45.464844 18.285156 45.484375 18.285156 L 46.003906 19.28125 L 45.21875 19.59375 L 45.929688 19.523438 C 46.113281 18.824219 46.117188 8.152344 46.171875 6.410156 C 46.207031 5.351562 46.617188 3.972656 45.371094 3.996094 C 44.507812 4.011719 44.613281 4.695312 44.160156 6.195312 C 43.949219 6.882812 42.777344 11.199219 42.480469 11.390625 L 37.964844 12.378906 L 37.902344 4.511719 C 38.503906 3.929688 39.601562 3.429688 39.648438 2.226562 C 39.757812 -0.507812 35.691406 -0.863281 35.519531 1.945312 C 35.425781 3.460938 36.121094 3.96875 36.984375 4.503906 L 36.765625 12.578125 C 35.773438 12.980469 35.65625 13.027344 34.890625 12.40625 L 31.988281 9.824219 C 30.253906 8.105469 30.980469 7.933594 26.632812 10.578125 Z M 25.363281 11.359375 "/>
<path style=" stroke:none;fill-rule:evenodd;fill:rgb(10.980392%,39.215687%,61.176473%);fill-opacity:1;" d="M 34.46875 32.078125 C 42.761719 30.382812 44.5625 43.109375 36.519531 44.554688 C 28.457031 46.007812 25.679688 33.875 34.46875 32.078125 Z M 33.347656 29.683594 C 30.035156 31.660156 30.027344 29.160156 28.925781 29.328125 C 28.40625 29.578125 26.683594 31.292969 26.488281 31.777344 C 26.667969 32.75 27.59375 33.101562 27.65625 33.78125 C 27.6875 34.125 27.144531 35.460938 26.894531 35.84375 C 26.46875 36.507812 25.734375 36.0625 25.042969 36.292969 C 24.070312 36.609375 24.253906 38.449219 24.375 39.390625 C 24.597656 41.125 26.277344 39.457031 27.003906 41.003906 C 27.121094 41.253906 27.195312 41.472656 27.273438 41.671875 C 27.394531 41.980469 27.691406 42.691406 27.664062 43.035156 C 27.589844 43.855469 26.207031 44.429688 26.65625 45.316406 C 26.726562 45.457031 28.203125 46.921875 28.496094 47.140625 C 29.507812 47.90625 29.90625 46.710938 30.753906 46.222656 C 31.304688 46.320312 32.667969 46.976562 33.101562 47.242188 C 33.277344 48.226562 33.199219 48.832031 33.542969 49.542969 C 34.421875 49.765625 35.972656 49.765625 36.917969 49.664062 C 37.59375 48.996094 37.308594 48.222656 37.480469 47.179688 C 37.820312 47.011719 39.355469 46.242188 39.726562 46.269531 C 40.554688 46.332031 40.605469 47.328125 41.71875 47.480469 C 41.976562 47.339844 44.082031 45.554688 44.355469 45.03125 C 44.105469 44.152344 43.101562 43.488281 43.003906 42.863281 C 42.90625 42.226562 43.714844 40.867188 44.148438 40.574219 L 46.191406 40.371094 C 46.820312 39.382812 46.601562 37.015625 46.234375 36.417969 L 44.21875 36.265625 C 44.089844 36.003906 43.171875 34.121094 43.140625 33.867188 C 43.046875 33.101562 44.15625 32.515625 44.410156 31.625 C 44.394531 31.328125 41.988281 29.082031 41.566406 29.125 C 40.867188 29.429688 40.449219 30.304688 39.71875 30.378906 C 39.1875 30.433594 37.949219 29.882812 37.507812 29.617188 C 37.335938 27.304688 38 26.980469 35.476562 26.964844 C 32.96875 26.945312 33.398438 27.230469 33.347656 29.683594 Z M 33.347656 29.683594 "/>
<path style=" stroke:none;fill-rule:evenodd;fill:rgb(7.843138%,29.411766%,48.627451%);fill-opacity:1;" d="M 96.65625 65.140625 C 96.382812 63.371094 98.945312 63.292969 99.152344 64.847656 C 99.402344 66.6875 96.875 66.578125 96.65625 65.140625 Z M 95.34375 40.15625 C 94.867188 38.554688 97.429688 38.15625 97.738281 39.585938 C 98.082031 41.175781 95.683594 41.304688 95.34375 40.15625 Z M 53.726562 5.226562 C 54.847656 6.289062 54.78125 6.535156 55.554688 8.03125 L 56.441406 10.386719 C 56.960938 11.984375 56.726562 11.175781 59.476562 12.203125 C 59.660156 12.632812 59.335938 12.566406 59.78125 13.082031 C 60.144531 13.507812 60.105469 13.335938 60.113281 14.285156 C 60.503906 14 60.40625 14.179688 60.648438 13.714844 L 65.015625 13.714844 C 65.761719 12.273438 65.902344 13.167969 66.808594 12.398438 C 66.832031 12.378906 66.859375 12.339844 66.882812 12.320312 C 67.585938 11.734375 67.398438 12.261719 67.929688 11.390625 C 68.089844 11.59375 67.972656 11.359375 68.0625 11.675781 C 68.226562 12.226562 68.09375 11.871094 68.058594 11.832031 L 68.523438 11.25 C 68.980469 10.652344 68.832031 11.035156 69.335938 10.636719 L 69.792969 10.132812 C 69.808594 10.117188 69.84375 10.089844 69.859375 10.078125 C 69.875 10.066406 69.910156 10.039062 69.925781 10.027344 L 70.648438 9.554688 L 71.953125 10.105469 C 71.257812 9.851562 71.765625 10.144531 71.597656 9.730469 L 69.277344 8.34375 C 68.390625 8.867188 66.867188 10.476562 65.921875 11.359375 C 63.792969 13.347656 64.292969 13.054688 61.742188 12.28125 C 61.734375 12.144531 63.25 5.527344 63.796875 4.878906 C 66.496094 5.078125 71.191406 7.226562 73.609375 8.234375 C 75.332031 8.953125 80.460938 12.078125 81.371094 13.5 C 81.121094 14.550781 79.195312 16.230469 78.550781 17.304688 L 79.113281 17.824219 C 80.996094 19.089844 82.039062 20.929688 82.679688 21.511719 C 83.316406 21.335938 85.589844 18.847656 86.941406 18.660156 C 87.996094 19.492188 91.976562 25.484375 92.777344 27.019531 C 94.132812 29.625 95.855469 34.070312 96.300781 37.566406 C 96.265625 37.597656 96.214844 37.625 96.1875 37.640625 L 95.546875 37.976562 C 94.722656 38.398438 94.726562 38.863281 94.25 39.359375 L 88.976562 39.316406 C 87.832031 37.410156 89.230469 36.613281 90.1875 35.484375 L 93.054688 32.386719 C 92.242188 30.625 89.453125 26.3125 88.464844 24.832031 C 87.070312 24.773438 85.671875 25.011719 84.300781 25.195312 C 82.457031 25.445312 81.519531 25.816406 80.707031 24.914062 C 74.867188 18.433594 76.199219 22.125 76.90625 16.066406 C 77.136719 14.09375 77.488281 12.542969 76.308594 12.484375 L 76.132812 12.503906 C 76.878906 13.386719 75.953125 11.761719 76.289062 12.761719 C 76.402344 13.105469 76.351562 12.683594 76.394531 13.191406 C 76.394531 13.195312 76.335938 14.023438 76.328125 14.109375 C 76.113281 16.980469 76.125 16.171875 75.550781 18.875 C 75.316406 19.984375 75.050781 21.125 76.144531 21.851562 C 76.59375 22.148438 76.683594 21.921875 77.253906 22.15625 C 77.871094 22.410156 79.429688 24.0625 79.949219 24.75 C 80.445312 25.410156 80.589844 26.628906 81.699219 26.507812 C 83.070312 26.363281 86.734375 25.464844 88.160156 25.414062 C 88.449219 26.132812 88.867188 25.925781 89.117188 26.949219 C 89.410156 27.566406 89.953125 28.207031 90.199219 28.960938 C 90.671875 29.640625 92 31.65625 91.386719 32.578125 L 89.738281 34.585938 C 89.136719 35.410156 88.480469 35.863281 87.78125 36.746094 L 87.390625 37.253906 C 87.296875 37.339844 87.09375 37.457031 87.035156 37.5 C 86.964844 40.007812 87.546875 38.042969 88.386719 41.039062 C 88.636719 41.917969 89.152344 42.972656 89.589844 44.695312 C 89.929688 46.046875 89.726562 46.136719 92.179688 46.941406 C 93.480469 47.371094 94.78125 47.648438 95.816406 48.179688 L 95.675781 51.167969 L 95.710938 52.816406 C 95.746094 53.140625 95.800781 55.835938 95.546875 56.230469 C 95.230469 56.710938 92.914062 57.015625 91.183594 57.660156 C 89.507812 58.285156 90.011719 57.554688 89.152344 60.265625 C 88.941406 61.359375 88.5 62.378906 88.28125 63.625 L 88.183594 66.375 C 88.296875 67.144531 88.269531 66.613281 88.496094 67.238281 C 89.160156 67.054688 88.820312 67.453125 88.816406 66.78125 C 88.621094 65.464844 87.832031 65.460938 91.203125 65.417969 C 92.523438 65.402344 94.191406 65.289062 95.46875 65.433594 C 96.21875 66.3125 96.34375 67.316406 97.902344 67.273438 C 100.6875 67.195312 100.761719 63.128906 98.023438 62.761719 C 97.019531 62.628906 96.40625 63.03125 95.945312 63.785156 C 95.824219 63.980469 95.660156 64.375 95.316406 64.445312 L 89.417969 64.460938 C 89.4375 62.941406 90.023438 60.417969 90.46875 59.046875 C 91.621094 58.519531 96.765625 56.984375 97.070312 56.554688 C 97.390625 56.097656 97.324219 48.550781 97.222656 47.523438 C 96.238281 46.734375 90.675781 45.523438 90.382812 45.246094 C 90.070312 44.652344 89.382812 41.210938 89.496094 40.414062 L 94.554688 40.246094 C 94.929688 40.957031 94.992188 41.445312 95.714844 41.738281 C 97.046875 42.277344 98.832031 41.484375 98.550781 39.230469 C 98.425781 38.210938 97.894531 38.210938 97.195312 37.832031 C 96.789062 32.40625 93.484375 25.722656 90.53125 21.488281 C 89.910156 20.59375 87.417969 17.730469 86.789062 17.445312 C 85.691406 17.957031 84.027344 19.929688 82.980469 20.242188 C 82.488281 19.890625 80.105469 17.597656 80.085938 17.152344 C 80.070312 16.78125 81.980469 14.429688 82.476562 13.921875 L 82.945312 13.347656 C 82.277344 12.011719 75.835938 8.203125 74.089844 7.332031 C 72.339844 6.460938 65.101562 3.570312 63.035156 3.660156 C 62.667969 4.222656 61.320312 10.542969 60.597656 11.835938 C 60.171875 11.835938 57.441406 11.148438 57.019531 11.003906 L 54.683594 3.898438 L 53.628906 4.039062 Z M 53.726562 5.226562 "/>
<path style=" stroke:none;fill-rule:evenodd;fill:rgb(15.686275%,52.549022%,72.941178%);fill-opacity:1;" d="M 16.371094 52.691406 C 15.929688 53.761719 16.203125 54.960938 16.191406 56.011719 L 13.773438 56.226562 C 13.710938 57.203125 13.851562 56.925781 13.386719 57.515625 C 12.355469 58.8125 12.679688 58.847656 10.808594 59.828125 C 10.597656 59.4375 10.566406 59.199219 10.378906 58.746094 C 10.128906 58.144531 10.089844 58.085938 9.449219 58.046875 C 9.875 58.5 8.902344 57.570312 9.722656 58.273438 C 10.535156 58.96875 10.050781 58.890625 10.535156 60.085938 C 11.78125 63.144531 11.226562 61.480469 11.875 64.71875 C 12.222656 66.464844 12.523438 66.730469 11.566406 67.117188 C 11.261719 66.769531 11.164062 67.679688 11.34375 66.425781 C 10.714844 67.285156 10.113281 68.101562 9.53125 68.886719 C 8.925781 69.703125 8.082031 70.433594 7.582031 71.289062 C 8.371094 71.023438 7.761719 71.171875 7.988281 71.386719 C 7.734375 72.667969 9.484375 73.832031 9.972656 75.144531 C 10.207031 75.785156 10.453125 76.546875 10.765625 77.21875 C 10.878906 77.457031 11.113281 77.921875 11.289062 78.078125 C 11.867188 78.578125 11.15625 78.117188 12.085938 78.382812 C 13.199219 78.707031 15.421875 78.632812 16.695312 78.210938 C 17.789062 77.847656 16.621094 77.855469 18.25 77.660156 C 18.648438 77.613281 19.230469 77.4375 19.660156 77.628906 C 19.6875 77.640625 19.726562 77.664062 19.753906 77.679688 C 21.28125 78.550781 19.550781 77.824219 21.203125 78.308594 C 21.25 78.324219 21.371094 78.386719 21.523438 78.449219 C 21.59375 77.59375 21.476562 78.359375 21.695312 77.820312 C 21.726562 77.738281 21.890625 77.394531 21.980469 77.230469 C 21.554688 76.289062 16.777344 71.738281 15.628906 66.710938 C 14.078125 66.378906 12.621094 66.132812 12.6875 64.21875 C 12.738281 62.789062 14.121094 61.394531 15.746094 61.890625 C 16.84375 62.222656 17.988281 63.933594 17.234375 65.320312 C 16.675781 66.347656 15.929688 65.84375 17.625 69.140625 C 18.71875 71.269531 20.523438 73.664062 22.09375 75.476562 C 23.082031 76.621094 26.378906 80.199219 27.796875 80.878906 C 28.003906 80.65625 27.707031 80.746094 28.511719 81 C 28.339844 80.492188 28.414062 80.726562 28.679688 80.285156 C 29.773438 78.488281 28.132812 78.800781 27.550781 77.480469 C 26.433594 77.042969 24.1875 74.085938 23.164062 72.730469 C 22.488281 71.839844 21.925781 70.683594 21.402344 69.785156 C 18.753906 65.25 18.734375 65.875 17.308594 60.039062 C 17.011719 58.828125 16.617188 57.449219 16.460938 56.273438 C 16.289062 54.980469 16.636719 52.382812 16.472656 51.703125 L 16.289062 51.707031 Z M 16.371094 52.691406 "/>
<path style=" stroke:none;fill-rule:evenodd;fill:rgb(10.980392%,39.215687%,61.176473%);fill-opacity:1;" d="M 35.09375 59.289062 C 34.140625 58.796875 34.152344 57.632812 33.363281 57.980469 C 32.742188 58.847656 33.585938 59.445312 34.136719 60.085938 C 34.914062 60.992188 35.171875 60.761719 35.074219 62.46875 C 34.316406 62.074219 34.472656 61.753906 33.574219 61.554688 C 33.679688 64.21875 33.742188 62.964844 35.03125 63.769531 L 35.085938 65.324219 C 34.675781 65.140625 32.703125 63.128906 32.386719 62.742188 C 31.433594 61.582031 32.609375 58.5625 31.035156 59.148438 C 30.914062 59.3125 30.929688 59.222656 30.855469 59.519531 C 30.785156 59.804688 30.800781 59.804688 30.8125 60.105469 C 30.824219 60.5 30.894531 60.714844 30.886719 61.160156 C 29.992188 60.519531 29.125 58.703125 28.164062 59.304688 C 27.640625 60.113281 28.230469 60.355469 28.699219 60.796875 C 29.226562 61.292969 29.632812 61.53125 29.921875 62.183594 L 27.929688 62.109375 C 27.519531 64.050781 30.074219 63.269531 31.363281 63.421875 C 31.84375 63.839844 32.085938 64.050781 32.308594 64.570312 L 30.886719 64.742188 C 30.679688 65.46875 31.421875 65.46875 31.472656 66.289062 C 28.601562 66.652344 28.914062 63.691406 27.15625 64.429688 C 26.871094 65.578125 27.75 65.339844 28.203125 66.234375 C 27.207031 66.285156 26.074219 66.078125 25.246094 66.339844 C 24.683594 68.0625 26.925781 67.402344 28.289062 67.4375 C 27.75 68.351562 26.660156 68.386719 27 69.503906 C 28.808594 69.976562 29.253906 66.476562 31.683594 67.578125 C 31.480469 68.625 30.394531 68.3125 30.398438 69.15625 L 32.15625 69.339844 C 31.242188 72.171875 27.042969 68.988281 27.738281 71.808594 L 29.59375 71.722656 C 29.050781 72.835938 27.136719 73.675781 28.0625 74.527344 C 28.824219 75.164062 30.085938 73.121094 30.878906 72.613281 L 30.742188 74.851562 L 31.621094 74.902344 C 32.335938 73.253906 31.273438 71.140625 33.21875 70.425781 L 33.378906 72.144531 C 34.308594 72.09375 33.878906 71.589844 34.941406 71.277344 C 34.925781 73.574219 35.011719 72.414062 33.363281 74.449219 C 32.558594 75.441406 33.183594 76.425781 34.042969 75.453125 C 34.441406 75.003906 34.347656 74.921875 34.921875 74.65625 C 34.921875 75.414062 34.449219 77.796875 35.609375 77.640625 C 36.578125 77.507812 36.039062 75.367188 36.171875 74.523438 C 36.925781 74.839844 36.957031 76.1875 37.796875 75.84375 C 38.578125 75.203125 37.496094 74.179688 37.03125 73.628906 C 36.03125 72.429688 36.03125 73.21875 36.140625 71.121094 C 36.917969 71.285156 36.992188 72.242188 37.835938 72.230469 C 37.988281 71.566406 37.921875 70.960938 38.214844 70.488281 C 40.675781 71.394531 38.335938 74.960938 40.457031 74.835938 C 40.761719 74.0625 40.449219 73.519531 40.570312 72.679688 C 41.757812 73.183594 42.074219 75.179688 43.46875 74.507812 C 43.847656 73.164062 42.238281 73.085938 41.6875 71.816406 C 42.945312 71.824219 44.242188 72.339844 43.726562 70.886719 C 42.777344 70.613281 41.679688 70.828125 40.65625 70.71875 C 40.113281 70.65625 39.0625 69.71875 39.089844 69.222656 L 41.472656 69.109375 C 41.335938 68.273438 40.882812 68.410156 40.773438 67.425781 L 41.917969 67.40625 C 42.382812 68.105469 43.75 69.65625 44.644531 69.703125 C 45.671875 68.574219 43.996094 68.390625 43.761719 67.503906 C 44.625 67.476562 46.59375 67.808594 46.691406 66.9375 C 46.816406 65.859375 44.578125 66.285156 43.738281 66.296875 C 44.214844 65.273438 45.277344 65.367188 44.675781 64.324219 C 43.046875 63.777344 42.746094 66.519531 40.972656 66.339844 C 41.054688 66.132812 41.195312 65.894531 41.253906 65.730469 C 41.367188 65.429688 41.328125 65.714844 41.347656 65.40625 C 41.421875 64.164062 39.949219 65.1875 39.347656 66.398438 L 37.546875 66.191406 L 38.273438 65.488281 C 38.667969 65.222656 39.046875 65.167969 39.535156 64.929688 C 39.582031 64.390625 39.03125 63.84375 40.097656 63.566406 C 41.285156 63.261719 44.824219 63.65625 44.039062 62.359375 C 43.730469 61.84375 42.273438 62.296875 41.683594 62.328125 L 42.203125 61.648438 C 43.277344 60.609375 43.832031 60.492188 43.515625 59.375 C 42.257812 58.785156 41.578125 60.59375 40.660156 61.292969 C 40.613281 60.460938 40.886719 59.886719 40.621094 59.101562 C 38.890625 58.964844 40.144531 61.546875 39.097656 62.824219 C 38.800781 63.1875 38.109375 63.757812 37.679688 64.148438 C 37.234375 64.558594 36.832031 65.261719 36.269531 65.4375 L 36.277344 63.921875 C 37.070312 63.519531 36.804688 63.988281 37.390625 63.089844 C 37.726562 62.566406 37.78125 62.136719 37.59375 61.648438 C 36.601562 61.578125 36.957031 61.988281 36.285156 62.214844 C 36.238281 60.78125 36.652344 60.890625 37.460938 59.972656 C 37.882812 59.496094 39.125 58.351562 37.757812 57.789062 C 37.105469 58.191406 36.941406 59.058594 36.289062 59.441406 C 36.175781 58.621094 36.742188 56.253906 35.769531 56.171875 C 34.632812 56.078125 35.085938 58.578125 35.09375 59.289062 Z M 35.09375 59.289062 "/>
<path style=" stroke:none;fill-rule:evenodd;fill:rgb(7.843138%,29.411766%,48.627451%);fill-opacity:1;" d="M 20.082031 36.652344 C 19.441406 37.507812 19.203125 38.910156 18.664062 39.808594 C 18.011719 40.898438 17.765625 41.871094 17.453125 43.34375 C 17.0625 45.167969 16.023438 49.667969 16.472656 51.703125 C 16.636719 52.382812 16.289062 54.980469 16.460938 56.273438 C 16.617188 57.449219 17.011719 58.828125 17.308594 60.039062 C 18.734375 65.875 18.753906 65.25 21.402344 69.785156 C 21.925781 70.683594 22.488281 71.839844 23.164062 72.730469 C 24.1875 74.085938 26.433594 77.042969 27.550781 77.480469 C 28.671875 77.773438 29.324219 79.191406 30.550781 80.105469 L 32.933594 81.535156 C 33.71875 81.941406 34.453125 82.0625 35.175781 82.5 C 37.113281 83.667969 38.4375 83.828125 39.523438 84.417969 C 40.375 84.878906 39.480469 84.796875 40.496094 84.925781 C 40.957031 84.984375 41.660156 85.019531 42.042969 85.050781 C 42.519531 85.085938 43.078125 85.074219 43.5625 85.078125 C 43.75 85.078125 44.035156 85.078125 44.210938 85.085938 C 44.871094 85.109375 44.183594 85.292969 44.667969 85.09375 L 44.691406 84.421875 C 42.773438 83.890625 40.886719 83.554688 39.027344 82.910156 C 34.136719 81.21875 29.335938 78.015625 26.082031 74.386719 C 23.871094 71.921875 21.964844 68.890625 20.605469 65.546875 C 19.730469 63.398438 17.40625 56.738281 17.785156 54.128906 L 37.910156 54.015625 C 38.277344 53.71875 37.363281 53.746094 38.625 53.714844 C 37.890625 53.84375 38.121094 53.75 38.03125 53.394531 C 37.773438 52.351562 38.148438 53.136719 38.394531 52.339844 L 38.460938 52.0625 C 38.613281 51.808594 38.757812 51.777344 39.164062 51.789062 C 37.109375 51.585938 34.058594 51.546875 31.972656 51.601562 C 30.097656 51.648438 26.148438 52.269531 24.648438 51.558594 L 17.800781 51.558594 C 17.503906 47.433594 19.101562 42.679688 20.324219 39.320312 C 21.71875 35.496094 23.683594 32.875 25.957031 30.03125 C 27.878906 27.621094 31.589844 24.78125 34.222656 23.355469 C 37.75 21.445312 40.832031 20.433594 45.21875 19.59375 L 46.003906 19.28125 L 45.484375 18.285156 C 45.464844 18.285156 45.417969 18.285156 45.394531 18.285156 C 45.355469 18.285156 44.894531 18.328125 44.792969 18.339844 C 43.363281 18.492188 39.265625 19.230469 38.097656 19.8125 C 37.6875 20.015625 37.859375 20.085938 37.296875 20.378906 C 36.65625 20.703125 36.652344 20.460938 35.675781 21.023438 L 31.617188 23.046875 C 29.976562 24.167969 28.074219 26.339844 27.957031 26.421875 C 26.527344 27.464844 26.761719 27.738281 25.835938 28.394531 C 25.476562 28.648438 25.628906 28.484375 25.417969 28.714844 C 25.347656 28.789062 25.511719 28.609375 25.289062 28.878906 L 22.117188 33.015625 C 21.71875 33.648438 21.476562 34.199219 21.132812 34.757812 C 20.335938 36.042969 20.765625 36.078125 20.082031 36.652344 Z M 20.082031 36.652344 "/>
<path style=" stroke:none;fill-rule:evenodd;fill:rgb(10.980392%,39.215687%,61.176473%);fill-opacity:1;" d="M 62.429688 58.683594 C 67.125 57.957031 71.011719 61.4375 71.601562 65.554688 C 72.25 70.082031 69.089844 74.082031 64.921875 74.785156 C 60.117188 75.59375 56.167969 72.152344 55.59375 68.035156 C 54.898438 63.015625 58.226562 59.335938 62.429688 58.683594 Z M 61.910156 55.902344 C 55.617188 57.03125 51.960938 62.476562 52.792969 68.355469 C 53.582031 73.925781 58.890625 78.589844 65.164062 77.632812 C 70.792969 76.773438 75.214844 71.554688 74.390625 65.179688 C 73.667969 59.632812 68.300781 54.757812 61.910156 55.902344 Z M 61.910156 55.902344 "/>
<path style=" stroke:none;fill-rule:evenodd;fill:rgb(20.392157%,64.313728%,83.529413%);fill-opacity:1;" d="M 13.644531 40.296875 C 13.488281 40.753906 13.917969 40.554688 13.3125 40.59375 L 13.042969 39.460938 L 12.582031 39.824219 C 12.363281 39.945312 12.519531 39.699219 11.984375 39.96875 C 11.53125 40.835938 11.121094 42.058594 10.804688 42.894531 C 10.148438 44.613281 10.433594 44.402344 10.210938 45.378906 C 9.773438 47.300781 4.429688 46.875 4 48.382812 L 4.046875 56.457031 C 4.429688 56.660156 8.96875 58.035156 9.449219 58.046875 C 10.089844 58.085938 10.128906 58.144531 10.378906 58.746094 C 10.566406 59.199219 10.597656 59.4375 10.808594 59.828125 C 12.679688 58.847656 12.355469 58.8125 13.386719 57.515625 C 13.851562 56.925781 13.710938 57.203125 13.773438 56.226562 L 16.191406 56.011719 C 16.203125 54.960938 15.929688 53.761719 16.371094 52.691406 L 8.65625 52.628906 C 7.167969 55.601562 4.035156 54.457031 4.1875 52.039062 C 4.269531 50.800781 5.199219 49.996094 6.398438 49.871094 C 8.121094 49.691406 8.242188 50.632812 8.828125 51.75 L 16.289062 51.707031 L 16.472656 51.703125 C 16.023438 49.667969 17.0625 45.167969 17.453125 43.34375 C 17.765625 41.871094 18.011719 40.898438 18.664062 39.808594 C 19.203125 38.910156 19.441406 37.507812 20.082031 36.652344 C 20.246094 35.601562 20.8125 35.304688 20.703125 34.5625 L 20.339844 33.671875 C 19.976562 33.054688 20.59375 33.4375 19.714844 33.191406 C 19.949219 32.640625 19.808594 32.96875 19.675781 32.367188 C 19.414062 32.578125 19.6875 32.246094 19.347656 32.714844 C 19.347656 32.71875 19.183594 33.003906 19.179688 33.011719 L 18.171875 35.027344 C 17.832031 35.71875 17.089844 37.113281 17.058594 37.871094 C 17.058594 37.871094 19.371094 39.71875 17.15625 41.335938 C 15.90625 42.25 14.054688 41.28125 13.644531 40.296875 Z M 13.644531 40.296875 "/>
<path style=" stroke:none;fill-rule:evenodd;fill:rgb(20.392157%,64.313728%,83.529413%);fill-opacity:1;" d="M 72.910156 80.703125 C 74.65625 79.832031 77.675781 75.933594 78.964844 74.226562 C 79.894531 73.003906 80.574219 71.910156 81.382812 70.402344 C 81.761719 69.699219 83.210938 66.914062 83.328125 66.054688 C 82.632812 65.351562 81.601562 64.601562 82.453125 63.089844 C 82.96875 62.167969 84.152344 61.40625 85.433594 61.925781 C 86.304688 62.277344 87.226562 63.335938 86.972656 64.667969 C 86.695312 66.117188 85.675781 66.277344 84.199219 66.375 L 83.742188 67.476562 C 84.261719 67.570312 83.84375 67.539062 84.226562 68.148438 C 84.828125 68.164062 85.710938 68.085938 86.265625 68.246094 C 86.96875 68.445312 86.507812 68.421875 86.941406 68.953125 C 87.148438 69.210938 87.40625 69.167969 87.855469 69.863281 L 88.425781 70.503906 C 88.453125 70.523438 88.492188 70.546875 88.519531 70.566406 L 90.898438 72.941406 L 91.328125 72.410156 C 91.953125 71.382812 90.902344 70.894531 89.835938 69.53125 C 89.355469 68.921875 87.199219 66.515625 87.140625 66.207031 L 88.675781 60.976562 C 88.730469 60.863281 88.789062 60.761719 88.851562 60.664062 C 88.878906 60.621094 88.96875 60.5 88.996094 60.464844 L 89.152344 60.265625 C 90.011719 57.554688 89.507812 58.285156 91.183594 57.660156 C 92.914062 57.015625 95.230469 56.710938 95.546875 56.230469 C 95.800781 55.835938 95.746094 53.140625 95.710938 52.816406 C 95.679688 52.84375 95.644531 52.886719 95.628906 52.90625 L 95.40625 53.179688 C 93.832031 55.246094 92.105469 54.601562 91.015625 52.507812 L 83.535156 52.539062 C 83.523438 53.914062 83.625 55.976562 83.347656 57.277344 C 82.890625 59.398438 81.945312 63.339844 81.121094 65.050781 L 78.496094 70.113281 C 78.109375 70.609375 77.765625 71.210938 77.457031 71.503906 C 77.238281 71.714844 76.863281 71.9375 76.832031 72.011719 C 76.742188 72.242188 76.867188 72.28125 76.535156 72.820312 C 76.347656 73.125 76.253906 73.222656 76.019531 73.539062 C 75.570312 74.144531 75.738281 74.132812 75.183594 74.699219 C 74.199219 75.695312 74.878906 75.191406 73.097656 76.882812 L 71.746094 78.421875 C 71.726562 78.445312 71.695312 78.480469 71.671875 78.5 C 71.652344 78.523438 71.621094 78.554688 71.597656 78.578125 C 71.445312 78.746094 71.453125 78.726562 71.316406 78.90625 C 71.15625 79.117188 71.050781 79.355469 70.875 79.542969 C 71.070312 79.550781 71.753906 79.535156 71.882812 79.566406 C 73.03125 79.84375 71.65625 80.765625 72.464844 80.488281 L 73.179688 80.144531 C 73.03125 80.453125 73.046875 80.507812 72.910156 80.703125 Z M 72.910156 80.703125 "/>
<path style=" stroke:none;fill-rule:evenodd;fill:rgb(29.803923%,56.078434%,71.372551%);fill-opacity:1;" d="M 63.644531 49.296875 C 63.203125 48.96875 63.054688 48.65625 62.644531 48.167969 L 61.679688 47.109375 C 61.660156 47.089844 61.625 47.046875 61.605469 47.011719 C 61.839844 46.4375 63.25 44.585938 63.796875 44.277344 C 64.273438 44.851562 65.453125 46.234375 65.785156 46.859375 C 65.480469 47.410156 64.097656 49.054688 63.644531 49.296875 Z M 62.574219 30.683594 C 62.761719 29.675781 63.257812 27.464844 63.796875 26.878906 L 64.851562 30.699219 Z M 56.664062 33.488281 L 56.546875 35.300781 C 56.691406 35.976562 56.398438 35.582031 56.871094 35.820312 C 57.84375 36.308594 57.652344 34.761719 57.703125 34.214844 L 61.414062 34.136719 L 61.40625 38.023438 L 59.007812 39.613281 C 58.488281 39.9375 58.171875 40.136719 57.613281 40.367188 C 57.0625 40.597656 56.570312 40.695312 56.25 41.234375 C 56.160156 41.875 56.105469 42.722656 56.339844 43.332031 L 57.257812 43.394531 L 57.40625 41.535156 L 61.261719 41.472656 C 61.394531 42.957031 60.472656 47.378906 60.042969 49.210938 C 59.894531 49.851562 59.816406 50.039062 60.140625 50.460938 C 61.53125 50.5 60.722656 49.089844 61.359375 48.269531 C 62.742188 49.199219 63.195312 52.117188 64.847656 49.4375 C 65.199219 48.867188 65.722656 48.375 66.082031 48.019531 C 66.296875 48.316406 66.367188 48.894531 66.460938 49.347656 C 66.621094 50.164062 66.507812 50.382812 67.296875 50.402344 L 67.417969 50.15625 C 67.582031 49.535156 66.941406 46.671875 66.828125 45.960938 L 66.3125 42.714844 C 66.296875 42.601562 66.25 42.230469 66.25 42.136719 L 66.375 41.492188 L 70.246094 41.414062 C 70.320312 42.140625 70.066406 43.523438 71.082031 43.226562 C 71.730469 43.039062 71.574219 41.957031 71.40625 40.960938 C 70.609375 40.398438 69.566406 39.992188 68.707031 39.496094 C 67.945312 39.058594 66.90625 38.21875 66.140625 37.871094 C 65.960938 36.949219 65.929688 35.023438 66.089844 34.101562 C 67.023438 34.082031 68.964844 33.933594 69.761719 34.175781 C 69.882812 35.148438 69.496094 36.054688 70.800781 35.703125 C 71.085938 35.128906 70.960938 34.253906 70.902344 33.605469 C 69.460938 32.542969 67.429688 31.992188 66.089844 30.988281 C 65.53125 30.570312 65.261719 29.148438 65.042969 28.429688 L 64.273438 25.953125 C 64.09375 25.601562 64.222656 25.785156 63.949219 25.535156 C 63.042969 25.601562 63 26.132812 62.449219 27.875 C 62.300781 28.351562 61.820312 30.691406 61.710938 30.925781 C 61.398438 31.59375 59.738281 31.925781 59.207031 32.191406 C 58.464844 32.5625 57.265625 33.015625 56.664062 33.488281 Z M 56.664062 33.488281 "/>
<path style=" stroke:none;fill-rule:evenodd;fill:rgb(7.843138%,29.411766%,48.627451%);fill-opacity:1;" d="M 11.609375 84.941406 C 13.203125 84.351562 13.457031 86.800781 12.109375 87.175781 C 10.671875 87.574219 10.066406 85.507812 11.609375 84.941406 Z M 44.824219 93.378906 L 44.472656 91.71875 L 44.117188 93.128906 C 43.535156 92.796875 43.847656 93.246094 43.238281 92.71875 C 42.148438 91.765625 42.40625 92.125 40.425781 91.699219 C 37.898438 91.15625 37.289062 90.183594 35.410156 90.402344 C 33.761719 90.597656 35.144531 89.605469 33.640625 89.96875 C 32.761719 90.183594 32.125 89.851562 31.425781 90.789062 C 31.40625 90.8125 31.382812 90.851562 31.363281 90.878906 C 30.695312 91.804688 30.835938 91.421875 30.292969 91.574219 L 29.929688 91.714844 C 30.082031 91.15625 30.246094 91.195312 30.121094 90.957031 L 29.699219 91.207031 C 29.363281 91.410156 29.804688 91.199219 29.308594 91.433594 C 26.453125 92.800781 24.421875 88.394531 27.753906 87.285156 L 27.691406 82.199219 C 27.222656 81.757812 26.636719 81.429688 26.148438 81.023438 C 25.015625 80.089844 22.472656 77.441406 21.980469 77.230469 C 21.890625 77.394531 21.726562 77.738281 21.695312 77.820312 C 21.476562 78.359375 21.59375 77.59375 21.523438 78.449219 C 21.371094 78.386719 21.25 78.324219 21.203125 78.308594 C 19.550781 77.824219 21.28125 78.550781 19.753906 77.679688 C 19.726562 77.664062 19.6875 77.640625 19.660156 77.628906 C 19.230469 77.4375 18.648438 77.613281 18.25 77.660156 C 16.621094 77.855469 17.789062 77.847656 16.695312 78.210938 C 15.421875 78.632812 13.199219 78.707031 12.085938 78.382812 C 11.15625 78.117188 11.867188 78.578125 11.289062 78.078125 C 11.113281 77.921875 10.878906 77.457031 10.765625 77.21875 C 10.453125 76.546875 10.207031 75.785156 9.972656 75.144531 C 9.484375 73.832031 7.734375 72.667969 7.988281 71.386719 C 7.761719 71.171875 8.371094 71.023438 7.582031 71.289062 C 6.722656 71.976562 7.34375 72.539062 7.742188 73.386719 C 8.734375 75.511719 9.910156 77.558594 11.289062 79.417969 C 13.519531 79.613281 16.375 78.148438 18.386719 78.429688 C 18.363281 79.46875 14.800781 82.089844 13.3125 84.058594 C 11.824219 84.011719 11.042969 83.484375 10.121094 84.710938 C 8.695312 86.605469 11.054688 89.640625 13.277344 87.714844 C 14.519531 86.636719 13.90625 86.050781 13.839844 84.605469 C 15.136719 83.753906 18.019531 80.226562 19.027344 79.785156 C 19.347656 79.9375 22.957031 83.566406 23.253906 83.886719 L 22.347656 90.730469 C 22.824219 91.257812 30.1875 95.664062 30.449219 95.632812 C 31.480469 95.121094 32.316406 94.078125 32.964844 93.394531 C 35.910156 90.28125 35.230469 90.65625 38.976562 91.777344 C 43.878906 93.25 42.164062 91.078125 43.558594 95.753906 C 43.71875 96.289062 43.875 96.765625 44.011719 97.277344 C 44.449219 98.921875 44.339844 98.402344 44.878906 98.625 Z M 44.824219 93.378906 "/>
<path style=" stroke:none;fill-rule:evenodd;fill:rgb(20.392157%,64.313728%,83.529413%);fill-opacity:1;" d="M 82.542969 33.820312 L 83.894531 36.917969 C 86.964844 37.425781 87.085938 40.378906 85.046875 41.300781 C 84.082031 41.738281 82.597656 41.367188 82.101562 40.589844 C 81.304688 39.339844 82.269531 38.246094 82.710938 37.566406 C 82.558594 36.902344 81.679688 34.425781 81.070312 33.941406 C 81.273438 35.128906 81.675781 35.070312 81.4375 35.945312 C 81.417969 36.015625 81.277344 36.277344 81.203125 36.429688 C 80.40625 38.019531 81.085938 39.015625 81.570312 40.582031 C 83.011719 45.214844 83.074219 45.082031 83.488281 49.90625 C 83.597656 51.226562 83.269531 52.050781 83.535156 52.539062 L 83.578125 51.394531 L 91.050781 51.390625 C 91.5625 50.628906 91.925781 49.820312 93.1875 49.714844 C 93.808594 49.664062 94.273438 49.824219 94.664062 50.113281 C 94.867188 50.261719 94.960938 50.371094 95.113281 50.550781 L 95.675781 51.167969 L 95.816406 48.179688 C 94.78125 47.648438 93.480469 47.371094 92.179688 46.941406 C 89.726562 46.136719 89.929688 46.046875 89.589844 44.695312 C 89.152344 42.972656 88.636719 41.917969 88.386719 41.039062 C 87.546875 38.042969 86.964844 40.007812 87.035156 37.5 C 87.09375 37.457031 87.296875 37.339844 87.390625 37.253906 L 87.78125 36.746094 C 88.480469 35.863281 89.136719 35.410156 89.738281 34.585938 L 91.386719 32.578125 C 92 31.65625 90.671875 29.640625 90.199219 28.960938 C 89.632812 28.722656 89.941406 29.335938 89.710938 28.390625 C 89.378906 28.796875 89.769531 28.6875 89.128906 28.957031 C 88.421875 29.253906 88.332031 29.882812 87.890625 30.757812 C 87.761719 31.015625 87.972656 30.65625 87.785156 30.957031 L 87.042969 31.550781 C 86.671875 31.792969 86.890625 31.949219 86.582031 32.332031 C 86.261719 32.726562 86.292969 32.242188 86 32.972656 C 85.671875 33.785156 86.3125 33.410156 85.429688 33.90625 C 84.859375 34.222656 85.058594 34.257812 84.628906 34.644531 C 83.769531 34.285156 85.386719 34.949219 84.332031 34.386719 C 84.128906 34.277344 84.476562 34.195312 84.121094 34.335938 C 83.753906 34.484375 83.941406 34.308594 83.839844 34.914062 C 83.730469 34.679688 83.796875 34.726562 83.574219 34.652344 C 83.480469 34.621094 83.339844 34.753906 82.933594 34.296875 Z M 82.542969 33.820312 "/>
<path style=" stroke:none;fill-rule:evenodd;fill:rgb(7.843138%,29.411766%,48.627451%);fill-opacity:1;" d="M 1.007812 65.445312 C 0.632812 63.652344 2.90625 63.484375 3.265625 64.757812 C 3.6875 66.253906 1.269531 66.699219 1.007812 65.445312 Z M 2.75 39.367188 C 4.019531 38.265625 5.382812 39.058594 5.097656 40.242188 C 4.84375 41.308594 2.699219 41.476562 2.75 39.367188 Z M 11.839844 16.695312 C 13.199219 15.738281 14.632812 17.820312 13.429688 18.550781 C 11.921875 19.460938 10.800781 17.429688 11.839844 16.695312 Z M 11.34375 66.425781 C 11.164062 67.679688 11.261719 66.769531 11.566406 67.117188 C 12.523438 66.730469 12.222656 66.464844 11.875 64.71875 C 11.226562 61.480469 11.78125 63.144531 10.535156 60.085938 C 10.050781 58.890625 10.535156 58.96875 9.722656 58.273438 C 8.902344 57.570312 9.875 58.5 9.449219 58.046875 C 8.96875 58.035156 4.429688 56.660156 4.046875 56.457031 L 4 48.382812 C 4.429688 46.875 9.773438 47.300781 10.210938 45.378906 C 10.433594 44.402344 10.148438 44.613281 10.804688 42.894531 C 11.121094 42.058594 11.53125 40.835938 11.984375 39.96875 C 12.285156 39.226562 12.820312 38.921875 12.515625 38 C 12.191406 37.023438 10.804688 35.621094 10.152344 34.882812 C 9.636719 34.300781 9.480469 33.871094 8.964844 33.3125 C 7.605469 31.835938 8.46875 31.992188 9.441406 29.804688 C 9.808594 28.980469 10.816406 26.863281 11.027344 26.136719 C 11.878906 24.902344 12.710938 25.5625 13.941406 25.785156 C 15.785156 26.125 18.230469 27.03125 19.480469 26.394531 C 20.238281 26.007812 19.726562 25.945312 20.492188 24.878906 C 21.398438 23.605469 20.433594 24.359375 22.140625 22.566406 C 23.277344 21.371094 24.984375 21.632812 24.652344 19.492188 C 24.335938 17.445312 23.417969 15.402344 23.292969 13.347656 C 23.914062 12.972656 26.171875 11.96875 25.363281 11.359375 C 24.355469 11.507812 23.421875 12.332031 22.605469 12.890625 C 22.410156 13.859375 23.359375 18.902344 23.417969 20.539062 L 19.941406 23.78125 C 19.390625 23.792969 16.015625 19.71875 14.582031 18.71875 C 14.792969 17.265625 14.984375 16.609375 13.804688 15.824219 C 11.429688 14.242188 9.503906 17.351562 11.03125 19.066406 C 12.074219 20.234375 12.917969 19.441406 14.222656 19.402344 C 14.949219 20.253906 15.703125 21.011719 16.601562 22.015625 C 17.074219 22.542969 18.804688 23.992188 19.085938 24.617188 C 18.882812 25.046875 18.453125 25.511719 18.117188 25.8125 C 16.316406 25.683594 12.5 24.457031 10.960938 24.632812 C 10.070312 26.347656 7.171875 31.097656 6.929688 32.691406 C 7.300781 33.328125 7.785156 33.730469 8.28125 34.308594 C 11.433594 37.980469 11.902344 37.550781 10.816406 39.6875 L 6.238281 39.695312 C 4.300781 36.28125 1.71875 38.027344 1.648438 39.847656 C 1.601562 41.105469 2.3125 42.058594 3.507812 42.160156 C 5.039062 42.292969 5.503906 41.394531 6.035156 40.441406 L 10.351562 40.425781 C 10.386719 41.515625 9.746094 44.667969 9.261719 45.335938 C 8.878906 45.628906 3.292969 47.152344 2.8125 47.390625 C 2.652344 48.710938 2.527344 55.515625 2.78125 56.609375 C 3.65625 57.269531 4.898438 57.617188 6.03125 58.039062 C 6.59375 58.25 7.136719 58.476562 7.667969 58.671875 C 8.253906 58.886719 9.027344 59.015625 9.382812 59.425781 C 9.78125 59.964844 10.433594 63.820312 10.339844 64.675781 L 4.5625 64.738281 C 4.136719 64.140625 3.8125 63.460938 3.085938 63.121094 C 0.0859375 61.722656 -1.355469 66.855469 1.6875 67.210938 C 2.695312 67.328125 3.324219 67 3.855469 66.414062 C 4.753906 65.417969 4.257812 65.621094 6.085938 65.605469 C 7.101562 65.597656 8.117188 65.566406 9.132812 65.539062 C 10.136719 65.511719 11.515625 65.214844 11.34375 66.425781 Z M 11.34375 66.425781 "/>
<path style=" stroke:none;fill-rule:evenodd;fill:rgb(10.980392%,39.215687%,61.176473%);fill-opacity:1;" d="M 27.796875 80.878906 C 27.976562 81.214844 28.425781 81.394531 28.71875 81.628906 L 28.730469 87.117188 C 30.699219 87.949219 30.867188 88.921875 30.121094 90.957031 C 30.246094 91.195312 30.082031 91.15625 29.929688 91.714844 L 30.292969 91.574219 C 30.835938 91.421875 30.695312 91.804688 31.363281 90.878906 C 31.382812 90.851562 31.40625 90.8125 31.425781 90.789062 C 32.125 89.851562 32.761719 90.183594 33.640625 89.96875 C 35.144531 89.605469 33.761719 90.597656 35.410156 90.402344 C 37.289062 90.183594 37.898438 91.15625 40.425781 91.699219 C 42.40625 92.125 42.148438 91.765625 43.238281 92.71875 C 43.847656 93.246094 43.535156 92.796875 44.117188 93.128906 L 44.472656 91.71875 L 44.824219 93.378906 L 44.691406 84.421875 L 44.667969 85.09375 C 44.183594 85.292969 44.871094 85.109375 44.210938 85.085938 C 44.035156 85.078125 43.75 85.078125 43.5625 85.078125 C 43.078125 85.074219 42.519531 85.085938 42.042969 85.050781 C 41.660156 85.019531 40.957031 84.984375 40.496094 84.925781 C 39.480469 84.796875 40.375 84.878906 39.523438 84.417969 C 38.4375 83.828125 37.113281 83.667969 35.175781 82.5 C 34.453125 82.0625 33.71875 81.941406 32.933594 81.535156 L 30.550781 80.105469 C 29.324219 79.191406 28.671875 77.773438 27.550781 77.480469 C 28.132812 78.800781 29.773438 78.488281 28.679688 80.285156 C 28.414062 80.726562 28.339844 80.492188 28.511719 81 C 27.707031 80.746094 28.003906 80.65625 27.796875 80.878906 Z M 27.796875 80.878906 "/>
<path style=" stroke:none;fill-rule:evenodd;fill:rgb(10.980392%,39.215687%,61.176473%);fill-opacity:1;" d="M 61.03125 72.148438 C 61.175781 71.84375 62.730469 69.503906 63.636719 69.546875 C 64.445312 69.585938 66.101562 71.800781 66.21875 72.148438 C 64.980469 73.027344 61.933594 73 61.03125 72.148438 Z M 67.601562 71.191406 C 67.1875 70.878906 65.824219 68.609375 65.902344 67.894531 C 66.003906 66.953125 66.480469 66.90625 67.269531 66.757812 C 67.953125 66.625 68.71875 66.367188 69.417969 66.335938 C 69.535156 68.554688 68.738281 69.925781 67.601562 71.191406 Z M 57.734375 66.363281 C 59.867188 66.886719 61.957031 66.800781 60.792969 69.132812 C 60.476562 69.773438 60.144531 70.722656 59.683594 71.21875 C 58.316406 70.386719 57.664062 68.238281 57.734375 66.363281 Z M 61.964844 67.273438 C 61.382812 64.976562 64.777344 64.285156 65.105469 66.394531 C 65.472656 68.757812 62.445312 69.175781 61.964844 67.273438 Z M 58.175781 64.53125 C 58.492188 62.691406 60.742188 61.109375 62.632812 60.839844 C 62.644531 61.628906 62.589844 62.519531 62.558594 63.320312 C 62.449219 66.15625 58.632812 64.765625 58.175781 64.53125 Z M 66.976562 64.808594 C 64.441406 65.464844 64.492188 64.054688 64.402344 60.871094 C 66.398438 60.957031 68.226562 62.753906 68.871094 64.226562 Z M 61.882812 59.660156 C 52.5625 62.082031 55.992188 76.066406 65.308594 73.839844 C 68.695312 73.027344 71.617188 69.46875 70.535156 65.074219 C 69.6875 61.609375 66.183594 58.542969 61.882812 59.660156 Z M 61.882812 59.660156 "/>
<path style=" stroke:none;fill-rule:evenodd;fill:rgb(27.058825%,60.784316%,78.431374%);fill-opacity:1;" d="M 11.027344 26.136719 C 10.816406 26.863281 9.808594 28.980469 9.441406 29.804688 C 8.46875 31.992188 7.605469 31.835938 8.964844 33.3125 C 9.480469 33.871094 9.636719 34.300781 10.152344 34.882812 C 10.804688 35.621094 12.191406 37.023438 12.515625 38 C 12.820312 38.921875 12.285156 39.226562 11.984375 39.96875 C 12.519531 39.699219 12.363281 39.945312 12.582031 39.824219 L 13.042969 39.460938 L 13.3125 40.59375 C 13.917969 40.554688 13.488281 40.753906 13.644531 40.296875 C 13.316406 39.582031 13.496094 38.722656 13.941406 38.105469 C 14.542969 37.277344 15.234375 37.4375 16.136719 37.382812 C 16.667969 36.144531 16.988281 35.253906 17.671875 34.078125 C 17.972656 33.554688 18.246094 33.074219 18.578125 32.546875 C 18.917969 31.992188 19.304688 31.539062 19.511719 30.863281 C 19.136719 30.679688 19.640625 30.238281 19.820312 29.988281 C 20.078125 29.632812 20.269531 29.289062 20.53125 29.023438 C 20.1875 28.6875 20.421875 29.03125 20.230469 28.589844 L 20.035156 28.710938 C 20.011719 28.722656 19.964844 28.75 19.933594 28.765625 C 19.097656 29.121094 19.273438 28.75 19.046875 28.570312 L 18.226562 28.011719 C 17.765625 27.878906 17.945312 28.058594 17.488281 27.835938 C 16.335938 27.269531 17.722656 27.75 15.71875 27.3125 C 14.574219 27.0625 15.132812 27.007812 13.328125 26.503906 C 12.097656 26.160156 12.269531 25.574219 11.027344 26.136719 Z M 11.027344 26.136719 "/>
<path style=" stroke:none;fill-rule:evenodd;fill:rgb(15.686275%,52.549022%,72.941178%);fill-opacity:1;" d="M 83.742188 67.476562 C 83.277344 68.160156 82.148438 71.628906 79.609375 75.015625 C 79.015625 75.804688 78.054688 76.617188 77.785156 77.207031 L 79.371094 77.011719 C 79.390625 77.011719 79.429688 77.007812 79.449219 77.007812 C 79.484375 77.007812 79.867188 77.121094 79.925781 77.148438 C 80.539062 77.429688 80.601562 77.703125 80.8125 77.792969 C 81.167969 77.945312 81.773438 77.832031 82.21875 77.90625 C 82.765625 77.992188 82.941406 78.160156 83.457031 78.191406 C 84.304688 78.246094 87.121094 78.382812 87.703125 78.222656 C 88.375 78.039062 88.816406 77.367188 89.199219 76.726562 L 89.691406 75.703125 C 89.84375 75.417969 89.765625 75.542969 89.917969 75.1875 L 91.003906 73.351562 C 91.023438 73.320312 91.050781 73.285156 91.070312 73.253906 L 91.886719 71.921875 L 91.664062 70.929688 C 91.972656 70.605469 91.195312 70.539062 92.1875 70.71875 C 91.582031 70.085938 91.078125 69.347656 90.601562 68.796875 C 90.0625 68.171875 89.449219 67.203125 88.816406 66.78125 C 88.820312 67.453125 89.160156 67.054688 88.496094 67.238281 C 88.269531 66.613281 88.296875 67.144531 88.183594 66.375 L 88.28125 63.625 C 88.5 62.378906 88.941406 61.359375 89.152344 60.265625 L 88.996094 60.464844 C 88.96875 60.5 88.878906 60.621094 88.851562 60.664062 C 88.789062 60.761719 88.730469 60.863281 88.675781 60.976562 L 87.140625 66.207031 C 87.199219 66.515625 89.355469 68.921875 89.835938 69.53125 C 90.902344 70.894531 91.953125 71.382812 91.328125 72.410156 L 90.898438 72.941406 L 88.519531 70.566406 C 88.492188 70.546875 88.453125 70.523438 88.425781 70.503906 L 87.855469 69.863281 C 87.40625 69.167969 87.148438 69.210938 86.941406 68.953125 C 86.507812 68.421875 86.96875 68.445312 86.265625 68.246094 C 85.710938 68.085938 84.828125 68.164062 84.226562 68.148438 C 83.84375 67.539062 84.261719 67.570312 83.742188 67.476562 Z M 83.742188 67.476562 "/>
<path style=" stroke:none;fill-rule:evenodd;fill:rgb(7.843138%,29.411766%,48.627451%);fill-opacity:1;" d="M 48.476562 29.730469 C 49.15625 29.359375 48.609375 29.84375 48.839844 29.183594 C 48.890625 29.039062 48.871094 28.742188 48.875 28.578125 C 50.136719 28.433594 49.367188 28.691406 49.882812 28.125 L 50.449219 27.574219 C 50.457031 27.667969 50.464844 27.910156 50.484375 27.984375 C 50.726562 28.90625 50.21875 27.308594 50.570312 28.246094 C 50.585938 28.285156 50.617188 28.335938 50.632812 28.371094 C 50.648438 28.40625 50.671875 28.457031 50.699219 28.496094 C 50.703125 27.054688 50.875 25.863281 50.953125 24.464844 C 51.050781 22.652344 50.238281 20.949219 51.027344 20.261719 C 52.078125 19.261719 51.878906 18.703125 51.882812 17.003906 C 51.882812 12.78125 52.136719 8.109375 52.0625 4.082031 L 47.90625 4.109375 C 47.726562 5.539062 47.929688 14.839844 47.917969 17.152344 C 47.914062 18.335938 47.664062 19.089844 48.25 19.902344 C 48.746094 20.589844 48.550781 21.96875 48.535156 22.941406 C 48.492188 25.199219 48.535156 27.480469 48.476562 29.730469 Z M 48.476562 29.730469 "/>
<path style=" stroke:none;fill-rule:evenodd;fill:rgb(10.980392%,39.215687%,61.176473%);fill-opacity:1;" d="M 31.210938 41.378906 C 31.457031 41.21875 34.054688 38.304688 34.160156 37.714844 C 34.417969 36.292969 33.671875 36.3125 34.933594 35.195312 C 35.613281 34.59375 36.160156 34.261719 37.195312 34.492188 C 37.097656 35.730469 36.109375 35.277344 36.058594 36.652344 C 36.347656 37.292969 36.726562 37.578125 37.453125 37.648438 C 38.363281 37.140625 38.238281 36.308594 39.097656 36.214844 C 39.554688 37.09375 39.15625 38.058594 38.601562 38.707031 C 37.152344 40.390625 36.316406 38.773438 35.175781 40.160156 L 33.34375 42.285156 C 33.234375 42.40625 33.222656 42.414062 33.113281 42.546875 L 32.964844 42.746094 C 33.371094 43.261719 34.070312 43.417969 34.726562 43.492188 C 35.472656 43.570312 36.390625 43.523438 37.007812 43.347656 C 40.429688 42.367188 42.199219 37.410156 38.824219 34.214844 C 36.78125 32.285156 33.605469 32.847656 31.820312 34.519531 C 29.488281 36.695312 29.863281 40.324219 31.210938 41.378906 Z M 31.210938 41.378906 "/>
<path style=" stroke:none;fill-rule:evenodd;fill:rgb(15.686275%,52.549022%,72.941178%);fill-opacity:1;" d="M 82.378906 33.453125 L 82.542969 33.820312 L 82.933594 34.296875 C 83.339844 34.753906 83.480469 34.621094 83.574219 34.652344 C 83.796875 34.726562 83.730469 34.679688 83.839844 34.914062 C 83.941406 34.308594 83.753906 34.484375 84.121094 34.335938 C 84.476562 34.195312 84.128906 34.277344 84.332031 34.386719 C 85.386719 34.949219 83.769531 34.285156 84.628906 34.644531 C 85.058594 34.257812 84.859375 34.222656 85.429688 33.90625 C 86.3125 33.410156 85.671875 33.785156 86 32.972656 C 86.292969 32.242188 86.261719 32.726562 86.582031 32.332031 C 86.890625 31.949219 86.671875 31.792969 87.042969 31.550781 L 87.785156 30.957031 C 87.972656 30.65625 87.761719 31.015625 87.890625 30.757812 C 88.332031 29.882812 88.421875 29.253906 89.128906 28.957031 C 89.769531 28.6875 89.378906 28.796875 89.710938 28.390625 C 89.941406 29.335938 89.632812 28.722656 90.199219 28.960938 C 89.953125 28.207031 89.410156 27.566406 89.117188 26.949219 C 88.816406 26.671875 88.441406 26.464844 87.988281 26.402344 C 87.445312 26.328125 85.863281 27.0625 85.652344 27.296875 L 85.40625 27.667969 C 84.746094 28.535156 84.84375 27.691406 84.09375 29.253906 C 83.277344 30.96875 83.769531 30.59375 83.664062 32.539062 L 82.960938 32.488281 C 83.175781 33.707031 82.894531 32.660156 82.636719 33.625 C 82.722656 33.320312 82.679688 33.609375 82.378906 33.453125 Z M 82.378906 33.453125 "/>
<path style=" stroke:none;fill-rule:evenodd;fill:rgb(27.058825%,60.784316%,78.431374%);fill-opacity:1;" d="M 14.664062 62.890625 C 12.9375 63.46875 13.601562 66.214844 15.621094 65.691406 C 17.398438 65.230469 16.785156 62.175781 14.664062 62.890625 Z M 14.664062 62.890625 "/>
<path style=" stroke:none;fill-rule:evenodd;fill:rgb(27.058825%,60.784316%,78.431374%);fill-opacity:1;" d="M 14.480469 39.851562 C 14.863281 41.585938 17.675781 41.082031 17.144531 39.15625 C 16.726562 37.652344 13.988281 37.621094 14.480469 39.851562 Z M 14.480469 39.851562 "/>
<path style=" stroke:none;fill-rule:evenodd;fill:rgb(20.392157%,64.313728%,83.529413%);fill-opacity:1;" d="M 5.914062 50.914062 C 4.476562 51.492188 5.105469 54.472656 7.152344 53.421875 C 8.863281 52.546875 7.464844 50.289062 5.914062 50.914062 Z M 5.914062 50.914062 "/>
<path style=" stroke:none;fill-rule:evenodd;fill:rgb(27.058825%,60.784316%,78.431374%);fill-opacity:1;" d="M 92.054688 52.648438 C 92.480469 53.855469 95.371094 53.585938 94.617188 51.523438 C 94.039062 49.9375 91.398438 50.792969 92.054688 52.648438 Z M 92.054688 52.648438 "/>
<path style=" stroke:none;fill-rule:evenodd;fill:rgb(10.980392%,39.215687%,61.176473%);fill-opacity:1;" d="M 33.167969 17.261719 C 31.523438 17.949219 32.40625 20.265625 34.222656 19.734375 C 35.839844 19.261719 34.882812 16.542969 33.167969 17.261719 Z M 33.167969 17.261719 "/>
<path style=" stroke:none;fill-rule:evenodd;fill:rgb(27.058825%,60.784316%,78.431374%);fill-opacity:1;" d="M 85.34375 39.964844 C 86.226562 38.390625 83.773438 37.175781 82.96875 38.625 C 81.859375 40.617188 84.734375 41.046875 85.34375 39.964844 Z M 85.34375 39.964844 "/>
<path style=" stroke:none;fill-rule:evenodd;fill:rgb(27.058825%,60.784316%,78.431374%);fill-opacity:1;" d="M 83.988281 62.925781 C 82.40625 64.136719 84.09375 65.902344 85.382812 65.246094 C 86.9375 64.453125 85.3125 61.914062 83.988281 62.925781 Z M 83.988281 62.925781 "/>
<path style=" stroke:none;fill-rule:evenodd;fill:rgb(10.980392%,39.215687%,61.176473%);fill-opacity:1;" d="M 29.351562 89.976562 C 30.175781 88.363281 27.980469 87.277344 27.222656 88.570312 C 26.214844 90.28125 28.628906 91.398438 29.351562 89.976562 Z M 29.351562 89.976562 "/>
<path style=" stroke:none;fill-rule:evenodd;fill:rgb(15.686275%,52.549022%,72.941178%);fill-opacity:1;" d="M 70.460938 14.039062 C 68.996094 14.6875 69.757812 16.992188 71.484375 16.332031 C 72.894531 15.792969 72.144531 13.296875 70.460938 14.039062 Z M 70.460938 14.039062 "/>
<path style=" stroke:none;fill-rule:evenodd;fill:rgb(10.980392%,39.215687%,61.176473%);fill-opacity:1;" d="M 66.625 85.703125 C 66.941406 86.890625 69.382812 86.980469 69.089844 85.128906 C 68.839844 83.566406 66.144531 83.894531 66.625 85.703125 Z M 66.625 85.703125 "/>
</g>
</svg>
