<?xml version="1.0" encoding="UTF-8"?>
<!DOCTYPE svg PUBLIC "-//W3C//DTD SVG 1.1//EN" "http://www.w3.org/Graphics/SVG/1.1/DTD/svg11.dtd">
<!-- Creator: CorelDRAW -->
<svg xmlns="http://www.w3.org/2000/svg" xml:space="preserve" width="67.7332mm" height="16.9332mm" version="1.1" style="shape-rendering:geometricPrecision; text-rendering:geometricPrecision; image-rendering:optimizeQuality; fill-rule:evenodd; clip-rule:evenodd"
viewBox="0 0 6773.32 1693.32"
 xmlns:xlink="http://www.w3.org/1999/xlink"
 xmlns:xodm="http://www.corel.com/coreldraw/odm/2003">
 <defs>
  <style type="text/css">
   <![CDATA[
    .fil1 {fill:#144B7C}
    .fil0 {fill:#1C649C}
    .fil6 {fill:#263559}
    .fil2 {fill:#2886BA}
    .fil3 {fill:#34A4D5}
    .fil8 {fill:#3A4365}
    .fil5 {fill:#459BC8}
    .fil4 {fill:#4C8FB6}
    .fil7 {fill:#D57B44}
   ]]>
  </style>
 </defs>
 <g id="Capa_x0020_1">
  <metadata id="CorelCorpID_0Corel-Layer"/>
  <g id="_105553218865568">
   <g id="surface1">
    <path class="fil0" d="M1163.83 1590.73c-18.23,40.47 -76.06,13.35 -59.19,-25.27 16.37,-37.44 75.81,-11.68 59.19,25.27zm-76.49 -684.27c-16.68,-64.51 79.82,-85.77 92.43,-25.77 14.09,67.04 -78.1,81.25 -92.43,25.77zm66.91 -526.73c-12.48,10.88 0.37,37.82 -1.17,66.48 -1.24,22.12 -3.96,40.97 -4.02,63.77 -0.43,-0.62 -0.8,-1.42 -1.05,-1.98 -0.25,-0.55 -0.74,-1.36 -0.99,-1.97 -5.56,-14.84 2.47,10.43 -1.35,-4.15 -0.31,-1.17 -0.44,-5 -0.56,-6.48l-8.96 8.71c-8.16,8.96 4.02,4.88 -15.94,7.16 -0.06,2.6 0.25,7.3 -0.56,9.58 -3.64,10.44 5.01,2.78 -5.75,8.65l1.24 284.59c-34.78,14.08 -45.66,25.51 -58.02,60.17l-320.1 0.5c23.72,11.24 86.19,1.42 115.84,0.68 33,-0.87 81.25,-0.25 113.75,2.97 -6.43,-0.19 -8.71,0.3 -11.12,4.32l-1.05 4.39c-3.89,12.6 -9.82,0.18 -5.75,16.68 1.42,5.62 -2.22,7.1 9.4,5.07 -19.97,0.49 -5.5,0.06 -11.32,4.75l111.34 -0.62c9.64,32.88 23.54,45.97 55.24,58.02l0 400.49c-2.1,16.5 -18.16,20.21 -29.66,28.86l-2.34 223.41c32.06,16.5 75.38,23.73 105.65,-1.85l-0.43 -221.32c-9.02,-8.58 -27.93,-14.39 -32.13,-27.37 -2.66,-8.15 -1.06,-45.9 -0.93,-57.21 0.68,-114.43 -4.82,-228.61 -2.04,-344.57 48.01,-14.41 46.96,-40.66 60.24,-57.59l429.9 -0.99c5.19,76.18 -46.89,193.7 -84.58,257.02 -40.1,67.41 -106.52,123.33 -176.39,163.43 -38.87,22.24 -117.03,50.79 -168.13,60.55l-0.43 225.21c16.07,-5.5 27.38,-82.67 38.56,-100.65 12.05,-4.33 41.82,-6.8 56.53,-9.95 14.77,-3.21 46.22,-14.09 57.52,-5.81 12.67,9.27 54.56,55.42 75.82,65.74l107.07 -60.98c28.98,-15.63 24.22,-16.49 17.55,-53.2 -3.59,-19.83 -12.67,-55.48 -12.12,-73.15 8.41,-7.79 13.84,-10.81 21.75,-17.42 24.22,-20.45 41.59,-34.36 58.63,-63.77 39.05,-2.1 96.76,18.48 115.42,17.8 8.1,-9.7 13.84,-22.74 20.2,-32.07 13.6,-19.96 27.44,-48.87 39.55,-71.36 10.69,-19.83 13.41,-19.34 -3.28,-36.46 -15.69,-2.84 -3.39,-1.78 -8.28,3.34l3.52 15.7 -12.91 21.06c-0.3,0.5 -0.74,1.06 -1.04,1.55l-17.19 29.04c-2.4,5.62 -1.17,3.65 -3.58,8.15l-7.78 16.19c-6.06,10.13 -13.04,20.76 -23.67,23.66 -9.2,2.54 -53.75,0.37 -67.15,-0.49 -8.17,-0.49 -10.94,-3.15 -19.6,-4.51 -7.04,-1.17 -16.61,0.62 -22.23,-1.79 -3.34,-1.42 -4.33,-5.75 -14.03,-10.2 -0.92,-0.43 -6.98,-2.22 -7.54,-2.22 -0.31,0 -0.92,0.06 -1.23,0.06l-25.09 3.09c-12.3,7.6 -18.17,18.23 -28.17,28.8 -11.93,12.54 -17.12,17.91 -29.53,28.42 -22.37,18.9 -44.24,37.19 -64.69,50.53 -0.19,22 6.11,36.09 -11.5,48.88 -33.55,24.28 -78.28,-15.82 -50.85,-50.67 8.1,-10.25 22.62,-16.62 37.08,-11.73 10.43,3.52 1.78,3.02 13.09,5.37 15.76,-8.96 46.84,-33.43 57.46,-44.3 2.16,-3.09 1.92,-3.95 4.27,-8.84l-11.31 5.44c-12.79,4.39 8.96,-10.19 -9.21,-14.58 -2.04,-0.5 -12.85,-0.25 -15.94,-0.37 2.78,-2.96 4.45,-6.74 6.99,-10.07 2.15,-2.84 2.04,-2.54 4.44,-5.19 0.38,-0.37 0.87,-0.87 1.18,-1.24 0.37,-0.3 0.86,-0.86 1.17,-1.23l21.38 -24.35c28.17,-26.75 17.42,-18.78 32.99,-34.53 8.77,-8.97 6.12,-8.78 13.22,-18.36 3.71,-5 5.2,-6.54 8.16,-11.36 5.25,-8.53 3.27,-9.15 4.7,-12.8 0.49,-1.17 6.42,-4.69 9.88,-8.02 4.88,-4.64 10.32,-14.15 16.44,-22l41.51 -80.07c13.04,-27.07 27.99,-89.41 35.22,-122.96 4.39,-20.57 2.78,-53.19 2.97,-74.94 -4.2,-7.73 0.99,-20.76 -0.74,-41.65 -6.55,-76.3 -7.54,-74.2 -30.34,-147.48 -7.66,-24.77 -18.41,-40.53 -5.81,-65.68 1.18,-2.41 3.4,-6.54 3.71,-7.65 3.77,-13.84 -2.6,-12.92 -5.81,-31.7 -2.9,-16.37 -29.41,-51.78 -40.84,-66.73 -15.01,-19.65 -32.62,-37.88 -50.97,-54.99 -92.74,-86.75 -74.02,-30.58 -75.81,-139.64 -13.84,-8.46 -30.89,-11.43 -28.92,-37.87 3.22,-42.51 69.39,-48.87 71.55,-2.47 1.12,23.04 -12.79,28.85 -27.18,38.62l0.86 72.22c11.25,10.82 35.28,25.15 52.15,37.81 82.11,61.79 98.24,123.08 119.86,145.33 4.76,2.46 5.44,-2.11 4.08,2.71 4.07,-15.26 8.53,1.3 5.13,-17.98l11.12 0.8c1.67,-30.76 -6.12,-24.83 6.79,-51.96 11.87,-24.71 10.32,-11.36 20.76,-25.08l3.9 -5.87c3.33,-3.71 28.36,-15.32 36.95,-14.15 7.16,0.99 13.09,4.27 17.85,8.65 -3.95,-16.18 -10.57,-12.91 -15.14,-24.28 -22.55,0.8 -80.5,15.01 -102.19,17.3 -17.54,1.92 -19.83,-17.36 -27.68,-27.8 -8.22,-10.88 -32.87,-37.01 -42.63,-41.03 -9.02,-3.71 -10.44,-0.13 -17.55,-4.82 -17.3,-11.49 -13.1,-29.53 -9.39,-47.08 9.08,-42.76 8.89,-29.96 12.3,-75.38 0.12,-1.36 1.05,-14.45 1.05,-14.51 -0.68,-8.04 0.12,-1.37 -1.68,-6.8 -5.3,-15.82 9.34,9.88 -2.46,-4.08l2.78 -0.31c-6.25,-7.35 -72.91,-43.07 -74.52,-43.56 2.66,6.55 -5.37,1.92 5.62,5.93l-20.63 -8.71 -11.43 7.48c-0.25,0.18 -0.8,0.61 -1.05,0.8 -0.25,0.18 -0.81,0.62 -1.05,0.87l-7.23 7.96c-7.97,6.31 -5.62,0.26 -12.85,9.71l-7.35 9.2c0.55,0.62 2.65,6.24 0.06,-2.47 -1.42,-5.01 0.43,-1.3 -2.1,-4.51 -8.41,13.78 -5.44,5.44 -16.56,14.71 -0.37,0.31 -0.8,0.92 -1.17,1.23 -14.34,12.18 -16.56,-1.97 -28.36,20.83l-69.08 0c-3.83,7.34 -2.28,4.5 -8.47,9.01 -0.12,-15.01 0.5,-12.29 -5.24,-19.03 -7.05,-8.15 -1.92,-7.1 -4.83,-13.9 -43.5,-16.25 -39.79,-3.46 -48,-28.73l-14.03 -37.25c-12.23,-23.67 -11.18,-27.56 -28.91,-44.37l-1.06 224.78c7.42,3.52 61.42,11.73 96.14,23.23 93.73,31.02 153.54,74.45 218.17,140.81 58.32,59.87 101.88,151.44 119.61,236.08 5.01,23.73 15.64,84.27 11.86,107.07l-429.96 0.93c-10.13,-15.26 -7.48,-21.87 -22.36,-37.5 -13.35,-14.03 -25.21,-15.57 -35.34,-24.84l0.24 -432.75zm0 0z"/>
    <path class="fil0" d="M925.15 106.83c-7.85,-29.47 17.24,-36.76 28.11,-23.67 13.48,16.13 -3.15,37.57 -28.11,23.67zm-176.83 132.09c12.79,9.65 -22.92,25.52 -32.74,31.45 1.97,32.5 16.49,64.82 21.5,97.19 5.25,33.86 -21.75,29.72 -39.73,48.63 -27,28.36 -11.74,16.43 -26.08,36.58 -12.1,16.86 -4.01,17.85 -16,23.97 -19.77,10.07 -58.45,-4.26 -87.61,-9.64 -19.46,-3.53 -32.62,-13.96 -46.09,5.56 19.64,-8.9 16.93,0.37 36.39,5.81 28.54,7.97 19.71,8.83 37.82,12.79 31.69,6.92 9.76,-0.68 27.98,8.28 7.23,3.52 4.39,0.67 11.68,2.78l12.97 8.83c3.59,2.84 0.81,8.71 14.03,3.09 0.49,-0.25 1.24,-0.68 1.61,-0.86l3.09 -1.92c3.02,6.98 -0.68,1.55 4.76,6.86 -4.15,4.2 -7.17,9.64 -11.25,15.26 -2.84,3.96 -10.81,10.94 -4.88,13.84 0.24,-0.12 35.03,-47.88 38.74,-52.45 38.24,-47.15 76.86,-77.18 126.22,-109.74 8.9,-5.93 21.08,-12.73 28.8,-18.53 -12.05,-72.23 67.28,-61.35 69.44,-14.46 1.18,25.58 -18.72,43.81 -45.91,35.4 -24.52,-7.54 -8.15,-15.57 -54.61,14.65 -43.93,28.54 -145.38,120.85 -160.09,168.92 2.11,9.51 4.33,4.32 0.62,13.03 13.9,3.89 4.14,-2.16 9.89,7.61l5.74 14.08c1.73,11.74 -7.23,16.44 -9.82,33.05 10.81,-9.08 4.02,-9.63 16.62,-29.96 5.44,-8.83 9.27,-17.55 15.57,-27.56l50.17 -65.43c3.52,-4.26 0.92,-1.42 2.04,-2.59 3.33,-3.65 0.92,-1.05 6.61,-5.07 14.64,-10.38 10.93,-14.7 33.55,-31.2 1.85,-1.3 31.94,-35.65 57.89,-53.38l64.2 -32.01c15.44,-8.89 15.51,-5.07 25.64,-10.19 8.89,-4.64 6.17,-5.75 12.66,-8.96 18.48,-9.21 83.29,-20.88 105.9,-23.29 1.61,-0.19 8.9,-0.87 9.52,-0.87 0.37,0 1.11,0 1.42,0l8.22 15.75 -12.42 4.95 11.24 -1.11c2.9,-11.06 2.97,-179.86 3.83,-207.41 0.56,-16.75 7.05,-38.56 -12.66,-38.19 -13.66,0.25 -11.99,11.06 -19.16,34.79 -3.33,10.87 -21.87,79.15 -26.56,82.17l-71.43 15.63 -0.98 -124.43c9.51,-9.21 26.87,-17.12 27.61,-36.15 1.73,-43.25 -62.59,-48.87 -65.31,-4.45 -1.48,23.97 9.52,32.01 23.17,40.47l-3.46 127.71c-15.69,6.36 -17.54,7.11 -29.65,-2.72l-45.91 -40.83c-27.43,-27.19 -15.94,-29.91 -84.71,11.92l-20.08 12.35zm0 0z"/>
    <path class="fil0" d="M892.34 566.64c131.18,-26.82 159.66,174.48 32.44,197.34 -127.52,22.98 -171.45,-168.92 -32.44,-197.34zm-17.73 -37.88c-52.39,31.27 -52.51,-8.28 -69.94,-5.62 -8.21,3.95 -35.46,31.07 -38.55,38.74 2.84,15.38 17.48,20.95 18.47,31.69 0.5,5.44 -8.1,26.57 -12.05,32.63 -6.73,10.5 -18.35,3.46 -29.28,7.1 -15.39,5.01 -12.49,34.11 -10.57,49 3.52,27.43 30.09,1.05 41.58,25.52 1.85,3.95 3.03,7.41 4.26,10.56 1.92,4.88 6.62,16.13 6.18,21.56 -1.17,12.98 -23.04,22.06 -15.94,36.09 1.11,2.22 24.47,25.39 29.1,28.85 16.01,12.11 22.31,-6.79 35.72,-14.52 8.71,1.54 30.27,11.92 37.13,16.12 2.78,15.58 1.54,25.15 6.98,36.4 13.9,3.52 38.43,3.52 53.38,1.91 10.69,-10.56 6.18,-22.8 8.9,-39.29 5.38,-2.66 29.66,-14.83 35.53,-14.4 13.09,0.99 13.9,16.75 31.51,19.16 4.07,-2.23 37.38,-30.47 41.71,-38.74 -3.96,-13.91 -19.84,-24.41 -21.38,-34.3 -1.55,-10.06 11.24,-31.57 18.1,-36.2l32.31 -3.21c9.95,-15.63 6.49,-53.07 0.68,-62.53l-31.88 -2.41c-2.04,-4.14 -16.56,-33.92 -17.05,-37.94 -1.49,-12.1 16.06,-21.38 20.08,-35.46 -0.25,-4.7 -38.31,-40.22 -44.98,-39.55 -11.06,4.82 -17.67,18.66 -29.22,19.84 -8.41,0.87 -27.99,-7.85 -34.98,-12.05 -2.72,-36.58 7.79,-41.71 -32.13,-41.95 -39.66,-0.31 -32.87,4.2 -33.67,43zm0 0z"/>
    <path class="fil1" d="M1875.97 1089.59c-4.33,-27.99 36.2,-29.23 39.48,-4.64 3.95,29.1 -36.03,27.37 -39.48,4.64zm-20.76 -395.18c-7.54,-25.33 32.99,-31.64 37.87,-9.02 5.44,25.15 -32.5,27.18 -37.87,9.02zm-658.26 -552.49c17.73,16.81 16.68,20.7 28.91,44.37l14.03 37.25c8.21,25.27 4.5,12.48 48,28.73 2.91,6.8 -2.22,5.75 4.83,13.9 5.74,6.74 5.12,4.02 5.24,19.03 6.19,-4.51 4.64,-1.67 8.47,-9.01l69.08 0c11.8,-22.8 14.02,-8.65 28.36,-20.83 0.37,-0.31 0.8,-0.92 1.17,-1.23 11.12,-9.27 8.15,-0.93 16.56,-14.71 2.53,3.21 0.68,-0.5 2.1,4.51 2.59,8.71 0.49,3.09 -0.06,2.47l7.35 -9.2c7.23,-9.45 4.88,-3.4 12.85,-9.71l7.23 -7.96c0.24,-0.25 0.8,-0.69 1.05,-0.87 0.25,-0.19 0.8,-0.62 1.05,-0.8l11.43 -7.48 20.63 8.71c-10.99,-4.01 -2.96,0.62 -5.62,-5.93l-36.7 -21.93c-14.02,8.27 -38.12,33.74 -53.07,47.69 -33.67,31.45 -25.76,26.82 -66.11,14.58 -0.13,-2.15 23.85,-106.82 32.5,-117.08 42.69,3.15 116.96,37.14 155.2,53.08 27.25,11.37 108.38,60.79 122.77,83.28 -3.96,16.62 -34.41,43.19 -44.61,60.19l8.9 8.21c29.78,20.02 46.28,49.12 56.41,58.33 10.07,-2.78 46.03,-42.14 67.41,-45.11 16.68,13.16 79.64,107.94 92.3,132.23 21.44,41.2 48.69,111.52 55.73,166.82 -0.55,0.49 -1.35,0.92 -1.79,1.17l-10.13 5.31c-13.04,6.67 -12.98,14.03 -20.51,21.88l-83.42 -0.69c-18.1,-30.15 4.02,-42.75 19.16,-60.61l45.35 -48.99c-12.85,-27.87 -56.97,-96.08 -72.6,-119.49 -22.05,-0.93 -44.17,2.83 -65.86,5.74 -29.16,3.95 -43.99,9.82 -56.84,-4.45 -92.38,-102.5 -71.3,-44.12 -60.12,-139.94 3.64,-31.2 9.2,-55.73 -9.45,-56.66l-2.78 0.31c11.8,13.96 -2.84,-11.74 2.46,4.08 1.8,5.43 1,-1.24 1.68,6.8 0,0.06 -0.93,13.15 -1.05,14.51 -3.41,45.42 -3.22,32.62 -12.3,75.38 -3.71,17.55 -7.91,35.59 9.39,47.08 7.11,4.69 8.53,1.11 17.55,4.82 9.76,4.02 34.41,30.15 42.63,41.03 7.85,10.44 10.14,29.72 27.68,27.8 21.69,-2.29 79.64,-16.5 102.19,-17.3 4.57,11.37 11.19,8.1 15.14,24.28 4.64,9.76 13.22,19.89 17.11,31.82 7.48,10.75 28.49,42.63 18.79,57.22l-26.07 31.75c-9.52,13.04 -19.9,20.21 -30.96,34.17l-6.18 8.03c-1.48,1.36 -4.69,3.21 -5.62,3.89 -1.11,39.67 8.09,8.59 21.38,55.98 3.95,13.9 12.11,30.59 19.03,57.83 5.37,21.38 2.16,22.8 40.96,35.53 20.57,6.79 41.15,11.18 57.52,19.59l-2.22 47.26 0.56 26.08c0.55,5.12 1.41,47.75 -2.6,54 -5.01,7.59 -41.65,12.41 -69.01,22.6 -26.51,9.89 -18.54,-1.66 -32.13,41.22 -3.34,17.3 -10.32,33.43 -13.78,53.13l-1.55 43.5c1.79,12.17 1.36,3.77 4.95,13.66 10.5,-2.91 5.12,3.39 5.06,-7.24 -3.09,-20.82 -15.57,-20.88 37.76,-21.56 20.88,-0.24 47.26,-2.04 67.46,0.25 11.87,13.9 13.84,29.78 38.5,29.1 44.05,-1.23 45.22,-65.55 1.91,-71.36 -15.88,-2.1 -25.58,4.27 -32.87,16.19 -1.92,3.09 -4.51,9.33 -9.94,10.44l-93.3 0.24c0.31,-24.03 9.57,-63.94 16.62,-85.63 18.22,-8.34 99.6,-32.62 104.41,-39.42 5.07,-7.23 4.02,-126.59 2.41,-142.85 -15.56,-12.47 -103.55,-31.63 -108.18,-36.02 -4.95,-9.39 -15.82,-63.82 -14.03,-76.43l80.01 -2.65c5.93,11.24 6.93,18.97 18.36,23.6 21.06,8.53 49.3,-4.02 44.85,-39.66 -1.97,-16.13 -10.38,-16.13 -21.44,-22.12 -6.42,-85.82 -58.7,-191.54 -105.4,-258.51 -9.82,-14.15 -49.24,-59.44 -59.19,-63.95 -17.36,8.09 -43.68,39.29 -60.24,44.24 -7.79,-5.56 -45.48,-41.83 -45.79,-48.87 -0.24,-5.87 29.97,-43.07 37.82,-51.1l7.41 -9.09c-10.57,-21.13 -112.45,-81.37 -140.07,-95.14 -27.67,-13.78 -142.17,-59.5 -174.85,-58.09 -5.81,8.91 -27.12,108.87 -38.55,129.32 -6.74,0 -49.93,-10.87 -56.6,-13.16l-36.95 -112.38 -16.68 2.22 1.55 18.78zm0 0z"/>
    <path class="fil2" d="M606.1 892.68c-6.99,16.93 -2.67,35.89 -2.85,52.51l-38.24 3.4c-0.99,15.45 1.23,11.06 -6.12,20.39 -16.31,20.51 -11.18,21.07 -40.78,36.58 -3.34,-6.18 -3.83,-9.95 -6.8,-17.11 -3.95,-9.52 -4.57,-10.45 -14.7,-11.06 6.73,7.16 -8.65,-7.54 4.32,3.58 12.86,11 5.19,9.76 12.86,28.67 19.71,48.37 10.93,22.05 21.19,73.27 5.49,27.62 10.25,31.82 -4.88,37.94 -4.82,-5.5 -6.37,8.9 -3.53,-10.94 -9.94,13.6 -19.46,26.51 -28.67,38.93 -9.57,12.91 -22.92,24.47 -30.83,37.99 12.49,-4.19 2.85,-1.85 6.43,1.55 -4.02,20.27 23.66,38.68 31.39,59.44 3.7,10.13 7.6,22.18 12.54,32.81 1.79,3.77 5.5,11.12 8.28,13.59 9.14,7.91 -2.1,0.61 12.61,4.82 17.6,5.13 52.76,3.96 72.9,-2.72 17.3,-5.75 -1.17,-5.62 24.59,-8.71 6.3,-0.74 15.51,-3.52 22.31,-0.5 0.43,0.19 1.05,0.56 1.48,0.81 24.16,13.78 -3.22,2.28 22.92,9.95 0.74,0.24 2.66,1.23 5.07,2.22 1.11,-13.53 -0.74,-1.42 2.72,-9.95 0.49,-1.3 3.08,-6.74 4.51,-9.33 -6.74,-14.89 -82.3,-86.87 -100.47,-166.39 -24.52,-5.25 -47.57,-9.14 -46.52,-39.42 0.8,-22.61 22.67,-44.67 48.38,-36.82 17.36,5.25 35.46,32.31 23.54,54.25 -8.84,16.25 -20.64,8.28 6.17,60.43 17.31,33.67 45.85,71.54 70.69,100.21 15.63,18.1 67.78,74.7 90.2,85.45 3.28,-3.52 -1.41,-2.1 11.31,1.92 -2.72,-8.04 -1.54,-4.33 2.66,-11.31 17.3,-28.42 -8.65,-23.48 -17.86,-44.36 -17.67,-6.92 -53.2,-53.7 -69.38,-75.13 -10.69,-14.09 -19.59,-32.38 -27.87,-46.59 -41.89,-71.73 -42.2,-61.85 -64.75,-154.15 -4.69,-19.16 -10.93,-40.97 -13.41,-59.57 -2.72,-20.45 2.78,-61.53 0.19,-72.29l-2.91 0.07 1.31 15.57zm0 0z"/>
    <path class="fil0" d="M902.23 997.03c-15.07,-7.78 -14.89,-26.2 -27.37,-20.7 -9.82,13.72 3.52,23.18 12.23,33.31 12.3,14.33 16.37,10.69 14.83,37.68 -11.98,-6.24 -9.52,-11.3 -23.73,-14.45 1.67,42.13 2.66,22.3 23.05,35.03l0.87 24.59c-6.49,-2.9 -37.7,-34.72 -42.7,-40.84 -15.08,-18.35 3.52,-66.11 -21.38,-56.84 -1.91,2.59 -1.66,1.17 -2.84,5.87 -1.11,4.51 -0.86,4.51 -0.68,9.26 0.19,6.24 1.3,9.65 1.17,16.69 -14.14,-10.14 -27.86,-38.87 -43.06,-29.35 -8.28,12.79 1.05,16.62 8.47,23.6 8.34,7.85 14.76,11.62 19.34,21.94l-31.51 -1.18c-6.49,30.71 33.92,18.35 54.3,20.76 7.61,6.61 11.43,9.95 14.95,18.17l-22.49 2.71c-3.27,11.5 8.47,11.5 9.28,24.47 -45.42,5.75 -40.48,-41.09 -68.28,-29.41 -4.51,18.17 9.39,14.4 16.56,28.54 -15.75,0.81 -33.68,-2.47 -46.77,1.68 -8.9,27.24 26.56,16.8 48.13,17.36 -8.53,14.45 -25.76,15.01 -20.39,32.68 28.61,7.48 35.65,-47.88 74.08,-30.46 -3.21,16.56 -20.39,11.62 -20.32,24.96l27.79 2.91c-14.45,44.79 -80.87,-5.56 -69.87,39.04l29.34 -1.35c-8.58,17.6 -38.85,30.89 -24.21,44.35 12.04,10.08 32,-22.23 44.54,-30.27l-2.16 35.4 13.9 0.81c11.31,-26.08 -5.49,-59.5 25.27,-70.81l2.53 27.19c14.71,-0.81 7.91,-8.78 24.72,-13.72 -0.25,36.33 1.11,17.98 -24.96,50.17 -12.73,15.7 -2.84,31.26 10.75,15.88 6.3,-7.11 4.82,-8.4 13.9,-12.61 0,11.99 -7.48,49.68 10.88,47.21 15.32,-2.1 6.79,-35.96 8.89,-49.3 11.93,5 12.42,26.32 25.71,20.88 12.35,-10.14 -4.76,-26.32 -12.11,-35.03 -15.82,-18.97 -15.82,-6.49 -14.09,-39.67 12.29,2.59 13.46,17.73 26.81,17.55 2.41,-10.51 1.36,-20.08 5.99,-27.56 38.93,14.33 1.92,70.74 35.47,68.77 4.82,-12.24 -0.12,-20.82 1.79,-34.11 18.79,7.97 23.79,39.54 45.84,28.92 6,-21.26 -19.45,-22.49 -28.16,-42.57 19.89,0.12 40.4,8.28 32.25,-14.71 -15.02,-4.32 -32.38,-0.92 -48.57,-2.66 -8.59,-0.98 -25.21,-15.81 -24.77,-23.66l37.68 -1.79c-2.16,-13.22 -9.33,-11.06 -11.06,-26.63l18.11 -0.31c7.35,11.06 28.98,35.59 43.12,36.33 16.26,-17.86 -10.25,-20.76 -13.96,-34.79 13.66,-0.43 44.8,4.83 46.34,-8.95 1.98,-17.06 -33.42,-10.32 -46.71,-10.13 7.54,-16.19 24.35,-14.71 14.83,-31.21 -25.77,-8.64 -30.53,34.73 -58.57,31.89 1.29,-3.28 3.52,-7.05 4.44,-9.65 1.8,-4.75 1.18,-0.24 1.49,-5.12 1.17,-19.65 -22.12,-3.46 -31.63,15.69l-28.49 -3.27 11.49 -11.13c6.24,-4.19 12.24,-5.06 19.96,-8.83 0.74,-8.53 -7.97,-17.18 8.9,-21.57 18.78,-4.81 74.76,1.43 62.34,-19.08 -4.88,-8.16 -27.93,-1 -37.26,-0.5l8.22 -10.75c16.99,-16.43 25.77,-18.29 20.76,-35.96 -19.9,-9.33 -30.65,19.28 -45.17,30.34 -0.74,-13.16 3.59,-22.24 -0.61,-34.66 -27.38,-2.17 -7.54,38.67 -24.1,58.88 -4.69,5.74 -15.63,14.77 -22.43,20.94 -7.04,6.49 -13.4,17.61 -22.31,20.39l0.13 -23.97c12.54,-6.37 8.34,1.05 17.61,-13.16 5.32,-8.28 6.18,-15.07 3.21,-22.8 -15.69,-1.11 -10.07,5.38 -20.69,8.96 -0.75,-22.68 5.8,-20.94 18.59,-35.47 6.67,-7.53 26.32,-25.64 4.7,-34.53 -10.32,6.36 -12.92,20.08 -23.24,26.13 -1.79,-12.97 7.17,-50.41 -8.21,-51.71 -17.98,-1.48 -10.81,38.06 -10.69,49.3zm0 0z"/>
    <path class="fil1" d="M664.79 638.98c-10.13,13.54 -13.9,35.72 -22.43,49.93 -10.32,17.24 -14.21,32.62 -19.16,55.92 -6.17,28.85 -22.6,100.03 -15.5,132.21 2.59,10.76 -2.91,51.84 -0.19,72.29 2.48,18.6 8.72,40.41 13.41,59.57 22.55,92.3 22.86,82.42 64.75,154.15 8.28,14.21 17.18,32.5 27.87,46.59 16.18,21.43 51.71,68.21 69.38,75.13 17.73,4.63 28.05,27.06 47.46,41.52l37.68 22.61c12.42,6.43 24.04,8.34 35.47,15.26 30.64,18.48 51.59,21.01 68.77,30.34 13.46,7.29 -0.69,5.99 15.38,8.03 7.29,0.93 18.41,1.48 24.47,1.98 7.53,0.56 16.37,0.37 24.03,0.43 2.97,0 7.48,0 10.26,0.13 10.44,0.37 -0.43,3.27 7.22,0.11l0.37 -10.62c-30.33,-8.4 -60.17,-13.72 -89.58,-23.91 -77.36,-26.75 -153.29,-77.42 -204.76,-134.82 -34.97,-38.98 -65.12,-86.93 -86.62,-139.82 -13.84,-33.98 -50.61,-139.33 -44.61,-180.6l318.31 -1.79c5.82,-4.69 -8.65,-4.26 11.32,-4.75 -11.62,2.03 -7.98,0.55 -9.4,-5.07 -4.07,-16.5 1.86,-4.08 5.75,-16.68l1.05 -4.39c2.41,-4.02 4.69,-4.51 11.12,-4.32 -32.5,-3.22 -80.75,-3.84 -113.75,-2.97 -29.65,0.74 -92.12,10.56 -115.84,-0.68l-108.32 0c-4.69,-65.24 20.58,-140.44 39.92,-193.58 22.06,-60.48 53.13,-101.94 89.09,-146.92 30.4,-38.12 89.1,-83.04 130.74,-105.59 55.8,-30.21 104.54,-46.22 173.93,-59.5l12.42 -4.95 -8.22 -15.75c-0.31,0 -1.05,0 -1.42,0 -0.62,0 -7.91,0.68 -9.52,0.87 -22.61,2.41 -87.42,14.08 -105.9,23.29 -6.49,3.21 -3.77,4.32 -12.66,8.96 -10.13,5.12 -10.2,1.3 -25.64,10.19l-64.2 32.01c-25.95,17.73 -56.04,52.08 -57.89,53.38 -22.62,16.5 -18.91,20.82 -33.55,31.2 -5.69,4.02 -3.28,1.42 -6.61,5.07 -1.12,1.17 1.48,-1.67 -2.04,2.59l-50.17 65.43c-6.3,10.01 -10.13,18.73 -15.57,27.56 -12.6,20.33 -5.81,20.88 -16.62,29.96zm0 0z"/>
    <path class="fil0" d="M1334.6 987.45c74.27,-11.49 135.75,43.57 145.07,108.69 10.26,71.61 -39.72,134.87 -105.65,145.99 -76,12.8 -138.46,-41.64 -147.54,-106.76 -11,-79.4 41.64,-137.6 108.12,-147.92zm-8.22 -43.98c-99.53,17.85 -157.36,103.98 -144.2,196.97 12.48,88.1 96.44,161.87 195.68,146.74 89.03,-13.6 158.96,-96.14 145.93,-196.98 -11.43,-87.73 -96.32,-164.84 -197.41,-146.73zm0 0z"/>
    <path class="fil3" d="M562.96 696.63c-2.47,7.23 4.33,4.08 -5.25,4.7l-4.26 -17.92 -7.29 5.75c-3.46,1.91 -0.99,-1.98 -9.45,2.28 -7.17,13.72 -13.66,33.05 -18.66,46.28 -10.38,27.19 -5.87,23.85 -9.39,39.29 -6.92,30.4 -91.44,23.67 -98.24,47.52l0.74 127.71c6.06,3.21 77.85,24.96 85.45,25.15 10.13,0.61 10.75,1.54 14.7,11.06 2.97,7.16 3.46,10.93 6.8,17.11 29.6,-15.51 24.47,-16.07 40.78,-36.58 7.35,-9.33 5.13,-4.94 6.12,-20.39l38.24 -3.4c0.18,-16.62 -4.14,-35.58 2.85,-52.51l-122.04 -0.99c-23.53,47.02 -73.08,28.92 -70.67,-9.33 1.29,-19.59 16,-32.31 34.97,-34.29 27.24,-2.84 29.16,12.04 38.42,29.72l118.01 -0.68 2.91 -0.07c-7.1,-32.18 9.33,-103.36 15.5,-132.21 4.95,-23.3 8.84,-38.68 19.16,-55.92 8.53,-14.21 12.3,-36.39 22.43,-49.93 2.59,-16.61 11.55,-21.31 9.82,-33.05l-5.74 -14.08c-5.75,-9.77 4.01,-3.72 -9.89,-7.61 3.71,-8.71 1.49,-3.52 -0.62,-13.03 -4.14,3.34 0.19,-1.92 -5.19,5.49 0,0.07 -2.59,4.58 -2.65,4.7l-15.95 31.88c-5.37,10.94 -17.11,33 -17.6,44.98 0,0 36.57,29.23 1.54,54.8 -19.77,14.47 -49.05,-0.86 -55.55,-16.43zm0 0z"/>
    <path class="fil3" d="M1500.37 1335.74c27.62,-13.78 75.38,-75.44 95.77,-102.44 14.71,-19.34 25.45,-36.64 38.25,-60.49 5.99,-11.12 28.91,-55.17 30.77,-68.77 -11,-11.12 -27.32,-22.98 -13.84,-46.89 8.15,-14.58 26.87,-26.63 47.13,-18.41 13.78,5.56 28.36,22.3 24.35,43.37 -4.38,22.92 -20.51,25.46 -43.87,27l-7.23 17.42c8.22,1.49 1.61,0.99 7.67,10.63 9.51,0.25 23.47,-0.99 32.25,1.55 11.12,3.15 3.83,2.77 10.69,11.18 3.27,4.08 7.35,3.4 14.45,14.4l9.02 10.13c0.44,0.31 1.06,0.68 1.49,0.98l37.62 37.57 6.8 -8.4c9.89,-16.25 -6.73,-23.98 -23.6,-45.54 -7.6,-9.64 -41.71,-47.69 -42.63,-52.58l24.28 -82.73c0.86,-1.79 1.79,-3.39 2.78,-4.94 0.43,-0.68 1.85,-2.6 2.28,-3.15l2.48 -3.15c13.59,-42.88 5.62,-31.33 32.13,-41.22 27.36,-10.19 64,-15.01 69.01,-22.6 4.01,-6.25 3.15,-48.88 2.6,-54 -0.5,0.43 -1.06,1.11 -1.31,1.41l-3.52 4.33c-24.9,32.68 -52.2,22.49 -69.44,-10.63l-118.32 0.5c-0.19,21.75 1.42,54.37 -2.97,74.94 -7.23,33.55 -22.18,95.89 -35.22,122.96l-41.51 80.07c-6.12,7.85 -11.56,17.36 -16.44,22 -3.46,3.33 -9.39,6.85 -9.88,8.02 -1.43,3.65 0.55,4.27 -4.7,12.8 -2.96,4.82 -4.45,6.36 -8.16,11.36 -7.1,9.58 -4.45,9.39 -13.22,18.36 -15.57,15.75 -4.82,7.78 -32.99,34.53l-21.38 24.35c-0.31,0.37 -0.8,0.93 -1.17,1.23 -0.31,0.37 -0.8,0.87 -1.18,1.24 -2.4,2.65 -2.29,2.35 -4.44,5.19 -2.54,3.33 -4.21,7.11 -6.99,10.07 3.09,0.12 13.9,-0.13 15.94,0.37 18.17,4.39 -3.58,18.97 9.21,14.58l11.31 -5.44c-2.35,4.89 -2.11,5.75 -4.27,8.84zm0 0z"/>
    <path class="fil4" d="M1353.82 838.99c-6.99,-5.2 -9.33,-10.14 -15.82,-17.86l-15.26 -16.74c-0.31,-0.31 -0.86,-0.99 -1.17,-1.55 3.7,-9.08 26.01,-38.37 34.66,-43.25 7.53,9.08 26.19,30.96 31.45,40.84 -4.82,8.71 -26.69,34.73 -33.86,38.56zm-16.93 -294.41c2.96,-15.94 10.81,-50.91 19.34,-60.18l16.68 60.42 -36.02 -0.24zm-93.48 44.36l-1.86 28.67c2.29,10.69 -2.34,4.44 5.13,8.22 15.39,7.72 12.36,-16.75 13.16,-25.4l58.7 -1.24 -0.12 61.48 -37.94 25.15c-8.22,5.13 -13.23,8.28 -22.06,11.92 -8.71,3.65 -16.49,5.19 -21.56,13.72 -1.42,10.14 -2.29,23.54 1.42,33.18l14.52 0.99 2.35 -29.41 60.98 -0.99c2.1,23.47 -12.48,93.42 -19.28,122.39 -2.35,10.14 -3.58,13.1 1.54,19.78 22,0.62 9.21,-21.69 19.28,-34.67 21.88,14.71 29.05,60.87 55.18,18.48 5.56,-9.02 13.84,-16.8 19.52,-22.43 3.4,4.69 4.51,13.84 6,21.01 2.53,12.91 0.74,16.37 13.22,16.68l1.91 -3.89c2.6,-9.83 -7.54,-55.12 -9.33,-66.36l-8.15 -51.34c-0.25,-1.79 -0.99,-7.67 -0.99,-9.15l1.98 -10.19 61.23 -1.24c1.17,11.49 -2.85,33.37 13.22,28.67 10.25,-2.96 7.78,-20.08 5.12,-35.84 -12.6,-8.89 -29.1,-15.32 -42.69,-23.17 -12.05,-6.91 -28.48,-20.2 -40.59,-25.7 -2.84,-14.58 -3.34,-45.04 -0.8,-59.62 14.76,-0.31 45.47,-2.66 58.07,1.18 1.92,15.38 -4.2,29.71 16.44,24.15 4.51,-9.08 2.53,-22.92 1.6,-33.18 -22.8,-16.8 -54.92,-25.52 -76.11,-41.39 -8.84,-6.62 -13.1,-29.1 -16.56,-40.47l-12.18 -39.17c-2.83,-5.56 -0.8,-2.66 -5.12,-6.62 -14.33,1.06 -15.02,9.46 -23.73,37.01 -2.34,7.54 -9.94,44.55 -11.68,48.26 -4.94,10.56 -31.2,15.82 -39.6,20.01 -11.74,5.88 -30.7,13.04 -40.22,20.52zm0 0z"/>
    <path class="fil1" d="M530.78 1402.78c25.21,-9.33 29.22,29.41 7.91,35.34 -22.74,6.3 -32.32,-26.38 -7.91,-35.34zm525.36 133.45l-5.56 -26.26 -5.63 22.31c-9.2,-5.26 -4.26,1.85 -13.9,-6.49 -17.24,-15.07 -13.16,-9.39 -44.48,-16.13 -39.98,-8.58 -49.62,-23.97 -79.33,-20.51 -26.08,3.09 -4.21,-12.6 -27.99,-6.85 -13.91,3.39 -23.98,-1.86 -35.04,12.97 -0.31,0.37 -0.68,0.98 -0.99,1.42 -10.56,14.64 -8.34,8.59 -16.93,11l-5.74 2.22c2.41,-8.83 5,-8.22 3.03,-11.99l-6.67 3.96c-5.32,3.21 1.66,-0.13 -6.18,3.58 -45.17,21.63 -77.3,-48.06 -24.59,-65.61l-0.99 -80.45c-7.42,-6.98 -16.68,-12.17 -24.41,-18.59 -17.91,-14.77 -58.14,-56.66 -65.92,-60 -1.43,2.59 -4.02,8.03 -4.51,9.33 -3.46,8.53 -1.61,-3.58 -2.72,9.95 -2.41,-0.99 -4.33,-1.98 -5.07,-2.22 -26.14,-7.67 1.24,3.83 -22.92,-9.95 -0.43,-0.25 -1.05,-0.62 -1.48,-0.81 -6.8,-3.02 -16.01,-0.24 -22.31,0.5 -25.76,3.09 -7.29,2.96 -24.59,8.71 -20.14,6.68 -55.3,7.85 -72.9,2.72 -14.71,-4.21 -3.47,3.09 -12.61,-4.82 -2.78,-2.47 -6.49,-9.82 -8.28,-13.59 -4.94,-10.63 -8.84,-22.68 -12.54,-32.81 -7.73,-20.76 -35.41,-39.17 -31.39,-59.44 -3.58,-3.4 6.06,-5.74 -6.43,-1.55 -13.59,10.88 -3.76,19.78 2.54,33.18 15.69,33.62 34.29,65.99 56.1,95.4 35.28,3.09 80.44,-20.08 112.27,-15.63 -0.37,16.43 -56.72,57.89 -80.27,89.03 -23.54,-0.74 -35.89,-9.08 -50.47,10.32 -22.55,29.97 14.76,77.97 49.92,47.51 19.65,-17.05 9.95,-26.32 8.89,-49.18 20.52,-13.47 66.12,-69.26 82.06,-76.24 5.06,2.41 62.15,59.81 66.85,64.88l-14.33 108.24c7.53,8.34 123.99,78.03 128.14,77.54 16.31,-8.09 29.53,-24.59 39.79,-35.4 46.58,-49.25 35.83,-43.31 95.09,-25.58 77.54,23.29 50.41,-11.06 72.47,62.9 2.53,8.46 5,16 7.17,24.09 6.92,26.02 5.18,17.8 13.71,21.32l-0.86 -82.98zm0 0z"/>
    <path class="fil3" d="M1652.73 594.19l21.38 49c48.57,8.03 50.48,54.74 18.23,69.32 -15.26,6.92 -38.74,1.05 -46.59,-11.25 -12.6,-19.77 2.66,-37.07 9.64,-47.81 -2.4,-10.51 -16.31,-49.68 -25.95,-57.34 3.21,18.78 9.58,17.86 5.81,31.7 -0.31,1.11 -2.53,5.24 -3.71,7.65 -12.6,25.15 -1.85,40.91 5.81,65.68 22.8,73.28 23.79,71.18 30.34,147.48 1.73,20.89 -3.46,33.92 0.74,41.65l0.68 -18.1 118.2 -0.07c8.09,-12.05 13.84,-24.83 33.79,-26.5 9.82,-0.81 17.18,1.73 23.36,6.3 3.21,2.34 4.69,4.08 7.1,6.92l8.9 9.76 2.22 -47.26c-16.37,-8.41 -36.95,-12.8 -57.52,-19.59 -38.8,-12.73 -35.59,-14.15 -40.96,-35.53 -6.92,-27.24 -15.08,-43.93 -19.03,-57.83 -13.29,-47.39 -22.49,-16.31 -21.38,-55.98 0.93,-0.68 4.14,-2.53 5.62,-3.89l6.18 -8.03c11.06,-13.96 21.44,-21.13 30.96,-34.17l26.07 -31.75c9.7,-14.59 -11.31,-46.47 -18.79,-57.22 -8.95,-3.77 -4.07,5.93 -7.72,-9.02 -5.25,6.43 0.93,4.7 -9.2,8.96 -11.19,4.69 -12.61,14.64 -19.59,28.48 -2.04,4.08 1.3,-1.6 -1.67,3.15l-11.73 9.39c-5.88,3.83 -2.42,6.31 -7.3,12.36 -5.07,6.24 -4.57,-1.42 -9.2,10.13 -5.19,12.85 4.94,6.92 -9.03,14.77 -9.02,5.01 -5.87,5.56 -12.66,11.68 -13.59,-5.69 11.98,4.82 -4.7,-4.08 -3.21,-1.73 2.29,-3.03 -3.33,-0.8 -5.81,2.34 -2.85,-0.44 -4.45,9.14 -1.73,-3.71 -0.68,-2.96 -4.2,-4.14 -1.48,-0.49 -3.71,1.61 -10.13,-5.62l-6.19 -7.54zm0 0z"/>
    <path class="fil1" d="M363.09 1094.41c-5.93,-28.36 30.03,-31.02 35.71,-10.88 6.68,23.66 -31.57,30.71 -35.71,10.88zm27.55 -412.49c20.09,-17.42 41.65,-4.87 37.14,13.84 -4.02,16.87 -37.94,19.53 -37.14,-13.84zm143.78 -358.6c21.5,-15.13 44.18,17.8 25.15,29.36 -23.85,14.39 -41.59,-17.74 -25.15,-29.36zm-7.85 786.59c-2.84,19.84 -1.29,5.44 3.53,10.94 15.13,-6.12 10.37,-10.32 4.88,-37.94 -10.26,-51.22 -1.48,-24.9 -21.19,-73.27 -7.67,-18.91 0,-17.67 -12.86,-28.67 -12.97,-11.12 2.41,3.58 -4.32,-3.58 -7.6,-0.19 -79.39,-21.94 -85.45,-25.15l-0.74 -127.71c6.8,-23.85 91.32,-17.12 98.24,-47.52 3.52,-15.44 -0.99,-12.1 9.39,-39.29 5,-13.23 11.49,-32.56 18.66,-46.28 4.76,-11.74 13.22,-16.56 8.4,-31.14 -5.13,-15.45 -27.06,-37.62 -37.38,-49.31 -8.16,-9.2 -10.63,-15.99 -18.78,-24.83 -21.5,-23.35 -7.85,-20.89 7.54,-55.48 5.8,-13.04 21.75,-46.53 25.08,-58.02 13.47,-19.52 26.63,-9.09 46.09,-5.56 29.16,5.38 67.84,19.71 87.61,9.64 11.99,-6.12 3.9,-7.11 16,-23.97 14.34,-20.15 -0.92,-8.22 26.08,-36.58 17.98,-18.91 44.98,-14.77 39.73,-48.63 -5.01,-32.37 -19.53,-64.69 -21.5,-97.19 9.82,-5.93 45.53,-21.8 32.74,-31.45 -15.94,2.35 -30.7,15.39 -43.62,24.23 -3.09,15.32 11.92,95.08 12.85,120.97l-54.99 51.29c-8.71,0.18 -62.09,-64.26 -84.77,-80.08 3.34,-22.99 6.37,-33.36 -12.29,-45.78 -37.57,-25.03 -68.03,24.16 -43.87,51.28 16.5,18.47 29.84,5.93 50.48,5.31 11.49,13.47 23.42,25.46 37.63,41.34 7.47,8.34 34.84,31.26 39.3,41.14 -3.22,6.8 -10.02,14.15 -15.33,18.91 -28.48,-2.04 -88.85,-21.44 -113.19,-18.66 -14.09,27.13 -59.93,102.26 -63.76,127.46 5.87,10.08 13.53,16.44 21.37,25.58 49.87,58.08 57.28,51.28 40.11,85.08l-72.42 0.13c-30.65,-54.01 -71.48,-26.39 -72.6,2.41 -0.74,19.89 10.51,34.96 29.41,36.57 24.22,2.1 31.58,-12.11 39.98,-27.18l68.27 -0.25c0.56,17.24 -9.57,67.1 -17.24,77.67 -6.05,4.63 -94.4,28.73 -102,32.49 -2.54,20.89 -4.52,128.51 -0.5,145.82 13.84,10.44 33.49,15.94 51.41,22.61 8.89,3.34 17.48,6.92 25.89,10.01 9.26,3.4 21.49,5.44 27.12,11.92 6.3,8.53 16.62,69.51 15.14,83.05l-91.38 0.98c-6.74,-9.45 -11.86,-20.2 -23.36,-25.58 -47.45,-22.12 -70.25,59.07 -22.12,64.69 15.94,1.85 25.89,-3.33 34.29,-12.6 14.21,-15.76 6.37,-12.54 35.28,-12.79 16.07,-0.12 32.13,-0.62 48.19,-1.05 15.88,-0.44 37.69,-5.13 34.97,14.02zm0 0z"/>
    <path class="fil0" d="M786.81 1338.52c2.85,5.31 9.95,8.16 14.58,11.86l0.19 86.81c31.14,13.16 33.8,28.55 22,60.73 1.97,3.77 -0.62,3.16 -3.03,11.99l5.74 -2.22c8.59,-2.41 6.37,3.64 16.93,-11 0.31,-0.44 0.68,-1.05 0.99,-1.42 11.06,-14.83 21.13,-9.58 35.04,-12.97 23.78,-5.75 1.91,9.94 27.99,6.85 29.71,-3.46 39.35,11.93 79.33,20.51 31.32,6.74 27.24,1.06 44.48,16.13 9.64,8.34 4.7,1.23 13.9,6.49l5.63 -22.31 5.56 26.26 -2.11 -141.67 -0.37 10.62c-7.65,3.16 3.22,0.26 -7.22,-0.11 -2.78,-0.13 -7.29,-0.13 -10.26,-0.13 -7.66,-0.06 -16.5,0.13 -24.03,-0.43 -6.06,-0.5 -17.18,-1.05 -24.47,-1.98 -16.07,-2.04 -1.92,-0.74 -15.38,-8.03 -17.18,-9.33 -38.13,-11.86 -68.77,-30.34 -11.43,-6.92 -23.05,-8.83 -35.47,-15.26l-37.68 -22.61c-19.41,-14.46 -29.73,-36.89 -47.46,-41.52 9.21,20.88 35.16,15.94 17.86,44.36 -4.2,6.98 -5.38,3.27 -2.66,11.31 -12.72,-4.02 -8.03,-5.44 -11.31,-1.92zm0 0z"/>
    <path class="fil0" d="M1312.48 1200.43c2.29,-4.82 26.88,-41.83 41.21,-41.15 12.79,0.62 38.99,35.65 40.84,41.15 -19.58,13.9 -67.78,13.47 -82.05,0zm103.93 -15.14c-6.55,-4.94 -28.12,-40.84 -26.88,-52.14 1.61,-14.9 9.15,-15.64 21.62,-17.99 10.82,-2.1 22.93,-6.17 33.99,-6.67 1.85,35.1 -10.76,56.78 -28.73,76.8zm-156.07 -76.36c33.73,8.27 66.79,6.91 48.37,43.8 -5,10.13 -10.25,25.15 -17.54,32.99 -21.63,-13.16 -31.94,-47.14 -30.83,-76.79zm66.91 14.39c-9.21,-36.33 44.48,-47.27 49.68,-13.9 5.8,37.38 -42.08,43.99 -49.68,13.9zm-59.93 -43.37c5,-29.11 40.59,-54.12 70.49,-58.39 0.19,12.48 -0.67,26.57 -1.17,39.23 -1.73,44.86 -62.09,22.86 -69.32,19.16zm139.2 4.38c-40.09,10.38 -39.29,-11.92 -40.72,-62.28 31.58,1.36 60.49,29.79 70.69,53.08l-29.97 9.2zm-80.57 -81.43c-147.42,38.31 -93.17,259.5 54.19,224.28 53.57,-12.85 99.78,-69.14 82.67,-138.64 -13.41,-54.81 -68.83,-103.31 -136.86,-85.64zm0 0z"/>
    <path class="fil5" d="M521.57 472.66c-3.33,11.49 -19.28,44.98 -25.08,58.02 -15.39,34.59 -29.04,32.13 -7.54,55.48 8.15,8.84 10.62,15.63 18.78,24.83 10.32,11.69 32.25,33.86 37.38,49.31 4.82,14.58 -3.64,19.4 -8.4,31.14 8.46,-4.26 5.99,-0.37 9.45,-2.28l7.29 -5.75 4.26 17.92c9.58,-0.62 2.78,2.53 5.25,-4.7 -5.19,-11.3 -2.34,-24.9 4.7,-34.66 9.52,-13.1 20.45,-10.56 34.72,-11.43 8.41,-19.58 13.47,-33.67 24.29,-52.27 4.75,-8.28 9.08,-15.88 14.33,-24.22 5.38,-8.78 11.49,-15.94 14.77,-26.63 -5.93,-2.9 2.04,-9.88 4.88,-13.84 4.08,-5.62 7.1,-11.06 11.25,-15.26 -5.44,-5.31 -1.74,0.12 -4.76,-6.86l-3.09 1.92c-0.37,0.18 -1.12,0.61 -1.61,0.86 -13.22,5.62 -10.44,-0.25 -14.03,-3.09l-12.97 -8.83c-7.29,-2.11 -4.45,0.74 -11.68,-2.78 -18.22,-8.96 3.71,-1.36 -27.98,-8.28 -18.11,-3.96 -9.28,-4.82 -37.82,-12.79 -19.46,-5.44 -16.75,-14.71 -36.39,-5.81zm0 0z"/>
    <path class="fil2" d="M1671.7 1126.53c-7.35,10.82 -25.21,65.68 -65.37,119.25 -9.38,12.48 -24.59,25.33 -28.85,34.66l25.09 -3.09c0.31,0 0.92,-0.06 1.23,-0.06 0.56,0 6.62,1.79 7.54,2.22 9.7,4.45 10.69,8.78 14.03,10.2 5.62,2.41 15.19,0.62 22.23,1.79 8.66,1.36 11.43,4.02 19.6,4.51 13.4,0.86 57.95,3.03 67.15,0.49 10.63,-2.9 17.61,-13.53 23.67,-23.66l7.78 -16.19c2.41,-4.5 1.18,-2.53 3.58,-8.15l17.19 -29.04c0.3,-0.49 0.74,-1.05 1.04,-1.55l12.91 -21.06 -3.52 -15.7c4.89,-5.12 -7.41,-6.18 8.28,-3.34 -9.57,-10 -17.54,-21.68 -25.08,-30.39 -8.53,-9.89 -18.23,-25.21 -28.24,-31.89 0.06,10.63 5.44,4.33 -5.06,7.24 -3.59,-9.89 -3.16,-1.49 -4.95,-13.66l1.55 -43.5c3.46,-19.7 10.44,-35.83 13.78,-53.13l-2.48 3.15c-0.43,0.55 -1.85,2.47 -2.28,3.15 -0.99,1.55 -1.92,3.15 -2.78,4.94l-24.28 82.73c0.92,4.89 35.03,42.94 42.63,52.58 16.87,21.56 33.49,29.29 23.6,45.54l-6.8 8.4 -37.62 -37.57c-0.43,-0.3 -1.05,-0.67 -1.49,-0.98l-9.02 -10.13c-7.1,-11 -11.18,-10.32 -14.45,-14.4 -6.86,-8.41 0.43,-8.03 -10.69,-11.18 -8.78,-2.54 -22.74,-1.3 -32.25,-1.55 -6.06,-9.64 0.55,-9.14 -7.67,-10.63zm0 0z"/>
    <path class="fil1" d="M1113.9 529.5c10.76,-5.87 2.11,1.79 5.75,-8.65 0.81,-2.28 0.5,-6.98 0.56,-9.58 19.96,-2.28 7.78,1.8 15.94,-7.16l8.96 -8.71c0.12,1.48 0.25,5.31 0.56,6.48 3.82,14.58 -4.21,-10.69 1.35,4.15 0.25,0.61 0.74,1.42 0.99,1.97 0.25,0.56 0.62,1.36 1.05,1.98 0.06,-22.8 2.78,-41.65 4.02,-63.77 1.54,-28.66 -11.31,-55.6 1.17,-66.48 16.62,-15.81 13.47,-24.65 13.54,-51.52 0,-66.8 4.01,-140.69 2.83,-204.39l-65.74 0.43c-2.84,22.62 0.37,169.73 0.19,206.31 -0.06,18.71 -4.02,30.64 5.25,43.49 7.85,10.88 4.76,32.69 4.51,48.07 -0.67,35.71 0,71.79 -0.93,107.38zm0 0z"/>
    <path class="fil0" d="M840.81 713.75c3.89,-2.54 44.98,-48.63 46.65,-57.96 4.08,-22.49 -7.72,-22.18 12.24,-39.85 10.75,-9.51 19.4,-14.77 35.77,-11.12 -1.54,19.58 -17.17,12.42 -17.98,34.16 4.57,10.14 10.57,14.65 22.06,15.76 14.39,-8.03 12.41,-21.19 26.01,-22.67 7.23,13.9 0.92,29.16 -7.85,39.42 -22.92,26.62 -36.14,1.04 -54.18,22.98l-28.98 33.61c-1.73,1.91 -1.92,2.04 -3.64,4.14l-2.35 3.15c6.42,8.16 17.48,10.63 27.86,11.8 11.8,1.24 26.32,0.5 36.09,-2.28 54.12,-15.51 82.1,-93.92 28.73,-144.46 -32.32,-30.52 -82.55,-21.62 -110.78,4.82 -36.9,34.42 -30.96,91.81 -9.65,108.5zm0 0z"/>
    <path class="fil2" d="M1650.14 588.39l2.59 5.8 6.19 7.54c6.42,7.23 8.65,5.13 10.13,5.62 3.52,1.18 2.47,0.43 4.2,4.14 1.6,-9.58 -1.36,-6.8 4.45,-9.14 5.62,-2.23 0.12,-0.93 3.33,0.8 16.68,8.9 -8.89,-1.61 4.7,4.08 6.79,-6.12 3.64,-6.67 12.66,-11.68 13.97,-7.85 3.84,-1.92 9.03,-14.77 4.63,-11.55 4.13,-3.89 9.2,-10.13 4.88,-6.05 1.42,-8.53 7.3,-12.36l11.73 -9.39c2.97,-4.75 -0.37,0.93 1.67,-3.15 6.98,-13.84 8.4,-23.79 19.59,-28.48 10.13,-4.26 3.95,-2.53 9.2,-8.96 3.65,14.95 -1.23,5.25 7.72,9.02 -3.89,-11.93 -12.47,-22.06 -17.11,-31.82 -4.76,-4.38 -10.69,-7.66 -17.85,-8.65 -8.59,-1.17 -33.62,10.44 -36.95,14.15l-3.9 5.87c-10.44,13.72 -8.89,0.37 -20.76,25.08 -12.91,27.13 -5.12,21.2 -6.79,51.96l-11.12 -0.8c3.4,19.28 -1.06,2.72 -5.13,17.98 1.36,-4.82 0.68,-0.25 -4.08,-2.71zm0 0z"/>
    <path class="fil5" d="M579.09 1054c-27.31,9.14 -16.8,52.58 15.14,44.3 28.11,-7.29 18.41,-55.61 -15.14,-44.3zm0 0z"/>
    <path class="fil5" d="M576.19 689.59c6.05,27.43 50.54,19.46 42.14,-11 -6.62,-23.79 -49.93,-24.28 -42.14,11zm0 0z"/>
    <path class="fil3" d="M440.69 864.56c-22.73,9.15 -12.78,56.29 19.59,39.67 27.06,-13.84 4.94,-49.55 -19.59,-39.67zm0 0z"/>
    <path class="fil5" d="M1803.18 892c6.74,19.09 52.46,14.83 40.54,-17.8 -9.15,-25.08 -50.92,-11.55 -40.54,17.8zm0 0z"/>
    <path class="fil0" d="M871.77 332.28c-26.01,10.88 -12.05,47.52 16.68,39.11 25.58,-7.47 10.44,-50.48 -16.68,-39.11zm0 0z"/>
    <path class="fil5" d="M1697.04 691.38c13.96,-24.9 -24.84,-44.12 -37.57,-21.19 -17.54,31.51 27.93,38.31 37.57,21.19zm0 0z"/>
    <path class="fil5" d="M1675.59 1054.55c-25.01,19.16 1.67,47.08 22.06,36.71 24.59,-12.55 -1.11,-52.71 -22.06,-36.71zm0 0z"/>
    <path class="fil0" d="M811.41 1482.42c13.03,-25.52 -21.69,-42.69 -33.68,-22.24 -15.94,27.05 22.25,44.73 33.68,22.24zm0 0z"/>
    <path class="fil2" d="M1461.63 281.31c-23.17,10.26 -11.12,46.71 16.19,36.27 22.31,-8.53 10.44,-48.01 -16.19,-36.27zm0 0z"/>
    <path class="fil0" d="M1400.96 1414.83c5,18.77 43.62,20.2 38.99,-9.09 -3.96,-24.71 -46.59,-19.52 -38.99,9.09zm0 0z"/>
   </g>
  </g>
  <g id="_105553218862688">
   <path class="fil6" d="M5880.71 1031.08c3.94,-26.91 64.66,-169.67 82.28,-212.9 8.31,-20.37 17.19,-50.47 31.61,-66.26 11.62,17.36 104.47,251.93 108.93,280.82l-222.82 -1.66zm-330.62 303.05l219.21 0.04c16.88,-42.1 37.91,-129.44 61.39,-169.33l321.04 0.39c35.78,44.2 52.02,129.09 82,168.07 48.47,7.61 165.18,4.98 216.42,0.83 -4.7,-28.43 -266.76,-595.93 -307.39,-689.61 -14.76,-34.03 -34.23,-70.61 -44.93,-103.22l-204.9 -4.12c-56.92,122.32 -111.27,263.92 -171.85,397.5 -29.3,64.58 -59.2,132.87 -87.03,197.32 -14.9,34.5 -26.42,64.05 -41.47,100.32 -11.74,28.27 -36.78,74.03 -42.49,101.81z"/>
   <path class="fil6" d="M5229.57 712.65c-22.43,52.23 -397.37,460.31 -408.69,499.02 -6.7,22.91 -6.56,103.88 1.97,120.4 11.77,13.24 228.26,6.68 260.81,7.13 89.85,1.27 177.86,2.07 267.62,0.28 11.06,-9.44 3.79,-6.75 22.35,-11.08 5.14,-1.19 17.37,-0.6 23.16,-0.6 0.97,1.63 -7.9,5.3 -5.36,-8.23 2.57,-13.74 12.11,-0.67 -5.79,-13.46 18.45,-4.36 14.4,-11.82 22.55,-23.67 38.99,-2.54 46.73,4.83 85.39,3.01l12.75 16.68c1.14,-23.2 8.13,-41.76 5.49,-65.52 -3.03,-27.26 -6.82,-35.53 -6.82,-66.06l-387.29 -2.1c12.59,-65.86 270.85,-334.21 337.26,-414.59 23.92,-28.95 43.85,-32.17 44.14,-80.61 0.23,-38.45 2.64,-88.35 -0.45,-125.3l-648.46 -2.17c-0.77,14.25 -2.04,4.96 0.72,19.9 5.78,31.28 -8.47,-0.45 8.85,5.14 30,9.69 11.96,-2.28 28.93,22.53l64.01 112.04c45.54,7.51 96.22,11.78 142.34,5.78 28.43,-3.71 72.3,-11.82 102.82,-9.67 35.57,2.5 27.59,5.1 31.7,11.15z"/>
   <path class="fil6" d="M3455.54 856.28l3.23 -138.97c106.93,-8.79 239.48,-26.36 275.83,63.01 18.12,44.56 10.29,103.99 -13.71,135.57 -31.63,41.62 -70.67,39.41 -130.51,46.43 -10.14,94.78 15.05,65.98 -44.72,137.66l7.73 5.26c0.88,0.47 2.81,1.69 3.88,2.23 24.98,12.53 23.72,3.4 51.7,38.14l125.35 196.44 229.81 2.79c-8.98,-34.61 -152.5,-207.71 -167.15,-256.25 17.2,-15.12 30.45,-14.66 51.03,-34.3 115.09,-109.87 147.16,-323.42 13.45,-423.02 -66.64,-49.64 -154.18,-84.25 -263.77,-85.97 -101.78,-1.6 -257.46,-8.89 -354.14,0.76 -1.41,27.31 -5.13,103.26 -0.6,126.96 4.44,23.32 49.85,57.64 62.53,69.98 26.02,25.33 108.18,109.82 150.06,113.28z"/>
   <path class="fil6" d="M2042.42 707.07c28.33,13.22 -3.71,7.44 35.19,4.33 29.82,-2.39 57.81,-9.3 94.6,-1.94 7.83,-25.23 -0.41,-4.34 0.56,-30.89 26.39,-9.8 15.5,-17.45 35.53,-22.97 5.44,-1.5 27,-2.93 45.74,-12.84 6.02,14.63 2.96,11.47 12.52,17.61 12.2,7.83 31.31,3.78 41.8,40.97 -4.41,4.79 -8.42,6.49 -10.71,8.43 -3.53,2.98 -5.57,6.99 -6.2,5.64 -0.48,-1.05 -2.29,1.89 -3.24,3.02 5.09,13.21 7.65,16.68 6.87,34.36 -0.94,21.35 -4.86,27.26 -12.8,33.95l-3 547.08c42.02,1.83 173.04,5.43 205.02,-3.74l4.29 -526.25 -20.05 -40.13c-33.06,-52.34 -1.48,14.26 -22.36,-21.74l-1.92 -36.92c7.64,-21.28 9.2,-15.75 20.17,-26.7 15.45,-15.43 5.87,-23.23 70.21,-17.28l-3.18 46.01c41.97,0.75 56.07,9.46 104.04,5.3 38.46,-3.33 59.23,-2.63 95.93,4.25 -8.25,-34.7 -9.43,-129.48 -1.26,-163.44 -1.19,-3.72 10.19,-7.51 -31.44,-8.45 -187.18,-4.18 -412.69,2.19 -609.91,-0.06 -6.37,-0.07 -16.81,-0.31 -22.86,0.38l-15.9 3.34c-1.41,0.33 -3.45,0.89 -5.09,1.58l-2.55 157.1z"/>
   <path class="fil6" d="M4089.72 827.31c148.13,-12.79 146.26,38.39 186.01,60.89 34.4,19.47 192.24,-6.9 244.28,6.8 23.24,65.48 -46.93,44.16 -96.78,44.16 -53.27,0 -106.55,2.15 -159.81,1.11 -72.76,-152.77 -227.89,-79.91 -249.76,-5.71 62.9,8.7 118.66,-29.33 141.76,29.03 32.83,82.91 -54.3,59.54 -90.64,85.14 17.17,40.5 107.94,87.66 187.92,5.93 21.4,-21.87 22.19,-33.42 56.17,-34.01 119.14,-2.05 247.31,5.94 365.26,0.59l-0.94 -153.43c-67.91,-10.67 -336.44,3.81 -368.95,-13.22 -18.98,-27.84 -8.7,-104.53 -6.28,-142.49l419.16 0.25 3.06 -164.6 -628.65 -2.7 -1.81 282.26z"/>
   <path class="fil7" d="M3415.22 1008.86c-10.67,-73.07 103.43,-94.17 109.92,-16.76 6.45,76.72 -99.82,85.88 -109.92,16.76zm-586.14 -459.48c-47.54,79.76 61.08,210.76 175.08,177.69 56.72,-16.46 50.61,1.3 116.3,58.78l203.68 189.13c38,31.14 55.8,84.53 94.9,104.5 57.18,29.19 117.23,-2.8 131.1,-49.79 20.12,-68.09 -29.25,-99.06 -73.1,-122.68 -51.04,-27.5 -64.49,-46.41 -110.65,-82.84 -39.92,-31.51 -70.61,-53.22 -109.77,-89.39 -36.06,-33.31 -67.37,-60.79 -103.85,-89.4 -69.96,-54.85 -9.18,-70.81 -50.79,-148.76 -61.85,-115.84 -306.29,-100.47 -158.15,-17.98 91.06,50.7 42.88,109.84 22.59,121.31 -41.67,23.54 -78.64,-6.62 -106.34,-32.24 -17.64,-16.3 -10.35,-17.77 -31,-18.33z"/>
   <path class="fil6" d="M4091.02 1126.26l-3.32 214.58 644.8 0.39 -0.34 -171.63 -431.35 2.88 -8.89 -122.05c-81.54,71.32 -48.04,73.93 -200.9,75.83z"/>
   <path class="fil6" d="M2829.43 1333.16l201.89 3.28 2.77 -565.36c-43.01,-11.76 -92.11,3.29 -130.13,-8.6 -46.56,-14.55 -46.84,-46.46 -76.89,-69.4 1.6,108.31 3.74,212.59 3.25,321.48 -0.44,98.69 -9.26,223.12 -0.89,318.6z"/>
   <path class="fil6" d="M3241.61 1337.24c33.29,5 173.52,9.13 204.77,-0.94 4.14,-30.28 6.22,-189.68 -3.47,-205.91 -14.07,-14.9 -37.36,9.81 -69.08,-34.61 -16.57,-23.22 -23.67,-36.94 -42.86,-59.25l-66.84 -87.33c-10.43,-11.55 -15.85,-10.7 -21.99,-22.21 -6.74,24.34 0.62,161.77 -0.43,201.46 -1.15,43.26 -10.57,164.44 -1.6,203.79 0.3,1.36 0.85,3.39 1.5,5z"/>
   <path class="fil8" d="M5229.57 712.65c-4.11,-6.05 3.87,-8.65 -31.7,-11.15 -30.52,-2.15 -74.39,5.96 -102.82,9.67 -46.12,6 -96.8,1.73 -142.34,-5.78l-64.01 -112.04c-16.97,-24.81 1.07,-12.84 -28.93,-22.53 -17.32,-5.59 -3.07,26.14 -8.85,-5.14 -2.76,-14.94 -1.49,-5.65 -0.72,-19.9 -21.48,12.18 -2.93,-3.7 -9.37,13.92 -6.35,17.36 -2.28,47.88 -2.32,67.61 -0.06,29 -2.11,57.49 -0.76,86.43l391.82 -1.09z"/>
   <path class="fil8" d="M2488.59 803.83l-1.03 -84.22 248.57 -1.17c4.75,-52.39 3.56,-150.17 -5.96,-165.26 -8.17,33.96 -6.99,128.74 1.26,163.44 -36.7,-6.88 -57.47,-7.58 -95.93,-4.25 -47.97,4.16 -62.07,-4.55 -104.04,-5.3l3.18 -46.01c-64.34,-5.95 -54.76,1.85 -70.21,17.28 -10.97,10.95 -12.53,5.42 -20.17,26.7l1.92 36.92c20.88,36 -10.7,-30.6 22.36,21.74l20.05 40.13z"/>
   <path class="fil8" d="M2042.42 707.07c6.26,12.03 -5.99,12.95 52.11,11.5l187 1.04 0.75 67.13c7.94,-6.69 11.86,-12.6 12.8,-33.95 0.78,-17.68 -1.78,-21.15 -6.87,-34.36 0.95,-1.13 2.76,-4.07 3.24,-3.02 0.63,1.35 2.67,-2.66 6.2,-5.64 2.29,-1.94 6.3,-3.64 10.71,-8.43 -10.49,-37.19 -29.6,-33.14 -41.8,-40.97 -9.56,-6.14 -6.5,-2.98 -12.52,-17.61 -18.74,9.91 -40.3,11.34 -45.74,12.84 -20.03,5.52 -9.14,13.17 -35.53,22.97 -0.97,26.55 7.27,5.66 -0.56,30.89 -36.79,-7.36 -64.78,-0.45 -94.6,1.94 -38.9,3.11 -6.86,8.89 -35.19,-4.33z"/>
   <path class="fil8" d="M5351.28 1339.48l160.99 -4.13c6.59,-26.16 5.67,-54.66 5.45,-81.61 -0.12,-14.88 -0.28,-31.21 -1.19,-46 -1.53,-25.05 2.16,-25.67 -11.53,-37.19 0,30.53 3.79,38.8 6.82,66.06 2.64,23.76 -4.35,42.32 -5.49,65.52l-12.75 -16.68c-38.66,1.82 -46.4,-5.55 -85.39,-3.01 -8.15,11.85 -4.1,19.31 -22.55,23.67 17.9,12.79 8.36,-0.28 5.79,13.46 -2.54,13.53 6.33,9.86 5.36,8.23 -5.79,0 -18.02,-0.59 -23.16,0.6 -18.56,4.33 -11.29,1.64 -22.35,11.08z"/>
  </g>
 </g>
</svg>
