<?xml version="1.0" encoding="UTF-8"?>
<!DOCTYPE svg PUBLIC "-//W3C//DTD SVG 1.1//EN" "http://www.w3.org/Graphics/SVG/1.1/DTD/svg11.dtd">
<!-- Creator: CorelDRAW -->
<svg xmlns="http://www.w3.org/2000/svg" xml:space="preserve" width="62.3146mm" height="51.4772mm" version="1.1" style="shape-rendering:geometricPrecision; text-rendering:geometricPrecision; image-rendering:optimizeQuality; fill-rule:evenodd; clip-rule:evenodd"
viewBox="0 0 6231.46 5147.72"
 xmlns:xlink="http://www.w3.org/1999/xlink"
 xmlns:xodm="http://www.corel.com/coreldraw/odm/2003">
 <defs>
  <style type="text/css">
   <![CDATA[
    .fil1 {fill:#144B7C}
    .fil0 {fill:#1C649C}
    .fil2 {fill:#2886BA}
    .fil3 {fill:#34A4D5}
    .fil5 {fill:#459BC8}
    .fil4 {fill:#4C8FB6}
   ]]>
  </style>
 </defs>
 <g id="Capa_x0020_1">
  <metadata id="CorelCorpID_0Corel-Layer"/>
  <g id="_105553228434464">
   <g id="surface1">
    <path class="fil0" d="M3187.68 4838.48c-57.09,126.75 -238.21,41.8 -185.37,-79.14 51.28,-117.26 237.41,-36.57 185.37,79.14zm-239.55 -2143c-52.24,-202.01 249.99,-268.58 289.48,-80.69 44.11,209.95 -244.59,254.45 -289.48,80.69zm209.55 -1649.59c-39.09,34.06 1.16,118.44 -3.67,208.21 -3.87,69.27 -12.39,128.3 -12.58,199.69 -1.35,-1.93 -2.51,-4.44 -3.29,-6.18 -0.77,-1.74 -2.32,-4.26 -3.09,-6.19 -17.41,-46.45 7.73,32.69 -4.25,-12.98 -0.97,-3.67 -1.37,-15.67 -1.74,-20.31l-28.07 27.28c-25.53,28.06 12.58,15.29 -49.93,22.44 -0.19,8.13 0.79,22.85 -1.74,30 -11.4,32.71 15.69,8.7 -17.99,27.09l3.87 891.27c-108.94,44.11 -143,79.9 -181.7,188.45l-1002.51 1.56c74.31,35.21 269.94,4.44 362.82,2.11 103.32,-2.69 254.45,-0.76 356.22,9.31 -20.12,-0.58 -27.28,0.95 -34.82,13.53l-3.3 13.75c-12.18,39.46 -30.76,0.58 -17.99,52.23 4.44,17.62 -6.96,22.26 29.41,15.88 -62.51,1.55 -17.22,0.19 -35.42,14.9l348.68 -1.95c30.2,102.96 73.73,143.98 173,181.7l0 1254.26c-6.57,51.67 -56.88,63.28 -92.88,90.37l-7.34 699.68c100.42,51.68 236.06,74.31 330.87,-5.8l-1.34 -693.11c-28.26,-26.89 -87.47,-45.09 -100.64,-85.71 -8.31,-25.54 -3.29,-143.77 -2.9,-179.19 2.14,-358.37 -15.09,-715.94 -6.38,-1079.13 150.36,-45.1 147.06,-127.33 188.66,-180.35l1346.37 -3.09c16.25,238.58 -146.88,606.62 -264.9,804.94 -125.59,211.11 -333.59,386.24 -552.44,511.81 -121.71,69.66 -366.48,159.06 -526.52,189.63l-1.35 705.31c50.31,-17.23 85.73,-258.91 120.74,-315.21 37.75,-13.56 131,-21.29 177.06,-31.15 46.24,-10.08 144.74,-44.13 180.14,-18.2 39.67,29.04 170.86,173.57 237.44,205.89l335.33 -190.99c90.74,-48.96 75.84,-51.65 54.95,-166.61 -11.24,-62.1 -39.67,-173.76 -37.93,-229.1 26.32,-24.38 43.34,-33.85 68.11,-54.56 75.86,-64.05 130.23,-107.59 183.62,-199.69 122.3,-6.59 303.02,57.85 361.47,55.72 25.35,-30.37 43.35,-71.2 63.27,-100.43 42.57,-62.49 85.91,-153.05 123.84,-223.48 33.48,-62.1 42,-60.57 -10.26,-114.17 -49.14,-8.89 -10.63,-5.6 -25.93,10.45l11.03 49.16 -40.44 65.98c-0.95,1.55 -2.32,3.29 -3.28,4.83l-53.8 90.95c-7.55,17.6 -3.67,11.42 -11.22,25.54l-24.37 50.7c-18.97,31.73 -40.84,65.02 -74.13,74.1 -28.83,7.94 -168.34,1.16 -210.32,-1.54 -25.56,-1.55 -34.26,-9.86 -61.35,-14.13 -22.06,-3.67 -52.05,1.95 -69.65,-5.6 -10.45,-4.46 -13.55,-18.01 -43.92,-31.94 -2.9,-1.35 -21.87,-6.96 -23.61,-6.96 -0.97,0 -2.9,0.2 -3.88,0.2l-78.55 9.66c-38.51,23.82 -56.9,57.09 -88.24,90.19 -37.35,39.28 -53.6,56.11 -92.49,89 -70.06,59.2 -138.54,116.49 -202.59,158.28 -0.58,68.88 19.15,113.01 -36,153.05 -105.07,76.05 -245.15,-49.54 -159.25,-158.67 25.35,-32.11 70.82,-52.04 116.11,-36.75 32.69,11.03 5.6,9.47 41.02,16.83 49.33,-28.06 146.67,-104.69 179.94,-138.75 6.78,-9.66 6.01,-12.37 13.37,-27.67l-35.43 17.04c-40.04,13.74 28.07,-31.92 -28.83,-45.66 -6.38,-1.56 -40.23,-0.79 -49.91,-1.17 8.71,-9.28 13.93,-21.1 21.87,-31.54 6.76,-8.9 6.38,-7.94 13.93,-16.25 1.16,-1.16 2.69,-2.72 3.67,-3.88 1.16,-0.95 2.71,-2.69 3.68,-3.86l66.95 -76.25c88.22,-83.78 54.56,-58.81 103.33,-108.16 27.47,-28.06 19.15,-27.48 41.4,-57.48 11.6,-15.67 16.27,-20.5 25.55,-35.59 16.44,-26.71 10.24,-28.64 14.7,-40.06 1.55,-3.67 20.13,-14.7 30.97,-25.15 15.27,-14.51 32.31,-44.31 51.46,-68.89l130.03 -250.77c40.83,-84.75 87.66,-279.99 110.29,-385.06 13.74,-64.44 8.71,-166.61 9.29,-234.72 -13.15,-24.19 3.1,-65.02 -2.32,-130.42 -20.51,-238.96 -23.59,-232.39 -95,-461.87 -24,-77.6 -57.67,-126.94 -18.2,-205.7 3.69,-7.55 10.65,-20.5 11.61,-23.98 11.81,-43.35 -8.13,-40.44 -18.18,-99.27 -9.1,-51.28 -92.11,-162.15 -127.91,-208.98 -47.01,-61.54 -102.17,-118.62 -159.63,-172.22 -290.45,-271.68 -231.81,-95.78 -237.43,-437.31 -43.34,-26.51 -96.74,-35.8 -90.56,-118.61 10.07,-133.13 217.31,-153.05 224.09,-7.75 3.48,72.17 -40.07,90.37 -85.15,120.95l2.71 226.2c35.22,33.87 110.48,78.74 163.32,118.41 257.15,193.5 307.66,385.46 375.38,455.12 14.9,7.73 17.03,-6.59 12.76,8.5 12.77,-47.78 26.72,4.08 16.07,-56.3l34.82 2.51c5.24,-96.36 -19.15,-77.79 21.29,-162.73 37.16,-77.4 32.31,-35.59 65.02,-78.56l12.19 -18.38c10.45,-11.61 88.82,-47.99 115.72,-44.3 22.45,3.09 41.02,13.35 55.92,27.07 -12.39,-50.68 -33.1,-40.44 -47.42,-76.03 -70.62,2.51 -252.11,47.01 -320.04,54.18 -54.95,5.99 -62.12,-54.38 -86.68,-87.07 -25.74,-34.06 -102.95,-115.91 -133.53,-128.49 -28.25,-11.61 -32.69,-0.4 -54.95,-15.09 -54.18,-35.99 -41.02,-92.49 -29.41,-147.46 28.44,-133.9 27.86,-93.83 38.51,-236.07 0.4,-4.25 3.3,-45.27 3.3,-45.45 -2.14,-25.17 0.37,-4.27 -5.24,-21.29 -16.63,-49.54 29.22,30.95 -7.74,-12.77l8.71 -0.97c-19.55,-23.03 -228.32,-134.88 -233.35,-136.41 8.31,20.5 -16.84,5.99 17.59,18.57l-64.62 -27.3 -35.8 23.42c-0.77,0.58 -2.51,1.93 -3.28,2.51 -0.78,0.58 -2.52,1.95 -3.29,2.72l-22.64 24.95c-24.97,19.76 -17.61,0.79 -40.25,30.39l-23.03 28.83c1.74,1.93 8.31,19.55 0.19,-7.73 -4.44,-15.69 1.37,-4.08 -6.57,-14.14 -26.33,43.16 -17.04,17.04 -51.86,46.06 -1.16,0.97 -2.51,2.9 -3.67,3.88 -44.9,38.11 -51.86,-6.2 -88.82,65.21l-216.33 0c-12.01,23.01 -7.16,14.11 -26.52,28.23 -0.39,-47.01 1.56,-38.49 -16.43,-59.59 -22.08,-25.54 -6.01,-22.25 -15.11,-43.53 -136.22,-50.89 -124.62,-10.84 -150.34,-89.98l-43.92 -116.68c-38.33,-74.12 -35.03,-86.31 -90.56,-138.94l-3.3 703.96c23.22,11.03 192.34,36.75 301.09,72.75 293.53,97.13 480.84,233.17 683.25,440.98 182.65,187.51 319.08,474.27 374.61,739.36 15.67,74.31 48.96,263.93 37.15,335.33l-1346.56 2.91c-31.73,-47.8 -23.42,-68.51 -70.04,-117.45 -41.8,-43.94 -78.95,-48.77 -110.68,-77.79l0.76 -1355.28zm0 0z"/>
    <path class="fil0" d="M2440.19 191.23c-24.58,-92.3 53.98,-115.15 88.04,-74.13 42.2,50.52 -9.87,117.65 -88.04,74.13zm-553.8 413.68c40.07,30.2 -71.78,79.93 -102.54,98.5 6.18,101.77 51.66,202.98 67.33,304.36 16.45,106.05 -68.11,93.09 -124.41,152.29 -84.57,88.82 -36.77,51.47 -81.67,114.56 -37.91,52.82 -12.58,55.92 -50.12,75.08 -61.91,31.54 -183.04,-13.35 -274.37,-30.18 -60.96,-11.05 -102.17,-43.74 -144.35,17.41 61.52,-27.88 53.02,1.16 113.96,18.18 89.4,24.97 61.73,27.67 118.44,40.06 99.26,21.66 30.57,-2.13 87.64,25.93 22.65,11.03 13.74,2.12 36.58,8.71l40.63 27.67c11.23,8.89 2.53,27.28 43.92,9.66 1.55,-0.77 3.88,-2.11 5.04,-2.69l9.68 -6.01c9.47,21.86 -2.14,4.84 14.9,21.49 -12.98,13.14 -22.45,30.18 -35.22,47.78 -8.91,12.39 -33.87,34.26 -15.29,43.34 0.76,-0.38 109.71,-149.95 121.32,-164.27 119.78,-147.64 240.71,-241.68 395.31,-343.66 27.88,-18.58 66,-39.86 90.19,-58.04 -37.74,-226.2 210.72,-192.15 217.48,-45.29 3.68,80.11 -58.62,137.2 -143.77,110.87 -76.82,-23.61 -25.54,-48.75 -171.05,45.87 -137.57,89.4 -455.3,378.49 -501.36,529.03 6.59,29.79 13.56,13.54 1.95,40.82 43.53,12.19 12.95,-6.76 30.95,23.81l17.99 44.11c5.43,36.77 -22.64,51.47 -30.76,103.52 33.87,-28.44 12.58,-30.18 52.05,-93.84 17.03,-27.67 29.03,-54.97 48.77,-86.31l157.11 -204.91c11.03,-13.35 2.91,-4.46 6.39,-8.13 10.44,-11.42 2.9,-3.29 20.7,-15.86 45.86,-32.52 34.25,-46.05 105.07,-97.73 5.81,-4.06 100.04,-111.64 181.31,-167.17l201.06 -100.23c48.36,-27.86 48.56,-15.88 80.3,-31.92 27.85,-14.53 19.34,-18.02 39.65,-28.07 57.87,-28.83 260.84,-65.4 331.66,-72.94 5.04,-0.6 27.86,-2.72 29.81,-2.72 1.16,0 3.48,0 4.43,0l25.75 49.34 -38.89 15.48 35.22 -3.48c9.08,-34.64 9.28,-563.28 11.98,-649.57 1.74,-52.44 22.07,-120.76 -39.65,-119.59 -42.76,0.78 -37.54,34.63 -59.99,108.94 -10.45,34.06 -68.5,247.88 -83.2,257.35l-223.69 48.96 -3.09 -389.7c29.79,-28.83 84.15,-53.6 86.48,-113.21 5.43,-135.44 -196.01,-153.06 -204.53,-13.93 -4.64,75.08 29.81,100.24 72.57,126.75l-10.84 399.96c-49.14,19.92 -54.95,22.26 -92.88,-8.52l-143.77 -127.89c-85.91,-85.15 -49.93,-93.67 -265.29,37.33l-62.89 38.7zm0 0z"/>
    <path class="fil0" d="M2337.45 1631.24c410.8,-83.99 499.99,546.44 101.58,618.04 -399.38,71.97 -536.95,-529.03 -101.58,-618.04zm-55.53 -118.62c-164.1,97.91 -164.48,-25.93 -219.05,-17.6 -25.73,12.37 -111.06,97.32 -120.74,121.32 8.89,48.17 54.76,65.6 57.85,99.26 1.55,17.02 -25.35,83.2 -37.72,102.17 -21.1,32.89 -57.48,10.84 -91.72,22.24 -48.2,15.69 -39.1,106.83 -33.09,153.45 11.03,85.91 94.23,3.29 130.22,79.92 5.8,12.38 9.49,23.22 13.34,33.09 6.01,15.29 20.71,50.51 19.36,67.53 -3.68,40.64 -72.17,69.08 -49.93,113 3.48,6.97 76.63,79.53 91.14,90.37 50.12,37.92 69.85,-21.28 111.85,-45.47 27.28,4.83 94.81,37.33 116.3,50.49 8.71,48.77 4.83,78.77 21.85,113.98 43.55,11.03 120.36,11.03 167.19,5.99 33.47,-33.08 19.36,-71.4 27.86,-123.06 16.85,-8.31 92.88,-46.45 111.26,-45.08 41.02,3.09 43.55,52.44 98.69,59.99 12.76,-6.97 117.07,-95.41 130.62,-121.32 -12.39,-43.55 -62.12,-76.45 -66.95,-107.41 -4.85,-31.53 35.22,-98.87 56.69,-113.38l101.19 -10.06c31.16,-48.96 20.32,-166.21 2.14,-195.83l-99.85 -7.55c-6.38,-12.95 -51.86,-106.23 -53.41,-118.81 -4.64,-37.91 50.3,-66.95 62.89,-111.06 -0.77,-14.71 -119.98,-125.96 -140.87,-123.84 -34.64,15.09 -55.34,58.43 -91.51,62.12 -26.33,2.71 -87.66,-24.59 -109.53,-37.75 -8.52,-114.54 24.38,-130.6 -100.63,-131.37 -124.22,-0.97 -102.93,13.16 -105.44,134.67zm0 0z"/>
    <path class="fil1" d="M5417.95 3269.02c-13.55,-87.66 113.39,-91.53 123.65,-14.53 12.37,91.14 -112.82,85.73 -123.65,14.53zm-65.02 -1237.63c-23.61,-79.33 103.33,-99.08 118.63,-28.25 17.01,78.76 -101.8,85.15 -118.63,28.25zm-2061.53 -1730.27c55.53,52.63 52.23,64.82 90.56,138.94l43.92 116.68c25.72,79.14 14.12,39.09 150.34,89.98 9.1,21.28 -6.97,17.99 15.11,43.53 17.99,21.1 16.04,12.58 16.43,59.59 19.36,-14.12 14.51,-5.22 26.52,-28.23l216.33 0c36.96,-71.41 43.92,-27.1 88.82,-65.21 1.16,-0.98 2.51,-2.91 3.67,-3.88 34.82,-29.02 25.53,-2.9 51.86,-46.06 7.94,10.06 2.13,-1.55 6.57,14.14 8.12,27.28 1.55,9.66 -0.19,7.73l23.03 -28.83c22.64,-29.6 15.28,-10.63 40.25,-30.39l22.64 -24.95c0.77,-0.77 2.51,-2.14 3.29,-2.72 0.77,-0.58 2.51,-1.93 3.28,-2.51l35.8 -23.42 64.62 27.3c-34.43,-12.58 -9.28,1.93 -17.59,-18.57l-114.94 -68.69c-43.92,25.91 -119.39,105.64 -166.21,149.36 -105.47,98.5 -80.7,83.99 -207.05,45.66 -0.4,-6.75 74.68,-334.54 101.77,-366.67 133.71,9.87 366.3,116.3 486.07,166.22 85.33,35.61 339.41,190.4 384.49,260.83 -12.39,52.05 -107.78,135.25 -139.7,188.48l27.86 25.72c93.25,62.7 144.92,153.84 176.66,182.68 31.55,-8.71 144.16,-131.98 211.11,-141.26 52.23,41.2 249.42,338.04 289.09,414.09 67.14,129.06 152.47,349.27 174.53,522.45 -1.74,1.53 -4.25,2.9 -5.62,3.66l-31.73 16.65c-40.82,20.89 -40.63,43.92 -64.24,68.5l-261.23 -2.13c-56.69,-94.44 12.58,-133.9 59.99,-189.83l142.04 -153.44c-40.25,-87.27 -178.42,-300.89 -227.36,-374.22 -69.09,-2.9 -138.36,8.89 -206.28,17.99 -91.33,12.38 -137.78,30.76 -178.01,-13.93 -289.3,-321.01 -223.3,-138.17 -188.29,-438.28 11.42,-97.71 28.83,-174.53 -29.6,-177.43l-8.71 0.97c36.96,43.72 -8.89,-36.77 7.74,12.77 5.61,17.02 3.1,-3.88 5.24,21.29 0,0.18 -2.9,41.2 -3.3,45.45 -10.65,142.24 -10.07,102.17 -38.51,236.07 -11.61,54.97 -24.77,111.47 29.41,147.46 22.26,14.69 26.7,3.48 54.95,15.09 30.58,12.58 107.79,94.43 133.53,128.49 24.56,32.69 31.73,93.06 86.68,87.07 67.93,-7.17 249.42,-51.67 320.04,-54.18 14.32,35.59 35.03,25.35 47.42,76.03 14.51,30.58 41.4,62.31 53.59,99.66 23.42,33.66 89.21,133.51 58.82,179.19l-81.65 99.45c-29.8,40.84 -62.3,63.28 -96.94,107l-19.36 25.16c-4.64,4.25 -14.7,10.06 -17.6,12.19 -3.48,124.22 25.35,26.9 66.95,175.31 12.38,43.53 37.93,95.79 59.6,181.12 16.83,66.95 6.77,71.39 128.28,111.25 64.44,21.29 128.88,35.03 180.16,61.35l-6.96 148.02 1.74 81.67c1.74,16.06 4.44,149.57 -8.14,169.11 -15.67,23.8 -130.42,38.89 -216.13,70.81 -83.02,30.97 -58.06,-5.22 -100.62,129.07 -10.46,54.18 -32.31,104.69 -43.15,166.4l-4.85 136.24c5.62,38.12 4.27,11.8 15.48,42.77 32.9,-9.1 16.07,10.63 15.88,-22.66 -9.68,-65.21 -48.77,-65.39 118.23,-67.53 65.4,-0.77 148.02,-6.38 211.3,0.79 37.14,43.53 43.34,93.25 120.55,91.14 137.96,-3.88 141.63,-205.31 5.99,-223.51 -49.72,-6.57 -80.11,13.37 -102.93,50.7 -6.01,9.68 -14.14,29.23 -31.16,32.71l-292.19 0.77c0.97,-75.27 29.99,-200.27 52.06,-268.18 57.07,-26.14 311.91,-102.19 327,-123.45 15.88,-22.66 12.59,-396.48 7.55,-447.39 -48.75,-39.07 -324.31,-99.06 -338.82,-112.8 -15.48,-29.41 -49.53,-199.88 -43.92,-239.36l250.58 -8.31c18.57,35.21 21.68,59.4 57.48,73.91 65.97,26.7 154.4,-12.58 140.47,-124.22 -6.18,-50.51 -32.5,-50.51 -67.14,-69.27 -20.12,-268.78 -183.83,-599.86 -330.11,-809.61 -30.76,-44.31 -154.21,-186.15 -185.37,-200.27 -54.36,25.35 -136.8,123.06 -188.66,138.55 -24.37,-17.41 -142.42,-131 -143.39,-153.06 -0.77,-18.38 93.85,-134.87 118.43,-160.03l23.22 -28.44c-33.1,-66.18 -352.16,-254.85 -438.66,-297.98 -86.68,-43.16 -445.25,-186.35 -547.6,-181.91 -18.2,27.88 -84.95,340.95 -120.74,405 -21.1,0 -156.35,-34.06 -177.25,-41.21l-115.72 -351.97 -52.25 6.96 4.85 58.82zm0 0z"/>
    <path class="fil2" d="M1440.97 2652.33c-21.86,53.02 -8.33,112.43 -8.91,164.47l-119.76 10.64c-3.11,48.37 3.85,34.63 -19.17,63.86 -51.08,64.23 -35.02,65.98 -127.71,114.56 -10.45,-19.36 -12,-31.15 -21.29,-53.6 -12.37,-29.81 -14.32,-32.71 -46.05,-34.64 21.1,22.45 -27.09,-23.61 13.55,11.22 40.26,34.44 16.25,30.57 40.26,89.79 61.72,151.5 34.24,69.06 66.37,229.48 17.2,86.49 32.1,99.65 -15.3,118.81 -15.09,-17.23 -19.92,27.87 -11.03,-34.25 -31.15,42.58 -60.96,83.02 -89.79,121.9 -29.99,40.44 -71.78,76.63 -96.55,119 39.09,-13.14 8.91,-5.8 20.13,4.85 -12.58,63.47 74.1,121.13 98.29,186.14 11.61,31.73 23.81,69.47 39.28,102.74 5.61,11.82 17.22,34.84 25.93,42.58 28.64,24.77 -6.57,1.93 39.48,15.09 55.14,16.06 165.24,12.39 228.32,-8.52 54.18,-17.99 -3.67,-17.6 77.02,-27.28 19.74,-2.32 48.57,-11.03 69.85,-1.55 1.35,0.58 3.3,1.74 4.65,2.52 75.65,43.16 -10.08,7.16 71.78,31.16 2.32,0.77 8.33,3.87 15.87,6.96 3.49,-42.38 -2.32,-4.45 8.52,-31.15 1.54,-4.06 9.66,-21.1 14.12,-29.23 -21.1,-46.63 -257.75,-272.05 -314.63,-521.09 -76.81,-16.44 -148.99,-28.63 -145.71,-123.45 2.53,-70.81 71.01,-139.9 151.52,-115.31 54.37,16.43 111.06,101.19 73.73,169.88 -27.68,50.89 -64.63,25.93 19.34,189.24 54.18,105.47 143.58,224.07 221.37,313.86 48.95,56.69 212.27,233.94 282.5,267.6 10.25,-11.03 -4.44,-6.57 35.42,6.01 -8.52,-25.16 -4.85,-13.56 8.31,-35.42 54.18,-89.01 -27.09,-73.53 -55.92,-138.92 -55.35,-21.68 -166.61,-168.16 -217.29,-235.3 -33.48,-44.11 -61.35,-101.4 -87.29,-145.9 -131.18,-224.65 -132.15,-193.69 -202.77,-482.77 -14.7,-59.99 -34.25,-128.31 -42,-186.55 -8.52,-64.05 8.71,-192.71 0.58,-226.39l-9.1 0.21 4.08 48.75zm0 0z"/>
    <path class="fil0" d="M2368.41 2979.14c-47.21,-24.37 -46.63,-82.04 -85.73,-64.81 -30.76,42.95 11.03,72.56 38.31,104.3 38.51,44.87 51.28,33.47 46.45,118.02 -37.54,-19.54 -29.81,-35.4 -74.31,-45.27 5.23,131.96 8.33,69.85 72.18,109.71l2.71 77.01c-20.31,-9.08 -118.04,-108.74 -133.71,-127.89 -47.22,-57.48 11.02,-207.05 -66.95,-178.03 -5.99,8.12 -5.23,3.69 -8.9,18.38 -3.48,14.14 -2.71,14.14 -2.13,29.02 0.58,19.55 4.06,30.2 3.67,52.26 -44.3,-31.74 -87.27,-121.72 -134.86,-91.91 -25.93,40.05 3.28,52.05 26.51,73.91 26.12,24.57 46.25,36.38 60.57,68.7l-98.68 -3.69c-20.34,96.17 106.22,57.47 170.07,65.02 23.81,20.71 35.79,31.15 46.82,56.9l-70.43 8.5c-10.24,36 26.51,36 29.04,76.63 -142.24,17.99 -126.75,-128.68 -213.83,-92.1 -14.12,56.88 29.41,45.08 51.86,89.38 -49.33,2.53 -105.46,-7.73 -146.48,5.24 -27.86,85.32 83.2,52.63 150.73,54.37 -26.7,45.27 -80.67,47.01 -63.84,102.36 89.58,23.42 111.64,-149.97 232,-95.39 -10.07,51.86 -63.86,36.37 -63.65,78.16l87.06 9.1c-45.27,140.29 -253.28,-17.41 -218.85,122.29l91.91 -4.25c-26.88,55.14 -121.69,96.74 -75.84,138.92 37.72,31.55 100.24,-69.64 139.51,-94.81l-6.77 110.88 43.53 2.5c35.42,-81.64 -17.21,-186.32 79.15,-221.74l7.92 85.15c46.06,-2.53 24.77,-27.49 77.4,-42.97 -0.77,113.78 3.5,56.32 -78.17,157.14 -39.85,49.14 -8.89,97.89 33.67,49.72 19.75,-22.26 15.11,-26.32 43.55,-39.48 0,37.53 -23.43,155.58 34.05,147.83 47.99,-6.57 21.29,-112.62 27.86,-154.4 37.35,15.67 38.89,82.43 80.5,65.39 38.7,-31.73 -14.9,-82.43 -37.93,-109.71 -49.54,-59.41 -49.54,-20.31 -44.12,-124.22 38.51,8.12 42.18,55.53 83.98,54.95 7.55,-32.9 4.25,-62.89 18.76,-86.29 121.92,44.87 6.01,221.54 111.08,215.36 15.09,-38.33 -0.39,-65.21 5.62,-106.81 58.82,24.96 74.49,123.83 143.56,90.56 18.78,-66.58 -60.94,-70.44 -88.22,-133.32 62.29,0.37 126.54,25.93 101.01,-46.06 -47.03,-13.55 -101.4,-2.9 -152.1,-8.33 -26.91,-3.09 -78.95,-49.52 -77.59,-74.1l118.03 -5.62c-6.78,-41.41 -29.23,-34.64 -34.64,-83.39l56.69 -0.97c23.03,34.63 90.77,111.45 135.06,113.77 50.91,-55.92 -32.1,-65 -43.71,-108.94 42.76,-1.35 140.28,15.11 145.11,-28.05 6.2,-53.41 -104.67,-32.31 -146.27,-31.73 23.59,-50.7 76.23,-46.06 46.43,-97.73 -80.69,-27.07 -95.6,108.76 -183.44,99.86 4.06,-10.26 11.03,-22.07 13.93,-30.2 5.61,-14.9 3.69,-0.76 4.64,-16.06 3.69,-61.52 -69.27,-10.82 -99.06,49.17l-89.21 -10.26 35.98 -34.85c19.55,-13.14 38.33,-15.85 62.52,-27.67 2.32,-26.7 -24.96,-53.79 27.86,-67.53 58.82,-15.09 234.14,4.46 195.23,-59.78 -15.28,-25.54 -87.45,-3.11 -116.68,-1.55l25.75 -33.67c53.21,-51.46 80.69,-57.27 65,-112.61 -62.31,-29.22 -95.97,60.36 -141.45,95 -2.32,-41.21 11.24,-69.65 -1.92,-108.55 -85.73,-6.78 -23.61,121.13 -75.47,184.41 -14.7,17.99 -48.96,46.24 -70.23,65.58 -22.07,20.34 -41.99,55.16 -69.87,63.86l0.39 -75.07c39.28,-19.94 26.12,3.29 55.16,-41.21 16.64,-25.93 19.34,-47.22 10.05,-71.41 -49.14,-3.48 -31.54,16.84 -64.81,28.05 -2.33,-71.01 18.18,-65.58 58.24,-111.06 20.89,-23.61 82.43,-80.3 14.7,-108.16 -32.32,19.92 -40.44,62.89 -72.76,81.84 -5.61,-40.63 22.45,-157.89 -25.72,-161.95 -56.32,-4.64 -33.87,119.19 -33.48,154.4zm0 0z"/>
    <path class="fil1" d="M1624.79 1857.82c-31.74,42.38 -43.53,111.84 -70.25,156.35 -32.31,53.99 -44.5,102.16 -59.98,175.12 -19.34,90.36 -70.81,313.28 -48.57,414.08 8.13,33.68 -9.1,162.34 -0.58,226.39 7.75,58.24 27.3,126.56 42,186.55 70.62,289.08 71.59,258.12 202.77,482.77 25.94,44.5 53.81,101.79 87.29,145.9 50.68,67.14 161.94,213.62 217.29,235.3 55.53,14.51 87.84,84.75 148.61,130.02l118.03 70.83c38.9,20.13 75.28,26.12 111.08,47.8 95.97,57.85 161.57,65.79 215.36,94.99 42.18,22.84 -2.14,18.78 48.17,25.17 22.84,2.9 57.66,4.64 76.63,6.19 23.61,1.74 51.28,1.16 75.26,1.35 9.31,0 23.42,0 32.13,0.39 32.71,1.16 -1.35,10.24 22.63,0.38l1.17 -33.27c-95,-26.32 -188.46,-42.97 -280.57,-74.89 -242.27,-83.78 -480.08,-242.45 -641.26,-422.22 -109.52,-122.09 -203.94,-272.26 -271.28,-437.89 -43.34,-106.42 -158.48,-436.34 -139.71,-565.6l996.9 -5.6c18.2,-14.71 -27.09,-13.35 35.42,-14.9 -36.37,6.38 -24.97,1.74 -29.41,-15.88 -12.77,-51.65 5.81,-12.77 17.99,-52.23l3.3 -13.75c7.54,-12.58 14.7,-14.11 34.82,-13.53 -101.77,-10.07 -252.9,-12 -356.22,-9.31 -92.88,2.33 -288.51,33.1 -362.82,-2.11l-339.21 0c-14.7,-204.34 64.44,-439.82 125.01,-606.24 69.08,-189.43 166.4,-319.27 279.02,-460.14 95.2,-119.39 279.03,-260.07 409.45,-330.69 174.73,-94.62 327.39,-144.74 544.7,-186.34l38.89 -15.48 -25.75 -49.34c-0.95,0 -3.27,0 -4.43,0 -1.95,0 -24.77,2.12 -29.81,2.72 -70.82,7.54 -273.79,44.11 -331.66,72.94 -20.31,10.05 -11.8,13.54 -39.65,28.07 -31.74,16.04 -31.94,4.06 -80.3,31.92l-201.06 100.23c-81.27,55.53 -175.5,163.11 -181.31,167.17 -70.82,51.68 -59.21,65.21 -105.07,97.73 -17.8,12.57 -10.26,4.44 -20.7,15.86 -3.48,3.67 4.64,-5.22 -6.39,8.13l-157.11 204.91c-19.74,31.34 -31.74,58.64 -48.77,86.31 -39.47,63.66 -18.18,65.4 -52.05,93.84zm0 0z"/>
    <path class="fil0" d="M3722.51 2949.15c232.59,-35.98 425.13,136.43 454.33,340.37 32.13,224.27 -124.41,422.41 -330.87,457.23 -238.02,40.07 -433.65,-130.42 -462.09,-334.36 -34.44,-248.65 130.42,-430.93 338.63,-463.24zm-25.74 -137.76c-311.72,55.93 -492.84,325.66 -451.62,616.88 39.08,275.93 302.05,506.96 612.82,459.55 278.83,-42.57 497.86,-301.09 457.04,-616.87 -35.79,-274.77 -301.67,-516.27 -618.24,-459.56zm0 0z"/>
    <path class="fil3" d="M1305.89 2038.35c-7.73,22.64 13.56,12.77 -16.43,14.72l-13.35 -56.13 -22.84 18.01c-10.83,5.99 -3.09,-6.2 -29.6,7.15 -22.45,42.95 -42.77,103.52 -58.44,144.93 -32.52,85.15 -18.38,74.7 -29.41,123.06 -21.68,95.2 -286.37,74.12 -307.66,148.81l2.32 399.96c18.97,10.07 243.8,78.18 267.6,78.76 31.73,1.93 33.68,4.83 46.05,34.64 9.29,22.45 10.84,34.24 21.29,53.6 92.69,-48.58 76.63,-50.33 127.71,-114.56 23.02,-29.23 16.06,-15.49 19.17,-63.86l119.76 -10.64c0.58,-52.04 -12.95,-111.45 8.91,-164.47l-382.17 -3.09c-73.71,147.25 -228.9,90.56 -221.35,-29.23 4.06,-61.33 50.12,-101.19 109.52,-107.39 85.32,-8.89 91.33,37.73 120.35,93.07l369.57 -2.11 9.1 -0.21c-22.24,-100.8 29.23,-323.72 48.57,-414.08 15.48,-72.96 27.67,-121.13 59.98,-175.12 26.72,-44.51 38.51,-113.97 70.25,-156.35 8.12,-52.05 36.19,-66.75 30.76,-103.52l-17.99 -44.11c-18,-30.57 12.58,-11.62 -30.95,-23.81 11.61,-27.28 4.64,-11.03 -1.95,-40.82 -12.95,10.45 0.58,-6.01 -16.25,17.21 0,0.2 -8.12,14.32 -8.31,14.71l-49.93 99.85c-16.83,34.24 -53.61,103.33 -55.14,140.87 0,0 114.54,91.53 4.83,171.62 -61.91,45.29 -153.63,-2.69 -173.97,-51.47zm0 0z"/>
    <path class="fil3" d="M4241.66 4039.9c86.5,-43.13 236.09,-236.25 299.93,-320.82 46.05,-60.55 79.72,-114.73 119.78,-189.43 18.76,-34.82 90.56,-172.79 96.37,-215.36 -34.45,-34.83 -85.55,-71.99 -43.35,-146.86 25.54,-45.68 84.16,-83.41 147.63,-57.66 43.15,17.41 88.82,69.85 76.23,135.83 -13.72,71.78 -64.23,79.72 -137.38,84.56l-22.63 54.56c25.74,4.64 5.03,3.09 24,33.29 29.79,0.77 73.52,-3.11 101,4.83 34.83,9.87 12.01,8.7 33.48,35.03 10.26,12.77 23.03,10.63 45.27,45.08l28.25 31.74c1.37,0.97 3.3,2.13 4.64,3.08l117.84 117.65 21.29 -26.3c30.97,-50.91 -21.08,-75.09 -73.92,-142.63 -23.79,-30.18 -130.6,-149.36 -133.5,-164.66l76.05 -259.09c2.69,-5.62 5.59,-10.64 8.7,-15.49 1.35,-2.11 5.81,-8.12 7.15,-9.86l7.75 -9.87c42.56,-134.29 17.6,-98.1 100.62,-129.07 85.71,-31.92 200.46,-47.01 216.13,-70.81 12.58,-19.54 9.88,-153.05 8.14,-169.11 -1.55,1.34 -3.3,3.48 -4.08,4.43l-11.03 13.56c-77.98,102.35 -163.5,70.43 -217.48,-33.29l-370.56 1.55c-0.58,68.11 4.45,170.28 -9.29,234.72 -22.63,105.07 -69.46,300.31 -110.29,385.06l-130.03 250.77c-19.15,24.58 -36.19,54.38 -51.46,68.89 -10.84,10.45 -29.42,21.48 -30.97,25.15 -4.46,11.42 1.74,13.35 -14.7,40.06 -9.28,15.09 -13.95,19.92 -25.55,35.59 -22.25,30 -13.93,29.42 -41.4,57.48 -48.77,49.35 -15.11,24.38 -103.33,108.16l-66.95 76.25c-0.97,1.17 -2.52,2.91 -3.68,3.86 -0.98,1.16 -2.51,2.72 -3.67,3.88 -7.55,8.31 -7.17,7.35 -13.93,16.25 -7.94,10.44 -13.16,22.26 -21.87,31.54 9.68,0.38 43.53,-0.39 49.91,1.17 56.9,13.74 -11.21,59.4 28.83,45.66l35.43 -17.04c-7.36,15.3 -6.59,18.01 -13.37,27.67zm0 0z"/>
    <path class="fil4" d="M3782.69 2484.18c-21.87,-16.26 -29.21,-31.73 -49.54,-55.92l-47.78 -52.44c-0.98,-0.97 -2.72,-3.09 -3.69,-4.83 11.61,-28.46 81.46,-120.18 108.55,-135.45 23.61,28.43 82.04,96.94 98.5,127.89 -15.09,27.29 -83.6,108.75 -106.04,120.75zm-53.03 -922.02c9.29,-49.92 33.87,-159.44 60.57,-188.48l52.25 189.24 -112.82 -0.76zm-292.75 138.93l-5.81 89.78c7.15,33.47 -7.36,13.93 16.07,25.74 48.17,24.19 38.69,-52.44 41.2,-79.53l183.84 -3.88 -0.4 192.54 -118.81 78.75c-25.72,16.06 -41.41,25.93 -69.08,37.35 -27.28,11.42 -51.66,16.25 -67.53,42.96 -4.44,31.74 -7.16,73.71 4.45,103.91l45.48 3.09 7.36 -92.11 190.98 -3.09c6.57,73.52 -39.09,292.57 -60.38,383.32 -7.36,31.73 -11.21,41.02 4.83,61.93 68.9,1.93 28.83,-67.92 60.38,-108.57 68.51,46.06 90.95,190.61 172.79,57.87 17.43,-28.25 43.36,-52.63 61.14,-70.25 10.66,14.7 14.14,43.35 18.78,65.79 7.94,40.44 2.32,51.28 41.42,52.26l5.99 -12.21c8.12,-30.76 -23.61,-172.6 -29.23,-207.82l-25.53 -160.78c-0.77,-5.62 -3.09,-24 -3.09,-28.65l6.19 -31.92 191.76 -3.87c3.67,35.98 -8.92,104.49 41.41,89.79 32.11,-9.29 24.38,-62.89 16.04,-112.24 -39.46,-27.86 -91.14,-47.99 -133.69,-72.57 -37.74,-21.66 -89.21,-63.26 -127.14,-80.48 -8.9,-45.67 -10.45,-141.06 -2.51,-186.74 46.24,-0.95 142.42,-8.31 181.88,3.69 6.01,48.17 -13.16,93.07 51.47,75.65 14.14,-28.43 7.94,-71.79 5.04,-103.9 -71.41,-52.63 -172.02,-79.93 -238.39,-129.65 -27.67,-20.71 -41.02,-91.14 -51.86,-126.73l-38.12 -122.69c-8.89,-17.41 -2.51,-8.31 -16.06,-20.71 -44.88,3.3 -47.02,29.6 -74.29,115.91 -7.36,23.61 -31.16,139.52 -36.59,151.13 -15.48,33.08 -97.71,49.54 -124.03,62.68 -36.75,18.38 -96.16,40.83 -125.96,64.25zm0 0z"/>
    <path class="fil1" d="M1205.09 4249.85c78.96,-29.2 91.52,92.12 24.77,110.69 -71.22,19.73 -101.21,-82.62 -24.77,-110.69zm1645.33 417.96l-17.42 -82.23 -17.61 69.85c-28.84,-16.46 -13.35,5.8 -43.53,-20.31 -54,-47.22 -41.23,-29.42 -139.33,-50.51 -125.2,-26.89 -155.38,-75.08 -248.45,-64.24 -81.66,9.68 -13.16,-39.49 -87.65,-21.47 -43.55,10.63 -75.08,-5.81 -109.71,40.62 -0.98,1.16 -2.14,3.09 -3.11,4.46 -33.08,45.85 -26.12,26.88 -53.02,34.43l-18 6.98c7.55,-27.67 15.67,-25.74 9.5,-37.56l-20.9 12.4c-16.64,10.05 5.23,-0.39 -19.36,11.21 -141.44,67.74 -242.06,-150.52 -77,-205.49l-3.11 -251.93c-23.21,-21.86 -52.23,-38.11 -76.42,-58.24 -56.11,-46.24 -182.09,-177.45 -206.47,-187.9 -4.46,8.13 -12.58,25.17 -14.12,29.23 -10.84,26.7 -5.03,-11.23 -8.52,31.15 -7.54,-3.09 -13.55,-6.19 -15.87,-6.96 -81.86,-24 3.87,12 -71.78,-31.16 -1.35,-0.78 -3.3,-1.94 -4.65,-2.52 -21.28,-9.48 -50.11,-0.77 -69.85,1.55 -80.69,9.68 -22.84,9.29 -77.02,27.28 -63.08,20.91 -173.18,24.58 -228.32,8.52 -46.05,-13.16 -10.84,9.68 -39.48,-15.09 -8.71,-7.74 -20.32,-30.76 -25.93,-42.58 -15.47,-33.27 -27.67,-71.01 -39.28,-102.74 -24.19,-65.01 -110.87,-122.67 -98.29,-186.14 -11.22,-10.65 18.96,-17.99 -20.13,-4.85 -42.57,34.06 -11.79,61.93 7.94,103.91 49.14,105.27 107.39,206.65 175.69,298.77 110.5,9.68 251.94,-62.89 351.6,-48.96 -1.16,51.47 -177.64,181.3 -251.36,278.83 -73.73,-2.32 -112.43,-28.44 -158.09,32.31 -70.62,93.86 46.24,244.2 156.34,148.81 61.54,-53.4 31.16,-82.44 27.86,-154.03 64.26,-42.18 207.05,-216.92 256.98,-238.76 15.86,7.54 194.66,187.29 209.35,203.17l-44.87 339c23.59,26.12 388.33,244.38 401.31,242.85 51.07,-25.35 92.48,-77.03 124.61,-110.88 145.9,-154.23 112.22,-135.64 297.8,-80.11 242.84,72.94 157.88,-34.64 226.97,196.98 7.93,26.51 15.67,50.12 22.44,75.47 21.68,81.46 16.25,55.73 42.95,66.76l-2.69 -259.88zm0 0z"/>
    <path class="fil3" d="M4718.83 1717.53l66.95 153.45c152.1,25.16 158.09,171.44 57.09,217.1 -47.8,21.68 -121.32,3.3 -145.91,-35.22 -39.46,-61.91 8.33,-116.09 30.2,-149.75 -7.54,-32.9 -51.09,-155.59 -81.27,-179.57 10.05,58.83 29.99,55.92 18.18,99.27 -0.96,3.48 -7.92,16.43 -11.61,23.98 -39.47,78.76 -5.8,128.1 18.2,205.7 71.41,229.48 74.49,222.91 95,461.87 5.42,65.4 -10.83,106.23 2.32,130.42l2.13 -56.69 370.18 -0.2c25.33,-37.73 43.34,-77.77 105.83,-83 30.76,-2.53 53.79,5.41 73.15,19.73 10.05,7.34 14.7,12.77 22.24,21.67l27.88 30.57 6.96 -148.02c-51.28,-26.32 -115.72,-40.06 -180.16,-61.35 -121.51,-39.86 -111.45,-44.3 -128.28,-111.25 -21.67,-85.33 -47.22,-137.59 -59.6,-181.12 -41.6,-148.41 -70.43,-51.09 -66.95,-175.31 2.9,-2.13 12.96,-7.94 17.6,-12.19l19.36 -25.16c34.64,-43.72 67.14,-66.16 96.94,-107l81.65 -99.45c30.39,-45.68 -35.4,-145.53 -58.82,-179.19 -28.05,-11.79 -12.77,18.57 -24.17,-28.25 -16.46,20.12 2.9,14.71 -28.84,28.06 -35.03,14.7 -39.48,45.85 -61.35,89.2 -6.38,12.78 4.06,-5.02 -5.22,9.86l-36.75 29.41c-18.39,12.01 -7.57,19.76 -22.85,38.7 -15.87,19.55 -14.32,-4.43 -28.83,31.74 -16.25,40.25 15.49,21.68 -28.25,46.26 -28.25,15.67 -18.38,17.41 -39.67,36.56 -42.56,-17.8 37.54,15.09 -14.7,-12.76 -10.07,-5.43 7.15,-9.5 -10.45,-2.51 -18.19,7.34 -8.91,-1.37 -13.92,28.62 -5.43,-11.6 -2.14,-9.28 -13.17,-12.95 -4.64,-1.56 -11.6,5.01 -31.73,-17.62l-19.36 -23.61zm0 0z"/>
    <path class="fil1" d="M679.94 3284.11c-18.58,-88.82 94.04,-97.15 111.84,-34.06 20.9,74.1 -98.89,96.16 -111.84,34.06zm86.29 -1291.81c62.89,-54.56 130.42,-15.28 116.3,43.34 -12.58,52.83 -118.81,61.15 -116.3,-43.34zm450.28 -1123.07c67.33,-47.4 138.34,55.74 78.75,91.93 -74.68,45.08 -130.23,-55.55 -78.75,-91.93zm-24.58 2463.44c-8.89,62.12 -4.06,17.02 11.03,34.25 47.4,-19.16 32.5,-32.32 15.3,-118.81 -32.13,-160.42 -4.65,-77.98 -66.37,-229.48 -24.01,-59.22 0,-55.35 -40.26,-89.79 -40.64,-34.83 7.55,11.23 -13.55,-11.22 -23.8,-0.58 -248.63,-68.69 -267.6,-78.76l-2.32 -399.96c21.29,-74.69 285.98,-53.61 307.66,-148.81 11.03,-48.36 -3.11,-37.91 29.41,-123.06 15.67,-41.41 35.99,-101.98 58.44,-144.93 14.9,-36.77 41.41,-51.86 26.32,-97.52 -16.06,-48.38 -84.76,-117.84 -117.07,-154.42 -25.56,-28.83 -33.29,-50.1 -58.83,-77.77 -67.34,-73.15 -24.58,-65.42 23.61,-173.76 18.18,-40.84 68.11,-145.72 78.56,-181.7 42.18,-61.15 83.39,-28.46 144.35,-17.41 91.33,16.83 212.46,61.72 274.37,30.18 37.54,-19.16 12.21,-22.26 50.12,-75.08 44.9,-63.09 -2.9,-25.74 81.67,-114.56 56.3,-59.2 140.86,-46.24 124.41,-152.29 -15.67,-101.38 -61.15,-202.59 -67.33,-304.36 30.76,-18.57 142.61,-68.3 102.54,-98.5 -49.91,7.36 -96.15,48.19 -136.59,75.86 -9.68,47.99 37.33,297.8 40.23,378.86l-172.21 160.62c-27.27,0.58 -194.46,-201.24 -265.48,-250.78 10.45,-71.99 19.92,-104.49 -38.51,-143.38 -117.65,-78.37 -213.04,75.66 -137.38,160.6 51.67,57.85 93.46,18.58 158.09,16.65 35.98,42.18 73.33,79.72 117.84,129.44 23.42,26.12 109.13,97.92 123.08,128.87 -10.08,21.28 -31.36,44.31 -48.01,59.21 -89.19,-6.38 -278.25,-67.13 -354.48,-58.43 -44.11,84.95 -187.69,320.25 -199.69,399.18 18.38,31.54 42.38,51.48 66.95,80.11 156.16,181.89 179.37,160.6 125.58,266.45l-226.78 0.4c-95.99,-169.14 -223.88,-82.64 -227.36,7.54 -2.32,62.31 32.9,109.51 92.1,114.54 75.86,6.58 98.89,-37.93 125.19,-85.13l213.83 -0.78c1.74,53.99 -30,210.14 -54,243.24 -18.96,14.51 -295.66,89.98 -319.45,101.77 -7.94,65.4 -14.14,402.47 -1.56,456.65 43.34,32.71 104.88,49.93 160.99,70.83 27.86,10.45 54.77,21.68 81.09,31.34 29.02,10.65 67.32,17.04 84.94,37.35 19.73,26.7 52.05,217.68 47.41,260.07l-286.19 3.09c-21.1,-29.6 -37.15,-63.28 -73.15,-80.11 -148.6,-69.28 -220,184.99 -69.27,202.59 49.93,5.8 81.09,-10.45 107.39,-39.47 44.5,-49.35 19.94,-39.28 110.5,-40.06 50.3,-0.38 100.61,-1.93 150.92,-3.28 49.72,-1.37 118.04,-16.06 109.52,43.92zm0 0z"/>
    <path class="fil0" d="M2006.95 4048.61c8.91,16.64 31.15,25.55 45.66,37.16l0.58 271.87c97.52,41.2 105.85,89.39 68.9,190.19 6.17,11.82 -1.95,9.89 -9.5,37.56l18 -6.98c26.9,-7.55 19.94,11.42 53.02,-34.43 0.97,-1.37 2.13,-3.3 3.11,-4.46 34.63,-46.43 66.16,-29.99 109.71,-40.62 74.49,-18.02 5.99,31.15 87.65,21.47 93.07,-10.84 123.25,37.35 248.45,64.24 98.1,21.09 85.33,3.29 139.33,50.51 30.18,26.11 14.69,3.85 43.53,20.31l17.61 -69.85 17.42 82.23 -6.59 -443.68 -1.17 33.27c-23.98,9.86 10.08,0.78 -22.63,-0.38 -8.71,-0.39 -22.82,-0.39 -32.13,-0.39 -23.98,-0.19 -51.65,0.39 -75.26,-1.35 -18.97,-1.55 -53.79,-3.29 -76.63,-6.19 -50.31,-6.39 -5.99,-2.33 -48.17,-25.17 -53.79,-29.2 -119.39,-37.14 -215.36,-94.99 -35.8,-21.68 -72.18,-27.67 -111.08,-47.8l-118.03 -70.83c-60.77,-45.27 -93.08,-115.51 -148.61,-130.02 28.83,65.39 110.1,49.91 55.92,138.92 -13.16,21.86 -16.83,10.26 -8.31,35.42 -39.86,-12.58 -25.17,-17.04 -35.42,-6.01zm0 0z"/>
    <path class="fil0" d="M3653.24 3616.15c7.15,-15.09 84.18,-131 129.05,-128.87 40.07,1.93 122.11,111.64 127.91,128.87 -61.33,43.54 -212.27,42.18 -256.96,0zm325.47 -47.41c-20.52,-15.48 -88.05,-127.91 -84.18,-163.31 5.04,-46.64 28.65,-48.96 67.72,-56.32 33.87,-6.57 71.8,-19.34 106.44,-20.89 5.8,109.91 -33.69,177.82 -89.98,240.52zm-488.78 -239.16c105.65,25.92 209.16,21.67 151.5,137.18 -15.67,31.74 -32.11,78.77 -54.95,103.33 -67.72,-41.21 -100.04,-147.64 -96.55,-240.51zm209.55 45.09c-28.83,-113.8 139.32,-148.04 155.59,-43.55 18.17,117.07 -131.79,137.78 -155.59,43.55zm-187.69 -135.85c15.68,-91.14 127.13,-169.49 220.78,-182.86 0.58,39.09 -2.12,83.22 -3.67,122.87 -5.41,140.49 -194.47,71.6 -217.11,59.99zm435.95 13.74c-125.57,32.5 -123.06,-37.35 -127.52,-195.05 98.89,4.25 189.43,93.28 221.37,166.22l-93.85 28.83zm-252.32 -255.03c-461.69,119.97 -291.8,812.69 169.7,702.4 167.77,-40.24 312.49,-216.52 258.91,-434.21 -42,-171.64 -215.57,-323.53 -428.61,-268.19zm0 0z"/>
    <path class="fil5" d="M1176.26 1336.93c-10.45,35.98 -60.38,140.86 -78.56,181.7 -48.19,108.34 -90.95,100.61 -23.61,173.76 25.54,27.67 33.27,48.94 58.83,77.77 32.31,36.58 101.01,106.04 117.07,154.42 15.09,45.66 -11.42,60.75 -26.32,97.52 26.51,-13.35 18.77,-1.16 29.6,-7.15l22.84 -18.01 13.35 56.13c29.99,-1.95 8.7,7.92 16.43,-14.72 -16.25,-35.4 -7.34,-77.97 14.72,-108.55 29.81,-41.02 64.05,-33.08 108.74,-35.79 26.32,-61.34 42.18,-105.47 76.05,-163.71 14.9,-25.93 28.44,-49.73 44.89,-75.84 16.83,-27.49 35.99,-49.94 46.25,-83.41 -18.58,-9.08 6.38,-30.95 15.29,-43.34 12.77,-17.6 22.24,-34.64 35.22,-47.78 -17.04,-16.65 -5.43,0.37 -14.9,-21.49l-9.68 6.01c-1.16,0.58 -3.49,1.92 -5.04,2.69 -41.39,17.62 -32.69,-0.77 -43.92,-9.66l-40.63 -27.67c-22.84,-6.59 -13.93,2.32 -36.58,-8.71 -57.07,-28.06 11.62,-4.27 -87.64,-25.93 -56.71,-12.39 -29.04,-15.09 -118.44,-40.06 -60.94,-17.02 -52.44,-46.06 -113.96,-18.18zm0 0z"/>
    <path class="fil2" d="M4778.24 3384.72c-23.03,33.87 -78.95,205.68 -204.73,373.45 -29.39,39.09 -77,79.35 -90.35,108.55l78.55 -9.66c0.98,0 2.91,-0.2 3.88,-0.2 1.74,0 20.71,5.61 23.61,6.96 30.37,13.93 33.47,27.48 43.92,31.94 17.6,7.55 47.59,1.93 69.65,5.6 27.09,4.27 35.79,12.58 61.35,14.13 41.98,2.7 181.49,9.48 210.32,1.54 33.29,-9.08 55.16,-42.37 74.13,-74.1l24.37 -50.7c7.55,-14.12 3.67,-7.94 11.22,-25.54l53.8 -90.95c0.96,-1.54 2.33,-3.28 3.28,-4.83l40.44 -65.98 -11.03 -49.16c15.3,-16.05 -23.21,-19.34 25.93,-10.45 -29.99,-31.34 -54.95,-67.91 -78.56,-95.2 -26.69,-30.95 -57.08,-78.94 -88.42,-99.85 0.19,33.29 17.02,13.56 -15.88,22.66 -11.21,-30.97 -9.86,-4.65 -15.48,-42.77l4.85 -136.24c10.84,-61.71 32.69,-112.22 43.15,-166.4l-7.75 9.87c-1.34,1.74 -5.8,7.75 -7.15,9.86 -3.11,4.85 -6.01,9.87 -8.7,15.49l-76.05 259.09c2.9,15.3 109.71,134.48 133.5,164.66 52.84,67.54 104.89,91.72 73.92,142.63l-21.29 26.3 -117.84 -117.65c-1.34,-0.95 -3.27,-2.11 -4.64,-3.08l-28.25 -31.74c-22.24,-34.45 -35.01,-32.31 -45.27,-45.08 -21.47,-26.33 1.35,-25.16 -33.48,-35.03 -27.48,-7.94 -71.21,-4.06 -101,-4.83 -18.97,-30.2 1.74,-28.65 -24,-33.29zm0 0z"/>
    <path class="fil1" d="M3031.33 1514.94c33.68,-18.39 6.59,5.62 17.99,-27.09 2.53,-7.15 1.55,-21.87 1.74,-30 62.51,-7.15 24.4,5.62 49.93,-22.44l28.07 -27.28c0.37,4.64 0.77,16.64 1.74,20.31 11.98,45.67 -13.16,-33.47 4.25,12.98 0.77,1.93 2.32,4.45 3.09,6.19 0.78,1.74 1.94,4.25 3.29,6.18 0.19,-71.39 8.71,-130.42 12.58,-199.69 4.83,-89.77 -35.42,-174.15 3.67,-208.21 52.05,-49.52 42.18,-77.19 42.39,-161.36 0,-209.19 12.56,-440.61 8.89,-640.1l-205.88 1.35c-8.9,70.83 1.16,531.54 0.58,646.1 -0.19,58.62 -12.58,95.97 16.45,136.23 24.57,34.05 14.91,102.35 14.12,150.52 -2.12,111.85 0,224.86 -2.9,336.31zm0 0z"/>
    <path class="fil0" d="M2176.06 2091.96c12.19,-7.94 140.87,-152.29 146.09,-181.5 12.79,-70.45 -24.17,-69.47 38.33,-124.82 33.66,-29.78 60.75,-46.24 112.03,-34.82 -4.83,61.33 -53.79,38.89 -56.32,107 14.33,31.73 33.1,45.87 69.09,49.35 45.08,-25.16 38.88,-66.37 81.46,-71.02 22.63,43.53 2.9,91.33 -24.57,123.46 -71.8,83.39 -113.21,3.28 -169.69,71.97l-90.77 105.27c-5.41,5.99 -5.99,6.39 -11.4,12.96l-7.36 9.86c20.13,25.56 54.76,33.29 87.27,36.96 36.95,3.88 82.43,1.56 113,-7.15 169.51,-48.57 257.15,-294.13 89.98,-452.4 -101.21,-95.6 -258.51,-67.72 -346.94,15.09 -115.53,107.78 -96.94,287.53 -30.2,339.79zm0 0z"/>
    <path class="fil2" d="M4710.71 1699.35l8.12 18.18 19.36 23.61c20.13,22.63 27.09,16.06 31.73,17.62 11.03,3.67 7.74,1.35 13.17,12.95 5.01,-29.99 -4.27,-21.28 13.92,-28.62 17.6,-6.99 0.38,-2.92 10.45,2.51 52.24,27.85 -27.86,-5.04 14.7,12.76 21.29,-19.15 11.42,-20.89 39.67,-36.56 43.74,-24.58 12,-6.01 28.25,-46.26 14.51,-36.17 12.96,-12.19 28.83,-31.74 15.28,-18.94 4.46,-26.69 22.85,-38.7l36.75 -29.41c9.28,-14.88 -1.16,2.92 5.22,-9.86 21.87,-43.35 26.32,-74.5 61.35,-89.2 31.74,-13.35 12.38,-7.94 28.84,-28.06 11.4,46.82 -3.88,16.46 24.17,28.25 -12.19,-37.35 -39.08,-69.08 -53.59,-99.66 -14.9,-13.72 -33.47,-23.98 -55.92,-27.07 -26.9,-3.69 -105.27,32.69 -115.72,44.3l-12.19 18.38c-32.71,42.97 -27.86,1.16 -65.02,78.56 -40.44,84.94 -16.05,66.37 -21.29,162.73l-34.82 -2.51c10.65,60.38 -3.3,8.52 -16.07,56.3 4.27,-15.09 2.14,-0.77 -12.76,-8.5zm0 0z"/>
    <path class="fil5" d="M1356.41 3157.55c-85.53,28.64 -52.63,164.68 47.4,138.75 88.05,-22.85 57.66,-174.16 -47.4,-138.75zm0 0z"/>
    <path class="fil5" d="M1347.31 2016.3c18.96,85.92 158.29,60.96 131.97,-34.45 -20.71,-74.49 -156.35,-76.05 -131.97,34.45zm0 0z"/>
    <path class="fil3" d="M922.97 2564.28c-71.2,28.64 -40.05,176.29 61.33,124.24 84.76,-43.34 15.49,-155.19 -61.33,-124.24zm0 0z"/>
    <path class="fil5" d="M5190.01 2650.19c21.08,59.8 164.27,46.45 126.94,-55.71 -28.65,-78.56 -159.46,-36.19 -126.94,55.71zm0 0z"/>
    <path class="fil0" d="M2273.01 897.29c-81.46,34.06 -37.73,148.81 52.25,122.49 80.11,-23.41 32.69,-158.09 -52.25,-122.49zm0 0z"/>
    <path class="fil5" d="M4857.58 2021.92c43.72,-77.98 -77.79,-138.17 -117.65,-66.37 -54.95,98.68 87.45,119.97 117.65,66.37zm0 0z"/>
    <path class="fil5" d="M4790.42 3159.29c-78.35,59.98 5.23,147.45 69.09,114.95 77,-39.28 -3.48,-165.05 -69.09,-114.95zm0 0z"/>
    <path class="fil0" d="M2083.97 4499.27c40.81,-79.91 -67.93,-133.7 -105.46,-69.65 -49.94,84.74 69.66,140.08 105.46,69.65zm0 0z"/>
    <path class="fil2" d="M4120.34 737.65c-72.57,32.13 -34.82,146.3 50.7,113.59 69.85,-26.7 32.71,-150.34 -50.7,-113.59zm0 0z"/>
    <path class="fil0" d="M3930.33 4287.6c15.67,58.8 136.61,63.26 122.1,-28.46 -12.39,-77.4 -145.9,-61.15 -122.1,28.46zm0 0z"/>
   </g>
  </g>
 </g>
</svg>
